%TF.GenerationSoftware,KiCad,Pcbnew,9.99.0-unknown-b0b07bbc41~182~ubuntu22.04.1*%
%TF.CreationDate,2025-09-05T13:50:01+09:00*%
%TF.ProjectId,TurtlePico,54757274-6c65-4506-9963-6f2e6b696361,rev?*%
%TF.SameCoordinates,Original*%
%TF.FileFunction,Copper,L2,Bot*%
%TF.FilePolarity,Positive*%
%FSLAX46Y46*%
G04 Gerber Fmt 4.6, Leading zero omitted, Abs format (unit mm)*
G04 Created by KiCad (PCBNEW 9.99.0-unknown-b0b07bbc41~182~ubuntu22.04.1) date 2025-09-05 13:50:01*
%MOMM*%
%LPD*%
G01*
G04 APERTURE LIST*
G04 Aperture macros list*
%AMRoundRect*
0 Rectangle with rounded corners*
0 $1 Rounding radius*
0 $2 $3 $4 $5 $6 $7 $8 $9 X,Y pos of 4 corners*
0 Add a 4 corners polygon primitive as box body*
4,1,4,$2,$3,$4,$5,$6,$7,$8,$9,$2,$3,0*
0 Add four circle primitives for the rounded corners*
1,1,$1+$1,$2,$3*
1,1,$1+$1,$4,$5*
1,1,$1+$1,$6,$7*
1,1,$1+$1,$8,$9*
0 Add four rect primitives between the rounded corners*
20,1,$1+$1,$2,$3,$4,$5,0*
20,1,$1+$1,$4,$5,$6,$7,0*
20,1,$1+$1,$6,$7,$8,$9,0*
20,1,$1+$1,$8,$9,$2,$3,0*%
G04 Aperture macros list end*
%TA.AperFunction,ComponentPad*%
%ADD10C,5.600000*%
%TD*%
%TA.AperFunction,ComponentPad*%
%ADD11C,2.704000*%
%TD*%
%TA.AperFunction,ComponentPad*%
%ADD12R,1.700000X1.700000*%
%TD*%
%TA.AperFunction,ComponentPad*%
%ADD13O,1.700000X1.700000*%
%TD*%
%TA.AperFunction,ComponentPad*%
%ADD14C,1.700000*%
%TD*%
%TA.AperFunction,ComponentPad*%
%ADD15O,1.800000X1.000000*%
%TD*%
%TA.AperFunction,ComponentPad*%
%ADD16O,2.100000X1.000000*%
%TD*%
%TA.AperFunction,ComponentPad*%
%ADD17RoundRect,0.250000X0.725000X-0.600000X0.725000X0.600000X-0.725000X0.600000X-0.725000X-0.600000X0*%
%TD*%
%TA.AperFunction,ComponentPad*%
%ADD18O,1.950000X1.700000*%
%TD*%
%TA.AperFunction,ComponentPad*%
%ADD19RoundRect,0.250000X0.600000X0.725000X-0.600000X0.725000X-0.600000X-0.725000X0.600000X-0.725000X0*%
%TD*%
%TA.AperFunction,ComponentPad*%
%ADD20O,1.700000X1.950000*%
%TD*%
%TA.AperFunction,ViaPad*%
%ADD21C,0.800000*%
%TD*%
%TA.AperFunction,ViaPad*%
%ADD22C,1.200000*%
%TD*%
%TA.AperFunction,Conductor*%
%ADD23C,0.480000*%
%TD*%
%TA.AperFunction,Conductor*%
%ADD24C,0.500000*%
%TD*%
%TA.AperFunction,Conductor*%
%ADD25C,1.000000*%
%TD*%
%TA.AperFunction,Conductor*%
%ADD26C,0.250000*%
%TD*%
G04 APERTURE END LIST*
D10*
%TO.P,REF\u002A\u002A,1*%
%TO.N,GND*%
X117856000Y-126492000D03*
%TD*%
%TO.P,REF\u002A\u002A,1*%
%TO.N,GND*%
X173736000Y-126492000D03*
%TD*%
D11*
%TO.P,J2,R*%
%TO.N,Net-(C2-Pad1)*%
X166188000Y-94514000D03*
%TO.P,J2,S*%
%TO.N,GND*%
X171488000Y-90264000D03*
%TO.P,J2,T*%
%TO.N,Net-(C1-Pad1)*%
X166188000Y-89014000D03*
%TD*%
D12*
%TO.P,J10,1,Pin_1*%
%TO.N,Net-(IC1-BOUT1)*%
X134620000Y-124460000D03*
D13*
%TO.P,J10,2,Pin_2*%
%TO.N,Net-(IC1-BOUT2)*%
X134620000Y-127000000D03*
%TD*%
D12*
%TO.P,J9,1,Pin_1*%
%TO.N,Net-(IC1-AOUT1)*%
X156972000Y-127000000D03*
D13*
%TO.P,J9,2,Pin_2*%
%TO.N,Net-(IC1-AOUT2)*%
X156972000Y-124460000D03*
%TD*%
D12*
%TO.P,J6,1,Pin_1*%
%TO.N,+5V*%
X128965000Y-92710000D03*
D13*
%TO.P,J6,2,Pin_2*%
%TO.N,/GP8*%
X128965000Y-95250000D03*
%TO.P,J6,3,Pin_3*%
%TO.N,GND*%
X128965000Y-97790000D03*
%TO.P,J6,4,Pin_4*%
%TO.N,/GP9*%
X128965000Y-100330000D03*
%TD*%
D12*
%TO.P,J4,1,Pin_1*%
%TO.N,+5V*%
X127254000Y-119380000D03*
D13*
%TO.P,J4,2,Pin_2*%
%TO.N,Net-(J4-Pin_2)*%
X129794000Y-119380000D03*
%TD*%
D12*
%TO.P,J7,1,Pin_1*%
%TO.N,+5V*%
X149596000Y-67310000D03*
D13*
%TO.P,J7,2,Pin_2*%
%TO.N,/GP0*%
X147056000Y-67310000D03*
%TO.P,J7,3,Pin_3*%
%TO.N,Net-(J7-Pin_3)*%
X144516000Y-67310000D03*
%TO.P,J7,4,Pin_4*%
%TO.N,GND*%
X141976000Y-67310000D03*
%TD*%
%TO.P,U2,1,GPIO0*%
%TO.N,/GP0*%
X136575900Y-71770000D03*
%TO.P,U2,2,GPIO1*%
%TO.N,/GP1*%
X136575900Y-74310000D03*
D12*
%TO.P,U2,3,GND*%
%TO.N,GND*%
X136575900Y-76850000D03*
D13*
%TO.P,U2,4,GPIO2*%
%TO.N,/GP2*%
X136575900Y-79390000D03*
%TO.P,U2,5,GPIO3*%
%TO.N,/GP3*%
X136575900Y-81930000D03*
%TO.P,U2,6,GPIO4*%
%TO.N,/GP4*%
X136575900Y-84470000D03*
%TO.P,U2,7,GPIO5*%
%TO.N,/GP5*%
X136575900Y-87010000D03*
D12*
%TO.P,U2,8,GND*%
%TO.N,GND*%
X136575900Y-89550000D03*
D13*
%TO.P,U2,9,GPIO6*%
%TO.N,/GP6*%
X136575900Y-92090000D03*
%TO.P,U2,10,GPIO7*%
%TO.N,/GP7*%
X136575900Y-94630000D03*
%TO.P,U2,11,GPIO8*%
%TO.N,/GP8*%
X136575900Y-97170000D03*
%TO.P,U2,12,GPIO9*%
%TO.N,/GP9*%
X136575900Y-99710000D03*
D12*
%TO.P,U2,13,GND*%
%TO.N,GND*%
X136575900Y-102250000D03*
D13*
%TO.P,U2,14,GPIO10*%
%TO.N,/GP10*%
X136575900Y-104790000D03*
%TO.P,U2,15,GPIO11*%
%TO.N,/GP11*%
X136575900Y-107330000D03*
%TO.P,U2,16,GPIO12*%
%TO.N,/GP12*%
X136575900Y-109870000D03*
%TO.P,U2,17,GPIO13*%
%TO.N,/GP13*%
X136575900Y-112410000D03*
D12*
%TO.P,U2,18,GND*%
%TO.N,GND*%
X136575900Y-114950000D03*
D13*
%TO.P,U2,19,GPIO14*%
%TO.N,/GP14*%
X136575900Y-117490000D03*
%TO.P,U2,20,GPIO15*%
%TO.N,/GP15*%
X136575900Y-120030000D03*
%TO.P,U2,21,GPIO16*%
%TO.N,/GP16*%
X154355900Y-120030000D03*
%TO.P,U2,22,GPIO17*%
%TO.N,/GP17*%
X154355900Y-117490000D03*
D12*
%TO.P,U2,23,GND*%
%TO.N,GND*%
X154355900Y-114950000D03*
D13*
%TO.P,U2,24,GPIO18*%
%TO.N,/GP18*%
X154355900Y-112410000D03*
%TO.P,U2,25,GPIO19*%
%TO.N,/GP19*%
X154355900Y-109870000D03*
%TO.P,U2,26,GPIO20*%
%TO.N,/GP20*%
X154355900Y-107330000D03*
%TO.P,U2,27,GPIO21*%
%TO.N,/GP21*%
X154355900Y-104790000D03*
D12*
%TO.P,U2,28,GND*%
%TO.N,GND*%
X154355900Y-102250000D03*
D13*
%TO.P,U2,29,GPIO22*%
%TO.N,/GP22*%
X154355900Y-99710000D03*
%TO.P,U2,30,RUN*%
%TO.N,unconnected-(U2-RUN-Pad30)*%
X154355900Y-97170000D03*
%TO.P,U2,31,GPIO26_ADC0*%
%TO.N,unconnected-(U2-GPIO26_ADC0-Pad31)*%
X154355900Y-94630000D03*
%TO.P,U2,32,GPIO27_ADC1*%
%TO.N,/GP27*%
X154355900Y-92090000D03*
D12*
%TO.P,U2,33,AGND*%
%TO.N,unconnected-(U2-AGND-Pad33)*%
X154355900Y-89550000D03*
D13*
%TO.P,U2,34,GPIO28_ADC2*%
%TO.N,/GP28*%
X154355900Y-87010000D03*
%TO.P,U2,35,ADC_VREF*%
%TO.N,unconnected-(U2-ADC_VREF-Pad35)*%
X154355900Y-84470000D03*
%TO.P,U2,36,3V3*%
%TO.N,+3.3V*%
X154355900Y-81930000D03*
%TO.P,U2,37,3V3_EN*%
%TO.N,unconnected-(U2-3V3_EN-Pad37)*%
X154355900Y-79390000D03*
D12*
%TO.P,U2,38,GND*%
%TO.N,GND*%
X154355900Y-76850000D03*
D13*
%TO.P,U2,39,VSYS*%
%TO.N,unconnected-(U2-VSYS-Pad39)*%
X154355900Y-74310000D03*
%TO.P,U2,40,VBUS*%
%TO.N,+5V*%
X154355900Y-71770000D03*
D12*
%TO.P,U2,41,SWCLK*%
%TO.N,unconnected-(U2-SWCLK-Pad41)*%
X146050000Y-101600000D03*
D14*
%TO.P,U2,42,GND*%
%TO.N,unconnected-(U2-GND-Pad42)*%
X148590000Y-101600000D03*
D13*
%TO.P,U2,43,SWDIO*%
%TO.N,unconnected-(U2-SWDIO-Pad43)*%
X151130000Y-101600000D03*
%TD*%
D12*
%TO.P,J3,1,Pin_1*%
%TO.N,+5V*%
X161798000Y-119380000D03*
D13*
%TO.P,J3,2,Pin_2*%
%TO.N,Net-(J3-Pin_2)*%
X164338000Y-119380000D03*
%TD*%
D10*
%TO.P,REF\u002A\u002A,1*%
%TO.N,GND*%
X117856000Y-64770000D03*
%TD*%
D15*
%TO.P,J1,S1,SHIELD*%
%TO.N,GND*%
X175017500Y-77470000D03*
%TO.P,J1,S2,SHIELD*%
X175017500Y-68830000D03*
D16*
%TO.P,J1,S3,SHIELD*%
X170837500Y-77470000D03*
%TO.P,J1,S4,SHIELD*%
X170837500Y-68830000D03*
%TD*%
D10*
%TO.P,REF\u002A\u002A,1*%
%TO.N,GND*%
X173736000Y-64770000D03*
%TD*%
D12*
%TO.P,J14,1,Pin_1*%
%TO.N,/GP16*%
X167894000Y-119365000D03*
D13*
%TO.P,J14,2,Pin_2*%
%TO.N,+5V*%
X167894000Y-116825000D03*
%TO.P,J14,3,Pin_3*%
%TO.N,GND*%
X167894000Y-114285000D03*
%TD*%
D17*
%TO.P,J8,1,Pin_1*%
%TO.N,+3.3V*%
X122936000Y-107456000D03*
D18*
%TO.P,J8,2,Pin_2*%
%TO.N,GND*%
X122936000Y-104956000D03*
%TO.P,J8,3,Pin_3*%
%TO.N,/GP11*%
X122936000Y-102456000D03*
%TO.P,J8,4,Pin_4*%
%TO.N,/GP10*%
X122936000Y-99956000D03*
%TO.P,J8,5,Pin_5*%
%TO.N,/GP7*%
X122936000Y-97456000D03*
%TO.P,J8,6,Pin_6*%
%TO.N,/GP6*%
X122936000Y-94956000D03*
%TO.P,J8,7,Pin_7*%
%TO.N,/GP5*%
X122936000Y-92456000D03*
%TD*%
D12*
%TO.P,J13,1,Pin_1*%
%TO.N,GND*%
X123698000Y-80264000D03*
D13*
%TO.P,J13,2,Pin_2*%
%TO.N,+5V*%
X123698000Y-82804000D03*
%TO.P,J13,3,Pin_3*%
%TO.N,/GP2*%
X123698000Y-85344000D03*
%TD*%
D12*
%TO.P,J12,1,Pin_1*%
%TO.N,/GP28*%
X167894000Y-85344000D03*
D13*
%TO.P,J12,2,Pin_2*%
%TO.N,+5V*%
X167894000Y-82804000D03*
%TO.P,J12,3,Pin_3*%
%TO.N,GND*%
X167894000Y-80264000D03*
%TD*%
D12*
%TO.P,J15,1,Pin_1*%
%TO.N,GND*%
X123698000Y-114300000D03*
D13*
%TO.P,J15,2,Pin_2*%
%TO.N,+5V*%
X123698000Y-116840000D03*
%TO.P,J15,3,Pin_3*%
%TO.N,/GP13*%
X123698000Y-119380000D03*
%TD*%
D19*
%TO.P,J5,1,Pin_1*%
%TO.N,+5V*%
X149606000Y-123190000D03*
D20*
%TO.P,J5,2,Pin_2*%
%TO.N,GND*%
X147106000Y-123190000D03*
%TO.P,J5,3,Pin_3*%
%TO.N,/GP8*%
X144606000Y-123190000D03*
%TO.P,J5,4,Pin_4*%
%TO.N,/GP9*%
X142106000Y-123190000D03*
%TD*%
D21*
%TO.N,+5V*%
X139192000Y-89408000D03*
D22*
%TO.N,GND*%
X137668000Y-126542800D03*
D21*
X152146000Y-123698000D03*
X135636000Y-67310000D03*
X125163000Y-67604959D03*
D22*
X138938000Y-121666000D03*
D21*
X124460000Y-64770000D03*
D22*
X140462000Y-121666000D03*
X139446000Y-126542800D03*
D21*
X153670000Y-126238000D03*
%TO.N,+3.3V*%
X131146918Y-70470000D03*
X125179000Y-124655000D03*
X126238000Y-76581000D03*
X124079000Y-76581000D03*
D22*
%TO.N,+5V*%
X146380200Y-126923800D03*
X146583400Y-128117600D03*
D21*
X162560000Y-105410000D03*
X168910000Y-70358000D03*
X168910000Y-76708000D03*
%TO.N,/GP22*%
X159893000Y-121605000D03*
%TO.N,/GP19*%
X121666000Y-76454000D03*
%TO.N,/GP20*%
X122936000Y-76454000D03*
%TO.N,/GP21*%
X121158000Y-73914000D03*
X125222000Y-99822000D03*
X128524000Y-74295000D03*
%TO.N,Net-(IC1-AOUT2)*%
X145542000Y-124460000D03*
%TO.N,Net-(IC1-BOUT1)*%
X143510000Y-124460000D03*
%TO.N,+5V*%
X139192000Y-81280000D03*
%TD*%
%TO.N,GND*%
D23*
X153670000Y-124460000D02*
X153670000Y-126238000D01*
D24*
X155655900Y-113650000D02*
X155655900Y-103550000D01*
D23*
X153670000Y-124460000D02*
X152908000Y-123698000D01*
D25*
X170837500Y-68830000D02*
X175017500Y-68830000D01*
X170837500Y-77470000D02*
X175017500Y-77470000D01*
X139446000Y-126542800D02*
X139446000Y-122682000D01*
D26*
X124460000Y-66901959D02*
X125163000Y-67604959D01*
D25*
X137668000Y-126542800D02*
X137668000Y-122936000D01*
D23*
X152908000Y-123698000D02*
X152146000Y-123698000D01*
D25*
X139446000Y-122682000D02*
X140462000Y-121666000D01*
D26*
X124460000Y-64770000D02*
X124460000Y-66901959D01*
D24*
X155655900Y-103550000D02*
X154355900Y-102250000D01*
X123698000Y-114300000D02*
X121511000Y-112113000D01*
D25*
X137668000Y-122936000D02*
X138938000Y-121666000D01*
D26*
X124460000Y-64770000D02*
X117856000Y-64770000D01*
D24*
X121511000Y-112113000D02*
X121511000Y-106381000D01*
X121511000Y-106381000D02*
X122936000Y-104956000D01*
X154355900Y-114950000D02*
X155655900Y-113650000D01*
D26*
X141976000Y-67310000D02*
X135636000Y-67310000D01*
%TO.N,+3.3V*%
D24*
X124079000Y-76581000D02*
X126238000Y-76581000D01*
X127381000Y-74235918D02*
X131146918Y-70470000D01*
X125179000Y-109699000D02*
X125179000Y-124655000D01*
X124079000Y-76394918D02*
X124079000Y-76581000D01*
X120816000Y-76101918D02*
X121313918Y-75604000D01*
X123288082Y-75604000D02*
X124079000Y-76394918D01*
X122936000Y-107456000D02*
X127665000Y-102727000D01*
X155829000Y-80456900D02*
X154355900Y-81930000D01*
X131146918Y-70470000D02*
X154925000Y-70470000D01*
X126238000Y-76581000D02*
X127381000Y-75438000D01*
X127665000Y-102727000D02*
X127665000Y-91657478D01*
X127381000Y-75438000D02*
X127381000Y-74235918D01*
X122936000Y-107456000D02*
X125179000Y-109699000D01*
X121313918Y-75604000D02*
X123288082Y-75604000D01*
X154925000Y-70470000D02*
X155829000Y-71374000D01*
X155829000Y-71374000D02*
X155829000Y-80456900D01*
X120816000Y-84808478D02*
X120816000Y-76101918D01*
X127665000Y-91657478D02*
X120816000Y-84808478D01*
%TO.N,/GP8*%
D26*
X144606000Y-105200100D02*
X136575900Y-97170000D01*
X144606000Y-123190000D02*
X144606000Y-105200100D01*
%TO.N,/GP9*%
X142106000Y-105240100D02*
X136575900Y-99710000D01*
X142106000Y-123190000D02*
X142106000Y-105240100D01*
%TO.N,/GP22*%
X159893000Y-105247100D02*
X154355900Y-99710000D01*
X159893000Y-121605000D02*
X159893000Y-105247100D01*
%TO.N,/GP19*%
X154355900Y-109870000D02*
X147415000Y-102929100D01*
X130508000Y-85645000D02*
X126302000Y-81439000D01*
X121666000Y-76454000D02*
X121666000Y-80582000D01*
X122523000Y-81439000D02*
X121666000Y-80582000D01*
X126302000Y-81439000D02*
X122523000Y-81439000D01*
X147415000Y-102929100D02*
X147415000Y-96187399D01*
X147415000Y-96187399D02*
X136872601Y-85645000D01*
X136872601Y-85645000D02*
X130508000Y-85645000D01*
%TO.N,/GP20*%
X152730900Y-98773299D02*
X137062601Y-83105000D01*
X128698000Y-83105000D02*
X122936000Y-77343000D01*
X154355900Y-107330000D02*
X152730900Y-105705000D01*
X122936000Y-77343000D02*
X122936000Y-76454000D01*
X152730900Y-105705000D02*
X152730900Y-98773299D01*
X137062601Y-83105000D02*
X128698000Y-83105000D01*
%TO.N,/GP21*%
X134794000Y-80565000D02*
X128524000Y-74295000D01*
X120241000Y-87974299D02*
X120241000Y-74831000D01*
X153180900Y-103615000D02*
X153180900Y-96683299D01*
X125222000Y-92955299D02*
X120241000Y-87974299D01*
X154355900Y-104790000D02*
X153180900Y-103615000D01*
X125222000Y-99822000D02*
X125222000Y-92955299D01*
X153180900Y-96683299D02*
X137062601Y-80565000D01*
X120241000Y-74831000D02*
X121158000Y-73914000D01*
X137062601Y-80565000D02*
X134794000Y-80565000D01*
%TO.N,Net-(IC1-AOUT2)*%
D25*
X148632878Y-127338000D02*
X145810393Y-124515515D01*
X154940000Y-125289919D02*
X154940000Y-126523635D01*
X145810393Y-124515515D02*
X145597515Y-124515515D01*
X154940000Y-126523635D02*
X154125635Y-127338000D01*
X155769919Y-124460000D02*
X154940000Y-125289919D01*
X154125635Y-127338000D02*
X148632878Y-127338000D01*
X156972000Y-124460000D02*
X155769919Y-124460000D01*
%TO.N,Net-(IC1-BOUT1)*%
X136368000Y-127081278D02*
X137129522Y-127842800D01*
X134620000Y-124460000D02*
X136368000Y-126208000D01*
X137129522Y-127842800D02*
X140381200Y-127842800D01*
X136368000Y-126208000D02*
X136368000Y-127081278D01*
X140381200Y-127842800D02*
X143510000Y-124714000D01*
%TD*%
%TA.AperFunction,Conductor*%
%TO.N,+5V*%
G36*
X154712652Y-71040185D02*
G01*
X154733294Y-71056819D01*
X155242181Y-71565706D01*
X155275666Y-71627029D01*
X155278500Y-71653387D01*
X155278500Y-73314846D01*
X155258815Y-73381885D01*
X155206011Y-73427640D01*
X155136853Y-73437584D01*
X155081615Y-73415165D01*
X154958893Y-73326003D01*
X154797539Y-73243788D01*
X154797536Y-73243787D01*
X154625310Y-73187829D01*
X154446451Y-73159500D01*
X154446446Y-73159500D01*
X154265354Y-73159500D01*
X154265349Y-73159500D01*
X154086489Y-73187829D01*
X153914263Y-73243787D01*
X153914260Y-73243788D01*
X153752902Y-73326006D01*
X153606405Y-73432441D01*
X153606400Y-73432445D01*
X153478345Y-73560500D01*
X153478341Y-73560505D01*
X153371906Y-73707002D01*
X153289688Y-73868360D01*
X153289687Y-73868363D01*
X153233729Y-74040589D01*
X153205400Y-74219448D01*
X153205400Y-74400551D01*
X153233729Y-74579410D01*
X153289687Y-74751636D01*
X153289688Y-74751639D01*
X153371906Y-74912997D01*
X153478341Y-75059494D01*
X153478345Y-75059499D01*
X153606400Y-75187554D01*
X153606405Y-75187558D01*
X153707782Y-75261212D01*
X153752906Y-75293996D01*
X153858384Y-75347740D01*
X153914260Y-75376211D01*
X153914263Y-75376212D01*
X154000376Y-75404191D01*
X154086491Y-75432171D01*
X154190616Y-75448662D01*
X154218170Y-75453027D01*
X154281305Y-75482956D01*
X154318236Y-75542268D01*
X154317238Y-75612130D01*
X154278628Y-75670363D01*
X154214665Y-75698477D01*
X154198772Y-75699500D01*
X153461043Y-75699500D01*
X153461017Y-75699502D01*
X153435912Y-75702413D01*
X153435908Y-75702415D01*
X153333135Y-75747793D01*
X153253694Y-75827234D01*
X153208315Y-75930006D01*
X153208315Y-75930008D01*
X153205400Y-75955131D01*
X153205400Y-77744856D01*
X153205402Y-77744882D01*
X153208313Y-77769987D01*
X153208315Y-77769991D01*
X153253693Y-77872764D01*
X153253694Y-77872765D01*
X153333135Y-77952206D01*
X153435909Y-77997585D01*
X153461035Y-78000500D01*
X154198773Y-78000499D01*
X154265810Y-78020183D01*
X154311565Y-78072987D01*
X154321509Y-78142146D01*
X154292484Y-78205702D01*
X154233706Y-78243476D01*
X154218170Y-78246972D01*
X154086489Y-78267829D01*
X153914263Y-78323787D01*
X153914260Y-78323788D01*
X153752902Y-78406006D01*
X153606405Y-78512441D01*
X153606400Y-78512445D01*
X153478345Y-78640500D01*
X153478341Y-78640505D01*
X153371906Y-78787002D01*
X153289688Y-78948360D01*
X153289687Y-78948363D01*
X153233729Y-79120589D01*
X153205400Y-79299448D01*
X153205400Y-79480551D01*
X153233729Y-79659410D01*
X153289687Y-79831636D01*
X153289688Y-79831639D01*
X153371906Y-79992997D01*
X153478341Y-80139494D01*
X153478345Y-80139499D01*
X153606400Y-80267554D01*
X153606405Y-80267558D01*
X153726135Y-80354546D01*
X153752906Y-80373996D01*
X153858384Y-80427740D01*
X153914260Y-80456211D01*
X153914263Y-80456212D01*
X154000376Y-80484191D01*
X154086491Y-80512171D01*
X154159539Y-80523740D01*
X154246578Y-80537527D01*
X154309713Y-80567456D01*
X154346644Y-80626768D01*
X154345646Y-80696631D01*
X154307036Y-80754863D01*
X154246578Y-80782473D01*
X154086489Y-80807829D01*
X153914263Y-80863787D01*
X153914260Y-80863788D01*
X153752902Y-80946006D01*
X153606405Y-81052441D01*
X153606400Y-81052445D01*
X153478345Y-81180500D01*
X153478341Y-81180505D01*
X153371906Y-81327002D01*
X153289688Y-81488360D01*
X153289687Y-81488363D01*
X153233729Y-81660589D01*
X153205400Y-81839448D01*
X153205400Y-82020551D01*
X153233729Y-82199410D01*
X153289687Y-82371636D01*
X153289688Y-82371639D01*
X153371906Y-82532997D01*
X153478341Y-82679494D01*
X153478345Y-82679499D01*
X153606400Y-82807554D01*
X153606405Y-82807558D01*
X153734187Y-82900396D01*
X153752906Y-82913996D01*
X153858384Y-82967740D01*
X153914260Y-82996211D01*
X153914263Y-82996212D01*
X154000376Y-83024191D01*
X154086491Y-83052171D01*
X154159539Y-83063740D01*
X154246578Y-83077527D01*
X154309713Y-83107456D01*
X154346644Y-83166768D01*
X154345646Y-83236631D01*
X154307036Y-83294863D01*
X154246578Y-83322473D01*
X154086489Y-83347829D01*
X153914263Y-83403787D01*
X153914260Y-83403788D01*
X153752902Y-83486006D01*
X153606405Y-83592441D01*
X153606400Y-83592445D01*
X153478345Y-83720500D01*
X153478341Y-83720505D01*
X153371906Y-83867002D01*
X153289688Y-84028360D01*
X153289687Y-84028363D01*
X153233729Y-84200589D01*
X153205400Y-84379448D01*
X153205400Y-84560551D01*
X153233729Y-84739410D01*
X153289687Y-84911636D01*
X153289688Y-84911639D01*
X153371906Y-85072997D01*
X153478341Y-85219494D01*
X153478345Y-85219499D01*
X153606400Y-85347554D01*
X153606405Y-85347558D01*
X153692408Y-85410042D01*
X153752906Y-85453996D01*
X153858384Y-85507740D01*
X153914260Y-85536211D01*
X153914263Y-85536212D01*
X153966296Y-85553118D01*
X154086491Y-85592171D01*
X154159539Y-85603740D01*
X154246578Y-85617527D01*
X154309713Y-85647456D01*
X154346644Y-85706768D01*
X154345646Y-85776631D01*
X154307036Y-85834863D01*
X154246578Y-85862473D01*
X154086489Y-85887829D01*
X153914263Y-85943787D01*
X153914260Y-85943788D01*
X153752904Y-86026005D01*
X153606405Y-86132441D01*
X153606400Y-86132445D01*
X153478345Y-86260500D01*
X153478341Y-86260505D01*
X153371906Y-86407002D01*
X153289688Y-86568360D01*
X153289687Y-86568363D01*
X153233729Y-86740589D01*
X153205400Y-86919448D01*
X153205400Y-87100551D01*
X153233729Y-87279410D01*
X153289687Y-87451636D01*
X153289688Y-87451639D01*
X153371906Y-87612997D01*
X153478341Y-87759494D01*
X153478345Y-87759499D01*
X153606400Y-87887554D01*
X153606405Y-87887558D01*
X153734187Y-87980396D01*
X153752906Y-87993996D01*
X153824188Y-88030316D01*
X153914260Y-88076211D01*
X153914263Y-88076212D01*
X154000376Y-88104191D01*
X154086491Y-88132171D01*
X154185807Y-88147901D01*
X154218170Y-88153027D01*
X154281305Y-88182956D01*
X154318236Y-88242268D01*
X154317238Y-88312130D01*
X154278628Y-88370363D01*
X154214665Y-88398477D01*
X154198772Y-88399500D01*
X153461043Y-88399500D01*
X153461017Y-88399502D01*
X153435912Y-88402413D01*
X153435908Y-88402415D01*
X153333135Y-88447793D01*
X153253694Y-88527234D01*
X153208315Y-88630006D01*
X153208315Y-88630008D01*
X153205400Y-88655131D01*
X153205400Y-90444856D01*
X153205402Y-90444882D01*
X153208313Y-90469987D01*
X153208315Y-90469991D01*
X153253693Y-90572764D01*
X153253694Y-90572765D01*
X153333135Y-90652206D01*
X153435909Y-90697585D01*
X153461035Y-90700500D01*
X154198773Y-90700499D01*
X154265810Y-90720183D01*
X154311565Y-90772987D01*
X154321509Y-90842146D01*
X154292484Y-90905702D01*
X154233706Y-90943476D01*
X154218170Y-90946972D01*
X154086489Y-90967829D01*
X153914263Y-91023787D01*
X153914260Y-91023788D01*
X153752902Y-91106006D01*
X153606405Y-91212441D01*
X153606400Y-91212445D01*
X153478345Y-91340500D01*
X153478341Y-91340505D01*
X153371906Y-91487002D01*
X153289688Y-91648360D01*
X153289687Y-91648363D01*
X153233729Y-91820589D01*
X153205400Y-91999448D01*
X153205400Y-92180551D01*
X153233729Y-92359410D01*
X153289687Y-92531636D01*
X153289688Y-92531639D01*
X153332069Y-92614814D01*
X153369621Y-92688514D01*
X153371906Y-92692997D01*
X153478341Y-92839494D01*
X153478345Y-92839499D01*
X153606400Y-92967554D01*
X153606405Y-92967558D01*
X153627065Y-92982568D01*
X153752906Y-93073996D01*
X153858384Y-93127740D01*
X153914260Y-93156211D01*
X153914263Y-93156212D01*
X153996430Y-93182909D01*
X154086491Y-93212171D01*
X154159539Y-93223740D01*
X154246578Y-93237527D01*
X154309713Y-93267456D01*
X154346644Y-93326768D01*
X154345646Y-93396631D01*
X154307036Y-93454863D01*
X154246578Y-93482473D01*
X154086489Y-93507829D01*
X153914263Y-93563787D01*
X153914260Y-93563788D01*
X153752902Y-93646006D01*
X153606405Y-93752441D01*
X153606400Y-93752445D01*
X153478345Y-93880500D01*
X153478341Y-93880505D01*
X153371906Y-94027002D01*
X153289688Y-94188360D01*
X153289687Y-94188363D01*
X153233729Y-94360589D01*
X153205400Y-94539448D01*
X153205400Y-94720551D01*
X153233729Y-94899410D01*
X153289687Y-95071636D01*
X153289688Y-95071639D01*
X153328769Y-95148337D01*
X153368039Y-95225409D01*
X153371906Y-95232997D01*
X153478341Y-95379494D01*
X153478345Y-95379499D01*
X153606400Y-95507554D01*
X153606405Y-95507558D01*
X153677206Y-95558997D01*
X153752906Y-95613996D01*
X153858384Y-95667740D01*
X153914260Y-95696211D01*
X153914263Y-95696212D01*
X154000376Y-95724191D01*
X154086491Y-95752171D01*
X154159539Y-95763740D01*
X154246578Y-95777527D01*
X154309713Y-95807456D01*
X154346644Y-95866768D01*
X154345646Y-95936631D01*
X154307036Y-95994863D01*
X154246578Y-96022473D01*
X154086489Y-96047829D01*
X153914263Y-96103787D01*
X153914260Y-96103788D01*
X153752902Y-96186006D01*
X153606402Y-96292443D01*
X153606394Y-96292450D01*
X153586773Y-96312070D01*
X153525449Y-96345552D01*
X153455757Y-96340565D01*
X153411415Y-96312066D01*
X137433832Y-80334483D01*
X137400347Y-80273160D01*
X137405331Y-80203468D01*
X137433834Y-80159119D01*
X137453453Y-80139501D01*
X137453455Y-80139499D01*
X137489730Y-80089570D01*
X137559896Y-79992994D01*
X137642111Y-79831639D01*
X137698071Y-79659409D01*
X137712665Y-79567259D01*
X137726400Y-79480551D01*
X137726400Y-79299448D01*
X137704597Y-79161794D01*
X137698071Y-79120591D01*
X137642111Y-78948361D01*
X137642111Y-78948360D01*
X137613640Y-78892484D01*
X137559896Y-78787006D01*
X137498500Y-78702501D01*
X137453458Y-78640505D01*
X137453454Y-78640500D01*
X137325399Y-78512445D01*
X137325394Y-78512441D01*
X137178897Y-78406006D01*
X137178896Y-78406005D01*
X137178894Y-78406004D01*
X137127200Y-78379664D01*
X137017539Y-78323788D01*
X137017536Y-78323787D01*
X136845310Y-78267829D01*
X136713628Y-78246972D01*
X136650494Y-78217042D01*
X136613563Y-78157731D01*
X136614561Y-78087868D01*
X136653171Y-78029636D01*
X136717135Y-78001522D01*
X136733020Y-78000499D01*
X137470764Y-78000499D01*
X137470779Y-78000497D01*
X137470782Y-78000497D01*
X137495887Y-77997586D01*
X137495888Y-77997585D01*
X137495891Y-77997585D01*
X137598665Y-77952206D01*
X137678106Y-77872765D01*
X137723485Y-77769991D01*
X137726400Y-77744865D01*
X137726399Y-75955136D01*
X137726397Y-75955117D01*
X137723486Y-75930012D01*
X137723485Y-75930010D01*
X137723485Y-75930009D01*
X137678106Y-75827235D01*
X137598665Y-75747794D01*
X137598663Y-75747793D01*
X137495892Y-75702415D01*
X137470768Y-75699500D01*
X136733028Y-75699500D01*
X136665989Y-75679815D01*
X136620234Y-75627011D01*
X136610290Y-75557853D01*
X136639315Y-75494297D01*
X136698093Y-75456523D01*
X136713630Y-75453027D01*
X136736914Y-75449338D01*
X136845309Y-75432171D01*
X137017539Y-75376211D01*
X137178894Y-75293996D01*
X137325401Y-75187553D01*
X137453453Y-75059501D01*
X137559896Y-74912994D01*
X137642111Y-74751639D01*
X137698071Y-74579409D01*
X137721724Y-74430071D01*
X137726400Y-74400551D01*
X137726400Y-74219448D01*
X137706002Y-74090667D01*
X137698071Y-74040591D01*
X137642111Y-73868361D01*
X137642111Y-73868360D01*
X137582254Y-73750886D01*
X137559896Y-73707006D01*
X137498500Y-73622501D01*
X137453458Y-73560505D01*
X137453454Y-73560500D01*
X137325399Y-73432445D01*
X137325394Y-73432441D01*
X137178897Y-73326006D01*
X137178896Y-73326005D01*
X137178894Y-73326004D01*
X137114554Y-73293221D01*
X137017539Y-73243788D01*
X137017536Y-73243787D01*
X136845310Y-73187829D01*
X136685221Y-73162473D01*
X136622086Y-73132544D01*
X136585155Y-73073232D01*
X136586153Y-73003370D01*
X136624763Y-72945137D01*
X136685221Y-72917527D01*
X136755325Y-72906422D01*
X136845309Y-72892171D01*
X137017539Y-72836211D01*
X137178894Y-72753996D01*
X137325401Y-72647553D01*
X137453453Y-72519501D01*
X137559896Y-72372994D01*
X137642111Y-72211639D01*
X137698071Y-72039409D01*
X137712665Y-71947259D01*
X137726400Y-71860551D01*
X137726400Y-71679448D01*
X137708384Y-71565706D01*
X137698071Y-71500591D01*
X137642111Y-71328361D01*
X137642109Y-71328355D01*
X137577113Y-71200796D01*
X137564216Y-71132126D01*
X137590492Y-71067386D01*
X137647598Y-71027128D01*
X137687597Y-71020500D01*
X154645613Y-71020500D01*
X154712652Y-71040185D01*
G37*
%TD.AperFunction*%
%TA.AperFunction,Conductor*%
G36*
X173736335Y-61214001D02*
G01*
X173818076Y-61214488D01*
X173823183Y-61214625D01*
X173986808Y-61222419D01*
X173992653Y-61222838D01*
X174155282Y-61238368D01*
X174161128Y-61239066D01*
X174322889Y-61262324D01*
X174328650Y-61263293D01*
X174489093Y-61294215D01*
X174494833Y-61295464D01*
X174629911Y-61328233D01*
X174653630Y-61333987D01*
X174659334Y-61335515D01*
X174816090Y-61381543D01*
X174821686Y-61383333D01*
X174976094Y-61436774D01*
X174981599Y-61438827D01*
X175133275Y-61499549D01*
X175138681Y-61501864D01*
X175287346Y-61569756D01*
X175292601Y-61572309D01*
X175437840Y-61647186D01*
X175442996Y-61650001D01*
X175544300Y-61708489D01*
X175584488Y-61731691D01*
X175589527Y-61734763D01*
X175726968Y-61823091D01*
X175731843Y-61826390D01*
X175814046Y-61884926D01*
X175864913Y-61921149D01*
X175869638Y-61924685D01*
X175998075Y-62025689D01*
X176002626Y-62029447D01*
X176126089Y-62136428D01*
X176130456Y-62140398D01*
X176248691Y-62253135D01*
X176252864Y-62257308D01*
X176365601Y-62375543D01*
X176369571Y-62379910D01*
X176476552Y-62503373D01*
X176480310Y-62507924D01*
X176581314Y-62636361D01*
X176584850Y-62641086D01*
X176679600Y-62774143D01*
X176682908Y-62779031D01*
X176771236Y-62916472D01*
X176774308Y-62921511D01*
X176855996Y-63063000D01*
X176858821Y-63068174D01*
X176933681Y-63213381D01*
X176936252Y-63218672D01*
X177004131Y-63367309D01*
X177006453Y-63372733D01*
X177067167Y-63524387D01*
X177069230Y-63529918D01*
X177122662Y-63684300D01*
X177124459Y-63689921D01*
X177170484Y-63846668D01*
X177172012Y-63852369D01*
X177210532Y-64011152D01*
X177211786Y-64016919D01*
X177242701Y-64177320D01*
X177243680Y-64183140D01*
X177266932Y-64344866D01*
X177267632Y-64350725D01*
X177283159Y-64513322D01*
X177283581Y-64519210D01*
X177291373Y-64682789D01*
X177291511Y-64687950D01*
X177291998Y-64769663D01*
X177292000Y-64770402D01*
X177292000Y-126491597D01*
X177291998Y-126492336D01*
X177291511Y-126574049D01*
X177291373Y-126579210D01*
X177283581Y-126742789D01*
X177283159Y-126748677D01*
X177267632Y-126911274D01*
X177266932Y-126917133D01*
X177243680Y-127078859D01*
X177242701Y-127084679D01*
X177211786Y-127245080D01*
X177210532Y-127250847D01*
X177172012Y-127409630D01*
X177170484Y-127415331D01*
X177124459Y-127572078D01*
X177122662Y-127577699D01*
X177069230Y-127732081D01*
X177067167Y-127737612D01*
X177006453Y-127889266D01*
X177004131Y-127894690D01*
X176936252Y-128043327D01*
X176933672Y-128048637D01*
X176858824Y-128193820D01*
X176855996Y-128198999D01*
X176774308Y-128340488D01*
X176771236Y-128345527D01*
X176682908Y-128482968D01*
X176679600Y-128487856D01*
X176584850Y-128620913D01*
X176581314Y-128625638D01*
X176480310Y-128754075D01*
X176476552Y-128758626D01*
X176369571Y-128882089D01*
X176365601Y-128886456D01*
X176252864Y-129004691D01*
X176248691Y-129008864D01*
X176130456Y-129121601D01*
X176126089Y-129125571D01*
X176002626Y-129232552D01*
X175998075Y-129236310D01*
X175869638Y-129337314D01*
X175864913Y-129340850D01*
X175731856Y-129435600D01*
X175726968Y-129438908D01*
X175589527Y-129527236D01*
X175584488Y-129530308D01*
X175442999Y-129611996D01*
X175437820Y-129614824D01*
X175292637Y-129689672D01*
X175287327Y-129692252D01*
X175138690Y-129760131D01*
X175133266Y-129762453D01*
X174981612Y-129823167D01*
X174976081Y-129825230D01*
X174821699Y-129878662D01*
X174816078Y-129880459D01*
X174659331Y-129926484D01*
X174653630Y-129928012D01*
X174494847Y-129966532D01*
X174489080Y-129967786D01*
X174328679Y-129998701D01*
X174322859Y-129999680D01*
X174161133Y-130022932D01*
X174155274Y-130023632D01*
X173992677Y-130039159D01*
X173986789Y-130039581D01*
X173823210Y-130047373D01*
X173818049Y-130047511D01*
X173737663Y-130047990D01*
X173736334Y-130047998D01*
X173735598Y-130048000D01*
X117856402Y-130048000D01*
X117855665Y-130047998D01*
X117854317Y-130047989D01*
X117773950Y-130047511D01*
X117768789Y-130047373D01*
X117605210Y-130039581D01*
X117599322Y-130039159D01*
X117436725Y-130023632D01*
X117430866Y-130022932D01*
X117269140Y-129999680D01*
X117263320Y-129998701D01*
X117102919Y-129967786D01*
X117097152Y-129966532D01*
X116938369Y-129928012D01*
X116932668Y-129926484D01*
X116775921Y-129880459D01*
X116770300Y-129878662D01*
X116615918Y-129825230D01*
X116610387Y-129823167D01*
X116458733Y-129762453D01*
X116453309Y-129760131D01*
X116304672Y-129692252D01*
X116299381Y-129689681D01*
X116154174Y-129614821D01*
X116149000Y-129611996D01*
X116007511Y-129530308D01*
X116002472Y-129527236D01*
X115865031Y-129438908D01*
X115860143Y-129435600D01*
X115727086Y-129340850D01*
X115722361Y-129337314D01*
X115593924Y-129236310D01*
X115589373Y-129232552D01*
X115465910Y-129125571D01*
X115461543Y-129121601D01*
X115343308Y-129008864D01*
X115339135Y-129004691D01*
X115226398Y-128886456D01*
X115222428Y-128882089D01*
X115115447Y-128758626D01*
X115111689Y-128754075D01*
X115010685Y-128625638D01*
X115007149Y-128620913D01*
X114912399Y-128487856D01*
X114909091Y-128482968D01*
X114820763Y-128345527D01*
X114817691Y-128340488D01*
X114736003Y-128198999D01*
X114733186Y-128193840D01*
X114658309Y-128048601D01*
X114655756Y-128043346D01*
X114587864Y-127894681D01*
X114585546Y-127889266D01*
X114529591Y-127749499D01*
X114524827Y-127737599D01*
X114522769Y-127732081D01*
X114487945Y-127631464D01*
X114469333Y-127577686D01*
X114467540Y-127572078D01*
X114421515Y-127415331D01*
X114419987Y-127409630D01*
X114405930Y-127351684D01*
X114381464Y-127250833D01*
X114380213Y-127245080D01*
X114350430Y-127090551D01*
X114349293Y-127084650D01*
X114348324Y-127078889D01*
X114325066Y-126917128D01*
X114324367Y-126911274D01*
X114324193Y-126909448D01*
X114308838Y-126748653D01*
X114308418Y-126742789D01*
X114307837Y-126730589D01*
X114300625Y-126579183D01*
X114300488Y-126574074D01*
X114300002Y-126492334D01*
X114300000Y-126491597D01*
X114300000Y-126317875D01*
X114755500Y-126317875D01*
X114755500Y-126666124D01*
X114794489Y-127012158D01*
X114794490Y-127012167D01*
X114794491Y-127012171D01*
X114812380Y-127090546D01*
X114871982Y-127351684D01*
X114871985Y-127351692D01*
X114986999Y-127680382D01*
X115138092Y-127994130D01*
X115323371Y-128288999D01*
X115323372Y-128289001D01*
X115540487Y-128561256D01*
X115786743Y-128807512D01*
X116058998Y-129024627D01*
X116059001Y-129024628D01*
X116059003Y-129024630D01*
X116353867Y-129209906D01*
X116667621Y-129361002D01*
X116914488Y-129447384D01*
X116996307Y-129476014D01*
X116996315Y-129476017D01*
X116996318Y-129476017D01*
X116996319Y-129476018D01*
X117335829Y-129553509D01*
X117681876Y-129592499D01*
X117681877Y-129592500D01*
X117681880Y-129592500D01*
X118030123Y-129592500D01*
X118030123Y-129592499D01*
X118376171Y-129553509D01*
X118715681Y-129476018D01*
X119044379Y-129361002D01*
X119358133Y-129209906D01*
X119652997Y-129024630D01*
X119798343Y-128908721D01*
X119925256Y-128807512D01*
X119925258Y-128807509D01*
X119925263Y-128807506D01*
X120171506Y-128561263D01*
X120178738Y-128552195D01*
X120388627Y-128289001D01*
X120388628Y-128288999D01*
X120388630Y-128288997D01*
X120573906Y-127994133D01*
X120725002Y-127680379D01*
X120840018Y-127351681D01*
X120917509Y-127012171D01*
X120956500Y-126666120D01*
X120956500Y-126317880D01*
X120917509Y-125971829D01*
X120840018Y-125632319D01*
X120815484Y-125562206D01*
X120787687Y-125482765D01*
X120725002Y-125303621D01*
X120573906Y-124989867D01*
X120388630Y-124695003D01*
X120388628Y-124695000D01*
X120388627Y-124694998D01*
X120171512Y-124422743D01*
X119925256Y-124176487D01*
X119653001Y-123959372D01*
X119652999Y-123959371D01*
X119358130Y-123774092D01*
X119044382Y-123622999D01*
X118715692Y-123507985D01*
X118715684Y-123507982D01*
X118405718Y-123437235D01*
X118376171Y-123430491D01*
X118376167Y-123430490D01*
X118376158Y-123430489D01*
X118030124Y-123391500D01*
X118030120Y-123391500D01*
X117681880Y-123391500D01*
X117681875Y-123391500D01*
X117335841Y-123430489D01*
X117335829Y-123430491D01*
X116996315Y-123507982D01*
X116996307Y-123507985D01*
X116667617Y-123622999D01*
X116353869Y-123774092D01*
X116059000Y-123959371D01*
X116058998Y-123959372D01*
X115786743Y-124176487D01*
X115540487Y-124422743D01*
X115323372Y-124694998D01*
X115323371Y-124695000D01*
X115138092Y-124989869D01*
X114986999Y-125303617D01*
X114871985Y-125632307D01*
X114871982Y-125632315D01*
X114794491Y-125971829D01*
X114794489Y-125971841D01*
X114755500Y-126317875D01*
X114300000Y-126317875D01*
X114300000Y-74774982D01*
X119815500Y-74774982D01*
X119815500Y-87918281D01*
X119815500Y-88030317D01*
X119842792Y-88132170D01*
X119844497Y-88138535D01*
X119844498Y-88138538D01*
X119849904Y-88147901D01*
X119900515Y-88235562D01*
X119900517Y-88235564D01*
X122764186Y-91099233D01*
X122797671Y-91160556D01*
X122792687Y-91230248D01*
X122750815Y-91286181D01*
X122695904Y-91309387D01*
X122541589Y-91333829D01*
X122369363Y-91389787D01*
X122369360Y-91389788D01*
X122208002Y-91472006D01*
X122061505Y-91578441D01*
X122061500Y-91578445D01*
X121933445Y-91706500D01*
X121933441Y-91706505D01*
X121827006Y-91853002D01*
X121744788Y-92014360D01*
X121744787Y-92014363D01*
X121688829Y-92186589D01*
X121660500Y-92365448D01*
X121660500Y-92546551D01*
X121688829Y-92725410D01*
X121744787Y-92897636D01*
X121744788Y-92897639D01*
X121827006Y-93058997D01*
X121933441Y-93205494D01*
X121933445Y-93205499D01*
X122061500Y-93333554D01*
X122061505Y-93333558D01*
X122148319Y-93396631D01*
X122208006Y-93439996D01*
X122313484Y-93493740D01*
X122369360Y-93522211D01*
X122369363Y-93522212D01*
X122455476Y-93550191D01*
X122541591Y-93578171D01*
X122566291Y-93582083D01*
X122575406Y-93583527D01*
X122638540Y-93613457D01*
X122675471Y-93672768D01*
X122674473Y-93742631D01*
X122635863Y-93800863D01*
X122575406Y-93828473D01*
X122541589Y-93833829D01*
X122369363Y-93889787D01*
X122369360Y-93889788D01*
X122208002Y-93972006D01*
X122061505Y-94078441D01*
X122061500Y-94078445D01*
X121933445Y-94206500D01*
X121933441Y-94206505D01*
X121827006Y-94353002D01*
X121744788Y-94514360D01*
X121744787Y-94514363D01*
X121688829Y-94686589D01*
X121660500Y-94865448D01*
X121660500Y-95046551D01*
X121688829Y-95225410D01*
X121744787Y-95397636D01*
X121744788Y-95397639D01*
X121827006Y-95558997D01*
X121933441Y-95705494D01*
X121933445Y-95705499D01*
X122061500Y-95833554D01*
X122061505Y-95833558D01*
X122188925Y-95926133D01*
X122208006Y-95939996D01*
X122311137Y-95992544D01*
X122369360Y-96022211D01*
X122369363Y-96022212D01*
X122440829Y-96045432D01*
X122541591Y-96078171D01*
X122566291Y-96082083D01*
X122575406Y-96083527D01*
X122638540Y-96113457D01*
X122675471Y-96172768D01*
X122674473Y-96242631D01*
X122635863Y-96300863D01*
X122575406Y-96328473D01*
X122541589Y-96333829D01*
X122369363Y-96389787D01*
X122369360Y-96389788D01*
X122208002Y-96472006D01*
X122061505Y-96578441D01*
X122061500Y-96578445D01*
X121933445Y-96706500D01*
X121933441Y-96706505D01*
X121827006Y-96853002D01*
X121744788Y-97014360D01*
X121744787Y-97014363D01*
X121688829Y-97186589D01*
X121660500Y-97365448D01*
X121660500Y-97546551D01*
X121688829Y-97725410D01*
X121744787Y-97897636D01*
X121744788Y-97897639D01*
X121755928Y-97919501D01*
X121821174Y-98047553D01*
X121827006Y-98058997D01*
X121933441Y-98205494D01*
X121933445Y-98205499D01*
X122061500Y-98333554D01*
X122061505Y-98333558D01*
X122143313Y-98392994D01*
X122208006Y-98439996D01*
X122279906Y-98476631D01*
X122369360Y-98522211D01*
X122369363Y-98522212D01*
X122422575Y-98539501D01*
X122541591Y-98578171D01*
X122566291Y-98582083D01*
X122575406Y-98583527D01*
X122638540Y-98613457D01*
X122675471Y-98672768D01*
X122674473Y-98742631D01*
X122635863Y-98800863D01*
X122575406Y-98828473D01*
X122541589Y-98833829D01*
X122369363Y-98889787D01*
X122369360Y-98889788D01*
X122208002Y-98972006D01*
X122061505Y-99078441D01*
X122061500Y-99078445D01*
X121933445Y-99206500D01*
X121933441Y-99206505D01*
X121827006Y-99353002D01*
X121744788Y-99514360D01*
X121744787Y-99514363D01*
X121688829Y-99686589D01*
X121660500Y-99865448D01*
X121660500Y-100046551D01*
X121688829Y-100225410D01*
X121744787Y-100397636D01*
X121744788Y-100397639D01*
X121776308Y-100459499D01*
X121814161Y-100533789D01*
X121827006Y-100558997D01*
X121933441Y-100705494D01*
X121933445Y-100705499D01*
X122061500Y-100833554D01*
X122061505Y-100833558D01*
X122136190Y-100887819D01*
X122208006Y-100939996D01*
X122313484Y-100993740D01*
X122369360Y-101022211D01*
X122369363Y-101022212D01*
X122455476Y-101050191D01*
X122541591Y-101078171D01*
X122566291Y-101082083D01*
X122575406Y-101083527D01*
X122638540Y-101113457D01*
X122675471Y-101172768D01*
X122674473Y-101242631D01*
X122635863Y-101300863D01*
X122575406Y-101328473D01*
X122541589Y-101333829D01*
X122369363Y-101389787D01*
X122369360Y-101389788D01*
X122208002Y-101472006D01*
X122061505Y-101578441D01*
X122061500Y-101578445D01*
X121933445Y-101706500D01*
X121933441Y-101706505D01*
X121827006Y-101853002D01*
X121744788Y-102014360D01*
X121744787Y-102014363D01*
X121688829Y-102186589D01*
X121660500Y-102365448D01*
X121660500Y-102546551D01*
X121688829Y-102725410D01*
X121744787Y-102897636D01*
X121744788Y-102897639D01*
X121827006Y-103058997D01*
X121933441Y-103205494D01*
X121933445Y-103205499D01*
X122061500Y-103333554D01*
X122061505Y-103333558D01*
X122155051Y-103401522D01*
X122208006Y-103439996D01*
X122313484Y-103493740D01*
X122369360Y-103522211D01*
X122369363Y-103522212D01*
X122455476Y-103550191D01*
X122541591Y-103578171D01*
X122566291Y-103582083D01*
X122575406Y-103583527D01*
X122638540Y-103613457D01*
X122675471Y-103672768D01*
X122674473Y-103742631D01*
X122635863Y-103800863D01*
X122575406Y-103828473D01*
X122541589Y-103833829D01*
X122369363Y-103889787D01*
X122369360Y-103889788D01*
X122208002Y-103972006D01*
X122061505Y-104078441D01*
X122061500Y-104078445D01*
X121933445Y-104206500D01*
X121933441Y-104206505D01*
X121827006Y-104353002D01*
X121744788Y-104514360D01*
X121744787Y-104514363D01*
X121688829Y-104686589D01*
X121660500Y-104865448D01*
X121660500Y-105046551D01*
X121688829Y-105225412D01*
X121714207Y-105303518D01*
X121716202Y-105373359D01*
X121683957Y-105429516D01*
X121070491Y-106042983D01*
X121070489Y-106042986D01*
X121033821Y-106106499D01*
X121033820Y-106106500D01*
X120998017Y-106168512D01*
X120998016Y-106168513D01*
X120985385Y-106215655D01*
X120960500Y-106308525D01*
X120960500Y-112040526D01*
X120960500Y-112185474D01*
X120996398Y-112319448D01*
X120998016Y-112325485D01*
X121070489Y-112451013D01*
X121070491Y-112451016D01*
X122511181Y-113891706D01*
X122544666Y-113953029D01*
X122547500Y-113979387D01*
X122547500Y-115194856D01*
X122547502Y-115194882D01*
X122550413Y-115219987D01*
X122550415Y-115219991D01*
X122595793Y-115322764D01*
X122595794Y-115322765D01*
X122675235Y-115402206D01*
X122778009Y-115447585D01*
X122803135Y-115450500D01*
X124504500Y-115450499D01*
X124571539Y-115470184D01*
X124617294Y-115522987D01*
X124628500Y-115574499D01*
X124628500Y-118390586D01*
X124608815Y-118457625D01*
X124556011Y-118503380D01*
X124486853Y-118513324D01*
X124431615Y-118490904D01*
X124300997Y-118396006D01*
X124300996Y-118396005D01*
X124300994Y-118396004D01*
X124245156Y-118367553D01*
X124139639Y-118313788D01*
X124139636Y-118313787D01*
X123967410Y-118257829D01*
X123788551Y-118229500D01*
X123788546Y-118229500D01*
X123607454Y-118229500D01*
X123607449Y-118229500D01*
X123428589Y-118257829D01*
X123256363Y-118313787D01*
X123256360Y-118313788D01*
X123095002Y-118396006D01*
X122948505Y-118502441D01*
X122948500Y-118502445D01*
X122820445Y-118630500D01*
X122820441Y-118630505D01*
X122714006Y-118777002D01*
X122631788Y-118938360D01*
X122631787Y-118938363D01*
X122575829Y-119110589D01*
X122547500Y-119289448D01*
X122547500Y-119470551D01*
X122575829Y-119649410D01*
X122631787Y-119821636D01*
X122631788Y-119821639D01*
X122714006Y-119982997D01*
X122820441Y-120129494D01*
X122820445Y-120129499D01*
X122948500Y-120257554D01*
X122948505Y-120257558D01*
X123022814Y-120311546D01*
X123095006Y-120363996D01*
X123200484Y-120417740D01*
X123256360Y-120446211D01*
X123256363Y-120446212D01*
X123320975Y-120467205D01*
X123428591Y-120502171D01*
X123511429Y-120515291D01*
X123607449Y-120530500D01*
X123607454Y-120530500D01*
X123788551Y-120530500D01*
X123875259Y-120516765D01*
X123967409Y-120502171D01*
X124139639Y-120446211D01*
X124300994Y-120363996D01*
X124431615Y-120269095D01*
X124497421Y-120245615D01*
X124565475Y-120261440D01*
X124614170Y-120311546D01*
X124628500Y-120369413D01*
X124628500Y-124180399D01*
X124608815Y-124247438D01*
X124607602Y-124249290D01*
X124558228Y-124323182D01*
X124558221Y-124323195D01*
X124505421Y-124450667D01*
X124505418Y-124450677D01*
X124478500Y-124586004D01*
X124478500Y-124586007D01*
X124478500Y-124723993D01*
X124478500Y-124723995D01*
X124478499Y-124723995D01*
X124505418Y-124859322D01*
X124505421Y-124859332D01*
X124558221Y-124986804D01*
X124558228Y-124986817D01*
X124634885Y-125101541D01*
X124634888Y-125101545D01*
X124732454Y-125199111D01*
X124732458Y-125199114D01*
X124847182Y-125275771D01*
X124847195Y-125275778D01*
X124974667Y-125328578D01*
X124974672Y-125328580D01*
X124974676Y-125328580D01*
X124974677Y-125328581D01*
X125110004Y-125355500D01*
X125110007Y-125355500D01*
X125247995Y-125355500D01*
X125370342Y-125331163D01*
X125383328Y-125328580D01*
X125510811Y-125275775D01*
X125625542Y-125199114D01*
X125723114Y-125101542D01*
X125799775Y-124986811D01*
X125852580Y-124859328D01*
X125874523Y-124749016D01*
X125879500Y-124723995D01*
X125879500Y-124586004D01*
X125852581Y-124450677D01*
X125852580Y-124450676D01*
X125852580Y-124450672D01*
X125852131Y-124449587D01*
X125799778Y-124323195D01*
X125799771Y-124323182D01*
X125750398Y-124249290D01*
X125729520Y-124182612D01*
X125729500Y-124180399D01*
X125729500Y-119289448D01*
X128643500Y-119289448D01*
X128643500Y-119470551D01*
X128671829Y-119649410D01*
X128727787Y-119821636D01*
X128727788Y-119821639D01*
X128810006Y-119982997D01*
X128916441Y-120129494D01*
X128916445Y-120129499D01*
X129044500Y-120257554D01*
X129044505Y-120257558D01*
X129118814Y-120311546D01*
X129191006Y-120363996D01*
X129296484Y-120417740D01*
X129352360Y-120446211D01*
X129352363Y-120446212D01*
X129416975Y-120467205D01*
X129524591Y-120502171D01*
X129607429Y-120515291D01*
X129703449Y-120530500D01*
X129703454Y-120530500D01*
X129884551Y-120530500D01*
X129971259Y-120516765D01*
X130063409Y-120502171D01*
X130235639Y-120446211D01*
X130396994Y-120363996D01*
X130543501Y-120257553D01*
X130671553Y-120129501D01*
X130777996Y-119982994D01*
X130860211Y-119821639D01*
X130916171Y-119649409D01*
X130930765Y-119557259D01*
X130944500Y-119470551D01*
X130944500Y-119289448D01*
X130922799Y-119152441D01*
X130916171Y-119110591D01*
X130868473Y-118963788D01*
X130860212Y-118938363D01*
X130860211Y-118938360D01*
X130816485Y-118852544D01*
X130777996Y-118777006D01*
X130741496Y-118726768D01*
X130671558Y-118630505D01*
X130671554Y-118630500D01*
X130543499Y-118502445D01*
X130543494Y-118502441D01*
X130396997Y-118396006D01*
X130396996Y-118396005D01*
X130396994Y-118396004D01*
X130341156Y-118367553D01*
X130235639Y-118313788D01*
X130235636Y-118313787D01*
X130063410Y-118257829D01*
X129884551Y-118229500D01*
X129884546Y-118229500D01*
X129703454Y-118229500D01*
X129703449Y-118229500D01*
X129524589Y-118257829D01*
X129352363Y-118313787D01*
X129352360Y-118313788D01*
X129191002Y-118396006D01*
X129044505Y-118502441D01*
X129044500Y-118502445D01*
X128916445Y-118630500D01*
X128916441Y-118630505D01*
X128810006Y-118777002D01*
X128727788Y-118938360D01*
X128727787Y-118938363D01*
X128671829Y-119110589D01*
X128643500Y-119289448D01*
X125729500Y-119289448D01*
X125729500Y-109626527D01*
X125729500Y-109626525D01*
X125691984Y-109486515D01*
X125658409Y-109428361D01*
X125619510Y-109360985D01*
X124247819Y-107989294D01*
X124214334Y-107927971D01*
X124211500Y-107901613D01*
X124211500Y-107010387D01*
X124231185Y-106943348D01*
X124247819Y-106922706D01*
X126134662Y-105035863D01*
X128105510Y-103065015D01*
X128177984Y-102939485D01*
X128215500Y-102799474D01*
X128215500Y-102654526D01*
X128215500Y-101441697D01*
X128235185Y-101374658D01*
X128287989Y-101328903D01*
X128357147Y-101318959D01*
X128395796Y-101331213D01*
X128523355Y-101396209D01*
X128523363Y-101396212D01*
X128609476Y-101424191D01*
X128695591Y-101452171D01*
X128778429Y-101465291D01*
X128874449Y-101480500D01*
X128874454Y-101480500D01*
X129055551Y-101480500D01*
X129142259Y-101466765D01*
X129234409Y-101452171D01*
X129406639Y-101396211D01*
X129567994Y-101313996D01*
X129714501Y-101207553D01*
X129842553Y-101079501D01*
X129948996Y-100932994D01*
X130031211Y-100771639D01*
X130087171Y-100599409D01*
X130104769Y-100488302D01*
X130115500Y-100420551D01*
X130115500Y-100239448D01*
X130099019Y-100135397D01*
X130087171Y-100060591D01*
X130032067Y-99890995D01*
X130031212Y-99888363D01*
X130031211Y-99888360D01*
X129986469Y-99800551D01*
X129948996Y-99727006D01*
X129919633Y-99686591D01*
X129842558Y-99580505D01*
X129842554Y-99580500D01*
X129714499Y-99452445D01*
X129714494Y-99452441D01*
X129567997Y-99346006D01*
X129567996Y-99346005D01*
X129567994Y-99346004D01*
X129516300Y-99319664D01*
X129406639Y-99263788D01*
X129406636Y-99263787D01*
X129234410Y-99207829D01*
X129074321Y-99182473D01*
X129011186Y-99152544D01*
X128974255Y-99093232D01*
X128975253Y-99023370D01*
X129013863Y-98965137D01*
X129074321Y-98937527D01*
X129144425Y-98926422D01*
X129234409Y-98912171D01*
X129406639Y-98856211D01*
X129567994Y-98773996D01*
X129714501Y-98667553D01*
X129842553Y-98539501D01*
X129948996Y-98392994D01*
X130031211Y-98231639D01*
X130087171Y-98059409D01*
X130102325Y-97963728D01*
X130115500Y-97880551D01*
X130115500Y-97699448D01*
X130092874Y-97556598D01*
X130087171Y-97520591D01*
X130031211Y-97348361D01*
X130031211Y-97348360D01*
X129986469Y-97260551D01*
X129948996Y-97187006D01*
X129935396Y-97168287D01*
X129842558Y-97040505D01*
X129842554Y-97040500D01*
X129714499Y-96912445D01*
X129714494Y-96912441D01*
X129567997Y-96806006D01*
X129567996Y-96806005D01*
X129567994Y-96806004D01*
X129516300Y-96779664D01*
X129406639Y-96723788D01*
X129406636Y-96723787D01*
X129234410Y-96667829D01*
X129074321Y-96642473D01*
X129011186Y-96612544D01*
X128974255Y-96553232D01*
X128975253Y-96483370D01*
X129013863Y-96425137D01*
X129074321Y-96397527D01*
X129144425Y-96386422D01*
X129234409Y-96372171D01*
X129406639Y-96316211D01*
X129567994Y-96233996D01*
X129714501Y-96127553D01*
X129842553Y-95999501D01*
X129948996Y-95852994D01*
X130031211Y-95691639D01*
X130087171Y-95519409D01*
X130101765Y-95427259D01*
X130115500Y-95340551D01*
X130115500Y-95159448D01*
X130097617Y-95046546D01*
X130087171Y-94980591D01*
X130049761Y-94865454D01*
X130031212Y-94808363D01*
X130031211Y-94808360D01*
X129986469Y-94720551D01*
X129948996Y-94647006D01*
X129935396Y-94628287D01*
X129842558Y-94500505D01*
X129842554Y-94500500D01*
X129714499Y-94372445D01*
X129714494Y-94372441D01*
X129567997Y-94266006D01*
X129567996Y-94266005D01*
X129567994Y-94266004D01*
X129516300Y-94239664D01*
X129406639Y-94183788D01*
X129406636Y-94183787D01*
X129234410Y-94127829D01*
X129055551Y-94099500D01*
X129055546Y-94099500D01*
X128874454Y-94099500D01*
X128874449Y-94099500D01*
X128695589Y-94127829D01*
X128523363Y-94183787D01*
X128523360Y-94183788D01*
X128395795Y-94248787D01*
X128327126Y-94261683D01*
X128262385Y-94235407D01*
X128222128Y-94178300D01*
X128215500Y-94138302D01*
X128215500Y-91585005D01*
X128215500Y-91585003D01*
X128177984Y-91444993D01*
X128177982Y-91444990D01*
X128177983Y-91444990D01*
X128172962Y-91436294D01*
X128172961Y-91436293D01*
X128105512Y-91319467D01*
X128105508Y-91319462D01*
X123488881Y-86702834D01*
X123455396Y-86641511D01*
X123460380Y-86571819D01*
X123502252Y-86515886D01*
X123567716Y-86491469D01*
X123595963Y-86492680D01*
X123607452Y-86494500D01*
X123607454Y-86494500D01*
X123788551Y-86494500D01*
X123875259Y-86480765D01*
X123967409Y-86466171D01*
X124139639Y-86410211D01*
X124300994Y-86327996D01*
X124447501Y-86221553D01*
X124575553Y-86093501D01*
X124681996Y-85946994D01*
X124764211Y-85785639D01*
X124820171Y-85613409D01*
X124836631Y-85509483D01*
X124848500Y-85434551D01*
X124848500Y-85253448D01*
X124825442Y-85107874D01*
X124820171Y-85074591D01*
X124764211Y-84902361D01*
X124764211Y-84902360D01*
X124735740Y-84846484D01*
X124681996Y-84741006D01*
X124668396Y-84722287D01*
X124575558Y-84594505D01*
X124575554Y-84594500D01*
X124447499Y-84466445D01*
X124447494Y-84466441D01*
X124300997Y-84360006D01*
X124300996Y-84360005D01*
X124300994Y-84360004D01*
X124224906Y-84321235D01*
X124139639Y-84277788D01*
X124139636Y-84277787D01*
X123967410Y-84221829D01*
X123788551Y-84193500D01*
X123788546Y-84193500D01*
X123607454Y-84193500D01*
X123607449Y-84193500D01*
X123428589Y-84221829D01*
X123256363Y-84277787D01*
X123256360Y-84277788D01*
X123095002Y-84360006D01*
X122948505Y-84466441D01*
X122948500Y-84466445D01*
X122820445Y-84594500D01*
X122820441Y-84594505D01*
X122714006Y-84741002D01*
X122631788Y-84902360D01*
X122631787Y-84902363D01*
X122575829Y-85074589D01*
X122547500Y-85253448D01*
X122547500Y-85434548D01*
X122549320Y-85446042D01*
X122540363Y-85515336D01*
X122495365Y-85568786D01*
X122428613Y-85589424D01*
X122361300Y-85570697D01*
X122339165Y-85553118D01*
X121402819Y-84616772D01*
X121369334Y-84555449D01*
X121366500Y-84529091D01*
X121366500Y-81183610D01*
X121386185Y-81116571D01*
X121438989Y-81070816D01*
X121508147Y-81060872D01*
X121571703Y-81089897D01*
X121578181Y-81095929D01*
X122182515Y-81700263D01*
X122261737Y-81779485D01*
X122358763Y-81835503D01*
X122466982Y-81864500D01*
X126074390Y-81864500D01*
X126141429Y-81884185D01*
X126162071Y-81900819D01*
X130167513Y-85906260D01*
X130167515Y-85906263D01*
X130246737Y-85985485D01*
X130316918Y-86026004D01*
X130343763Y-86041503D01*
X130451981Y-86070500D01*
X130451982Y-86070500D01*
X135593025Y-86070500D01*
X135660064Y-86090185D01*
X135705819Y-86142989D01*
X135715763Y-86212147D01*
X135693343Y-86267385D01*
X135591906Y-86407002D01*
X135509688Y-86568360D01*
X135509687Y-86568363D01*
X135453729Y-86740589D01*
X135425400Y-86919448D01*
X135425400Y-87100551D01*
X135453729Y-87279410D01*
X135509687Y-87451636D01*
X135509688Y-87451639D01*
X135591906Y-87612997D01*
X135698341Y-87759494D01*
X135698345Y-87759499D01*
X135826400Y-87887554D01*
X135826405Y-87887558D01*
X135954187Y-87980396D01*
X135972906Y-87993996D01*
X136044188Y-88030316D01*
X136134260Y-88076211D01*
X136134263Y-88076212D01*
X136220376Y-88104191D01*
X136306491Y-88132171D01*
X136405807Y-88147901D01*
X136438170Y-88153027D01*
X136501305Y-88182956D01*
X136538236Y-88242268D01*
X136537238Y-88312130D01*
X136498628Y-88370363D01*
X136434665Y-88398477D01*
X136418772Y-88399500D01*
X135681043Y-88399500D01*
X135681017Y-88399502D01*
X135655912Y-88402413D01*
X135655908Y-88402415D01*
X135553135Y-88447793D01*
X135473694Y-88527234D01*
X135428315Y-88630006D01*
X135428315Y-88630008D01*
X135425400Y-88655131D01*
X135425400Y-90444856D01*
X135425402Y-90444882D01*
X135428313Y-90469987D01*
X135428315Y-90469991D01*
X135473693Y-90572764D01*
X135473694Y-90572765D01*
X135553135Y-90652206D01*
X135655909Y-90697585D01*
X135681035Y-90700500D01*
X136418773Y-90700499D01*
X136485810Y-90720183D01*
X136531565Y-90772987D01*
X136541509Y-90842146D01*
X136512484Y-90905702D01*
X136453706Y-90943476D01*
X136438170Y-90946972D01*
X136306489Y-90967829D01*
X136134263Y-91023787D01*
X136134260Y-91023788D01*
X135972902Y-91106006D01*
X135826405Y-91212441D01*
X135826400Y-91212445D01*
X135698345Y-91340500D01*
X135698341Y-91340505D01*
X135591906Y-91487002D01*
X135509688Y-91648360D01*
X135509687Y-91648363D01*
X135453729Y-91820589D01*
X135425400Y-91999448D01*
X135425400Y-92180551D01*
X135453729Y-92359410D01*
X135509687Y-92531636D01*
X135509688Y-92531639D01*
X135552069Y-92614814D01*
X135589621Y-92688514D01*
X135591906Y-92692997D01*
X135698341Y-92839494D01*
X135698345Y-92839499D01*
X135826400Y-92967554D01*
X135826405Y-92967558D01*
X135847065Y-92982568D01*
X135972906Y-93073996D01*
X136078384Y-93127740D01*
X136134260Y-93156211D01*
X136134263Y-93156212D01*
X136216430Y-93182909D01*
X136306491Y-93212171D01*
X136379539Y-93223740D01*
X136466578Y-93237527D01*
X136529713Y-93267456D01*
X136566644Y-93326768D01*
X136565646Y-93396631D01*
X136527036Y-93454863D01*
X136466578Y-93482473D01*
X136306489Y-93507829D01*
X136134263Y-93563787D01*
X136134260Y-93563788D01*
X135972902Y-93646006D01*
X135826405Y-93752441D01*
X135826400Y-93752445D01*
X135698345Y-93880500D01*
X135698341Y-93880505D01*
X135591906Y-94027002D01*
X135509688Y-94188360D01*
X135509687Y-94188363D01*
X135453729Y-94360589D01*
X135425400Y-94539448D01*
X135425400Y-94720551D01*
X135453729Y-94899410D01*
X135509687Y-95071636D01*
X135509688Y-95071639D01*
X135548769Y-95148337D01*
X135588039Y-95225409D01*
X135591906Y-95232997D01*
X135698341Y-95379494D01*
X135698345Y-95379499D01*
X135826400Y-95507554D01*
X135826405Y-95507558D01*
X135897206Y-95558997D01*
X135972906Y-95613996D01*
X136078384Y-95667740D01*
X136134260Y-95696211D01*
X136134263Y-95696212D01*
X136220376Y-95724191D01*
X136306491Y-95752171D01*
X136379539Y-95763740D01*
X136466578Y-95777527D01*
X136529713Y-95807456D01*
X136566644Y-95866768D01*
X136565646Y-95936631D01*
X136527036Y-95994863D01*
X136466578Y-96022473D01*
X136306489Y-96047829D01*
X136134263Y-96103787D01*
X136134260Y-96103788D01*
X135972902Y-96186006D01*
X135826405Y-96292441D01*
X135826400Y-96292445D01*
X135698345Y-96420500D01*
X135698341Y-96420505D01*
X135591906Y-96567002D01*
X135509688Y-96728360D01*
X135509687Y-96728363D01*
X135453729Y-96900589D01*
X135425400Y-97079448D01*
X135425400Y-97260551D01*
X135453729Y-97439410D01*
X135509687Y-97611636D01*
X135509688Y-97611639D01*
X135591906Y-97772997D01*
X135698341Y-97919494D01*
X135698345Y-97919499D01*
X135826400Y-98047554D01*
X135826405Y-98047558D01*
X135954187Y-98140396D01*
X135972906Y-98153996D01*
X136055443Y-98196051D01*
X136134260Y-98236211D01*
X136134263Y-98236212D01*
X136183160Y-98252099D01*
X136306491Y-98292171D01*
X136379539Y-98303740D01*
X136466578Y-98317527D01*
X136529713Y-98347456D01*
X136566644Y-98406768D01*
X136565646Y-98476631D01*
X136527036Y-98534863D01*
X136466578Y-98562473D01*
X136306489Y-98587829D01*
X136134263Y-98643787D01*
X136134260Y-98643788D01*
X135972902Y-98726006D01*
X135826405Y-98832441D01*
X135826400Y-98832445D01*
X135698345Y-98960500D01*
X135698341Y-98960505D01*
X135591906Y-99107002D01*
X135509688Y-99268360D01*
X135509687Y-99268363D01*
X135453729Y-99440589D01*
X135425400Y-99619448D01*
X135425400Y-99800551D01*
X135453729Y-99979410D01*
X135509687Y-100151636D01*
X135509688Y-100151639D01*
X135591906Y-100312997D01*
X135698341Y-100459494D01*
X135698345Y-100459499D01*
X135826400Y-100587554D01*
X135826405Y-100587558D01*
X135865561Y-100616006D01*
X135972906Y-100693996D01*
X136078384Y-100747740D01*
X136134260Y-100776211D01*
X136134263Y-100776212D01*
X136183160Y-100792099D01*
X136306491Y-100832171D01*
X136410616Y-100848662D01*
X136438170Y-100853027D01*
X136501305Y-100882956D01*
X136538236Y-100942268D01*
X136537238Y-101012130D01*
X136498628Y-101070363D01*
X136434665Y-101098477D01*
X136418772Y-101099500D01*
X135681043Y-101099500D01*
X135681017Y-101099502D01*
X135655912Y-101102413D01*
X135655908Y-101102415D01*
X135553135Y-101147793D01*
X135473694Y-101227234D01*
X135428315Y-101330006D01*
X135428315Y-101330008D01*
X135425400Y-101355131D01*
X135425400Y-103144856D01*
X135425402Y-103144882D01*
X135428313Y-103169987D01*
X135428315Y-103169991D01*
X135473693Y-103272764D01*
X135473694Y-103272765D01*
X135553135Y-103352206D01*
X135655909Y-103397585D01*
X135681035Y-103400500D01*
X136418773Y-103400499D01*
X136485810Y-103420183D01*
X136531565Y-103472987D01*
X136541509Y-103542146D01*
X136512484Y-103605702D01*
X136453706Y-103643476D01*
X136438170Y-103646972D01*
X136306489Y-103667829D01*
X136134263Y-103723787D01*
X136134260Y-103723788D01*
X135972902Y-103806006D01*
X135826405Y-103912441D01*
X135826400Y-103912445D01*
X135698345Y-104040500D01*
X135698341Y-104040505D01*
X135591906Y-104187002D01*
X135509688Y-104348360D01*
X135509687Y-104348363D01*
X135453729Y-104520589D01*
X135425400Y-104699448D01*
X135425400Y-104880551D01*
X135453729Y-105059410D01*
X135509687Y-105231636D01*
X135509688Y-105231639D01*
X135546313Y-105303518D01*
X135581899Y-105373359D01*
X135591906Y-105392997D01*
X135698341Y-105539494D01*
X135698345Y-105539499D01*
X135826400Y-105667554D01*
X135826405Y-105667558D01*
X135930886Y-105743467D01*
X135972906Y-105773996D01*
X136032954Y-105804592D01*
X136134260Y-105856211D01*
X136134263Y-105856212D01*
X136220376Y-105884191D01*
X136306491Y-105912171D01*
X136379539Y-105923740D01*
X136466578Y-105937527D01*
X136529713Y-105967456D01*
X136566644Y-106026768D01*
X136565646Y-106096631D01*
X136527036Y-106154863D01*
X136466578Y-106182473D01*
X136306489Y-106207829D01*
X136134263Y-106263787D01*
X136134260Y-106263788D01*
X135972902Y-106346006D01*
X135826405Y-106452441D01*
X135826400Y-106452445D01*
X135698345Y-106580500D01*
X135698341Y-106580505D01*
X135591906Y-106727002D01*
X135509688Y-106888360D01*
X135509687Y-106888363D01*
X135453729Y-107060589D01*
X135425400Y-107239448D01*
X135425400Y-107420551D01*
X135453729Y-107599410D01*
X135509687Y-107771636D01*
X135509688Y-107771639D01*
X135565564Y-107881300D01*
X135575914Y-107901613D01*
X135591906Y-107932997D01*
X135698341Y-108079494D01*
X135698345Y-108079499D01*
X135826400Y-108207554D01*
X135826405Y-108207558D01*
X135930886Y-108283467D01*
X135972906Y-108313996D01*
X136032954Y-108344592D01*
X136134260Y-108396211D01*
X136134263Y-108396212D01*
X136220376Y-108424191D01*
X136306491Y-108452171D01*
X136379539Y-108463740D01*
X136466578Y-108477527D01*
X136529713Y-108507456D01*
X136566644Y-108566768D01*
X136565646Y-108636631D01*
X136527036Y-108694863D01*
X136466578Y-108722473D01*
X136306489Y-108747829D01*
X136134263Y-108803787D01*
X136134260Y-108803788D01*
X135972902Y-108886006D01*
X135826405Y-108992441D01*
X135826400Y-108992445D01*
X135698345Y-109120500D01*
X135698341Y-109120505D01*
X135591906Y-109267002D01*
X135509689Y-109428360D01*
X135453729Y-109600589D01*
X135425400Y-109779448D01*
X135425400Y-109960551D01*
X135453729Y-110139410D01*
X135509687Y-110311636D01*
X135509688Y-110311639D01*
X135591906Y-110472997D01*
X135698341Y-110619494D01*
X135698345Y-110619499D01*
X135826400Y-110747554D01*
X135826405Y-110747558D01*
X135954187Y-110840396D01*
X135972906Y-110853996D01*
X136032954Y-110884592D01*
X136134260Y-110936211D01*
X136134263Y-110936212D01*
X136220376Y-110964191D01*
X136306491Y-110992171D01*
X136379539Y-111003740D01*
X136466578Y-111017527D01*
X136529713Y-111047456D01*
X136566644Y-111106768D01*
X136565646Y-111176631D01*
X136527036Y-111234863D01*
X136466578Y-111262473D01*
X136306489Y-111287829D01*
X136134263Y-111343787D01*
X136134260Y-111343788D01*
X135972902Y-111426006D01*
X135826405Y-111532441D01*
X135826400Y-111532445D01*
X135698345Y-111660500D01*
X135698341Y-111660505D01*
X135591906Y-111807002D01*
X135509688Y-111968360D01*
X135509687Y-111968363D01*
X135453729Y-112140589D01*
X135425400Y-112319448D01*
X135425400Y-112500551D01*
X135453729Y-112679410D01*
X135509687Y-112851636D01*
X135509688Y-112851639D01*
X135591906Y-113012997D01*
X135698341Y-113159494D01*
X135698345Y-113159499D01*
X135826400Y-113287554D01*
X135826405Y-113287558D01*
X135954187Y-113380396D01*
X135972906Y-113393996D01*
X136027818Y-113421975D01*
X136134260Y-113476211D01*
X136134263Y-113476212D01*
X136220376Y-113504191D01*
X136306491Y-113532171D01*
X136410616Y-113548662D01*
X136438170Y-113553027D01*
X136501305Y-113582956D01*
X136538236Y-113642268D01*
X136537238Y-113712130D01*
X136498628Y-113770363D01*
X136434665Y-113798477D01*
X136418772Y-113799500D01*
X135681043Y-113799500D01*
X135681017Y-113799502D01*
X135655912Y-113802413D01*
X135655908Y-113802415D01*
X135553135Y-113847793D01*
X135473694Y-113927234D01*
X135428315Y-114030006D01*
X135428315Y-114030008D01*
X135425400Y-114055131D01*
X135425400Y-115844856D01*
X135425402Y-115844882D01*
X135428313Y-115869987D01*
X135428315Y-115869991D01*
X135473693Y-115972764D01*
X135473694Y-115972765D01*
X135553135Y-116052206D01*
X135655909Y-116097585D01*
X135681035Y-116100500D01*
X136418773Y-116100499D01*
X136485810Y-116120183D01*
X136531565Y-116172987D01*
X136541509Y-116242146D01*
X136512484Y-116305702D01*
X136453706Y-116343476D01*
X136438170Y-116346972D01*
X136306489Y-116367829D01*
X136134263Y-116423787D01*
X136134260Y-116423788D01*
X135972902Y-116506006D01*
X135826405Y-116612441D01*
X135826400Y-116612445D01*
X135698345Y-116740500D01*
X135698341Y-116740505D01*
X135591906Y-116887002D01*
X135509688Y-117048360D01*
X135509687Y-117048363D01*
X135453729Y-117220589D01*
X135425400Y-117399448D01*
X135425400Y-117580551D01*
X135453729Y-117759410D01*
X135509687Y-117931636D01*
X135509688Y-117931639D01*
X135591906Y-118092997D01*
X135698341Y-118239494D01*
X135698345Y-118239499D01*
X135826400Y-118367554D01*
X135826405Y-118367558D01*
X135933013Y-118445012D01*
X135972906Y-118473996D01*
X136078384Y-118527740D01*
X136134260Y-118556211D01*
X136134263Y-118556212D01*
X136220376Y-118584191D01*
X136306491Y-118612171D01*
X136379539Y-118623740D01*
X136466578Y-118637527D01*
X136529713Y-118667456D01*
X136566644Y-118726768D01*
X136565646Y-118796631D01*
X136527036Y-118854863D01*
X136466578Y-118882473D01*
X136306489Y-118907829D01*
X136134263Y-118963787D01*
X136134260Y-118963788D01*
X135972902Y-119046006D01*
X135826405Y-119152441D01*
X135826400Y-119152445D01*
X135698345Y-119280500D01*
X135698341Y-119280505D01*
X135591906Y-119427002D01*
X135509688Y-119588360D01*
X135509687Y-119588363D01*
X135453729Y-119760589D01*
X135425400Y-119939448D01*
X135425400Y-120120551D01*
X135453729Y-120299410D01*
X135509687Y-120471636D01*
X135509688Y-120471639D01*
X135591906Y-120632997D01*
X135698341Y-120779494D01*
X135698345Y-120779499D01*
X135826400Y-120907554D01*
X135826405Y-120907558D01*
X135907585Y-120966538D01*
X135972906Y-121013996D01*
X136054401Y-121055520D01*
X136134260Y-121096211D01*
X136134263Y-121096212D01*
X136220376Y-121124191D01*
X136306491Y-121152171D01*
X136389329Y-121165291D01*
X136485349Y-121180500D01*
X136485354Y-121180500D01*
X136666451Y-121180500D01*
X136753159Y-121166765D01*
X136845309Y-121152171D01*
X137017539Y-121096211D01*
X137178894Y-121013996D01*
X137325401Y-120907553D01*
X137453453Y-120779501D01*
X137559896Y-120632994D01*
X137642111Y-120471639D01*
X137698071Y-120299409D01*
X137724982Y-120129501D01*
X137726400Y-120120551D01*
X137726400Y-119939448D01*
X137707740Y-119821639D01*
X137698071Y-119760591D01*
X137642111Y-119588361D01*
X137642111Y-119588360D01*
X137582083Y-119470551D01*
X137559896Y-119427006D01*
X137546296Y-119408287D01*
X137453458Y-119280505D01*
X137453454Y-119280500D01*
X137325399Y-119152445D01*
X137325394Y-119152441D01*
X137178897Y-119046006D01*
X137178896Y-119046005D01*
X137178894Y-119046004D01*
X137127200Y-119019664D01*
X137017539Y-118963788D01*
X137017536Y-118963787D01*
X136845310Y-118907829D01*
X136685221Y-118882473D01*
X136622086Y-118852544D01*
X136585155Y-118793232D01*
X136586153Y-118723370D01*
X136624763Y-118665137D01*
X136685221Y-118637527D01*
X136755325Y-118626422D01*
X136845309Y-118612171D01*
X137017539Y-118556211D01*
X137178894Y-118473996D01*
X137325401Y-118367553D01*
X137453453Y-118239501D01*
X137559896Y-118092994D01*
X137642111Y-117931639D01*
X137698071Y-117759409D01*
X137712665Y-117667259D01*
X137726400Y-117580551D01*
X137726400Y-117399448D01*
X137709919Y-117295397D01*
X137698071Y-117220591D01*
X137642111Y-117048361D01*
X137642111Y-117048360D01*
X137613640Y-116992484D01*
X137559896Y-116887006D01*
X137546296Y-116868287D01*
X137453458Y-116740505D01*
X137453454Y-116740500D01*
X137325399Y-116612445D01*
X137325394Y-116612441D01*
X137178897Y-116506006D01*
X137178896Y-116506005D01*
X137178894Y-116506004D01*
X137127200Y-116479664D01*
X137017539Y-116423788D01*
X137017536Y-116423787D01*
X136845310Y-116367829D01*
X136713628Y-116346972D01*
X136650494Y-116317042D01*
X136613563Y-116257731D01*
X136614561Y-116187868D01*
X136653171Y-116129636D01*
X136717135Y-116101522D01*
X136733020Y-116100499D01*
X137470764Y-116100499D01*
X137470779Y-116100497D01*
X137470782Y-116100497D01*
X137495887Y-116097586D01*
X137495888Y-116097585D01*
X137495891Y-116097585D01*
X137598665Y-116052206D01*
X137678106Y-115972765D01*
X137723485Y-115869991D01*
X137726400Y-115844865D01*
X137726399Y-114055136D01*
X137726397Y-114055117D01*
X137723486Y-114030012D01*
X137723485Y-114030010D01*
X137723485Y-114030009D01*
X137678106Y-113927235D01*
X137598665Y-113847794D01*
X137588623Y-113843360D01*
X137495892Y-113802415D01*
X137470768Y-113799500D01*
X136733028Y-113799500D01*
X136665989Y-113779815D01*
X136620234Y-113727011D01*
X136610290Y-113657853D01*
X136639315Y-113594297D01*
X136698093Y-113556523D01*
X136713630Y-113553027D01*
X136736914Y-113549338D01*
X136845309Y-113532171D01*
X137017539Y-113476211D01*
X137178894Y-113393996D01*
X137325401Y-113287553D01*
X137453453Y-113159501D01*
X137559896Y-113012994D01*
X137642111Y-112851639D01*
X137698071Y-112679409D01*
X137712665Y-112587259D01*
X137726400Y-112500551D01*
X137726400Y-112319448D01*
X137709919Y-112215397D01*
X137698071Y-112140591D01*
X137670091Y-112054476D01*
X137642112Y-111968363D01*
X137642111Y-111968360D01*
X137586883Y-111859971D01*
X137559896Y-111807006D01*
X137546296Y-111788287D01*
X137453458Y-111660505D01*
X137453454Y-111660500D01*
X137325399Y-111532445D01*
X137325394Y-111532441D01*
X137178897Y-111426006D01*
X137178896Y-111426005D01*
X137178894Y-111426004D01*
X137127200Y-111399664D01*
X137017539Y-111343788D01*
X137017536Y-111343787D01*
X136845310Y-111287829D01*
X136685221Y-111262473D01*
X136622086Y-111232544D01*
X136585155Y-111173232D01*
X136586153Y-111103370D01*
X136624763Y-111045137D01*
X136685221Y-111017527D01*
X136755325Y-111006422D01*
X136845309Y-110992171D01*
X137017539Y-110936211D01*
X137178894Y-110853996D01*
X137325401Y-110747553D01*
X137453453Y-110619501D01*
X137559896Y-110472994D01*
X137642111Y-110311639D01*
X137698071Y-110139409D01*
X137712665Y-110047259D01*
X137726400Y-109960551D01*
X137726400Y-109779448D01*
X137709919Y-109675397D01*
X137698071Y-109600591D01*
X137661006Y-109486515D01*
X137642111Y-109428360D01*
X137605956Y-109357403D01*
X137559896Y-109267006D01*
X137546296Y-109248287D01*
X137453458Y-109120505D01*
X137453454Y-109120500D01*
X137325399Y-108992445D01*
X137325394Y-108992441D01*
X137178897Y-108886006D01*
X137178896Y-108886005D01*
X137178894Y-108886004D01*
X137127200Y-108859664D01*
X137017539Y-108803788D01*
X137017536Y-108803787D01*
X136845310Y-108747829D01*
X136685221Y-108722473D01*
X136622086Y-108692544D01*
X136585155Y-108633232D01*
X136586153Y-108563370D01*
X136624763Y-108505137D01*
X136685221Y-108477527D01*
X136755325Y-108466422D01*
X136845309Y-108452171D01*
X137017539Y-108396211D01*
X137178894Y-108313996D01*
X137325401Y-108207553D01*
X137453453Y-108079501D01*
X137559896Y-107932994D01*
X137642111Y-107771639D01*
X137698071Y-107599409D01*
X137712665Y-107507259D01*
X137726400Y-107420551D01*
X137726400Y-107239448D01*
X137709919Y-107135397D01*
X137698071Y-107060591D01*
X137642111Y-106888361D01*
X137642111Y-106888360D01*
X137605956Y-106817403D01*
X137559896Y-106727006D01*
X137546296Y-106708287D01*
X137453458Y-106580505D01*
X137453454Y-106580500D01*
X137325399Y-106452445D01*
X137325394Y-106452441D01*
X137178897Y-106346006D01*
X137178896Y-106346005D01*
X137178894Y-106346004D01*
X137099401Y-106305500D01*
X137017539Y-106263788D01*
X137017536Y-106263787D01*
X136845310Y-106207829D01*
X136685221Y-106182473D01*
X136622086Y-106152544D01*
X136585155Y-106093232D01*
X136586153Y-106023370D01*
X136624763Y-105965137D01*
X136685221Y-105937527D01*
X136755325Y-105926422D01*
X136845309Y-105912171D01*
X137017539Y-105856211D01*
X137178894Y-105773996D01*
X137325401Y-105667553D01*
X137453453Y-105539501D01*
X137559896Y-105392994D01*
X137642111Y-105231639D01*
X137698071Y-105059409D01*
X137717167Y-104938840D01*
X137726400Y-104880551D01*
X137726400Y-104699448D01*
X137709919Y-104595397D01*
X137698071Y-104520591D01*
X137670091Y-104434476D01*
X137642112Y-104348363D01*
X137642111Y-104348360D01*
X137569831Y-104206505D01*
X137559896Y-104187006D01*
X137481024Y-104078447D01*
X137453458Y-104040505D01*
X137453454Y-104040500D01*
X137325399Y-103912445D01*
X137325394Y-103912441D01*
X137178897Y-103806006D01*
X137178896Y-103806005D01*
X137178894Y-103806004D01*
X137123981Y-103778024D01*
X137017539Y-103723788D01*
X137017536Y-103723787D01*
X136845310Y-103667829D01*
X136713628Y-103646972D01*
X136650494Y-103617042D01*
X136613563Y-103557731D01*
X136614561Y-103487868D01*
X136653171Y-103429636D01*
X136717135Y-103401522D01*
X136733020Y-103400499D01*
X137470764Y-103400499D01*
X137470779Y-103400497D01*
X137470782Y-103400497D01*
X137495887Y-103397586D01*
X137495888Y-103397585D01*
X137495891Y-103397585D01*
X137598665Y-103352206D01*
X137678106Y-103272765D01*
X137723485Y-103169991D01*
X137726400Y-103144865D01*
X137726399Y-101761608D01*
X137746084Y-101694570D01*
X137798887Y-101648815D01*
X137868046Y-101638871D01*
X137931602Y-101667896D01*
X137938080Y-101673928D01*
X141644181Y-105380029D01*
X141677666Y-105441352D01*
X141680500Y-105467710D01*
X141680500Y-121914578D01*
X141660815Y-121981617D01*
X141612795Y-122025063D01*
X141500550Y-122082255D01*
X141431881Y-122095151D01*
X141367140Y-122068875D01*
X141326883Y-122011768D01*
X141323891Y-121941963D01*
X141326330Y-121934550D01*
X141326127Y-121934489D01*
X141327896Y-121928658D01*
X141362499Y-121754695D01*
X141362500Y-121754693D01*
X141362500Y-121577306D01*
X141362499Y-121577304D01*
X141327896Y-121403341D01*
X141327893Y-121403332D01*
X141260016Y-121239459D01*
X141260009Y-121239446D01*
X141161464Y-121091965D01*
X141161461Y-121091961D01*
X141036038Y-120966538D01*
X141036034Y-120966535D01*
X140888553Y-120867990D01*
X140888540Y-120867983D01*
X140724667Y-120800106D01*
X140724658Y-120800103D01*
X140550694Y-120765500D01*
X140550691Y-120765500D01*
X140373309Y-120765500D01*
X140373306Y-120765500D01*
X140199341Y-120800103D01*
X140199332Y-120800106D01*
X140035459Y-120867983D01*
X140035446Y-120867990D01*
X139887965Y-120966535D01*
X139887961Y-120966538D01*
X139787681Y-121066819D01*
X139726358Y-121100304D01*
X139656666Y-121095320D01*
X139612319Y-121066819D01*
X139512038Y-120966538D01*
X139512034Y-120966535D01*
X139364553Y-120867990D01*
X139364540Y-120867983D01*
X139200667Y-120800106D01*
X139200658Y-120800103D01*
X139026694Y-120765500D01*
X139026691Y-120765500D01*
X138849309Y-120765500D01*
X138849306Y-120765500D01*
X138675341Y-120800103D01*
X138675332Y-120800106D01*
X138511459Y-120867983D01*
X138511446Y-120867990D01*
X138363965Y-120966535D01*
X138363961Y-120966538D01*
X138238538Y-121091961D01*
X138238535Y-121091965D01*
X138139985Y-121239455D01*
X138084031Y-121374541D01*
X138057151Y-121414769D01*
X137379375Y-122092547D01*
X137157711Y-122314211D01*
X137106458Y-122365464D01*
X137046209Y-122425712D01*
X136958609Y-122556814D01*
X136958602Y-122556827D01*
X136898264Y-122702498D01*
X136898261Y-122702510D01*
X136867500Y-122857153D01*
X136867500Y-125276060D01*
X136847815Y-125343099D01*
X136795011Y-125388854D01*
X136725853Y-125398798D01*
X136662297Y-125369773D01*
X136655819Y-125363741D01*
X135806818Y-124514740D01*
X135773333Y-124453417D01*
X135770499Y-124427059D01*
X135770499Y-123565143D01*
X135770499Y-123565136D01*
X135770497Y-123565117D01*
X135767586Y-123540012D01*
X135767585Y-123540010D01*
X135767585Y-123540009D01*
X135722206Y-123437235D01*
X135642765Y-123357794D01*
X135642763Y-123357793D01*
X135539992Y-123312415D01*
X135514865Y-123309500D01*
X133725143Y-123309500D01*
X133725117Y-123309502D01*
X133700012Y-123312413D01*
X133700008Y-123312415D01*
X133597235Y-123357793D01*
X133517794Y-123437234D01*
X133472415Y-123540006D01*
X133472415Y-123540008D01*
X133469500Y-123565131D01*
X133469500Y-125354856D01*
X133469502Y-125354882D01*
X133472413Y-125379987D01*
X133472415Y-125379991D01*
X133517793Y-125482764D01*
X133517794Y-125482765D01*
X133597235Y-125562206D01*
X133700009Y-125607585D01*
X133725135Y-125610500D01*
X134462874Y-125610499D01*
X134529913Y-125630183D01*
X134575668Y-125682987D01*
X134585612Y-125752146D01*
X134556587Y-125815702D01*
X134497809Y-125853476D01*
X134482272Y-125856972D01*
X134350589Y-125877829D01*
X134178363Y-125933787D01*
X134178360Y-125933788D01*
X134017002Y-126016006D01*
X133870505Y-126122441D01*
X133870500Y-126122445D01*
X133742445Y-126250500D01*
X133742441Y-126250505D01*
X133636006Y-126397002D01*
X133553788Y-126558360D01*
X133553787Y-126558363D01*
X133497829Y-126730589D01*
X133469500Y-126909448D01*
X133469500Y-127090551D01*
X133497829Y-127269410D01*
X133553787Y-127441636D01*
X133553788Y-127441639D01*
X133609664Y-127551300D01*
X133633377Y-127597839D01*
X133636006Y-127602997D01*
X133742441Y-127749494D01*
X133742445Y-127749499D01*
X133870500Y-127877554D01*
X133870505Y-127877558D01*
X133969984Y-127949833D01*
X134017006Y-127983996D01*
X134093094Y-128022765D01*
X134178360Y-128066211D01*
X134178363Y-128066212D01*
X134264476Y-128094191D01*
X134350591Y-128122171D01*
X134433429Y-128135291D01*
X134529449Y-128150500D01*
X134529454Y-128150500D01*
X134710551Y-128150500D01*
X134797259Y-128136765D01*
X134889409Y-128122171D01*
X135061639Y-128066211D01*
X135222994Y-127983996D01*
X135369501Y-127877553D01*
X135497553Y-127749501D01*
X135497555Y-127749497D01*
X135497558Y-127749495D01*
X135583312Y-127631464D01*
X135638641Y-127588798D01*
X135708255Y-127582819D01*
X135770050Y-127615424D01*
X135771311Y-127616668D01*
X136619229Y-128464586D01*
X136619233Y-128464589D01*
X136750336Y-128552190D01*
X136750340Y-128552192D01*
X136750343Y-128552194D01*
X136896025Y-128612538D01*
X137050675Y-128643299D01*
X137050679Y-128643300D01*
X137050680Y-128643300D01*
X140460044Y-128643300D01*
X140460045Y-128643299D01*
X140614697Y-128612537D01*
X140760379Y-128552194D01*
X140891489Y-128464589D01*
X144131788Y-125224290D01*
X144219393Y-125093179D01*
X144279737Y-124947498D01*
X144310500Y-124792843D01*
X144310500Y-124635158D01*
X144310500Y-124635155D01*
X144303698Y-124600961D01*
X144309925Y-124531369D01*
X144352788Y-124476192D01*
X144418677Y-124452947D01*
X144431680Y-124452932D01*
X144438227Y-124453268D01*
X144515454Y-124465500D01*
X144676209Y-124465500D01*
X144679380Y-124465663D01*
X144709479Y-124476207D01*
X144740054Y-124485185D01*
X144742210Y-124487673D01*
X144745321Y-124488763D01*
X144764944Y-124513910D01*
X144785809Y-124537989D01*
X144786610Y-124541675D01*
X144788305Y-124543846D01*
X144789195Y-124553554D01*
X144797015Y-124589500D01*
X144797015Y-124594361D01*
X144827776Y-124749004D01*
X144827779Y-124749016D01*
X144888117Y-124894687D01*
X144888124Y-124894700D01*
X144975725Y-125025803D01*
X144975728Y-125025807D01*
X145087222Y-125137301D01*
X145087226Y-125137304D01*
X145218329Y-125224905D01*
X145218342Y-125224912D01*
X145341826Y-125276060D01*
X145364018Y-125285252D01*
X145432027Y-125298780D01*
X145493935Y-125331163D01*
X145495515Y-125332715D01*
X148122585Y-127959786D01*
X148122589Y-127959789D01*
X148253692Y-128047390D01*
X148253696Y-128047392D01*
X148253699Y-128047394D01*
X148399381Y-128107738D01*
X148554031Y-128138499D01*
X148554035Y-128138500D01*
X148554036Y-128138500D01*
X154204479Y-128138500D01*
X154204480Y-128138499D01*
X154359132Y-128107737D01*
X154504814Y-128047394D01*
X154635924Y-127959789D01*
X155561789Y-127033924D01*
X155594398Y-126985121D01*
X155648009Y-126940316D01*
X155717334Y-126931609D01*
X155780362Y-126961763D01*
X155817082Y-127021206D01*
X155821500Y-127054012D01*
X155821500Y-127894856D01*
X155821502Y-127894882D01*
X155824413Y-127919987D01*
X155824415Y-127919991D01*
X155869793Y-128022764D01*
X155869794Y-128022765D01*
X155949235Y-128102206D01*
X156052009Y-128147585D01*
X156077135Y-128150500D01*
X157866864Y-128150499D01*
X157866879Y-128150497D01*
X157866882Y-128150497D01*
X157891987Y-128147586D01*
X157891988Y-128147585D01*
X157891991Y-128147585D01*
X157994765Y-128102206D01*
X158074206Y-128022765D01*
X158119585Y-127919991D01*
X158122500Y-127894865D01*
X158122499Y-126317875D01*
X170635500Y-126317875D01*
X170635500Y-126666124D01*
X170674489Y-127012158D01*
X170674490Y-127012167D01*
X170674491Y-127012171D01*
X170692380Y-127090546D01*
X170751982Y-127351684D01*
X170751985Y-127351692D01*
X170866999Y-127680382D01*
X171018092Y-127994130D01*
X171203371Y-128288999D01*
X171203372Y-128289001D01*
X171420487Y-128561256D01*
X171666743Y-128807512D01*
X171938998Y-129024627D01*
X171939001Y-129024628D01*
X171939003Y-129024630D01*
X172233867Y-129209906D01*
X172547621Y-129361002D01*
X172794488Y-129447384D01*
X172876307Y-129476014D01*
X172876315Y-129476017D01*
X172876318Y-129476017D01*
X172876319Y-129476018D01*
X173215829Y-129553509D01*
X173561876Y-129592499D01*
X173561877Y-129592500D01*
X173561880Y-129592500D01*
X173910123Y-129592500D01*
X173910123Y-129592499D01*
X174256171Y-129553509D01*
X174595681Y-129476018D01*
X174924379Y-129361002D01*
X175238133Y-129209906D01*
X175532997Y-129024630D01*
X175678343Y-128908721D01*
X175805256Y-128807512D01*
X175805258Y-128807509D01*
X175805263Y-128807506D01*
X176051506Y-128561263D01*
X176058738Y-128552195D01*
X176268627Y-128289001D01*
X176268628Y-128288999D01*
X176268630Y-128288997D01*
X176453906Y-127994133D01*
X176605002Y-127680379D01*
X176720018Y-127351681D01*
X176797509Y-127012171D01*
X176836500Y-126666120D01*
X176836500Y-126317880D01*
X176797509Y-125971829D01*
X176720018Y-125632319D01*
X176695484Y-125562206D01*
X176667687Y-125482765D01*
X176605002Y-125303621D01*
X176453906Y-124989867D01*
X176268630Y-124695003D01*
X176268628Y-124695000D01*
X176268627Y-124694998D01*
X176051512Y-124422743D01*
X175805256Y-124176487D01*
X175533001Y-123959372D01*
X175532999Y-123959371D01*
X175238130Y-123774092D01*
X174924382Y-123622999D01*
X174595692Y-123507985D01*
X174595684Y-123507982D01*
X174285718Y-123437235D01*
X174256171Y-123430491D01*
X174256167Y-123430490D01*
X174256158Y-123430489D01*
X173910124Y-123391500D01*
X173910120Y-123391500D01*
X173561880Y-123391500D01*
X173561875Y-123391500D01*
X173215841Y-123430489D01*
X173215829Y-123430491D01*
X172876315Y-123507982D01*
X172876307Y-123507985D01*
X172547617Y-123622999D01*
X172233869Y-123774092D01*
X171939000Y-123959371D01*
X171938998Y-123959372D01*
X171666743Y-124176487D01*
X171420487Y-124422743D01*
X171203372Y-124694998D01*
X171203371Y-124695000D01*
X171018092Y-124989869D01*
X170866999Y-125303617D01*
X170751985Y-125632307D01*
X170751982Y-125632315D01*
X170674491Y-125971829D01*
X170674489Y-125971841D01*
X170635500Y-126317875D01*
X158122499Y-126317875D01*
X158122499Y-126105136D01*
X158122497Y-126105117D01*
X158119586Y-126080012D01*
X158119585Y-126080010D01*
X158119585Y-126080009D01*
X158074206Y-125977235D01*
X157994765Y-125897794D01*
X157967361Y-125885694D01*
X157891992Y-125852415D01*
X157866868Y-125849500D01*
X157129128Y-125849500D01*
X157062089Y-125829815D01*
X157016334Y-125777011D01*
X157006390Y-125707853D01*
X157035415Y-125644297D01*
X157094193Y-125606523D01*
X157109730Y-125603027D01*
X157133014Y-125599338D01*
X157241409Y-125582171D01*
X157413639Y-125526211D01*
X157574994Y-125443996D01*
X157721501Y-125337553D01*
X157849553Y-125209501D01*
X157955996Y-125062994D01*
X158038211Y-124901639D01*
X158094171Y-124729409D01*
X158115172Y-124596816D01*
X158122500Y-124550551D01*
X158122500Y-124369448D01*
X158103468Y-124249290D01*
X158094171Y-124190591D01*
X158053200Y-124064494D01*
X158038212Y-124018363D01*
X158038211Y-124018360D01*
X158008153Y-123959370D01*
X157955996Y-123857006D01*
X157904713Y-123786420D01*
X157849558Y-123710505D01*
X157849554Y-123710500D01*
X157721499Y-123582445D01*
X157721494Y-123582441D01*
X157574997Y-123476006D01*
X157574996Y-123476005D01*
X157574994Y-123476004D01*
X157498906Y-123437235D01*
X157413639Y-123393788D01*
X157413636Y-123393787D01*
X157241410Y-123337829D01*
X157062551Y-123309500D01*
X157062546Y-123309500D01*
X156881454Y-123309500D01*
X156881449Y-123309500D01*
X156702589Y-123337829D01*
X156530363Y-123393787D01*
X156530360Y-123393788D01*
X156369002Y-123476006D01*
X156222505Y-123582441D01*
X156222500Y-123582445D01*
X156181765Y-123623181D01*
X156120442Y-123656666D01*
X156094084Y-123659500D01*
X155691072Y-123659500D01*
X155536429Y-123690260D01*
X155536421Y-123690262D01*
X155390743Y-123750604D01*
X155390733Y-123750609D01*
X155259630Y-123838210D01*
X155259626Y-123838213D01*
X154429711Y-124668130D01*
X154429705Y-124668136D01*
X154422175Y-124675665D01*
X154360850Y-124709146D01*
X154291159Y-124704157D01*
X154235228Y-124662282D01*
X154210815Y-124596816D01*
X154210500Y-124587978D01*
X154210500Y-124541160D01*
X154210501Y-124541147D01*
X154210501Y-124388843D01*
X154210501Y-124388842D01*
X154173666Y-124251375D01*
X154102508Y-124128125D01*
X153239875Y-123265492D01*
X153239874Y-123265491D01*
X153239871Y-123265489D01*
X153116627Y-123194335D01*
X153116626Y-123194334D01*
X153116625Y-123194334D01*
X152979158Y-123157500D01*
X152979157Y-123157500D01*
X152635566Y-123157500D01*
X152568527Y-123137815D01*
X152566675Y-123136602D01*
X152477817Y-123077228D01*
X152477804Y-123077221D01*
X152350332Y-123024421D01*
X152350322Y-123024418D01*
X152214995Y-122997500D01*
X152214993Y-122997500D01*
X152077007Y-122997500D01*
X152077005Y-122997500D01*
X151941677Y-123024418D01*
X151941667Y-123024421D01*
X151814195Y-123077221D01*
X151814182Y-123077228D01*
X151699458Y-123153885D01*
X151699454Y-123153888D01*
X151601888Y-123251454D01*
X151601885Y-123251458D01*
X151525228Y-123366182D01*
X151525221Y-123366195D01*
X151472421Y-123493667D01*
X151472418Y-123493677D01*
X151445500Y-123629004D01*
X151445500Y-123629007D01*
X151445500Y-123766993D01*
X151445500Y-123766995D01*
X151445499Y-123766995D01*
X151472418Y-123902322D01*
X151472421Y-123902332D01*
X151525221Y-124029804D01*
X151525228Y-124029817D01*
X151601885Y-124144541D01*
X151601888Y-124144545D01*
X151699454Y-124242111D01*
X151699458Y-124242114D01*
X151814182Y-124318771D01*
X151814195Y-124318778D01*
X151936525Y-124369448D01*
X151941672Y-124371580D01*
X151941676Y-124371580D01*
X151941677Y-124371581D01*
X152077004Y-124398500D01*
X152077007Y-124398500D01*
X152214995Y-124398500D01*
X152306041Y-124380389D01*
X152350328Y-124371580D01*
X152477811Y-124318775D01*
X152507417Y-124298993D01*
X152564990Y-124260524D01*
X152631667Y-124239646D01*
X152699047Y-124258130D01*
X152721562Y-124275945D01*
X153093181Y-124647564D01*
X153126666Y-124708887D01*
X153129500Y-124735245D01*
X153129500Y-125748433D01*
X153109815Y-125815472D01*
X153108602Y-125817324D01*
X153049228Y-125906182D01*
X153049221Y-125906195D01*
X152996421Y-126033667D01*
X152996418Y-126033677D01*
X152969500Y-126169004D01*
X152969500Y-126306997D01*
X152985873Y-126389309D01*
X152979646Y-126458900D01*
X152936783Y-126514078D01*
X152870893Y-126537322D01*
X152864256Y-126537500D01*
X149015818Y-126537500D01*
X148948779Y-126517815D01*
X148928137Y-126501181D01*
X147104137Y-124677181D01*
X147070652Y-124615858D01*
X147075636Y-124546166D01*
X147117508Y-124490233D01*
X147182972Y-124465816D01*
X147191818Y-124465500D01*
X147196551Y-124465500D01*
X147290135Y-124450677D01*
X147375409Y-124437171D01*
X147547639Y-124381211D01*
X147708994Y-124298996D01*
X147855501Y-124192553D01*
X147983553Y-124064501D01*
X148089996Y-123917994D01*
X148172211Y-123756639D01*
X148228171Y-123584409D01*
X148251481Y-123437235D01*
X148256500Y-123405551D01*
X148256500Y-122974448D01*
X148237921Y-122857153D01*
X148228171Y-122795591D01*
X148172211Y-122623361D01*
X148172211Y-122623360D01*
X148124338Y-122529406D01*
X148089996Y-122462006D01*
X148019855Y-122365464D01*
X147983558Y-122315505D01*
X147983554Y-122315500D01*
X147855499Y-122187445D01*
X147855494Y-122187441D01*
X147708997Y-122081006D01*
X147708996Y-122081005D01*
X147708994Y-122081004D01*
X147651170Y-122051541D01*
X147547639Y-121998788D01*
X147547636Y-121998787D01*
X147375410Y-121942829D01*
X147196551Y-121914500D01*
X147196546Y-121914500D01*
X147015454Y-121914500D01*
X147015449Y-121914500D01*
X146836589Y-121942829D01*
X146664363Y-121998787D01*
X146664360Y-121998788D01*
X146503002Y-122081006D01*
X146356505Y-122187441D01*
X146356500Y-122187445D01*
X146228445Y-122315500D01*
X146228441Y-122315505D01*
X146122006Y-122462002D01*
X146039788Y-122623360D01*
X146039787Y-122623363D01*
X145983829Y-122795589D01*
X145978473Y-122829406D01*
X145948543Y-122892540D01*
X145889232Y-122929471D01*
X145819369Y-122928473D01*
X145761137Y-122889863D01*
X145733527Y-122829406D01*
X145732083Y-122820291D01*
X145728171Y-122795591D01*
X145672211Y-122623361D01*
X145672211Y-122623360D01*
X145624338Y-122529406D01*
X145589996Y-122462006D01*
X145519855Y-122365464D01*
X145483558Y-122315505D01*
X145483554Y-122315500D01*
X145355499Y-122187445D01*
X145355494Y-122187441D01*
X145208993Y-122081003D01*
X145208992Y-122081002D01*
X145099205Y-122025062D01*
X145048409Y-121977088D01*
X145031500Y-121914578D01*
X145031500Y-105144084D01*
X145031500Y-105144082D01*
X145005365Y-105046546D01*
X145002503Y-105035863D01*
X144973620Y-104985837D01*
X144946485Y-104938837D01*
X144867263Y-104859615D01*
X144867262Y-104859614D01*
X144862932Y-104855284D01*
X144862921Y-104855274D01*
X137690244Y-97682597D01*
X137656759Y-97621274D01*
X137659993Y-97556600D01*
X137698071Y-97439409D01*
X137726400Y-97260551D01*
X137726400Y-97079448D01*
X137709919Y-96975397D01*
X137698071Y-96900591D01*
X137642111Y-96728361D01*
X137642111Y-96728360D01*
X137611268Y-96667829D01*
X137559896Y-96567006D01*
X137501600Y-96486768D01*
X137453458Y-96420505D01*
X137453454Y-96420500D01*
X137325399Y-96292445D01*
X137325394Y-96292441D01*
X137178897Y-96186006D01*
X137178896Y-96186005D01*
X137178894Y-96186004D01*
X137127200Y-96159664D01*
X137017539Y-96103788D01*
X137017536Y-96103787D01*
X136845310Y-96047829D01*
X136685221Y-96022473D01*
X136622086Y-95992544D01*
X136585155Y-95933232D01*
X136586153Y-95863370D01*
X136624763Y-95805137D01*
X136685221Y-95777527D01*
X136755325Y-95766422D01*
X136845309Y-95752171D01*
X137017539Y-95696211D01*
X137178894Y-95613996D01*
X137325401Y-95507553D01*
X137453453Y-95379501D01*
X137559896Y-95232994D01*
X137642111Y-95071639D01*
X137698071Y-94899409D01*
X137712665Y-94807259D01*
X137726400Y-94720551D01*
X137726400Y-94539448D01*
X137709919Y-94435397D01*
X137698071Y-94360591D01*
X137657397Y-94235407D01*
X137642112Y-94188363D01*
X137642111Y-94188360D01*
X137610865Y-94127037D01*
X137559896Y-94027006D01*
X137546296Y-94008287D01*
X137453458Y-93880505D01*
X137453454Y-93880500D01*
X137325399Y-93752445D01*
X137325394Y-93752441D01*
X137178897Y-93646006D01*
X137178896Y-93646005D01*
X137178894Y-93646004D01*
X137127200Y-93619664D01*
X137017539Y-93563788D01*
X137017536Y-93563787D01*
X136845310Y-93507829D01*
X136685221Y-93482473D01*
X136622086Y-93452544D01*
X136585155Y-93393232D01*
X136586153Y-93323370D01*
X136624763Y-93265137D01*
X136685221Y-93237527D01*
X136755325Y-93226422D01*
X136845309Y-93212171D01*
X137017539Y-93156211D01*
X137178894Y-93073996D01*
X137325401Y-92967553D01*
X137453453Y-92839501D01*
X137559896Y-92692994D01*
X137642111Y-92531639D01*
X137698071Y-92359409D01*
X137725443Y-92186591D01*
X137726400Y-92180551D01*
X137726400Y-91999448D01*
X137706817Y-91875810D01*
X137698071Y-91820591D01*
X137655539Y-91689688D01*
X137642112Y-91648363D01*
X137642111Y-91648360D01*
X137606485Y-91578441D01*
X137559896Y-91487006D01*
X137529370Y-91444990D01*
X137453458Y-91340505D01*
X137453454Y-91340500D01*
X137325399Y-91212445D01*
X137325394Y-91212441D01*
X137178897Y-91106006D01*
X137178896Y-91106005D01*
X137178894Y-91106004D01*
X137127200Y-91079664D01*
X137017539Y-91023788D01*
X137017536Y-91023787D01*
X136845310Y-90967829D01*
X136713628Y-90946972D01*
X136650494Y-90917042D01*
X136613563Y-90857731D01*
X136614561Y-90787868D01*
X136653171Y-90729636D01*
X136717135Y-90701522D01*
X136733020Y-90700499D01*
X137470764Y-90700499D01*
X137470779Y-90700497D01*
X137470782Y-90700497D01*
X137495887Y-90697586D01*
X137495888Y-90697585D01*
X137495891Y-90697585D01*
X137598665Y-90652206D01*
X137678106Y-90572765D01*
X137723485Y-90469991D01*
X137726400Y-90444865D01*
X137726399Y-88655136D01*
X137726397Y-88655117D01*
X137723486Y-88630012D01*
X137723485Y-88630010D01*
X137723485Y-88630009D01*
X137678106Y-88527235D01*
X137598665Y-88447794D01*
X137598663Y-88447793D01*
X137495892Y-88402415D01*
X137470768Y-88399500D01*
X136733028Y-88399500D01*
X136665989Y-88379815D01*
X136620234Y-88327011D01*
X136610290Y-88257853D01*
X136639315Y-88194297D01*
X136698093Y-88156523D01*
X136713630Y-88153027D01*
X136745993Y-88147901D01*
X136845309Y-88132171D01*
X137017539Y-88076211D01*
X137178894Y-87993996D01*
X137325401Y-87887553D01*
X137453453Y-87759501D01*
X137559896Y-87612994D01*
X137642111Y-87451639D01*
X137686354Y-87315470D01*
X137725788Y-87257799D01*
X137790146Y-87230600D01*
X137858993Y-87242514D01*
X137891964Y-87266111D01*
X146953181Y-96327328D01*
X146986666Y-96388651D01*
X146989500Y-96415009D01*
X146989500Y-100325500D01*
X146969815Y-100392539D01*
X146917011Y-100438294D01*
X146865500Y-100449500D01*
X145155143Y-100449500D01*
X145155117Y-100449502D01*
X145130012Y-100452413D01*
X145130008Y-100452415D01*
X145027235Y-100497793D01*
X144947794Y-100577234D01*
X144902415Y-100680006D01*
X144902415Y-100680008D01*
X144899500Y-100705131D01*
X144899500Y-102494856D01*
X144899502Y-102494882D01*
X144902413Y-102519987D01*
X144902415Y-102519991D01*
X144947793Y-102622764D01*
X144947794Y-102622765D01*
X145027235Y-102702206D01*
X145130009Y-102747585D01*
X145155135Y-102750500D01*
X146865500Y-102750499D01*
X146932539Y-102770184D01*
X146978294Y-102822987D01*
X146989500Y-102874499D01*
X146989500Y-102985118D01*
X147018497Y-103093337D01*
X147074515Y-103190363D01*
X147074517Y-103190365D01*
X153241555Y-109357403D01*
X153275040Y-109418726D01*
X153271805Y-109483402D01*
X153233729Y-109600589D01*
X153205400Y-109779448D01*
X153205400Y-109960551D01*
X153233729Y-110139410D01*
X153289687Y-110311636D01*
X153289688Y-110311639D01*
X153371906Y-110472997D01*
X153478341Y-110619494D01*
X153478345Y-110619499D01*
X153606400Y-110747554D01*
X153606405Y-110747558D01*
X153734187Y-110840396D01*
X153752906Y-110853996D01*
X153812954Y-110884592D01*
X153914260Y-110936211D01*
X153914263Y-110936212D01*
X154000376Y-110964191D01*
X154086491Y-110992171D01*
X154159539Y-111003740D01*
X154246578Y-111017527D01*
X154309713Y-111047456D01*
X154346644Y-111106768D01*
X154345646Y-111176631D01*
X154307036Y-111234863D01*
X154246578Y-111262473D01*
X154086489Y-111287829D01*
X153914263Y-111343787D01*
X153914260Y-111343788D01*
X153752902Y-111426006D01*
X153606405Y-111532441D01*
X153606400Y-111532445D01*
X153478345Y-111660500D01*
X153478341Y-111660505D01*
X153371906Y-111807002D01*
X153289688Y-111968360D01*
X153289687Y-111968363D01*
X153233729Y-112140589D01*
X153205400Y-112319448D01*
X153205400Y-112500551D01*
X153233729Y-112679410D01*
X153289687Y-112851636D01*
X153289688Y-112851639D01*
X153371906Y-113012997D01*
X153478341Y-113159494D01*
X153478345Y-113159499D01*
X153606400Y-113287554D01*
X153606405Y-113287558D01*
X153734187Y-113380396D01*
X153752906Y-113393996D01*
X153807818Y-113421975D01*
X153914260Y-113476211D01*
X153914263Y-113476212D01*
X154000376Y-113504191D01*
X154086491Y-113532171D01*
X154174485Y-113546107D01*
X154218169Y-113553027D01*
X154281304Y-113582956D01*
X154318235Y-113642268D01*
X154317237Y-113712130D01*
X154278627Y-113770363D01*
X154214664Y-113798477D01*
X154198771Y-113799500D01*
X153461043Y-113799500D01*
X153461017Y-113799502D01*
X153435912Y-113802413D01*
X153435908Y-113802415D01*
X153333135Y-113847793D01*
X153253694Y-113927234D01*
X153208315Y-114030006D01*
X153208315Y-114030008D01*
X153205400Y-114055131D01*
X153205400Y-115844856D01*
X153205402Y-115844882D01*
X153208313Y-115869987D01*
X153208315Y-115869991D01*
X153253693Y-115972764D01*
X153253694Y-115972765D01*
X153333135Y-116052206D01*
X153435909Y-116097585D01*
X153461035Y-116100500D01*
X154198773Y-116100499D01*
X154265810Y-116120183D01*
X154311565Y-116172987D01*
X154321509Y-116242146D01*
X154292484Y-116305702D01*
X154233706Y-116343476D01*
X154218170Y-116346972D01*
X154086489Y-116367829D01*
X153914263Y-116423787D01*
X153914260Y-116423788D01*
X153752902Y-116506006D01*
X153606405Y-116612441D01*
X153606400Y-116612445D01*
X153478345Y-116740500D01*
X153478341Y-116740505D01*
X153371906Y-116887002D01*
X153289688Y-117048360D01*
X153289687Y-117048363D01*
X153233729Y-117220589D01*
X153205400Y-117399448D01*
X153205400Y-117580551D01*
X153233729Y-117759410D01*
X153289687Y-117931636D01*
X153289688Y-117931639D01*
X153371906Y-118092997D01*
X153478341Y-118239494D01*
X153478345Y-118239499D01*
X153606400Y-118367554D01*
X153606405Y-118367558D01*
X153713013Y-118445012D01*
X153752906Y-118473996D01*
X153858384Y-118527740D01*
X153914260Y-118556211D01*
X153914263Y-118556212D01*
X154000376Y-118584191D01*
X154086491Y-118612171D01*
X154159539Y-118623740D01*
X154246578Y-118637527D01*
X154309713Y-118667456D01*
X154346644Y-118726768D01*
X154345646Y-118796631D01*
X154307036Y-118854863D01*
X154246578Y-118882473D01*
X154086489Y-118907829D01*
X153914263Y-118963787D01*
X153914260Y-118963788D01*
X153752902Y-119046006D01*
X153606405Y-119152441D01*
X153606400Y-119152445D01*
X153478345Y-119280500D01*
X153478341Y-119280505D01*
X153371906Y-119427002D01*
X153289688Y-119588360D01*
X153289687Y-119588363D01*
X153233729Y-119760589D01*
X153205400Y-119939448D01*
X153205400Y-120120551D01*
X153233729Y-120299410D01*
X153289687Y-120471636D01*
X153289688Y-120471639D01*
X153371906Y-120632997D01*
X153478341Y-120779494D01*
X153478345Y-120779499D01*
X153606400Y-120907554D01*
X153606405Y-120907558D01*
X153687585Y-120966538D01*
X153752906Y-121013996D01*
X153834401Y-121055520D01*
X153914260Y-121096211D01*
X153914263Y-121096212D01*
X154000376Y-121124191D01*
X154086491Y-121152171D01*
X154169329Y-121165291D01*
X154265349Y-121180500D01*
X154265354Y-121180500D01*
X154446451Y-121180500D01*
X154533159Y-121166765D01*
X154625309Y-121152171D01*
X154797539Y-121096211D01*
X154958894Y-121013996D01*
X155105401Y-120907553D01*
X155233453Y-120779501D01*
X155339896Y-120632994D01*
X155422111Y-120471639D01*
X155478071Y-120299409D01*
X155504982Y-120129501D01*
X155506400Y-120120551D01*
X155506400Y-119939448D01*
X155487740Y-119821639D01*
X155478071Y-119760591D01*
X155422111Y-119588361D01*
X155422111Y-119588360D01*
X155362083Y-119470551D01*
X155339896Y-119427006D01*
X155326296Y-119408287D01*
X155233458Y-119280505D01*
X155233454Y-119280500D01*
X155105399Y-119152445D01*
X155105394Y-119152441D01*
X154958897Y-119046006D01*
X154958896Y-119046005D01*
X154958894Y-119046004D01*
X154907200Y-119019664D01*
X154797539Y-118963788D01*
X154797536Y-118963787D01*
X154625310Y-118907829D01*
X154465221Y-118882473D01*
X154402086Y-118852544D01*
X154365155Y-118793232D01*
X154366153Y-118723370D01*
X154404763Y-118665137D01*
X154465221Y-118637527D01*
X154535325Y-118626422D01*
X154625309Y-118612171D01*
X154797539Y-118556211D01*
X154958894Y-118473996D01*
X155105401Y-118367553D01*
X155233453Y-118239501D01*
X155339896Y-118092994D01*
X155422111Y-117931639D01*
X155478071Y-117759409D01*
X155492665Y-117667259D01*
X155506400Y-117580551D01*
X155506400Y-117399448D01*
X155489919Y-117295397D01*
X155478071Y-117220591D01*
X155422111Y-117048361D01*
X155422111Y-117048360D01*
X155393640Y-116992484D01*
X155339896Y-116887006D01*
X155326296Y-116868287D01*
X155233458Y-116740505D01*
X155233454Y-116740500D01*
X155105399Y-116612445D01*
X155105394Y-116612441D01*
X154958897Y-116506006D01*
X154958896Y-116506005D01*
X154958894Y-116506004D01*
X154907200Y-116479664D01*
X154797539Y-116423788D01*
X154797536Y-116423787D01*
X154625310Y-116367829D01*
X154493628Y-116346972D01*
X154430494Y-116317042D01*
X154393563Y-116257731D01*
X154394561Y-116187868D01*
X154433171Y-116129636D01*
X154497135Y-116101522D01*
X154513020Y-116100499D01*
X155250764Y-116100499D01*
X155250779Y-116100497D01*
X155250782Y-116100497D01*
X155275887Y-116097586D01*
X155275888Y-116097585D01*
X155275891Y-116097585D01*
X155378665Y-116052206D01*
X155458106Y-115972765D01*
X155503485Y-115869991D01*
X155506400Y-115844865D01*
X155506399Y-114629385D01*
X155526084Y-114562347D01*
X155542713Y-114541710D01*
X156096410Y-113988014D01*
X156168884Y-113862485D01*
X156206400Y-113722474D01*
X156206400Y-113577526D01*
X156206400Y-103477525D01*
X156168884Y-103337515D01*
X156132511Y-103274515D01*
X156096410Y-103211986D01*
X155542718Y-102658294D01*
X155509233Y-102596971D01*
X155506399Y-102570613D01*
X155506399Y-101761609D01*
X155526084Y-101694570D01*
X155578888Y-101648815D01*
X155648046Y-101638871D01*
X155711602Y-101667896D01*
X155718080Y-101673928D01*
X159431181Y-105387029D01*
X159464666Y-105448352D01*
X159467500Y-105474710D01*
X159467500Y-120988481D01*
X159447815Y-121055520D01*
X159431181Y-121076162D01*
X159348888Y-121158454D01*
X159348885Y-121158458D01*
X159272228Y-121273182D01*
X159272221Y-121273195D01*
X159219421Y-121400667D01*
X159219418Y-121400677D01*
X159192500Y-121536004D01*
X159192500Y-121536007D01*
X159192500Y-121673993D01*
X159192500Y-121673995D01*
X159192499Y-121673995D01*
X159219418Y-121809322D01*
X159219421Y-121809332D01*
X159272221Y-121936804D01*
X159272228Y-121936817D01*
X159348885Y-122051541D01*
X159348888Y-122051545D01*
X159446454Y-122149111D01*
X159446458Y-122149114D01*
X159561182Y-122225771D01*
X159561195Y-122225778D01*
X159688667Y-122278578D01*
X159688672Y-122278580D01*
X159688676Y-122278580D01*
X159688677Y-122278581D01*
X159824004Y-122305500D01*
X159824007Y-122305500D01*
X159961995Y-122305500D01*
X160053041Y-122287389D01*
X160097328Y-122278580D01*
X160224811Y-122225775D01*
X160339542Y-122149114D01*
X160437114Y-122051542D01*
X160513775Y-121936811D01*
X160523017Y-121914500D01*
X160566578Y-121809332D01*
X160566580Y-121809328D01*
X160593500Y-121673993D01*
X160593500Y-121536007D01*
X160593500Y-121536004D01*
X160566581Y-121400677D01*
X160566580Y-121400676D01*
X160566580Y-121400672D01*
X160555756Y-121374541D01*
X160513778Y-121273195D01*
X160513771Y-121273182D01*
X160437114Y-121158458D01*
X160437111Y-121158454D01*
X160354819Y-121076162D01*
X160321334Y-121014839D01*
X160318500Y-120988481D01*
X160318500Y-119289448D01*
X163187500Y-119289448D01*
X163187500Y-119470551D01*
X163215829Y-119649410D01*
X163271787Y-119821636D01*
X163271788Y-119821639D01*
X163354006Y-119982997D01*
X163460441Y-120129494D01*
X163460445Y-120129499D01*
X163588500Y-120257554D01*
X163588505Y-120257558D01*
X163662814Y-120311546D01*
X163735006Y-120363996D01*
X163840484Y-120417740D01*
X163896360Y-120446211D01*
X163896363Y-120446212D01*
X163960975Y-120467205D01*
X164068591Y-120502171D01*
X164151429Y-120515291D01*
X164247449Y-120530500D01*
X164247454Y-120530500D01*
X164428551Y-120530500D01*
X164515259Y-120516765D01*
X164607409Y-120502171D01*
X164779639Y-120446211D01*
X164940994Y-120363996D01*
X165087501Y-120257553D01*
X165215553Y-120129501D01*
X165321996Y-119982994D01*
X165404211Y-119821639D01*
X165460171Y-119649409D01*
X165474765Y-119557259D01*
X165488500Y-119470551D01*
X165488500Y-119289448D01*
X165466799Y-119152441D01*
X165460171Y-119110591D01*
X165412473Y-118963788D01*
X165404212Y-118938363D01*
X165404211Y-118938360D01*
X165360485Y-118852544D01*
X165321996Y-118777006D01*
X165285496Y-118726768D01*
X165215558Y-118630505D01*
X165215554Y-118630500D01*
X165087499Y-118502445D01*
X165087494Y-118502441D01*
X165043023Y-118470131D01*
X166743500Y-118470131D01*
X166743500Y-120259856D01*
X166743502Y-120259882D01*
X166746413Y-120284987D01*
X166746415Y-120284991D01*
X166791793Y-120387764D01*
X166791794Y-120387765D01*
X166871235Y-120467206D01*
X166974009Y-120512585D01*
X166999135Y-120515500D01*
X168788864Y-120515499D01*
X168788879Y-120515497D01*
X168788882Y-120515497D01*
X168813987Y-120512586D01*
X168813988Y-120512585D01*
X168813991Y-120512585D01*
X168916765Y-120467206D01*
X168996206Y-120387765D01*
X169041585Y-120284991D01*
X169044500Y-120259865D01*
X169044499Y-118470136D01*
X169044497Y-118470117D01*
X169041586Y-118445012D01*
X169041585Y-118445010D01*
X169041585Y-118445009D01*
X168996206Y-118342235D01*
X168916765Y-118262794D01*
X168905520Y-118257829D01*
X168813992Y-118217415D01*
X168788865Y-118214500D01*
X166999143Y-118214500D01*
X166999117Y-118214502D01*
X166974012Y-118217413D01*
X166974008Y-118217415D01*
X166871235Y-118262793D01*
X166791794Y-118342234D01*
X166746415Y-118445006D01*
X166746415Y-118445008D01*
X166743500Y-118470131D01*
X165043023Y-118470131D01*
X164940997Y-118396006D01*
X164940996Y-118396005D01*
X164940994Y-118396004D01*
X164885156Y-118367553D01*
X164779639Y-118313788D01*
X164779636Y-118313787D01*
X164607410Y-118257829D01*
X164428551Y-118229500D01*
X164428546Y-118229500D01*
X164247454Y-118229500D01*
X164247449Y-118229500D01*
X164068589Y-118257829D01*
X163896363Y-118313787D01*
X163896360Y-118313788D01*
X163735002Y-118396006D01*
X163588505Y-118502441D01*
X163588500Y-118502445D01*
X163460445Y-118630500D01*
X163460441Y-118630505D01*
X163354006Y-118777002D01*
X163271788Y-118938360D01*
X163271787Y-118938363D01*
X163215829Y-119110589D01*
X163187500Y-119289448D01*
X160318500Y-119289448D01*
X160318500Y-114194448D01*
X166743500Y-114194448D01*
X166743500Y-114375551D01*
X166771829Y-114554410D01*
X166827787Y-114726636D01*
X166827788Y-114726639D01*
X166910006Y-114887997D01*
X167016441Y-115034494D01*
X167016445Y-115034499D01*
X167144500Y-115162554D01*
X167144505Y-115162558D01*
X167223556Y-115219991D01*
X167291006Y-115268996D01*
X167396484Y-115322740D01*
X167452360Y-115351211D01*
X167452363Y-115351212D01*
X167538476Y-115379191D01*
X167624591Y-115407171D01*
X167707429Y-115420291D01*
X167803449Y-115435500D01*
X167803454Y-115435500D01*
X167984551Y-115435500D01*
X168071259Y-115421765D01*
X168163409Y-115407171D01*
X168335639Y-115351211D01*
X168496994Y-115268996D01*
X168643501Y-115162553D01*
X168771553Y-115034501D01*
X168877996Y-114887994D01*
X168960211Y-114726639D01*
X169016171Y-114554409D01*
X169030765Y-114462259D01*
X169044500Y-114375551D01*
X169044500Y-114194448D01*
X169018455Y-114030012D01*
X169016171Y-114015591D01*
X168975919Y-113891706D01*
X168960212Y-113843363D01*
X168960211Y-113843360D01*
X168900927Y-113727011D01*
X168877996Y-113682006D01*
X168814272Y-113594297D01*
X168771558Y-113535505D01*
X168771554Y-113535500D01*
X168643499Y-113407445D01*
X168643494Y-113407441D01*
X168496997Y-113301006D01*
X168496996Y-113301005D01*
X168496994Y-113301004D01*
X168445300Y-113274664D01*
X168335639Y-113218788D01*
X168335636Y-113218787D01*
X168163410Y-113162829D01*
X167984551Y-113134500D01*
X167984546Y-113134500D01*
X167803454Y-113134500D01*
X167803449Y-113134500D01*
X167624589Y-113162829D01*
X167452363Y-113218787D01*
X167452360Y-113218788D01*
X167291002Y-113301006D01*
X167144505Y-113407441D01*
X167144500Y-113407445D01*
X167016445Y-113535500D01*
X167016441Y-113535505D01*
X166910006Y-113682002D01*
X166827788Y-113843360D01*
X166827787Y-113843363D01*
X166771829Y-114015589D01*
X166743500Y-114194448D01*
X160318500Y-114194448D01*
X160318500Y-105191084D01*
X160318500Y-105191082D01*
X160289503Y-105082863D01*
X160233485Y-104985837D01*
X160154263Y-104906615D01*
X155470244Y-100222596D01*
X155436759Y-100161273D01*
X155439993Y-100096600D01*
X155478071Y-99979409D01*
X155486165Y-99928305D01*
X155506400Y-99800551D01*
X155506400Y-99619448D01*
X155485927Y-99490195D01*
X155478071Y-99440591D01*
X155425206Y-99277886D01*
X155422112Y-99268363D01*
X155422111Y-99268360D01*
X155390591Y-99206500D01*
X155339896Y-99107006D01*
X155281600Y-99026768D01*
X155233458Y-98960505D01*
X155233454Y-98960500D01*
X155105399Y-98832445D01*
X155105394Y-98832441D01*
X154958897Y-98726006D01*
X154958896Y-98726005D01*
X154958894Y-98726004D01*
X154907200Y-98699664D01*
X154797539Y-98643788D01*
X154797536Y-98643787D01*
X154625310Y-98587829D01*
X154465221Y-98562473D01*
X154402086Y-98532544D01*
X154365155Y-98473232D01*
X154366153Y-98403370D01*
X154404763Y-98345137D01*
X154465221Y-98317527D01*
X154535325Y-98306422D01*
X154625309Y-98292171D01*
X154797539Y-98236211D01*
X154958894Y-98153996D01*
X155105401Y-98047553D01*
X155233453Y-97919501D01*
X155339896Y-97772994D01*
X155422111Y-97611639D01*
X155478071Y-97439409D01*
X155492665Y-97347259D01*
X155506400Y-97260551D01*
X155506400Y-97079448D01*
X155489919Y-96975397D01*
X155478071Y-96900591D01*
X155422111Y-96728361D01*
X155422111Y-96728360D01*
X155391268Y-96667829D01*
X155339896Y-96567006D01*
X155281600Y-96486768D01*
X155233458Y-96420505D01*
X155233454Y-96420500D01*
X155105399Y-96292445D01*
X155105394Y-96292441D01*
X154958897Y-96186006D01*
X154958896Y-96186005D01*
X154958894Y-96186004D01*
X154907200Y-96159664D01*
X154797539Y-96103788D01*
X154797536Y-96103787D01*
X154625310Y-96047829D01*
X154465221Y-96022473D01*
X154402086Y-95992544D01*
X154365155Y-95933232D01*
X154366153Y-95863370D01*
X154404763Y-95805137D01*
X154465221Y-95777527D01*
X154535325Y-95766422D01*
X154625309Y-95752171D01*
X154797539Y-95696211D01*
X154958894Y-95613996D01*
X155105401Y-95507553D01*
X155233453Y-95379501D01*
X155339896Y-95232994D01*
X155422111Y-95071639D01*
X155478071Y-94899409D01*
X155492665Y-94807259D01*
X155506400Y-94720551D01*
X155506400Y-94539448D01*
X155484071Y-94398471D01*
X155481770Y-94383945D01*
X164535500Y-94383945D01*
X164535500Y-94644055D01*
X164542237Y-94686589D01*
X164576190Y-94900962D01*
X164656566Y-95148337D01*
X164695837Y-95225410D01*
X164774350Y-95379501D01*
X164774657Y-95380102D01*
X164927537Y-95590525D01*
X164927541Y-95590530D01*
X165111469Y-95774458D01*
X165111474Y-95774462D01*
X165295016Y-95907812D01*
X165321901Y-95927345D01*
X165509947Y-96023159D01*
X165553662Y-96045433D01*
X165670905Y-96083527D01*
X165801039Y-96125810D01*
X166057945Y-96166500D01*
X166057946Y-96166500D01*
X166318054Y-96166500D01*
X166318055Y-96166500D01*
X166574961Y-96125810D01*
X166822340Y-96045432D01*
X167054099Y-95927345D01*
X167264532Y-95774457D01*
X167448457Y-95590532D01*
X167601345Y-95380099D01*
X167719432Y-95148340D01*
X167799810Y-94900961D01*
X167840500Y-94644055D01*
X167840500Y-94383945D01*
X167799810Y-94127039D01*
X167722723Y-93889788D01*
X167719433Y-93879662D01*
X167693351Y-93828473D01*
X167601345Y-93647901D01*
X167576320Y-93613457D01*
X167448462Y-93437474D01*
X167448458Y-93437469D01*
X167264530Y-93253541D01*
X167264525Y-93253537D01*
X167054102Y-93100657D01*
X167054101Y-93100656D01*
X167054099Y-93100655D01*
X166938219Y-93041611D01*
X166822337Y-92982566D01*
X166574962Y-92902190D01*
X166446508Y-92881845D01*
X166318055Y-92861500D01*
X166057945Y-92861500D01*
X165972309Y-92875063D01*
X165801037Y-92902190D01*
X165553662Y-92982566D01*
X165321897Y-93100657D01*
X165111474Y-93253537D01*
X165111469Y-93253541D01*
X164927541Y-93437469D01*
X164927537Y-93437474D01*
X164774657Y-93647897D01*
X164656566Y-93879662D01*
X164576190Y-94127037D01*
X164563604Y-94206505D01*
X164535500Y-94383945D01*
X155481770Y-94383945D01*
X155478071Y-94360591D01*
X155437397Y-94235407D01*
X155422112Y-94188363D01*
X155422111Y-94188360D01*
X155390865Y-94127037D01*
X155339896Y-94027006D01*
X155326296Y-94008287D01*
X155233458Y-93880505D01*
X155233454Y-93880500D01*
X155105399Y-93752445D01*
X155105394Y-93752441D01*
X154958897Y-93646006D01*
X154958896Y-93646005D01*
X154958894Y-93646004D01*
X154907200Y-93619664D01*
X154797539Y-93563788D01*
X154797536Y-93563787D01*
X154625310Y-93507829D01*
X154465221Y-93482473D01*
X154402086Y-93452544D01*
X154365155Y-93393232D01*
X154366153Y-93323370D01*
X154404763Y-93265137D01*
X154465221Y-93237527D01*
X154535325Y-93226422D01*
X154625309Y-93212171D01*
X154797539Y-93156211D01*
X154958894Y-93073996D01*
X155105401Y-92967553D01*
X155233453Y-92839501D01*
X155339896Y-92692994D01*
X155422111Y-92531639D01*
X155478071Y-92359409D01*
X155505443Y-92186591D01*
X155506400Y-92180551D01*
X155506400Y-91999448D01*
X155483204Y-91853002D01*
X155478071Y-91820591D01*
X155469897Y-91795433D01*
X155446010Y-91721913D01*
X155435538Y-91689683D01*
X167333500Y-91689683D01*
X167333500Y-91838316D01*
X167362493Y-91984072D01*
X167362495Y-91984080D01*
X167419371Y-92121391D01*
X167501939Y-92244964D01*
X167501945Y-92244971D01*
X167607028Y-92350054D01*
X167607035Y-92350060D01*
X167730608Y-92432628D01*
X167730609Y-92432628D01*
X167730610Y-92432629D01*
X167867920Y-92489505D01*
X168013683Y-92518499D01*
X168013687Y-92518500D01*
X168013688Y-92518500D01*
X168162313Y-92518500D01*
X168162314Y-92518499D01*
X168308080Y-92489505D01*
X168445390Y-92432629D01*
X168568966Y-92350059D01*
X168674059Y-92244966D01*
X168756629Y-92121390D01*
X168813505Y-91984080D01*
X168842500Y-91838312D01*
X168842500Y-91689688D01*
X168813505Y-91543920D01*
X168756629Y-91406610D01*
X168745388Y-91389787D01*
X168674060Y-91283035D01*
X168674054Y-91283028D01*
X168568971Y-91177945D01*
X168568964Y-91177939D01*
X168445391Y-91095371D01*
X168308080Y-91038495D01*
X168308072Y-91038493D01*
X168162316Y-91009500D01*
X168162312Y-91009500D01*
X168013688Y-91009500D01*
X168013683Y-91009500D01*
X167867927Y-91038493D01*
X167867919Y-91038495D01*
X167730608Y-91095371D01*
X167607035Y-91177939D01*
X167607028Y-91177945D01*
X167501945Y-91283028D01*
X167501939Y-91283035D01*
X167419371Y-91406608D01*
X167362495Y-91543919D01*
X167362493Y-91543927D01*
X167333500Y-91689683D01*
X155435538Y-91689683D01*
X155422112Y-91648363D01*
X155422111Y-91648360D01*
X155386485Y-91578441D01*
X155339896Y-91487006D01*
X155309370Y-91444990D01*
X155233458Y-91340505D01*
X155233454Y-91340500D01*
X155105399Y-91212445D01*
X155105394Y-91212441D01*
X154958897Y-91106006D01*
X154958896Y-91106005D01*
X154958894Y-91106004D01*
X154907200Y-91079664D01*
X154797539Y-91023788D01*
X154797536Y-91023787D01*
X154625310Y-90967829D01*
X154493628Y-90946972D01*
X154430494Y-90917042D01*
X154393563Y-90857731D01*
X154394561Y-90787868D01*
X154433171Y-90729636D01*
X154497135Y-90701522D01*
X154513020Y-90700499D01*
X155250764Y-90700499D01*
X155250779Y-90700497D01*
X155250782Y-90700497D01*
X155275887Y-90697586D01*
X155275888Y-90697585D01*
X155275891Y-90697585D01*
X155378665Y-90652206D01*
X155458106Y-90572765D01*
X155503485Y-90469991D01*
X155506400Y-90444865D01*
X155506399Y-88883945D01*
X164535500Y-88883945D01*
X164535500Y-89144054D01*
X164576190Y-89400962D01*
X164656566Y-89648337D01*
X164774657Y-89880102D01*
X164927537Y-90090525D01*
X164927541Y-90090530D01*
X165111469Y-90274458D01*
X165111474Y-90274462D01*
X165276080Y-90394054D01*
X165321901Y-90427345D01*
X165553660Y-90545432D01*
X165553662Y-90545433D01*
X165677349Y-90585621D01*
X165801039Y-90625810D01*
X166057945Y-90666500D01*
X166057946Y-90666500D01*
X166318054Y-90666500D01*
X166318055Y-90666500D01*
X166574961Y-90625810D01*
X166822340Y-90545432D01*
X167054099Y-90427345D01*
X167264532Y-90274457D01*
X167405044Y-90133945D01*
X169835500Y-90133945D01*
X169835500Y-90394055D01*
X169847527Y-90469991D01*
X169876190Y-90650962D01*
X169956566Y-90898337D01*
X169956568Y-90898340D01*
X170056960Y-91095371D01*
X170074657Y-91130102D01*
X170227537Y-91340525D01*
X170227541Y-91340530D01*
X170411469Y-91524458D01*
X170411474Y-91524462D01*
X170494805Y-91585005D01*
X170621901Y-91677345D01*
X170853660Y-91795432D01*
X170853662Y-91795433D01*
X170977349Y-91835621D01*
X171101039Y-91875810D01*
X171357945Y-91916500D01*
X171357946Y-91916500D01*
X171618054Y-91916500D01*
X171618055Y-91916500D01*
X171874961Y-91875810D01*
X172122340Y-91795432D01*
X172329884Y-91689683D01*
X174833500Y-91689683D01*
X174833500Y-91838316D01*
X174862493Y-91984072D01*
X174862495Y-91984080D01*
X174919371Y-92121391D01*
X175001939Y-92244964D01*
X175001945Y-92244971D01*
X175107028Y-92350054D01*
X175107035Y-92350060D01*
X175230608Y-92432628D01*
X175230609Y-92432628D01*
X175230610Y-92432629D01*
X175367920Y-92489505D01*
X175513683Y-92518499D01*
X175513687Y-92518500D01*
X175513688Y-92518500D01*
X175662313Y-92518500D01*
X175662314Y-92518499D01*
X175808080Y-92489505D01*
X175945390Y-92432629D01*
X176068966Y-92350059D01*
X176174059Y-92244966D01*
X176256629Y-92121390D01*
X176313505Y-91984080D01*
X176342500Y-91838312D01*
X176342500Y-91689688D01*
X176313505Y-91543920D01*
X176256629Y-91406610D01*
X176245388Y-91389787D01*
X176174060Y-91283035D01*
X176174054Y-91283028D01*
X176068971Y-91177945D01*
X176068964Y-91177939D01*
X175945391Y-91095371D01*
X175808080Y-91038495D01*
X175808072Y-91038493D01*
X175662316Y-91009500D01*
X175662312Y-91009500D01*
X175513688Y-91009500D01*
X175513683Y-91009500D01*
X175367927Y-91038493D01*
X175367919Y-91038495D01*
X175230608Y-91095371D01*
X175107035Y-91177939D01*
X175107028Y-91177945D01*
X175001945Y-91283028D01*
X175001939Y-91283035D01*
X174919371Y-91406608D01*
X174862495Y-91543919D01*
X174862493Y-91543927D01*
X174833500Y-91689683D01*
X172329884Y-91689683D01*
X172354099Y-91677345D01*
X172411042Y-91635973D01*
X172483573Y-91583278D01*
X172564525Y-91524462D01*
X172564523Y-91524462D01*
X172564532Y-91524457D01*
X172748457Y-91340532D01*
X172901345Y-91130099D01*
X173019432Y-90898340D01*
X173099810Y-90650961D01*
X173140500Y-90394055D01*
X173140500Y-90133945D01*
X173099810Y-89877039D01*
X173059621Y-89753349D01*
X173019433Y-89629662D01*
X173019432Y-89629660D01*
X172901345Y-89397901D01*
X172881812Y-89371016D01*
X172748462Y-89187474D01*
X172748458Y-89187469D01*
X172564530Y-89003541D01*
X172564525Y-89003537D01*
X172354102Y-88850657D01*
X172354101Y-88850656D01*
X172354099Y-88850655D01*
X172238219Y-88791611D01*
X172122337Y-88732566D01*
X171874962Y-88652190D01*
X171716164Y-88627039D01*
X171618055Y-88611500D01*
X171357945Y-88611500D01*
X171272309Y-88625063D01*
X171101037Y-88652190D01*
X170853662Y-88732566D01*
X170621897Y-88850657D01*
X170411474Y-89003537D01*
X170411469Y-89003541D01*
X170227541Y-89187469D01*
X170227537Y-89187474D01*
X170074657Y-89397897D01*
X169956566Y-89629662D01*
X169876190Y-89877037D01*
X169842377Y-90090525D01*
X169835500Y-90133945D01*
X167405044Y-90133945D01*
X167448457Y-90090532D01*
X167601345Y-89880099D01*
X167719432Y-89648340D01*
X167799810Y-89400961D01*
X167840500Y-89144055D01*
X167840500Y-88883945D01*
X167799810Y-88627039D01*
X167725879Y-88399501D01*
X167719433Y-88379662D01*
X167692606Y-88327011D01*
X167601345Y-88147901D01*
X167549260Y-88076212D01*
X167448462Y-87937474D01*
X167448458Y-87937469D01*
X167264530Y-87753541D01*
X167264525Y-87753537D01*
X167054102Y-87600657D01*
X167054101Y-87600656D01*
X167054099Y-87600655D01*
X166938219Y-87541611D01*
X166822337Y-87482566D01*
X166574962Y-87402190D01*
X166446508Y-87381845D01*
X166318055Y-87361500D01*
X166057945Y-87361500D01*
X165972309Y-87375063D01*
X165801037Y-87402190D01*
X165553662Y-87482566D01*
X165321897Y-87600657D01*
X165111474Y-87753537D01*
X165111469Y-87753541D01*
X164927541Y-87937469D01*
X164927537Y-87937474D01*
X164774657Y-88147897D01*
X164656566Y-88379662D01*
X164576190Y-88627037D01*
X164535500Y-88883945D01*
X155506399Y-88883945D01*
X155506399Y-88655136D01*
X155506397Y-88655117D01*
X155503486Y-88630012D01*
X155503485Y-88630010D01*
X155503485Y-88630009D01*
X155458106Y-88527235D01*
X155378665Y-88447794D01*
X155378663Y-88447793D01*
X155275892Y-88402415D01*
X155250768Y-88399500D01*
X154513028Y-88399500D01*
X154445989Y-88379815D01*
X154400234Y-88327011D01*
X154390290Y-88257853D01*
X154419315Y-88194297D01*
X154478093Y-88156523D01*
X154493630Y-88153027D01*
X154525993Y-88147901D01*
X154625309Y-88132171D01*
X154797539Y-88076211D01*
X154958894Y-87993996D01*
X155105401Y-87887553D01*
X155233453Y-87759501D01*
X155339896Y-87612994D01*
X155422111Y-87451639D01*
X155478071Y-87279409D01*
X155492665Y-87187259D01*
X155506400Y-87100551D01*
X155506400Y-86919448D01*
X155489919Y-86815397D01*
X155478071Y-86740591D01*
X155450091Y-86654476D01*
X155422112Y-86568363D01*
X155422111Y-86568360D01*
X155370042Y-86466171D01*
X155339896Y-86407006D01*
X155282490Y-86327993D01*
X155233458Y-86260505D01*
X155233454Y-86260500D01*
X155105399Y-86132445D01*
X155105394Y-86132441D01*
X154958896Y-86026005D01*
X154797539Y-85943788D01*
X154797536Y-85943787D01*
X154625310Y-85887829D01*
X154465221Y-85862473D01*
X154402086Y-85832544D01*
X154365155Y-85773232D01*
X154366153Y-85703370D01*
X154404763Y-85645137D01*
X154465221Y-85617527D01*
X154535325Y-85606422D01*
X154625309Y-85592171D01*
X154797539Y-85536211D01*
X154958894Y-85453996D01*
X155105401Y-85347553D01*
X155233453Y-85219501D01*
X155339896Y-85072994D01*
X155422111Y-84911639D01*
X155478071Y-84739409D01*
X155497495Y-84616772D01*
X155506400Y-84560551D01*
X155506400Y-84449131D01*
X166743500Y-84449131D01*
X166743500Y-86238856D01*
X166743502Y-86238882D01*
X166746413Y-86263987D01*
X166746415Y-86263991D01*
X166791793Y-86366764D01*
X166791794Y-86366765D01*
X166871235Y-86446206D01*
X166974009Y-86491585D01*
X166999135Y-86494500D01*
X168788864Y-86494499D01*
X168788879Y-86494497D01*
X168788882Y-86494497D01*
X168813987Y-86491586D01*
X168813988Y-86491585D01*
X168813991Y-86491585D01*
X168916765Y-86446206D01*
X168996206Y-86366765D01*
X169041585Y-86263991D01*
X169044500Y-86238865D01*
X169044499Y-84449136D01*
X169044497Y-84449117D01*
X169041586Y-84424012D01*
X169041585Y-84424010D01*
X169041585Y-84424009D01*
X168996206Y-84321235D01*
X168916765Y-84241794D01*
X168916763Y-84241793D01*
X168813992Y-84196415D01*
X168788865Y-84193500D01*
X166999143Y-84193500D01*
X166999117Y-84193502D01*
X166974012Y-84196413D01*
X166974008Y-84196415D01*
X166871235Y-84241793D01*
X166791794Y-84321234D01*
X166746415Y-84424006D01*
X166746415Y-84424008D01*
X166743500Y-84449131D01*
X155506400Y-84449131D01*
X155506400Y-84379448D01*
X155484597Y-84241794D01*
X155478071Y-84200591D01*
X155422111Y-84028361D01*
X155422111Y-84028360D01*
X155393640Y-83972484D01*
X155339896Y-83867006D01*
X155249206Y-83742181D01*
X155233458Y-83720505D01*
X155233454Y-83720500D01*
X155105399Y-83592445D01*
X155105394Y-83592441D01*
X154958897Y-83486006D01*
X154958896Y-83486005D01*
X154958894Y-83486004D01*
X154907200Y-83459664D01*
X154797539Y-83403788D01*
X154797536Y-83403787D01*
X154625310Y-83347829D01*
X154465221Y-83322473D01*
X154402086Y-83292544D01*
X154365155Y-83233232D01*
X154366153Y-83163370D01*
X154404763Y-83105137D01*
X154465221Y-83077527D01*
X154535325Y-83066422D01*
X154625309Y-83052171D01*
X154797539Y-82996211D01*
X154958894Y-82913996D01*
X155105401Y-82807553D01*
X155233453Y-82679501D01*
X155339896Y-82532994D01*
X155422111Y-82371639D01*
X155478071Y-82199409D01*
X155494308Y-82096892D01*
X155506400Y-82020551D01*
X155506400Y-81839448D01*
X155477804Y-81658906D01*
X155486758Y-81589613D01*
X155512593Y-81551830D01*
X156269510Y-80794915D01*
X156341984Y-80669385D01*
X156379500Y-80529374D01*
X156379500Y-80384426D01*
X156379500Y-80173448D01*
X166743500Y-80173448D01*
X166743500Y-80354551D01*
X166771829Y-80533410D01*
X166827787Y-80705636D01*
X166827788Y-80705639D01*
X166873278Y-80794916D01*
X166908370Y-80863788D01*
X166910006Y-80866997D01*
X167016441Y-81013494D01*
X167016445Y-81013499D01*
X167144500Y-81141554D01*
X167144505Y-81141558D01*
X167272287Y-81234396D01*
X167291006Y-81247996D01*
X167396484Y-81301740D01*
X167452360Y-81330211D01*
X167452363Y-81330212D01*
X167538476Y-81358191D01*
X167624591Y-81386171D01*
X167707429Y-81399291D01*
X167803449Y-81414500D01*
X167803454Y-81414500D01*
X167984551Y-81414500D01*
X168071259Y-81400765D01*
X168163409Y-81386171D01*
X168335639Y-81330211D01*
X168496994Y-81247996D01*
X168643501Y-81141553D01*
X168771553Y-81013501D01*
X168877996Y-80866994D01*
X168960211Y-80705639D01*
X169016171Y-80533409D01*
X169036390Y-80405752D01*
X169044500Y-80354551D01*
X169044500Y-80173448D01*
X169021442Y-80027874D01*
X169016171Y-79994591D01*
X168960211Y-79822361D01*
X168960211Y-79822360D01*
X168931740Y-79766484D01*
X168877996Y-79661006D01*
X168864396Y-79642287D01*
X168771558Y-79514505D01*
X168771554Y-79514500D01*
X168643499Y-79386445D01*
X168643494Y-79386441D01*
X168496997Y-79280006D01*
X168496996Y-79280005D01*
X168496994Y-79280004D01*
X168420906Y-79241235D01*
X168335639Y-79197788D01*
X168335636Y-79197787D01*
X168163410Y-79141829D01*
X167984551Y-79113500D01*
X167984546Y-79113500D01*
X167803454Y-79113500D01*
X167803449Y-79113500D01*
X167624589Y-79141829D01*
X167452363Y-79197787D01*
X167452360Y-79197788D01*
X167291002Y-79280006D01*
X167144505Y-79386441D01*
X167144500Y-79386445D01*
X167016445Y-79514500D01*
X167016441Y-79514505D01*
X166910006Y-79661002D01*
X166827788Y-79822360D01*
X166827787Y-79822363D01*
X166771829Y-79994589D01*
X166743500Y-80173448D01*
X156379500Y-80173448D01*
X156379500Y-77391153D01*
X169487000Y-77391153D01*
X169487000Y-77548846D01*
X169517761Y-77703489D01*
X169517764Y-77703501D01*
X169578102Y-77849172D01*
X169578109Y-77849185D01*
X169665710Y-77980288D01*
X169665713Y-77980292D01*
X169777207Y-78091786D01*
X169777211Y-78091789D01*
X169908314Y-78179390D01*
X169908327Y-78179397D01*
X170053431Y-78239500D01*
X170054003Y-78239737D01*
X170195230Y-78267829D01*
X170208653Y-78270499D01*
X170208656Y-78270500D01*
X170208658Y-78270500D01*
X175496344Y-78270500D01*
X175496345Y-78270499D01*
X175650997Y-78239737D01*
X175796679Y-78179394D01*
X175927789Y-78091789D01*
X176039289Y-77980289D01*
X176126894Y-77849179D01*
X176187237Y-77703497D01*
X176218000Y-77548842D01*
X176218000Y-77391158D01*
X176218000Y-77391155D01*
X176217999Y-77391153D01*
X176216953Y-77385892D01*
X176187237Y-77236503D01*
X176161566Y-77174527D01*
X176126897Y-77090827D01*
X176126890Y-77090814D01*
X176039289Y-76959711D01*
X176039286Y-76959707D01*
X175927792Y-76848213D01*
X175927788Y-76848210D01*
X175796685Y-76760609D01*
X175796672Y-76760602D01*
X175651001Y-76700264D01*
X175650989Y-76700261D01*
X175496345Y-76669500D01*
X175496342Y-76669500D01*
X175096342Y-76669500D01*
X171826898Y-76669500D01*
X171759859Y-76649815D01*
X171714104Y-76597011D01*
X171704160Y-76527853D01*
X171733185Y-76464297D01*
X171739217Y-76457819D01*
X171801215Y-76395821D01*
X171877508Y-76263678D01*
X171917000Y-76116293D01*
X171917000Y-75963707D01*
X171877508Y-75816322D01*
X171854237Y-75776016D01*
X171801217Y-75684182D01*
X171801212Y-75684176D01*
X171693323Y-75576287D01*
X171693317Y-75576282D01*
X171561181Y-75499993D01*
X171561182Y-75499993D01*
X171539924Y-75494297D01*
X171413793Y-75460500D01*
X171261207Y-75460500D01*
X171135076Y-75494297D01*
X171113818Y-75499993D01*
X170981682Y-75576282D01*
X170981676Y-75576287D01*
X170873787Y-75684176D01*
X170873782Y-75684182D01*
X170797493Y-75816318D01*
X170797492Y-75816322D01*
X170758000Y-75963707D01*
X170758000Y-76116293D01*
X170768238Y-76154500D01*
X170797493Y-76263681D01*
X170873782Y-76395817D01*
X170873787Y-76395823D01*
X170935783Y-76457819D01*
X170969268Y-76519142D01*
X170964284Y-76588834D01*
X170922412Y-76644767D01*
X170856948Y-76669184D01*
X170848102Y-76669500D01*
X170208655Y-76669500D01*
X170054010Y-76700261D01*
X170053998Y-76700264D01*
X169908327Y-76760602D01*
X169908314Y-76760609D01*
X169777211Y-76848210D01*
X169777207Y-76848213D01*
X169665713Y-76959707D01*
X169665710Y-76959711D01*
X169578109Y-77090814D01*
X169578102Y-77090827D01*
X169517764Y-77236498D01*
X169517761Y-77236510D01*
X169487000Y-77391153D01*
X156379500Y-77391153D01*
X156379500Y-71301525D01*
X156341984Y-71161515D01*
X156329818Y-71140443D01*
X156269510Y-71035985D01*
X155263015Y-70029490D01*
X155137485Y-69957016D01*
X155137486Y-69957016D01*
X155102482Y-69947637D01*
X154997475Y-69919500D01*
X154997472Y-69919500D01*
X131621518Y-69919500D01*
X131554479Y-69899815D01*
X131552627Y-69898602D01*
X131478734Y-69849228D01*
X131478722Y-69849221D01*
X131351250Y-69796421D01*
X131351240Y-69796418D01*
X131215913Y-69769500D01*
X131215911Y-69769500D01*
X131077925Y-69769500D01*
X131077923Y-69769500D01*
X130942595Y-69796418D01*
X130942585Y-69796421D01*
X130815113Y-69849221D01*
X130815100Y-69849228D01*
X130700376Y-69925885D01*
X130700372Y-69925888D01*
X130602806Y-70023454D01*
X130602803Y-70023458D01*
X130526146Y-70138182D01*
X130526139Y-70138195D01*
X130473339Y-70265667D01*
X130473336Y-70265677D01*
X130455998Y-70352840D01*
X130423612Y-70414751D01*
X130422062Y-70416329D01*
X126940491Y-73897901D01*
X126940489Y-73897904D01*
X126868016Y-74023432D01*
X126855510Y-74070103D01*
X126830500Y-74163443D01*
X126830500Y-74163445D01*
X126830500Y-75158612D01*
X126810815Y-75225651D01*
X126794181Y-75246293D01*
X126184329Y-75856144D01*
X126123006Y-75889629D01*
X126120840Y-75890080D01*
X126033677Y-75907418D01*
X126033667Y-75907421D01*
X125906195Y-75960221D01*
X125906183Y-75960228D01*
X125832291Y-76009602D01*
X125765614Y-76030480D01*
X125763400Y-76030500D01*
X124553600Y-76030500D01*
X124486561Y-76010815D01*
X124484709Y-76009602D01*
X124457191Y-75991215D01*
X124438401Y-75975794D01*
X123626098Y-75163491D01*
X123626093Y-75163487D01*
X123500570Y-75091017D01*
X123500562Y-75091014D01*
X123494363Y-75089352D01*
X123494363Y-75089353D01*
X123405158Y-75065451D01*
X123360557Y-75053500D01*
X121241443Y-75053500D01*
X121136435Y-75081637D01*
X121101432Y-75091016D01*
X120975904Y-75163489D01*
X120975901Y-75163491D01*
X120878181Y-75261212D01*
X120816858Y-75294697D01*
X120747166Y-75289713D01*
X120691233Y-75247841D01*
X120666816Y-75182377D01*
X120666500Y-75173531D01*
X120666500Y-75058609D01*
X120686185Y-74991570D01*
X120702815Y-74970932D01*
X121022928Y-74650818D01*
X121084251Y-74617334D01*
X121110609Y-74614500D01*
X121226995Y-74614500D01*
X121318041Y-74596389D01*
X121362328Y-74587580D01*
X121489811Y-74534775D01*
X121604542Y-74458114D01*
X121702114Y-74360542D01*
X121778775Y-74245811D01*
X121831580Y-74118328D01*
X121847043Y-74040591D01*
X121858500Y-73982995D01*
X121858500Y-73845004D01*
X121831581Y-73709677D01*
X121831580Y-73709676D01*
X121831580Y-73709672D01*
X121829337Y-73704257D01*
X121778778Y-73582195D01*
X121778771Y-73582182D01*
X121702114Y-73467458D01*
X121702111Y-73467454D01*
X121604545Y-73369888D01*
X121604541Y-73369885D01*
X121489817Y-73293228D01*
X121489804Y-73293221D01*
X121362332Y-73240421D01*
X121362322Y-73240418D01*
X121226995Y-73213500D01*
X121226993Y-73213500D01*
X121089007Y-73213500D01*
X121089005Y-73213500D01*
X120953677Y-73240418D01*
X120953667Y-73240421D01*
X120826195Y-73293221D01*
X120826182Y-73293228D01*
X120711458Y-73369885D01*
X120711454Y-73369888D01*
X120613888Y-73467454D01*
X120613885Y-73467458D01*
X120537228Y-73582182D01*
X120537221Y-73582195D01*
X120484421Y-73709667D01*
X120484418Y-73709677D01*
X120457500Y-73845004D01*
X120457500Y-73961389D01*
X120437815Y-74028428D01*
X120421181Y-74049070D01*
X119979737Y-74490515D01*
X119900517Y-74569734D01*
X119900513Y-74569740D01*
X119844498Y-74666760D01*
X119844497Y-74666763D01*
X119815500Y-74774982D01*
X114300000Y-74774982D01*
X114300000Y-68751153D01*
X169487000Y-68751153D01*
X169487000Y-68908846D01*
X169517761Y-69063489D01*
X169517764Y-69063501D01*
X169578102Y-69209172D01*
X169578109Y-69209185D01*
X169665710Y-69340288D01*
X169665713Y-69340292D01*
X169777207Y-69451786D01*
X169777211Y-69451789D01*
X169908314Y-69539390D01*
X169908327Y-69539397D01*
X170053998Y-69599735D01*
X170054003Y-69599737D01*
X170208653Y-69630499D01*
X170208656Y-69630500D01*
X170848102Y-69630500D01*
X170915141Y-69650185D01*
X170960896Y-69702989D01*
X170970840Y-69772147D01*
X170941815Y-69835703D01*
X170935783Y-69842181D01*
X170873787Y-69904176D01*
X170873782Y-69904182D01*
X170797493Y-70036318D01*
X170797492Y-70036322D01*
X170758000Y-70183707D01*
X170758000Y-70336293D01*
X170779023Y-70414751D01*
X170797493Y-70483681D01*
X170873782Y-70615817D01*
X170873784Y-70615819D01*
X170873785Y-70615821D01*
X170981679Y-70723715D01*
X170981680Y-70723716D01*
X170981682Y-70723717D01*
X171113818Y-70800006D01*
X171113819Y-70800006D01*
X171113822Y-70800008D01*
X171261207Y-70839500D01*
X171261210Y-70839500D01*
X171413790Y-70839500D01*
X171413793Y-70839500D01*
X171561178Y-70800008D01*
X171693321Y-70723715D01*
X171801215Y-70615821D01*
X171877508Y-70483678D01*
X171917000Y-70336293D01*
X171917000Y-70183707D01*
X171877508Y-70036322D01*
X171801215Y-69904179D01*
X171739217Y-69842181D01*
X171705732Y-69780858D01*
X171710716Y-69711166D01*
X171752588Y-69655233D01*
X171818052Y-69630816D01*
X171826898Y-69630500D01*
X175496344Y-69630500D01*
X175496345Y-69630499D01*
X175650997Y-69599737D01*
X175796679Y-69539394D01*
X175927789Y-69451789D01*
X176039289Y-69340289D01*
X176126894Y-69209179D01*
X176187237Y-69063497D01*
X176218000Y-68908842D01*
X176218000Y-68751158D01*
X176218000Y-68751155D01*
X176217999Y-68751153D01*
X176187238Y-68596510D01*
X176187237Y-68596503D01*
X176187235Y-68596498D01*
X176126897Y-68450827D01*
X176126890Y-68450814D01*
X176039289Y-68319711D01*
X176039286Y-68319707D01*
X175927792Y-68208213D01*
X175927788Y-68208210D01*
X175796685Y-68120609D01*
X175796672Y-68120602D01*
X175651001Y-68060264D01*
X175650989Y-68060261D01*
X175496345Y-68029500D01*
X175496342Y-68029500D01*
X175096342Y-68029500D01*
X174489246Y-68029500D01*
X174422207Y-68009815D01*
X174376452Y-67957011D01*
X174366508Y-67887853D01*
X174395533Y-67824297D01*
X174454311Y-67786523D01*
X174461653Y-67784609D01*
X174595681Y-67754018D01*
X174924379Y-67639002D01*
X175238133Y-67487906D01*
X175532997Y-67302630D01*
X175535362Y-67300744D01*
X175805256Y-67085512D01*
X175805258Y-67085509D01*
X175805263Y-67085506D01*
X176051506Y-66839263D01*
X176110021Y-66765888D01*
X176268627Y-66567001D01*
X176268628Y-66566999D01*
X176268630Y-66566997D01*
X176453906Y-66272133D01*
X176605002Y-65958379D01*
X176720018Y-65629681D01*
X176797509Y-65290171D01*
X176836500Y-64944120D01*
X176836500Y-64595880D01*
X176797509Y-64249829D01*
X176720018Y-63910319D01*
X176699740Y-63852369D01*
X176691384Y-63828488D01*
X176605002Y-63581621D01*
X176453906Y-63267867D01*
X176268630Y-62973003D01*
X176268628Y-62973000D01*
X176268627Y-62972998D01*
X176051512Y-62700743D01*
X175805256Y-62454487D01*
X175533001Y-62237372D01*
X175532999Y-62237371D01*
X175238130Y-62052092D01*
X174924382Y-61900999D01*
X174595692Y-61785985D01*
X174595684Y-61785982D01*
X174341048Y-61727863D01*
X174256171Y-61708491D01*
X174256167Y-61708490D01*
X174256158Y-61708489D01*
X173910124Y-61669500D01*
X173910120Y-61669500D01*
X173561880Y-61669500D01*
X173561875Y-61669500D01*
X173215841Y-61708489D01*
X173215829Y-61708491D01*
X172876315Y-61785982D01*
X172876307Y-61785985D01*
X172547617Y-61900999D01*
X172233869Y-62052092D01*
X171939000Y-62237371D01*
X171938998Y-62237372D01*
X171666743Y-62454487D01*
X171420487Y-62700743D01*
X171203372Y-62972998D01*
X171203371Y-62973000D01*
X171018092Y-63267869D01*
X170866999Y-63581617D01*
X170751985Y-63910307D01*
X170751982Y-63910315D01*
X170674491Y-64249829D01*
X170674489Y-64249841D01*
X170635500Y-64595875D01*
X170635500Y-64944124D01*
X170674489Y-65290158D01*
X170674490Y-65290167D01*
X170674491Y-65290171D01*
X170683165Y-65328173D01*
X170751982Y-65629684D01*
X170751985Y-65629692D01*
X170866999Y-65958382D01*
X171018092Y-66272130D01*
X171203371Y-66566999D01*
X171203372Y-66567001D01*
X171420487Y-66839256D01*
X171666743Y-67085512D01*
X171938998Y-67302627D01*
X171939001Y-67302628D01*
X171939003Y-67302630D01*
X172233867Y-67487906D01*
X172547621Y-67639002D01*
X172794488Y-67725384D01*
X172876307Y-67754014D01*
X172876315Y-67754017D01*
X172876318Y-67754017D01*
X172876319Y-67754018D01*
X172887391Y-67756545D01*
X173010347Y-67784609D01*
X173071325Y-67818718D01*
X173104183Y-67880379D01*
X173098488Y-67950016D01*
X173056048Y-68005520D01*
X172990338Y-68029268D01*
X172982754Y-68029500D01*
X170208655Y-68029500D01*
X170054010Y-68060261D01*
X170053998Y-68060264D01*
X169908327Y-68120602D01*
X169908314Y-68120609D01*
X169777211Y-68208210D01*
X169777207Y-68208213D01*
X169665713Y-68319707D01*
X169665710Y-68319711D01*
X169578109Y-68450814D01*
X169578102Y-68450827D01*
X169517764Y-68596498D01*
X169517761Y-68596510D01*
X169487000Y-68751153D01*
X114300000Y-68751153D01*
X114300000Y-64770402D01*
X114300002Y-64769665D01*
X114300006Y-64768952D01*
X114300488Y-64687923D01*
X114300625Y-64682818D01*
X114304766Y-64595875D01*
X114755500Y-64595875D01*
X114755500Y-64944124D01*
X114794489Y-65290158D01*
X114794490Y-65290167D01*
X114794491Y-65290171D01*
X114803165Y-65328173D01*
X114871982Y-65629684D01*
X114871985Y-65629692D01*
X114986999Y-65958382D01*
X115138092Y-66272130D01*
X115323371Y-66566999D01*
X115323372Y-66567001D01*
X115540487Y-66839256D01*
X115786743Y-67085512D01*
X116058998Y-67302627D01*
X116059001Y-67302628D01*
X116059003Y-67302630D01*
X116353867Y-67487906D01*
X116667621Y-67639002D01*
X116914488Y-67725384D01*
X116996307Y-67754014D01*
X116996315Y-67754017D01*
X116996318Y-67754017D01*
X116996319Y-67754018D01*
X117335829Y-67831509D01*
X117681876Y-67870499D01*
X117681877Y-67870500D01*
X117681880Y-67870500D01*
X118030123Y-67870500D01*
X118030123Y-67870499D01*
X118376171Y-67831509D01*
X118715681Y-67754018D01*
X119044379Y-67639002D01*
X119358133Y-67487906D01*
X119652997Y-67302630D01*
X119655362Y-67300744D01*
X119925256Y-67085512D01*
X119925258Y-67085509D01*
X119925263Y-67085506D01*
X120171506Y-66839263D01*
X120230021Y-66765888D01*
X120388627Y-66567001D01*
X120388628Y-66566999D01*
X120388630Y-66566997D01*
X120573906Y-66272133D01*
X120725002Y-65958379D01*
X120840018Y-65629681D01*
X120917113Y-65291907D01*
X120951222Y-65230929D01*
X121012883Y-65198071D01*
X121038004Y-65195500D01*
X123843481Y-65195500D01*
X123910520Y-65215185D01*
X123931162Y-65231818D01*
X123998182Y-65298838D01*
X124031666Y-65360159D01*
X124034500Y-65386518D01*
X124034500Y-66845941D01*
X124034500Y-66957977D01*
X124063497Y-67066196D01*
X124119515Y-67163222D01*
X124119517Y-67163224D01*
X124426181Y-67469888D01*
X124459666Y-67531211D01*
X124462500Y-67557569D01*
X124462500Y-67673952D01*
X124462500Y-67673954D01*
X124462499Y-67673954D01*
X124489418Y-67809281D01*
X124489421Y-67809291D01*
X124542221Y-67936763D01*
X124542228Y-67936776D01*
X124618885Y-68051500D01*
X124618888Y-68051504D01*
X124716454Y-68149070D01*
X124716458Y-68149073D01*
X124831182Y-68225730D01*
X124831195Y-68225737D01*
X124958667Y-68278537D01*
X124958672Y-68278539D01*
X124958676Y-68278539D01*
X124958677Y-68278540D01*
X125094004Y-68305459D01*
X125094007Y-68305459D01*
X125231995Y-68305459D01*
X125323041Y-68287348D01*
X125367328Y-68278539D01*
X125494811Y-68225734D01*
X125609542Y-68149073D01*
X125707114Y-68051501D01*
X125783775Y-67936770D01*
X125836580Y-67809287D01*
X125863500Y-67673952D01*
X125863500Y-67535966D01*
X125863500Y-67535963D01*
X125836581Y-67400636D01*
X125836580Y-67400635D01*
X125836580Y-67400631D01*
X125827618Y-67378995D01*
X134935499Y-67378995D01*
X134962418Y-67514322D01*
X134962421Y-67514332D01*
X135015221Y-67641804D01*
X135015228Y-67641817D01*
X135091885Y-67756541D01*
X135091888Y-67756545D01*
X135189454Y-67854111D01*
X135189458Y-67854114D01*
X135304182Y-67930771D01*
X135304195Y-67930778D01*
X135431667Y-67983578D01*
X135431672Y-67983580D01*
X135431676Y-67983580D01*
X135431677Y-67983581D01*
X135567004Y-68010500D01*
X135567007Y-68010500D01*
X135704995Y-68010500D01*
X135796041Y-67992389D01*
X135840328Y-67983580D01*
X135967811Y-67930775D01*
X136082542Y-67854114D01*
X136117938Y-67818718D01*
X136164838Y-67771819D01*
X136226161Y-67738334D01*
X136252519Y-67735500D01*
X140825579Y-67735500D01*
X140892618Y-67755185D01*
X140936062Y-67803203D01*
X140962003Y-67854114D01*
X140992006Y-67912998D01*
X141098441Y-68059494D01*
X141098445Y-68059499D01*
X141226500Y-68187554D01*
X141226505Y-68187558D01*
X141279055Y-68225737D01*
X141373006Y-68293996D01*
X141478484Y-68347740D01*
X141534360Y-68376211D01*
X141534363Y-68376212D01*
X141620476Y-68404191D01*
X141706591Y-68432171D01*
X141789429Y-68445291D01*
X141885449Y-68460500D01*
X141885454Y-68460500D01*
X142066551Y-68460500D01*
X142153259Y-68446765D01*
X142245409Y-68432171D01*
X142417639Y-68376211D01*
X142578994Y-68293996D01*
X142725501Y-68187553D01*
X142853553Y-68059501D01*
X142959996Y-67912994D01*
X143042211Y-67751639D01*
X143098171Y-67579409D01*
X143112664Y-67487906D01*
X143123527Y-67419321D01*
X143153456Y-67356186D01*
X143212768Y-67319255D01*
X143282630Y-67320253D01*
X143340863Y-67358863D01*
X143368473Y-67419321D01*
X143393829Y-67579410D01*
X143449787Y-67751636D01*
X143449788Y-67751639D01*
X143532006Y-67912997D01*
X143638441Y-68059494D01*
X143638445Y-68059499D01*
X143766500Y-68187554D01*
X143766505Y-68187558D01*
X143819055Y-68225737D01*
X143913006Y-68293996D01*
X144018484Y-68347740D01*
X144074360Y-68376211D01*
X144074363Y-68376212D01*
X144160476Y-68404191D01*
X144246591Y-68432171D01*
X144329429Y-68445291D01*
X144425449Y-68460500D01*
X144425454Y-68460500D01*
X144606551Y-68460500D01*
X144693259Y-68446765D01*
X144785409Y-68432171D01*
X144957639Y-68376211D01*
X145118994Y-68293996D01*
X145265501Y-68187553D01*
X145393553Y-68059501D01*
X145499996Y-67912994D01*
X145582211Y-67751639D01*
X145638171Y-67579409D01*
X145652664Y-67487906D01*
X145663527Y-67419321D01*
X145693456Y-67356186D01*
X145752768Y-67319255D01*
X145822630Y-67320253D01*
X145880863Y-67358863D01*
X145908473Y-67419321D01*
X145933829Y-67579410D01*
X145989787Y-67751636D01*
X145989788Y-67751639D01*
X146072006Y-67912997D01*
X146178441Y-68059494D01*
X146178445Y-68059499D01*
X146306500Y-68187554D01*
X146306505Y-68187558D01*
X146359055Y-68225737D01*
X146453006Y-68293996D01*
X146558484Y-68347740D01*
X146614360Y-68376211D01*
X146614363Y-68376212D01*
X146700476Y-68404191D01*
X146786591Y-68432171D01*
X146869429Y-68445291D01*
X146965449Y-68460500D01*
X146965454Y-68460500D01*
X147146551Y-68460500D01*
X147233259Y-68446765D01*
X147325409Y-68432171D01*
X147497639Y-68376211D01*
X147658994Y-68293996D01*
X147805501Y-68187553D01*
X147933553Y-68059501D01*
X148039996Y-67912994D01*
X148122211Y-67751639D01*
X148178171Y-67579409D01*
X148192765Y-67487259D01*
X148206500Y-67400551D01*
X148206500Y-67219448D01*
X148190019Y-67115397D01*
X148178171Y-67040591D01*
X148142687Y-66931380D01*
X148122212Y-66868363D01*
X148122211Y-66868360D01*
X148069997Y-66765886D01*
X148039996Y-66707006D01*
X148016269Y-66674349D01*
X147933558Y-66560505D01*
X147933554Y-66560500D01*
X147805499Y-66432445D01*
X147805494Y-66432441D01*
X147658997Y-66326006D01*
X147658996Y-66326005D01*
X147658994Y-66326004D01*
X147607300Y-66299664D01*
X147497639Y-66243788D01*
X147497636Y-66243787D01*
X147325410Y-66187829D01*
X147146551Y-66159500D01*
X147146546Y-66159500D01*
X146965454Y-66159500D01*
X146965449Y-66159500D01*
X146786589Y-66187829D01*
X146614363Y-66243787D01*
X146614360Y-66243788D01*
X146453002Y-66326006D01*
X146306505Y-66432441D01*
X146306500Y-66432445D01*
X146178445Y-66560500D01*
X146178441Y-66560505D01*
X146072006Y-66707002D01*
X145989788Y-66868360D01*
X145989787Y-66868363D01*
X145933829Y-67040589D01*
X145908473Y-67200678D01*
X145878544Y-67263813D01*
X145819232Y-67300744D01*
X145749369Y-67299746D01*
X145691137Y-67261136D01*
X145663527Y-67200678D01*
X145649740Y-67113639D01*
X145638171Y-67040591D01*
X145602687Y-66931380D01*
X145582212Y-66868363D01*
X145582211Y-66868360D01*
X145529997Y-66765886D01*
X145499996Y-66707006D01*
X145476269Y-66674349D01*
X145393558Y-66560505D01*
X145393554Y-66560500D01*
X145265499Y-66432445D01*
X145265494Y-66432441D01*
X145118997Y-66326006D01*
X145118996Y-66326005D01*
X145118994Y-66326004D01*
X145067300Y-66299664D01*
X144957639Y-66243788D01*
X144957636Y-66243787D01*
X144785410Y-66187829D01*
X144606551Y-66159500D01*
X144606546Y-66159500D01*
X144425454Y-66159500D01*
X144425449Y-66159500D01*
X144246589Y-66187829D01*
X144074363Y-66243787D01*
X144074360Y-66243788D01*
X143913002Y-66326006D01*
X143766505Y-66432441D01*
X143766500Y-66432445D01*
X143638445Y-66560500D01*
X143638441Y-66560505D01*
X143532006Y-66707002D01*
X143449788Y-66868360D01*
X143449787Y-66868363D01*
X143393829Y-67040589D01*
X143368473Y-67200678D01*
X143338544Y-67263813D01*
X143279232Y-67300744D01*
X143209369Y-67299746D01*
X143151137Y-67261136D01*
X143123527Y-67200678D01*
X143109740Y-67113639D01*
X143098171Y-67040591D01*
X143062687Y-66931380D01*
X143042212Y-66868363D01*
X143042211Y-66868360D01*
X142989997Y-66765886D01*
X142959996Y-66707006D01*
X142936269Y-66674349D01*
X142853558Y-66560505D01*
X142853554Y-66560500D01*
X142725499Y-66432445D01*
X142725494Y-66432441D01*
X142578997Y-66326006D01*
X142578996Y-66326005D01*
X142578994Y-66326004D01*
X142527300Y-66299664D01*
X142417639Y-66243788D01*
X142417636Y-66243787D01*
X142245410Y-66187829D01*
X142066551Y-66159500D01*
X142066546Y-66159500D01*
X141885454Y-66159500D01*
X141885449Y-66159500D01*
X141706589Y-66187829D01*
X141534363Y-66243787D01*
X141534360Y-66243788D01*
X141373002Y-66326006D01*
X141226505Y-66432441D01*
X141226500Y-66432445D01*
X141098445Y-66560500D01*
X141098441Y-66560505D01*
X140992006Y-66707001D01*
X140982473Y-66725711D01*
X140936062Y-66816796D01*
X140888090Y-66867591D01*
X140825579Y-66884500D01*
X136252519Y-66884500D01*
X136185480Y-66864815D01*
X136164838Y-66848181D01*
X136082545Y-66765888D01*
X136082541Y-66765885D01*
X135967817Y-66689228D01*
X135967804Y-66689221D01*
X135840332Y-66636421D01*
X135840322Y-66636418D01*
X135704995Y-66609500D01*
X135704993Y-66609500D01*
X135567007Y-66609500D01*
X135567005Y-66609500D01*
X135431677Y-66636418D01*
X135431667Y-66636421D01*
X135304195Y-66689221D01*
X135304182Y-66689228D01*
X135189458Y-66765885D01*
X135189454Y-66765888D01*
X135091888Y-66863454D01*
X135091885Y-66863458D01*
X135015228Y-66978182D01*
X135015221Y-66978195D01*
X134962421Y-67105667D01*
X134962418Y-67105677D01*
X134935500Y-67241004D01*
X134935500Y-67241007D01*
X134935500Y-67378993D01*
X134935500Y-67378995D01*
X134935499Y-67378995D01*
X125827618Y-67378995D01*
X125819279Y-67358863D01*
X125787605Y-67282393D01*
X125787593Y-67282366D01*
X125783775Y-67273148D01*
X125783771Y-67273141D01*
X125707114Y-67158417D01*
X125707111Y-67158413D01*
X125609545Y-67060847D01*
X125609541Y-67060844D01*
X125494817Y-66984187D01*
X125494804Y-66984180D01*
X125367332Y-66931380D01*
X125367322Y-66931377D01*
X125231995Y-66904459D01*
X125231993Y-66904459D01*
X125115610Y-66904459D01*
X125048571Y-66884774D01*
X125027929Y-66868140D01*
X124921819Y-66762030D01*
X124888334Y-66700707D01*
X124885500Y-66674349D01*
X124885500Y-65386518D01*
X124905185Y-65319479D01*
X124921814Y-65298841D01*
X125004114Y-65216542D01*
X125080775Y-65101811D01*
X125133580Y-64974328D01*
X125160500Y-64838993D01*
X125160500Y-64701007D01*
X125160500Y-64701004D01*
X125133581Y-64565677D01*
X125133580Y-64565676D01*
X125133580Y-64565672D01*
X125111896Y-64513322D01*
X125080778Y-64438195D01*
X125080771Y-64438182D01*
X125004114Y-64323458D01*
X125004111Y-64323454D01*
X124906545Y-64225888D01*
X124906541Y-64225885D01*
X124791817Y-64149228D01*
X124791804Y-64149221D01*
X124664332Y-64096421D01*
X124664322Y-64096418D01*
X124528995Y-64069500D01*
X124528993Y-64069500D01*
X124391007Y-64069500D01*
X124391005Y-64069500D01*
X124255677Y-64096418D01*
X124255667Y-64096421D01*
X124128195Y-64149221D01*
X124128182Y-64149228D01*
X124013458Y-64225885D01*
X124013454Y-64225888D01*
X123931162Y-64308181D01*
X123869839Y-64341666D01*
X123843481Y-64344500D01*
X121038004Y-64344500D01*
X120970965Y-64324815D01*
X120925210Y-64272011D01*
X120917113Y-64248093D01*
X120840017Y-63910315D01*
X120840014Y-63910307D01*
X120811384Y-63828488D01*
X120725002Y-63581621D01*
X120573906Y-63267867D01*
X120388630Y-62973003D01*
X120388628Y-62973000D01*
X120388627Y-62972998D01*
X120171512Y-62700743D01*
X119925256Y-62454487D01*
X119653001Y-62237372D01*
X119652999Y-62237371D01*
X119358130Y-62052092D01*
X119044382Y-61900999D01*
X118715692Y-61785985D01*
X118715684Y-61785982D01*
X118461048Y-61727863D01*
X118376171Y-61708491D01*
X118376167Y-61708490D01*
X118376158Y-61708489D01*
X118030124Y-61669500D01*
X118030120Y-61669500D01*
X117681880Y-61669500D01*
X117681875Y-61669500D01*
X117335841Y-61708489D01*
X117335829Y-61708491D01*
X116996315Y-61785982D01*
X116996307Y-61785985D01*
X116667617Y-61900999D01*
X116353869Y-62052092D01*
X116059000Y-62237371D01*
X116058998Y-62237372D01*
X115786743Y-62454487D01*
X115540487Y-62700743D01*
X115323372Y-62972998D01*
X115323371Y-62973000D01*
X115138092Y-63267869D01*
X114986999Y-63581617D01*
X114871985Y-63910307D01*
X114871982Y-63910315D01*
X114794491Y-64249829D01*
X114794489Y-64249841D01*
X114755500Y-64595875D01*
X114304766Y-64595875D01*
X114308419Y-64519191D01*
X114308838Y-64513349D01*
X114324368Y-64350712D01*
X114325067Y-64344866D01*
X114328145Y-64323458D01*
X114348325Y-64183103D01*
X114349291Y-64177356D01*
X114380217Y-64016897D01*
X114381462Y-64011174D01*
X114419988Y-63852361D01*
X114421515Y-63846668D01*
X114467547Y-63689897D01*
X114469328Y-63684325D01*
X114522778Y-63529891D01*
X114524821Y-63524414D01*
X114585556Y-63372709D01*
X114587857Y-63367333D01*
X114655764Y-63218636D01*
X114658301Y-63213414D01*
X114733195Y-63068141D01*
X114735991Y-63063020D01*
X114817704Y-62921488D01*
X114820763Y-62916472D01*
X114909091Y-62779031D01*
X114912376Y-62774175D01*
X115007158Y-62641073D01*
X115010685Y-62636361D01*
X115111689Y-62507924D01*
X115115436Y-62503385D01*
X115222440Y-62379896D01*
X115226386Y-62375555D01*
X115339142Y-62257300D01*
X115343308Y-62253135D01*
X115359841Y-62237371D01*
X115461555Y-62140386D01*
X115465896Y-62136440D01*
X115589385Y-62029436D01*
X115593912Y-62025698D01*
X115722373Y-61924675D01*
X115727073Y-61921158D01*
X115860175Y-61826376D01*
X115865016Y-61823100D01*
X116002474Y-61734761D01*
X116007488Y-61731704D01*
X116149020Y-61649991D01*
X116154141Y-61647195D01*
X116299414Y-61572301D01*
X116304636Y-61569764D01*
X116453333Y-61501857D01*
X116458709Y-61499556D01*
X116610414Y-61438821D01*
X116615891Y-61436778D01*
X116770325Y-61383328D01*
X116775897Y-61381547D01*
X116932675Y-61335512D01*
X116938361Y-61333988D01*
X117097174Y-61295462D01*
X117102897Y-61294217D01*
X117263356Y-61263291D01*
X117269103Y-61262325D01*
X117430876Y-61239065D01*
X117436712Y-61238368D01*
X117599349Y-61222838D01*
X117605188Y-61222419D01*
X117768818Y-61214625D01*
X117773923Y-61214488D01*
X117854952Y-61214006D01*
X117855665Y-61214002D01*
X117856402Y-61214000D01*
X173735598Y-61214000D01*
X173736335Y-61214001D01*
G37*
%TD.AperFunction*%
%TD*%
M02*
