M48
; DRILL file {KiCad 9.99.0-unknown-b0b07bbc41~182~ubuntu22.04.1} date 2025-09-05T13:50:05+0900
; FORMAT={-:-/ absolute / metric / decimal}
; #@! TF.CreationDate,2025-09-05T13:50:05+09:00
; #@! TF.GenerationSoftware,Kicad,Pcbnew,9.99.0-unknown-b0b07bbc41~182~ubuntu22.04.1
; #@! TF.FileFunction,Plated,1,2,PTH
FMAT,2
METRIC
; #@! TA.AperFunction,Plated,PTH,ViaDrill
T1C0.400
; #@! TA.AperFunction,Plated,PTH,ViaDrill
T2C0.500
; #@! TA.AperFunction,Plated,PTH,ComponentDrill
T3C0.600
; #@! TA.AperFunction,Plated,PTH,ViaDrill
T4C0.800
; #@! TA.AperFunction,Plated,PTH,ComponentDrill
T5C0.950
; #@! TA.AperFunction,Plated,PTH,ComponentDrill
T6C1.000
; #@! TA.AperFunction,Plated,PTH,ComponentDrill
T7C1.020
; #@! TA.AperFunction,Plated,PTH,ComponentDrill
T8C1.803
; #@! TA.AperFunction,Plated,PTH,ComponentDrill
T9C3.200
%
G90
G05
T1
X121.158Y-73.914
X121.666Y-76.454
X122.936Y-76.454
X124.079Y-76.581
X124.46Y-64.77
X125.163Y-67.605
X125.179Y-124.655
X125.222Y-99.822
X126.238Y-76.581
X128.524Y-74.295
X131.147Y-70.47
X135.636Y-67.31
X139.192Y-89.408
X143.51Y-124.46
X145.542Y-124.46
X152.146Y-123.698
X153.67Y-126.238
X159.893Y-121.605
X162.56Y-105.41
X168.91Y-70.358
X168.91Y-76.708
T2
X139.192Y-81.28
T4
X137.668Y-126.543
X138.938Y-121.666
X139.446Y-126.543
X140.462Y-121.666
X146.38Y-126.924
X146.583Y-128.118
T5
X122.936Y-92.456
X122.936Y-94.956
X122.936Y-97.456
X122.936Y-99.956
X122.936Y-102.456
X122.936Y-104.956
X122.936Y-107.456
X142.106Y-123.19
X144.606Y-123.19
X147.106Y-123.19
X149.606Y-123.19
T6
X123.698Y-80.264
X123.698Y-82.804
X123.698Y-85.344
X123.698Y-114.3
X123.698Y-116.84
X123.698Y-119.38
X127.254Y-119.38
X128.965Y-92.71
X128.965Y-95.25
X128.965Y-97.79
X128.965Y-100.33
X129.794Y-119.38
X134.62Y-124.46
X134.62Y-127.0
X141.976Y-67.31
X144.516Y-67.31
X147.056Y-67.31
X149.596Y-67.31
X156.972Y-124.46
X156.972Y-127.0
X161.798Y-119.38
X164.338Y-119.38
X167.894Y-80.264
X167.894Y-82.804
X167.894Y-85.344
X167.894Y-114.285
X167.894Y-116.825
X167.894Y-119.365
T7
X136.576Y-71.77
X136.576Y-74.31
X136.576Y-76.85
X136.576Y-79.39
X136.576Y-81.93
X136.576Y-84.47
X136.576Y-87.01
X136.576Y-89.55
X136.576Y-92.09
X136.576Y-94.63
X136.576Y-97.17
X136.576Y-99.71
X136.576Y-102.25
X136.576Y-104.79
X136.576Y-107.33
X136.576Y-109.87
X136.576Y-112.41
X136.576Y-114.95
X136.576Y-117.49
X136.576Y-120.03
X146.05Y-101.6
X148.59Y-101.6
X151.13Y-101.6
X154.356Y-71.77
X154.356Y-74.31
X154.356Y-76.85
X154.356Y-79.39
X154.356Y-81.93
X154.356Y-84.47
X154.356Y-87.01
X154.356Y-89.55
X154.356Y-92.09
X154.356Y-94.63
X154.356Y-97.17
X154.356Y-99.71
X154.356Y-102.25
X154.356Y-104.79
X154.356Y-107.33
X154.356Y-109.87
X154.356Y-112.41
X154.356Y-114.95
X154.356Y-117.49
X154.356Y-120.03
T8
X166.188Y-89.014
X166.188Y-94.514
X171.488Y-90.264
T9
X117.856Y-64.77
X117.856Y-126.492
X173.736Y-64.77
X173.736Y-126.492
T3
G00X170.287Y-68.83
M15
G01X171.387Y-68.83
M16
G05
G00X170.287Y-77.47
M15
G01X171.387Y-77.47
M16
G05
G00X174.617Y-68.83
M15
G01X175.417Y-68.83
M16
G05
G00X174.617Y-77.47
M15
G01X175.417Y-77.47
M16
G05
M30
