%TF.GenerationSoftware,KiCad,Pcbnew,9.99.0-unknown-3f25b36ff1~182~ubuntu22.04.1*%
%TF.CreationDate,2025-05-20T22:32:57+09:00*%
%TF.ProjectId,TurtlePico-Leatherback,54757274-6c65-4506-9963-6f2d4c656174,rev?*%
%TF.SameCoordinates,Original*%
%TF.FileFunction,Legend,Bot*%
%TF.FilePolarity,Positive*%
%FSLAX46Y46*%
G04 Gerber Fmt 4.6, Leading zero omitted, Abs format (unit mm)*
G04 Created by KiCad (PCBNEW 9.99.0-unknown-3f25b36ff1~182~ubuntu22.04.1) date 2025-05-20 22:32:57*
%MOMM*%
%LPD*%
G01*
G04 APERTURE LIST*
%ADD10C,0.100000*%
%ADD11C,0.300000*%
%ADD12C,0.350000*%
%ADD13C,0.150000*%
%ADD14C,0.000000*%
%ADD15C,0.120000*%
G04 APERTURE END LIST*
D10*
X167861845Y-109001830D02*
X167899940Y-108887544D01*
X167899940Y-108887544D02*
X167899940Y-108697068D01*
X167899940Y-108697068D02*
X167861845Y-108620877D01*
X167861845Y-108620877D02*
X167823749Y-108582782D01*
X167823749Y-108582782D02*
X167747559Y-108544687D01*
X167747559Y-108544687D02*
X167671368Y-108544687D01*
X167671368Y-108544687D02*
X167595178Y-108582782D01*
X167595178Y-108582782D02*
X167557083Y-108620877D01*
X167557083Y-108620877D02*
X167518987Y-108697068D01*
X167518987Y-108697068D02*
X167480892Y-108849449D01*
X167480892Y-108849449D02*
X167442797Y-108925639D01*
X167442797Y-108925639D02*
X167404702Y-108963734D01*
X167404702Y-108963734D02*
X167328511Y-109001830D01*
X167328511Y-109001830D02*
X167252321Y-109001830D01*
X167252321Y-109001830D02*
X167176130Y-108963734D01*
X167176130Y-108963734D02*
X167138035Y-108925639D01*
X167138035Y-108925639D02*
X167099940Y-108849449D01*
X167099940Y-108849449D02*
X167099940Y-108658972D01*
X167099940Y-108658972D02*
X167138035Y-108544687D01*
X167861845Y-108239925D02*
X167899940Y-108125639D01*
X167899940Y-108125639D02*
X167899940Y-107935163D01*
X167899940Y-107935163D02*
X167861845Y-107858972D01*
X167861845Y-107858972D02*
X167823749Y-107820877D01*
X167823749Y-107820877D02*
X167747559Y-107782782D01*
X167747559Y-107782782D02*
X167671368Y-107782782D01*
X167671368Y-107782782D02*
X167595178Y-107820877D01*
X167595178Y-107820877D02*
X167557083Y-107858972D01*
X167557083Y-107858972D02*
X167518987Y-107935163D01*
X167518987Y-107935163D02*
X167480892Y-108087544D01*
X167480892Y-108087544D02*
X167442797Y-108163734D01*
X167442797Y-108163734D02*
X167404702Y-108201829D01*
X167404702Y-108201829D02*
X167328511Y-108239925D01*
X167328511Y-108239925D02*
X167252321Y-108239925D01*
X167252321Y-108239925D02*
X167176130Y-108201829D01*
X167176130Y-108201829D02*
X167138035Y-108163734D01*
X167138035Y-108163734D02*
X167099940Y-108087544D01*
X167099940Y-108087544D02*
X167099940Y-107897067D01*
X167099940Y-107897067D02*
X167138035Y-107782782D01*
X167899940Y-107439924D02*
X167099940Y-107439924D01*
X167099940Y-107439924D02*
X167099940Y-107249448D01*
X167099940Y-107249448D02*
X167138035Y-107135162D01*
X167138035Y-107135162D02*
X167214225Y-107058972D01*
X167214225Y-107058972D02*
X167290416Y-107020877D01*
X167290416Y-107020877D02*
X167442797Y-106982781D01*
X167442797Y-106982781D02*
X167557083Y-106982781D01*
X167557083Y-106982781D02*
X167709464Y-107020877D01*
X167709464Y-107020877D02*
X167785654Y-107058972D01*
X167785654Y-107058972D02*
X167861845Y-107135162D01*
X167861845Y-107135162D02*
X167899940Y-107249448D01*
X167899940Y-107249448D02*
X167899940Y-107439924D01*
X167899940Y-106220877D02*
X167899940Y-106678020D01*
X167899940Y-106449448D02*
X167099940Y-106449448D01*
X167099940Y-106449448D02*
X167214225Y-106525639D01*
X167214225Y-106525639D02*
X167290416Y-106601829D01*
X167290416Y-106601829D02*
X167328511Y-106678020D01*
X167099940Y-105954210D02*
X167099940Y-105458972D01*
X167099940Y-105458972D02*
X167404702Y-105725638D01*
X167404702Y-105725638D02*
X167404702Y-105611353D01*
X167404702Y-105611353D02*
X167442797Y-105535162D01*
X167442797Y-105535162D02*
X167480892Y-105497067D01*
X167480892Y-105497067D02*
X167557083Y-105458972D01*
X167557083Y-105458972D02*
X167747559Y-105458972D01*
X167747559Y-105458972D02*
X167823749Y-105497067D01*
X167823749Y-105497067D02*
X167861845Y-105535162D01*
X167861845Y-105535162D02*
X167899940Y-105611353D01*
X167899940Y-105611353D02*
X167899940Y-105839924D01*
X167899940Y-105839924D02*
X167861845Y-105916115D01*
X167861845Y-105916115D02*
X167823749Y-105954210D01*
X167099940Y-104963733D02*
X167099940Y-104887543D01*
X167099940Y-104887543D02*
X167138035Y-104811352D01*
X167138035Y-104811352D02*
X167176130Y-104773257D01*
X167176130Y-104773257D02*
X167252321Y-104735162D01*
X167252321Y-104735162D02*
X167404702Y-104697067D01*
X167404702Y-104697067D02*
X167595178Y-104697067D01*
X167595178Y-104697067D02*
X167747559Y-104735162D01*
X167747559Y-104735162D02*
X167823749Y-104773257D01*
X167823749Y-104773257D02*
X167861845Y-104811352D01*
X167861845Y-104811352D02*
X167899940Y-104887543D01*
X167899940Y-104887543D02*
X167899940Y-104963733D01*
X167899940Y-104963733D02*
X167861845Y-105039924D01*
X167861845Y-105039924D02*
X167823749Y-105078019D01*
X167823749Y-105078019D02*
X167747559Y-105116114D01*
X167747559Y-105116114D02*
X167595178Y-105154210D01*
X167595178Y-105154210D02*
X167404702Y-105154210D01*
X167404702Y-105154210D02*
X167252321Y-105116114D01*
X167252321Y-105116114D02*
X167176130Y-105078019D01*
X167176130Y-105078019D02*
X167138035Y-105039924D01*
X167138035Y-105039924D02*
X167099940Y-104963733D01*
X167099940Y-104011352D02*
X167099940Y-104163733D01*
X167099940Y-104163733D02*
X167138035Y-104239924D01*
X167138035Y-104239924D02*
X167176130Y-104278019D01*
X167176130Y-104278019D02*
X167290416Y-104354209D01*
X167290416Y-104354209D02*
X167442797Y-104392305D01*
X167442797Y-104392305D02*
X167747559Y-104392305D01*
X167747559Y-104392305D02*
X167823749Y-104354209D01*
X167823749Y-104354209D02*
X167861845Y-104316114D01*
X167861845Y-104316114D02*
X167899940Y-104239924D01*
X167899940Y-104239924D02*
X167899940Y-104087543D01*
X167899940Y-104087543D02*
X167861845Y-104011352D01*
X167861845Y-104011352D02*
X167823749Y-103973257D01*
X167823749Y-103973257D02*
X167747559Y-103935162D01*
X167747559Y-103935162D02*
X167557083Y-103935162D01*
X167557083Y-103935162D02*
X167480892Y-103973257D01*
X167480892Y-103973257D02*
X167442797Y-104011352D01*
X167442797Y-104011352D02*
X167404702Y-104087543D01*
X167404702Y-104087543D02*
X167404702Y-104239924D01*
X167404702Y-104239924D02*
X167442797Y-104316114D01*
X167442797Y-104316114D02*
X167480892Y-104354209D01*
X167480892Y-104354209D02*
X167557083Y-104392305D01*
X167061845Y-103020876D02*
X168090416Y-103706590D01*
X169149800Y-109001830D02*
X169187895Y-108887544D01*
X169187895Y-108887544D02*
X169187895Y-108697068D01*
X169187895Y-108697068D02*
X169149800Y-108620877D01*
X169149800Y-108620877D02*
X169111704Y-108582782D01*
X169111704Y-108582782D02*
X169035514Y-108544687D01*
X169035514Y-108544687D02*
X168959323Y-108544687D01*
X168959323Y-108544687D02*
X168883133Y-108582782D01*
X168883133Y-108582782D02*
X168845038Y-108620877D01*
X168845038Y-108620877D02*
X168806942Y-108697068D01*
X168806942Y-108697068D02*
X168768847Y-108849449D01*
X168768847Y-108849449D02*
X168730752Y-108925639D01*
X168730752Y-108925639D02*
X168692657Y-108963734D01*
X168692657Y-108963734D02*
X168616466Y-109001830D01*
X168616466Y-109001830D02*
X168540276Y-109001830D01*
X168540276Y-109001830D02*
X168464085Y-108963734D01*
X168464085Y-108963734D02*
X168425990Y-108925639D01*
X168425990Y-108925639D02*
X168387895Y-108849449D01*
X168387895Y-108849449D02*
X168387895Y-108658972D01*
X168387895Y-108658972D02*
X168425990Y-108544687D01*
X168387895Y-108316115D02*
X168387895Y-107858972D01*
X169187895Y-108087544D02*
X168387895Y-108087544D01*
X168387895Y-107668496D02*
X168387895Y-107135162D01*
X168387895Y-107135162D02*
X169187895Y-107478020D01*
X168387895Y-106906591D02*
X168387895Y-106373257D01*
X168387895Y-106373257D02*
X169187895Y-106716115D01*
X168730752Y-105954210D02*
X168692657Y-106030400D01*
X168692657Y-106030400D02*
X168654561Y-106068495D01*
X168654561Y-106068495D02*
X168578371Y-106106591D01*
X168578371Y-106106591D02*
X168540276Y-106106591D01*
X168540276Y-106106591D02*
X168464085Y-106068495D01*
X168464085Y-106068495D02*
X168425990Y-106030400D01*
X168425990Y-106030400D02*
X168387895Y-105954210D01*
X168387895Y-105954210D02*
X168387895Y-105801829D01*
X168387895Y-105801829D02*
X168425990Y-105725638D01*
X168425990Y-105725638D02*
X168464085Y-105687543D01*
X168464085Y-105687543D02*
X168540276Y-105649448D01*
X168540276Y-105649448D02*
X168578371Y-105649448D01*
X168578371Y-105649448D02*
X168654561Y-105687543D01*
X168654561Y-105687543D02*
X168692657Y-105725638D01*
X168692657Y-105725638D02*
X168730752Y-105801829D01*
X168730752Y-105801829D02*
X168730752Y-105954210D01*
X168730752Y-105954210D02*
X168768847Y-106030400D01*
X168768847Y-106030400D02*
X168806942Y-106068495D01*
X168806942Y-106068495D02*
X168883133Y-106106591D01*
X168883133Y-106106591D02*
X169035514Y-106106591D01*
X169035514Y-106106591D02*
X169111704Y-106068495D01*
X169111704Y-106068495D02*
X169149800Y-106030400D01*
X169149800Y-106030400D02*
X169187895Y-105954210D01*
X169187895Y-105954210D02*
X169187895Y-105801829D01*
X169187895Y-105801829D02*
X169149800Y-105725638D01*
X169149800Y-105725638D02*
X169111704Y-105687543D01*
X169111704Y-105687543D02*
X169035514Y-105649448D01*
X169035514Y-105649448D02*
X168883133Y-105649448D01*
X168883133Y-105649448D02*
X168806942Y-105687543D01*
X168806942Y-105687543D02*
X168768847Y-105725638D01*
X168768847Y-105725638D02*
X168730752Y-105801829D01*
X169187895Y-105268495D02*
X169187895Y-105116114D01*
X169187895Y-105116114D02*
X169149800Y-105039924D01*
X169149800Y-105039924D02*
X169111704Y-105001828D01*
X169111704Y-105001828D02*
X168997419Y-104925638D01*
X168997419Y-104925638D02*
X168845038Y-104887543D01*
X168845038Y-104887543D02*
X168540276Y-104887543D01*
X168540276Y-104887543D02*
X168464085Y-104925638D01*
X168464085Y-104925638D02*
X168425990Y-104963733D01*
X168425990Y-104963733D02*
X168387895Y-105039924D01*
X168387895Y-105039924D02*
X168387895Y-105192305D01*
X168387895Y-105192305D02*
X168425990Y-105268495D01*
X168425990Y-105268495D02*
X168464085Y-105306590D01*
X168464085Y-105306590D02*
X168540276Y-105344686D01*
X168540276Y-105344686D02*
X168730752Y-105344686D01*
X168730752Y-105344686D02*
X168806942Y-105306590D01*
X168806942Y-105306590D02*
X168845038Y-105268495D01*
X168845038Y-105268495D02*
X168883133Y-105192305D01*
X168883133Y-105192305D02*
X168883133Y-105039924D01*
X168883133Y-105039924D02*
X168845038Y-104963733D01*
X168845038Y-104963733D02*
X168806942Y-104925638D01*
X168806942Y-104925638D02*
X168730752Y-104887543D01*
D11*
X205861457Y-101902774D02*
X205147171Y-101902774D01*
X206647171Y-102402774D02*
X205861457Y-101902774D01*
X205861457Y-101902774D02*
X206647171Y-101402774D01*
X205932885Y-96608489D02*
X205861457Y-96394203D01*
X205861457Y-96394203D02*
X205790028Y-96322774D01*
X205790028Y-96322774D02*
X205647171Y-96251346D01*
X205647171Y-96251346D02*
X205432885Y-96251346D01*
X205432885Y-96251346D02*
X205290028Y-96322774D01*
X205290028Y-96322774D02*
X205218600Y-96394203D01*
X205218600Y-96394203D02*
X205147171Y-96537060D01*
X205147171Y-96537060D02*
X205147171Y-97108489D01*
X205147171Y-97108489D02*
X206647171Y-97108489D01*
X206647171Y-97108489D02*
X206647171Y-96608489D01*
X206647171Y-96608489D02*
X206575742Y-96465632D01*
X206575742Y-96465632D02*
X206504314Y-96394203D01*
X206504314Y-96394203D02*
X206361457Y-96322774D01*
X206361457Y-96322774D02*
X206218600Y-96322774D01*
X206218600Y-96322774D02*
X206075742Y-96394203D01*
X206075742Y-96394203D02*
X206004314Y-96465632D01*
X206004314Y-96465632D02*
X205932885Y-96608489D01*
X205932885Y-96608489D02*
X205932885Y-97108489D01*
D12*
G36*
X179289868Y-86288891D02*
G01*
X179354580Y-86325852D01*
X179399188Y-86386820D01*
X179433532Y-86486392D01*
X179441347Y-86587168D01*
X179419060Y-86643172D01*
X179369341Y-86676990D01*
X179281674Y-86690189D01*
X178341400Y-86690189D01*
X178260215Y-86684869D01*
X178231307Y-86674459D01*
X178214846Y-86649561D01*
X178193022Y-86576494D01*
X178125794Y-86274903D01*
X179189167Y-86274903D01*
X179289868Y-86288891D01*
G37*
G36*
X181560276Y-85618720D02*
G01*
X181911986Y-85640262D01*
X182118799Y-86568629D01*
X182129136Y-86643326D01*
X182123012Y-86670527D01*
X182098314Y-86683426D01*
X182018598Y-86690189D01*
X181127600Y-86690189D01*
X181034240Y-86679100D01*
X180968638Y-86649319D01*
X180923308Y-86602110D01*
X180895691Y-86533409D01*
X180724599Y-85765583D01*
X180716043Y-85686877D01*
X180734674Y-85644194D01*
X180780618Y-85619982D01*
X180886899Y-85608974D01*
X181092063Y-85608974D01*
X181560276Y-85618720D01*
G37*
G36*
X186546448Y-85620056D02*
G01*
X186612051Y-85649812D01*
X186657372Y-85696971D01*
X186684980Y-85765583D01*
X186740850Y-86016396D01*
X185611899Y-86016396D01*
X185556028Y-85765583D01*
X185545618Y-85692808D01*
X185550166Y-85655991D01*
X185574713Y-85633244D01*
X185650367Y-85616839D01*
X185956464Y-85608974D01*
X186453071Y-85608974D01*
X186546448Y-85620056D01*
G37*
G36*
X194099777Y-86288891D02*
G01*
X194164489Y-86325852D01*
X194209097Y-86386820D01*
X194243441Y-86486392D01*
X194251256Y-86587168D01*
X194228969Y-86643172D01*
X194179250Y-86676990D01*
X194091583Y-86690189D01*
X193151309Y-86690189D01*
X193070124Y-86684869D01*
X193041217Y-86674459D01*
X193024756Y-86649561D01*
X193002931Y-86576494D01*
X192935704Y-86274903D01*
X193999076Y-86274903D01*
X194099777Y-86288891D01*
G37*
G36*
X196526211Y-85620056D02*
G01*
X196591814Y-85649812D01*
X196637135Y-85696971D01*
X196664742Y-85765583D01*
X196720613Y-86016396D01*
X195591661Y-86016396D01*
X195535791Y-85765583D01*
X195525381Y-85692808D01*
X195529929Y-85655991D01*
X195554476Y-85633244D01*
X195630130Y-85616839D01*
X195936227Y-85608974D01*
X196432834Y-85608974D01*
X196526211Y-85620056D01*
G37*
G36*
X200515665Y-87377263D02*
G01*
X172109109Y-87377263D01*
X172109109Y-85275925D01*
X172420220Y-85275925D01*
X172512727Y-85397484D01*
X172762221Y-85595297D01*
X173022157Y-85795161D01*
X173250768Y-85963566D01*
X173403176Y-86059480D01*
X173300338Y-86127212D01*
X173213582Y-86202411D01*
X173040109Y-86382614D01*
X172815161Y-86607781D01*
X172691142Y-86697161D01*
X172577024Y-86735154D01*
X172433043Y-86752764D01*
X172568048Y-87027000D01*
X172684552Y-87052474D01*
X172827068Y-87066152D01*
X172991367Y-87055400D01*
X173111916Y-87027000D01*
X173217415Y-86969429D01*
X173331002Y-86858594D01*
X173382659Y-86795848D01*
X173474434Y-86682324D01*
X173566208Y-86568629D01*
X173621162Y-86502122D01*
X173704838Y-86412066D01*
X173782180Y-86349274D01*
X173871756Y-86309238D01*
X173997602Y-86294393D01*
X174078812Y-86299706D01*
X174107877Y-86310122D01*
X174124324Y-86335899D01*
X174147811Y-86415953D01*
X174283915Y-87027000D01*
X174784735Y-87027000D01*
X174411309Y-85350468D01*
X174872113Y-85350468D01*
X175020674Y-85648127D01*
X175308270Y-85630517D01*
X175684526Y-85614958D01*
X176079467Y-85608974D01*
X176288661Y-85608974D01*
X176382038Y-85620056D01*
X176447641Y-85649812D01*
X176492962Y-85696971D01*
X176520569Y-85765583D01*
X176691661Y-86533409D01*
X176695881Y-86603444D01*
X176672809Y-86648780D01*
X176622205Y-86678238D01*
X176529362Y-86690189D01*
X176320168Y-86690189D01*
X175885843Y-86684376D01*
X175494383Y-86668646D01*
X175207337Y-86650866D01*
X175099625Y-86905611D01*
X175129343Y-86942032D01*
X175229981Y-86979607D01*
X175467938Y-87012352D01*
X175935486Y-87027000D01*
X176760538Y-87027000D01*
X176951307Y-87012167D01*
X177065353Y-86976050D01*
X177149434Y-86916225D01*
X177194680Y-86846797D01*
X177214777Y-86766936D01*
X177215562Y-86682324D01*
X177190650Y-86525545D01*
X177023221Y-85773448D01*
X176981089Y-85630517D01*
X177491801Y-85630517D01*
X177513416Y-85773448D01*
X177625092Y-86274903D01*
X177792586Y-87027000D01*
X178129275Y-87027000D01*
X178271974Y-86948695D01*
X178698422Y-87001525D01*
X178954100Y-87020252D01*
X179258226Y-87027000D01*
X179463573Y-87027000D01*
X179622607Y-87016060D01*
X179739663Y-86987034D01*
X179824421Y-86943905D01*
X179884160Y-86888001D01*
X179936341Y-86790383D01*
X179956599Y-86666264D01*
X179938748Y-86506054D01*
X179885171Y-86343959D01*
X179807227Y-86215363D01*
X179705557Y-86114362D01*
X179580229Y-86040723D01*
X179424298Y-85994055D01*
X179229650Y-85977244D01*
X179020090Y-85977244D01*
X178469627Y-85992973D01*
X178070107Y-86024260D01*
X178012405Y-85765583D01*
X178004528Y-85693263D01*
X178013145Y-85659832D01*
X178040248Y-85632568D01*
X178084705Y-85616215D01*
X178174521Y-85608974D01*
X178379868Y-85608974D01*
X179130182Y-85622652D01*
X179542159Y-85648127D01*
X179539925Y-85616839D01*
X180201065Y-85616839D01*
X180212124Y-85686877D01*
X180225794Y-85773448D01*
X180393223Y-86525545D01*
X180435355Y-86668646D01*
X180472583Y-86750751D01*
X180529877Y-86835000D01*
X180607258Y-86908512D01*
X180718554Y-86972118D01*
X180853376Y-87011766D01*
X181046633Y-87027000D01*
X181256194Y-87027000D01*
X181847323Y-87009390D01*
X182262047Y-86972118D01*
X182384962Y-87027000D01*
X182721651Y-87027000D01*
X182356919Y-85389620D01*
X182689045Y-85389620D01*
X182908497Y-85730363D01*
X183057241Y-85669669D01*
X183306918Y-85601110D01*
X183456649Y-85578043D01*
X183632433Y-85569822D01*
X183677495Y-85569822D01*
X183806916Y-85580025D01*
X183894066Y-85606203D01*
X183950803Y-85644194D01*
X184014107Y-85734288D01*
X184069322Y-85891075D01*
X184322296Y-87027000D01*
X184823116Y-87027000D01*
X184504939Y-85598529D01*
X185036090Y-85598529D01*
X185047382Y-85692808D01*
X185057040Y-85773448D01*
X185186183Y-86353207D01*
X185904624Y-86353207D01*
X186502713Y-86337648D01*
X186808078Y-86317987D01*
X186856072Y-86533409D01*
X186860291Y-86603444D01*
X186837220Y-86648780D01*
X186786615Y-86678238D01*
X186693772Y-86690189D01*
X186484578Y-86690189D01*
X186050254Y-86684376D01*
X185658793Y-86668646D01*
X185371747Y-86650866D01*
X185264036Y-86905611D01*
X185293753Y-86942032D01*
X185394391Y-86979607D01*
X185632348Y-87012352D01*
X186099896Y-87027000D01*
X186924948Y-87027000D01*
X187115717Y-87012167D01*
X187229763Y-86976050D01*
X187313844Y-86916225D01*
X187359090Y-86846797D01*
X187379188Y-86766936D01*
X187379973Y-86682324D01*
X187355060Y-86525545D01*
X187187631Y-85773448D01*
X187145500Y-85630517D01*
X187657310Y-85630517D01*
X187679109Y-85773448D01*
X187958279Y-87027000D01*
X188458915Y-87027000D01*
X188177914Y-85765583D01*
X188175325Y-85695510D01*
X188199099Y-85650104D01*
X188249472Y-85620777D01*
X188340213Y-85608974D01*
X189235241Y-85608974D01*
X189306550Y-85613317D01*
X189338922Y-85622652D01*
X189359170Y-85643853D01*
X189377391Y-85695143D01*
X189674146Y-87027000D01*
X190174966Y-87027000D01*
X189783999Y-85271993D01*
X190153167Y-85271993D01*
X190228272Y-85608974D01*
X191082267Y-85608974D01*
X191287248Y-86529477D01*
X191291865Y-86616967D01*
X191266731Y-86658901D01*
X191215959Y-86681051D01*
X191125864Y-86690189D01*
X190547009Y-86690189D01*
X190572288Y-86987847D01*
X190840833Y-87013322D01*
X191229728Y-87027000D01*
X191357040Y-87027000D01*
X191560653Y-87009111D01*
X191684988Y-86964775D01*
X191756011Y-86901678D01*
X191795630Y-86814181D01*
X191808920Y-86692979D01*
X191787152Y-86525545D01*
X191587883Y-85630517D01*
X192301710Y-85630517D01*
X192323326Y-85773448D01*
X192435001Y-86274903D01*
X192602495Y-87027000D01*
X192939184Y-87027000D01*
X193081883Y-86948695D01*
X193508331Y-87001525D01*
X193764010Y-87020252D01*
X194068136Y-87027000D01*
X194273483Y-87027000D01*
X194432516Y-87016060D01*
X194549572Y-86987034D01*
X194634330Y-86943905D01*
X194694069Y-86888001D01*
X194746250Y-86790383D01*
X194766508Y-86666264D01*
X194748657Y-86506054D01*
X194695080Y-86343959D01*
X194617136Y-86215363D01*
X194515466Y-86114362D01*
X194390138Y-86040723D01*
X194234207Y-85994055D01*
X194039559Y-85977244D01*
X193829999Y-85977244D01*
X193279536Y-85992973D01*
X192880016Y-86024260D01*
X192822314Y-85765583D01*
X192814437Y-85693263D01*
X192823054Y-85659832D01*
X192850158Y-85632568D01*
X192894615Y-85616215D01*
X192984430Y-85608974D01*
X193189777Y-85608974D01*
X193940091Y-85622652D01*
X194352068Y-85648127D01*
X194348527Y-85598529D01*
X195015853Y-85598529D01*
X195027145Y-85692808D01*
X195036803Y-85773448D01*
X195165946Y-86353207D01*
X195884386Y-86353207D01*
X196482476Y-86337648D01*
X196787841Y-86317987D01*
X196835834Y-86533409D01*
X196840054Y-86603444D01*
X196816982Y-86648780D01*
X196766378Y-86678238D01*
X196673535Y-86690189D01*
X196464341Y-86690189D01*
X196030016Y-86684376D01*
X195638556Y-86668646D01*
X195351510Y-86650866D01*
X195243799Y-86905611D01*
X195273516Y-86942032D01*
X195374154Y-86979607D01*
X195612111Y-87012352D01*
X196079659Y-87027000D01*
X196904711Y-87027000D01*
X197095480Y-87012167D01*
X197184691Y-86983915D01*
X197748265Y-86983915D01*
X197766270Y-86995377D01*
X197865684Y-87013322D01*
X198250550Y-87027000D01*
X200204554Y-87027000D01*
X200093729Y-86713612D01*
X199650428Y-84723692D01*
X199108575Y-84723692D01*
X199537954Y-86650866D01*
X197838390Y-86650866D01*
X197748265Y-86983915D01*
X197184691Y-86983915D01*
X197209526Y-86976050D01*
X197293607Y-86916225D01*
X197338853Y-86846797D01*
X197358950Y-86766936D01*
X197359735Y-86682324D01*
X197334823Y-86525545D01*
X197167394Y-85773448D01*
X197125262Y-85630517D01*
X197088022Y-85548265D01*
X197030740Y-85463992D01*
X196953078Y-85390592D01*
X196840231Y-85326874D01*
X196704075Y-85287101D01*
X196513800Y-85271993D01*
X195631229Y-85271993D01*
X195376719Y-85286195D01*
X195217237Y-85321061D01*
X195130224Y-85362476D01*
X195071239Y-85415031D01*
X195034971Y-85479721D01*
X195015853Y-85598529D01*
X194348527Y-85598529D01*
X194330819Y-85350468D01*
X194308360Y-85327013D01*
X194222270Y-85302484D01*
X194004205Y-85283789D01*
X192958601Y-85271993D01*
X192753437Y-85271993D01*
X192563311Y-85287923D01*
X192449721Y-85326874D01*
X192366681Y-85390497D01*
X192322043Y-85463992D01*
X192302462Y-85546964D01*
X192301710Y-85630517D01*
X191587883Y-85630517D01*
X191583087Y-85608974D01*
X191919775Y-85608974D01*
X191844671Y-85271993D01*
X191672113Y-85271993D01*
X191599834Y-85265336D01*
X191554144Y-85248570D01*
X191518657Y-85216645D01*
X191481787Y-85154536D01*
X191306299Y-84735318D01*
X190887544Y-84735318D01*
X191007162Y-85271993D01*
X190153167Y-85271993D01*
X189783999Y-85271993D01*
X189609482Y-84488608D01*
X189108662Y-84488608D01*
X189300637Y-85350468D01*
X188873823Y-85295586D01*
X188618454Y-85278244D01*
X188314385Y-85271993D01*
X188109038Y-85271993D01*
X187919048Y-85287914D01*
X187805322Y-85326874D01*
X187722281Y-85390497D01*
X187677644Y-85463992D01*
X187658062Y-85546964D01*
X187657310Y-85630517D01*
X187145500Y-85630517D01*
X187108260Y-85548265D01*
X187050978Y-85463992D01*
X186973315Y-85390592D01*
X186860468Y-85326874D01*
X186724312Y-85287101D01*
X186534038Y-85271993D01*
X185651466Y-85271993D01*
X185396956Y-85286195D01*
X185237474Y-85321061D01*
X185150461Y-85362476D01*
X185091476Y-85415031D01*
X185055208Y-85479721D01*
X185036090Y-85598529D01*
X184504939Y-85598529D01*
X184432206Y-85271993D01*
X184095517Y-85271993D01*
X183957031Y-85350468D01*
X183835513Y-85301556D01*
X183707904Y-85264299D01*
X183570147Y-85241428D01*
X183388800Y-85232840D01*
X183188524Y-85241067D01*
X183033935Y-85263104D01*
X182916557Y-85295586D01*
X182689045Y-85389620D01*
X182356919Y-85389620D01*
X182168441Y-84543489D01*
X181667621Y-84543489D01*
X181840362Y-85319009D01*
X181416295Y-85285841D01*
X180865283Y-85271993D01*
X180655723Y-85271993D01*
X180465278Y-85286818D01*
X180351274Y-85322942D01*
X180267057Y-85382809D01*
X180221764Y-85452366D01*
X180201712Y-85532225D01*
X180201065Y-85616839D01*
X179539925Y-85616839D01*
X179520909Y-85350468D01*
X179498451Y-85327013D01*
X179412361Y-85302484D01*
X179194296Y-85283789D01*
X178148692Y-85271993D01*
X177943528Y-85271993D01*
X177753402Y-85287923D01*
X177639812Y-85326874D01*
X177556772Y-85390497D01*
X177512134Y-85463992D01*
X177492552Y-85546964D01*
X177491801Y-85630517D01*
X176981089Y-85630517D01*
X176943849Y-85548265D01*
X176886567Y-85463992D01*
X176808905Y-85390592D01*
X176696058Y-85326874D01*
X176559902Y-85287101D01*
X176369627Y-85271993D01*
X175799015Y-85271993D01*
X175323762Y-85279799D01*
X175075995Y-85297467D01*
X174895626Y-85330962D01*
X174872113Y-85350468D01*
X174411309Y-85350468D01*
X174232441Y-84547422D01*
X173731621Y-84547422D01*
X174045779Y-85957582D01*
X173914437Y-85957582D01*
X173843454Y-85944587D01*
X173770822Y-85902701D01*
X173599913Y-85761822D01*
X173314699Y-85522806D01*
X173023622Y-85275925D01*
X172420220Y-85275925D01*
X172109109Y-85275925D01*
X172109109Y-84177497D01*
X200515665Y-84177497D01*
X200515665Y-87377263D01*
G37*
D11*
X205147171Y-98791346D02*
X205861457Y-99291346D01*
X205147171Y-99648489D02*
X206647171Y-99648489D01*
X206647171Y-99648489D02*
X206647171Y-99077060D01*
X206647171Y-99077060D02*
X206575742Y-98934203D01*
X206575742Y-98934203D02*
X206504314Y-98862774D01*
X206504314Y-98862774D02*
X206361457Y-98791346D01*
X206361457Y-98791346D02*
X206147171Y-98791346D01*
X206147171Y-98791346D02*
X206004314Y-98862774D01*
X206004314Y-98862774D02*
X205932885Y-98934203D01*
X205932885Y-98934203D02*
X205861457Y-99077060D01*
X205861457Y-99077060D02*
X205861457Y-99648489D01*
X166879114Y-97193510D02*
X166950542Y-97407796D01*
X166950542Y-97407796D02*
X167021971Y-97479225D01*
X167021971Y-97479225D02*
X167164828Y-97550653D01*
X167164828Y-97550653D02*
X167379114Y-97550653D01*
X167379114Y-97550653D02*
X167521971Y-97479225D01*
X167521971Y-97479225D02*
X167593400Y-97407796D01*
X167593400Y-97407796D02*
X167664828Y-97264939D01*
X167664828Y-97264939D02*
X167664828Y-96693510D01*
X167664828Y-96693510D02*
X166164828Y-96693510D01*
X166164828Y-96693510D02*
X166164828Y-97193510D01*
X166164828Y-97193510D02*
X166236257Y-97336368D01*
X166236257Y-97336368D02*
X166307685Y-97407796D01*
X166307685Y-97407796D02*
X166450542Y-97479225D01*
X166450542Y-97479225D02*
X166593400Y-97479225D01*
X166593400Y-97479225D02*
X166736257Y-97407796D01*
X166736257Y-97407796D02*
X166807685Y-97336368D01*
X166807685Y-97336368D02*
X166879114Y-97193510D01*
X166879114Y-97193510D02*
X166879114Y-96693510D01*
X165934542Y-136603225D02*
X166648828Y-136603225D01*
X165148828Y-136103225D02*
X165934542Y-136603225D01*
X165934542Y-136603225D02*
X165148828Y-137103225D01*
X167156828Y-100090653D02*
X166442542Y-99590653D01*
X167156828Y-99233510D02*
X165656828Y-99233510D01*
X165656828Y-99233510D02*
X165656828Y-99804939D01*
X165656828Y-99804939D02*
X165728257Y-99947796D01*
X165728257Y-99947796D02*
X165799685Y-100019225D01*
X165799685Y-100019225D02*
X165942542Y-100090653D01*
X165942542Y-100090653D02*
X166156828Y-100090653D01*
X166156828Y-100090653D02*
X166299685Y-100019225D01*
X166299685Y-100019225D02*
X166371114Y-99947796D01*
X166371114Y-99947796D02*
X166442542Y-99804939D01*
X166442542Y-99804939D02*
X166442542Y-99233510D01*
X166902828Y-133941203D02*
X166188542Y-133441203D01*
X166902828Y-133084060D02*
X165402828Y-133084060D01*
X165402828Y-133084060D02*
X165402828Y-133655489D01*
X165402828Y-133655489D02*
X165474257Y-133798346D01*
X165474257Y-133798346D02*
X165545685Y-133869775D01*
X165545685Y-133869775D02*
X165688542Y-133941203D01*
X165688542Y-133941203D02*
X165902828Y-133941203D01*
X165902828Y-133941203D02*
X166045685Y-133869775D01*
X166045685Y-133869775D02*
X166117114Y-133798346D01*
X166117114Y-133798346D02*
X166188542Y-133655489D01*
X166188542Y-133655489D02*
X166188542Y-133084060D01*
X205655171Y-132768896D02*
X206369457Y-133268896D01*
X205655171Y-133626039D02*
X207155171Y-133626039D01*
X207155171Y-133626039D02*
X207155171Y-133054610D01*
X207155171Y-133054610D02*
X207083742Y-132911753D01*
X207083742Y-132911753D02*
X207012314Y-132840324D01*
X207012314Y-132840324D02*
X206869457Y-132768896D01*
X206869457Y-132768896D02*
X206655171Y-132768896D01*
X206655171Y-132768896D02*
X206512314Y-132840324D01*
X206512314Y-132840324D02*
X206440885Y-132911753D01*
X206440885Y-132911753D02*
X206369457Y-133054610D01*
X206369457Y-133054610D02*
X206369457Y-133626039D01*
X205861457Y-136954774D02*
X205147171Y-136954774D01*
X206647171Y-137454774D02*
X205861457Y-136954774D01*
X205861457Y-136954774D02*
X206647171Y-136454774D01*
X166625114Y-131044060D02*
X166696542Y-131258346D01*
X166696542Y-131258346D02*
X166767971Y-131329775D01*
X166767971Y-131329775D02*
X166910828Y-131401203D01*
X166910828Y-131401203D02*
X167125114Y-131401203D01*
X167125114Y-131401203D02*
X167267971Y-131329775D01*
X167267971Y-131329775D02*
X167339400Y-131258346D01*
X167339400Y-131258346D02*
X167410828Y-131115489D01*
X167410828Y-131115489D02*
X167410828Y-130544060D01*
X167410828Y-130544060D02*
X165910828Y-130544060D01*
X165910828Y-130544060D02*
X165910828Y-131044060D01*
X165910828Y-131044060D02*
X165982257Y-131186918D01*
X165982257Y-131186918D02*
X166053685Y-131258346D01*
X166053685Y-131258346D02*
X166196542Y-131329775D01*
X166196542Y-131329775D02*
X166339400Y-131329775D01*
X166339400Y-131329775D02*
X166482257Y-131258346D01*
X166482257Y-131258346D02*
X166553685Y-131186918D01*
X166553685Y-131186918D02*
X166625114Y-131044060D01*
X166625114Y-131044060D02*
X166625114Y-130544060D01*
X206440885Y-130459039D02*
X206369457Y-130244753D01*
X206369457Y-130244753D02*
X206298028Y-130173324D01*
X206298028Y-130173324D02*
X206155171Y-130101896D01*
X206155171Y-130101896D02*
X205940885Y-130101896D01*
X205940885Y-130101896D02*
X205798028Y-130173324D01*
X205798028Y-130173324D02*
X205726600Y-130244753D01*
X205726600Y-130244753D02*
X205655171Y-130387610D01*
X205655171Y-130387610D02*
X205655171Y-130959039D01*
X205655171Y-130959039D02*
X207155171Y-130959039D01*
X207155171Y-130959039D02*
X207155171Y-130459039D01*
X207155171Y-130459039D02*
X207083742Y-130316182D01*
X207083742Y-130316182D02*
X207012314Y-130244753D01*
X207012314Y-130244753D02*
X206869457Y-130173324D01*
X206869457Y-130173324D02*
X206726600Y-130173324D01*
X206726600Y-130173324D02*
X206583742Y-130244753D01*
X206583742Y-130244753D02*
X206512314Y-130316182D01*
X206512314Y-130316182D02*
X206440885Y-130459039D01*
X206440885Y-130459039D02*
X206440885Y-130959039D01*
X166442542Y-102059225D02*
X167156828Y-102059225D01*
X165656828Y-101559225D02*
X166442542Y-102059225D01*
X166442542Y-102059225D02*
X165656828Y-102559225D01*
G36*
X204077336Y-83979000D02*
G01*
X204077336Y-82204502D01*
X205076228Y-82204502D01*
X205076228Y-81671759D01*
X202251560Y-81671759D01*
X202251560Y-82204502D01*
X203263091Y-82204502D01*
X203263091Y-83979000D01*
X204077336Y-83979000D01*
G37*
G36*
X201380895Y-83979000D02*
G01*
X201565310Y-83968701D01*
X201699260Y-83941716D01*
X201794337Y-83902576D01*
X201876163Y-83844320D01*
X201935556Y-83775006D01*
X201974955Y-83692967D01*
X202007536Y-83555532D01*
X202018918Y-83399240D01*
X202018918Y-82223993D01*
X201246622Y-82223993D01*
X201246622Y-83328801D01*
X201233973Y-83397446D01*
X201199227Y-83443871D01*
X201139928Y-83473794D01*
X201045122Y-83485409D01*
X200566650Y-83485409D01*
X200484102Y-83480005D01*
X200457657Y-83469851D01*
X200446646Y-83445002D01*
X200440804Y-83367953D01*
X200440804Y-82223993D01*
X199664295Y-82223993D01*
X199664295Y-83979000D01*
X200272826Y-83979000D01*
X200432378Y-83900695D01*
X200818526Y-83955577D01*
X201037444Y-83973125D01*
X201259262Y-83979000D01*
X201380895Y-83979000D01*
G37*
G36*
X199160727Y-83979000D02*
G01*
X199160727Y-82223993D01*
X198564836Y-82223993D01*
X198405284Y-82302468D01*
X198270808Y-82239912D01*
X198102817Y-82199505D01*
X197893290Y-82184840D01*
X197690278Y-82195791D01*
X197523995Y-82226044D01*
X197372933Y-82270898D01*
X197265891Y-82314094D01*
X197142060Y-82380772D01*
X197351804Y-82889921D01*
X197509157Y-82815549D01*
X197779900Y-82727499D01*
X197938156Y-82696754D01*
X198107247Y-82686295D01*
X198153409Y-82686295D01*
X198262753Y-82696769D01*
X198334026Y-82723567D01*
X198366080Y-82753796D01*
X198388105Y-82804796D01*
X198396858Y-82886159D01*
X198396858Y-83979000D01*
X199160727Y-83979000D01*
G37*
G36*
X196118072Y-83979000D02*
G01*
X196326875Y-83961774D01*
X196465666Y-83917715D01*
X196554595Y-83853678D01*
X196616268Y-83763602D01*
X196656875Y-83641489D01*
X196672015Y-83477545D01*
X196672015Y-82717583D01*
X197016214Y-82717583D01*
X197016214Y-82223993D01*
X196839810Y-82223993D01*
X196772985Y-82217128D01*
X196724588Y-82198689D01*
X196689602Y-82164952D01*
X196667802Y-82106536D01*
X196588117Y-81687318D01*
X195899719Y-81687318D01*
X195899719Y-82223993D01*
X195198864Y-82223993D01*
X195198864Y-82717583D01*
X195899719Y-82717583D01*
X195899719Y-83324868D01*
X195885139Y-83410892D01*
X195849344Y-83454122D01*
X195791443Y-83476490D01*
X195698219Y-83485409D01*
X195278548Y-83485409D01*
X195194651Y-83939847D01*
X195463379Y-83965322D01*
X195857770Y-83979000D01*
X196118072Y-83979000D01*
G37*
G36*
X194816197Y-83979000D02*
G01*
X194816197Y-81808877D01*
X194858145Y-81495489D01*
X194052327Y-81495489D01*
X194052327Y-83979000D01*
X194816197Y-83979000D01*
G37*
G36*
X193089884Y-82234577D02*
G01*
X193227905Y-82262736D01*
X193329857Y-82304348D01*
X193419590Y-82365109D01*
X193486496Y-82435317D01*
X193533372Y-82516009D01*
X193575467Y-82651706D01*
X193589975Y-82803752D01*
X193589975Y-83395308D01*
X193575669Y-83561269D01*
X193535570Y-83698951D01*
X193489540Y-83778980D01*
X193422736Y-83847143D01*
X193332055Y-83904628D01*
X193229184Y-83943081D01*
X193090320Y-83969186D01*
X192905973Y-83979000D01*
X192011861Y-83979000D01*
X191703245Y-83971651D01*
X191506279Y-83953525D01*
X191342009Y-83922445D01*
X191256601Y-83892831D01*
X191199851Y-83853158D01*
X191185160Y-83818459D01*
X191437036Y-83446257D01*
X191860919Y-83471732D01*
X192482090Y-83485409D01*
X192612149Y-83485409D01*
X192709146Y-83473644D01*
X192768716Y-83443575D01*
X192802666Y-83397243D01*
X192813650Y-83328801D01*
X192813650Y-83269987D01*
X192538693Y-83289648D01*
X191965699Y-83305207D01*
X191231322Y-83305207D01*
X191231322Y-82874362D01*
X192007831Y-82874362D01*
X192007831Y-82929244D01*
X192813650Y-82929244D01*
X192813650Y-82874362D01*
X192800994Y-82805627D01*
X192766237Y-82759152D01*
X192706936Y-82729205D01*
X192612149Y-82717583D01*
X192368700Y-82717583D01*
X192112795Y-82725448D01*
X192047911Y-82741293D01*
X192022486Y-82764771D01*
X192007831Y-82874362D01*
X191231322Y-82874362D01*
X191231322Y-82803752D01*
X191248305Y-82638371D01*
X191296352Y-82500280D01*
X191349769Y-82421573D01*
X191427881Y-82353843D01*
X191535588Y-82296484D01*
X191654793Y-82259307D01*
X191818141Y-82233693D01*
X192037141Y-82223993D01*
X192905973Y-82223993D01*
X193089884Y-82234577D01*
G37*
G36*
X189714574Y-81989080D02*
G01*
X189714574Y-83979000D01*
X188896116Y-83979000D01*
X188896116Y-83348291D01*
X188554115Y-83367953D01*
X188060989Y-83379579D01*
X187771378Y-83379579D01*
X187554105Y-83366966D01*
X187390758Y-83333377D01*
X187269825Y-83283665D01*
X187163807Y-83211036D01*
X187085156Y-83126641D01*
X187030590Y-83029090D01*
X186982226Y-82865240D01*
X186965560Y-82682363D01*
X186965560Y-82431721D01*
X187779621Y-82431721D01*
X187779621Y-82631414D01*
X187794988Y-82734396D01*
X187834210Y-82796058D01*
X187902246Y-82832048D01*
X188027284Y-82846836D01*
X188896116Y-82846836D01*
X188896116Y-82212367D01*
X188023070Y-82212367D01*
X187895281Y-82227956D01*
X187829996Y-82265196D01*
X187793862Y-82328026D01*
X187779621Y-82431721D01*
X186965560Y-82431721D01*
X186965560Y-82372907D01*
X186972525Y-82233937D01*
X186992854Y-82104655D01*
X187034970Y-81984638D01*
X187106061Y-81881369D01*
X187208265Y-81798051D01*
X187362149Y-81728521D01*
X187546774Y-81687667D01*
X187813327Y-81671759D01*
X189756523Y-81671759D01*
X189714574Y-81989080D01*
G37*
G36*
X186037193Y-82055587D02*
G01*
X186202979Y-82039332D01*
X186317774Y-81996579D01*
X186395489Y-81931635D01*
X186443511Y-81841946D01*
X186461076Y-81718776D01*
X186447077Y-81597837D01*
X186410255Y-81514432D01*
X186354098Y-81458218D01*
X186278583Y-81420494D01*
X186175631Y-81395217D01*
X186037193Y-81385727D01*
X185890040Y-81395496D01*
X185785125Y-81421008D01*
X185712045Y-81458218D01*
X185658227Y-81514091D01*
X185622669Y-81597440D01*
X185609096Y-81718776D01*
X185626750Y-81841679D01*
X185675074Y-81931317D01*
X185753439Y-81996362D01*
X185869430Y-82039259D01*
X186037193Y-82055587D01*
G37*
G36*
X186423341Y-83979000D02*
G01*
X186423341Y-82223993D01*
X185659471Y-82223993D01*
X185659471Y-83979000D01*
X186423341Y-83979000D01*
G37*
G36*
X184464941Y-83979000D02*
G01*
X184649287Y-83969186D01*
X184788151Y-83943081D01*
X184891022Y-83904628D01*
X184981703Y-83847143D01*
X185048507Y-83778980D01*
X185094538Y-83698951D01*
X185134636Y-83561269D01*
X185148943Y-83395308D01*
X185148943Y-82803752D01*
X185134434Y-82651706D01*
X185092339Y-82516009D01*
X185045464Y-82435317D01*
X184978557Y-82365109D01*
X184888824Y-82304348D01*
X184786872Y-82262736D01*
X184648851Y-82234577D01*
X184464941Y-82223993D01*
X183927667Y-82223993D01*
X183477070Y-82235706D01*
X183218386Y-82263316D01*
X183018105Y-82310054D01*
X182962298Y-82341620D01*
X183088327Y-82756735D01*
X183407247Y-82733312D01*
X183915028Y-82717583D01*
X184171116Y-82717583D01*
X184270282Y-82728945D01*
X184326455Y-82756906D01*
X184360151Y-82803551D01*
X184372617Y-82874362D01*
X184372617Y-83328801D01*
X184361145Y-83399992D01*
X184330668Y-83446257D01*
X184276931Y-83473727D01*
X184171116Y-83485409D01*
X183956977Y-83485409D01*
X183421901Y-83471732D01*
X183092540Y-83446257D01*
X182840665Y-83818459D01*
X182854212Y-83846291D01*
X182910345Y-83881258D01*
X183048393Y-83926170D01*
X183281564Y-83963499D01*
X183667366Y-83979000D01*
X184464941Y-83979000D01*
G37*
G36*
X182129685Y-82234291D02*
G01*
X182263635Y-82261276D01*
X182358712Y-82300416D01*
X182440741Y-82358523D01*
X182500747Y-82427261D01*
X182541162Y-82508145D01*
X182575267Y-82644349D01*
X182587324Y-82803752D01*
X182587324Y-83395308D01*
X182575685Y-83561787D01*
X182543360Y-83698951D01*
X182503892Y-83779423D01*
X182443929Y-83847452D01*
X182360727Y-83904628D01*
X182264553Y-83942736D01*
X182129817Y-83968994D01*
X181945270Y-83979000D01*
X180778400Y-83979000D01*
X180593811Y-83968953D01*
X180459937Y-83942663D01*
X180365141Y-83904628D01*
X180283230Y-83847571D01*
X180223941Y-83779553D01*
X180184707Y-83698951D01*
X180152246Y-83561778D01*
X180140560Y-83395308D01*
X180140560Y-82874362D01*
X180912856Y-82874362D01*
X180912856Y-83328801D01*
X180923688Y-83397549D01*
X180957104Y-83443863D01*
X181015415Y-83473754D01*
X181109960Y-83485409D01*
X181609497Y-83485409D01*
X181704144Y-83473749D01*
X181762508Y-83443851D01*
X181795946Y-83397536D01*
X181806785Y-83328801D01*
X181806785Y-82874362D01*
X181794318Y-82803551D01*
X181760623Y-82756906D01*
X181704450Y-82728945D01*
X181605284Y-82717583D01*
X181109960Y-82717583D01*
X181011310Y-82729021D01*
X180957003Y-82756906D01*
X180924850Y-82803370D01*
X180912856Y-82874362D01*
X180140560Y-82874362D01*
X180140560Y-82803752D01*
X180152104Y-82644259D01*
X180184707Y-82508145D01*
X180223890Y-82427319D01*
X180283179Y-82358598D01*
X180365141Y-82300416D01*
X180460104Y-82261282D01*
X180593982Y-82234295D01*
X180778400Y-82223993D01*
X181945270Y-82223993D01*
X182129685Y-82234291D01*
G37*
G36*
X178054848Y-83979000D02*
G01*
X178965630Y-82223993D01*
X178122076Y-82223993D01*
X177723288Y-83183818D01*
X177614112Y-83465919D01*
X177572163Y-83465919D01*
X177462987Y-83183818D01*
X177060169Y-82223993D01*
X176224859Y-82223993D01*
X176292086Y-82463009D01*
X177127214Y-83979000D01*
X178054848Y-83979000D01*
G37*
G36*
X176014382Y-83979000D02*
G01*
X176014382Y-83520629D01*
X175825522Y-83408986D01*
X175535911Y-83242632D01*
X175200138Y-83046700D01*
X174872791Y-82850769D01*
X174608276Y-82682363D01*
X174484226Y-82590631D01*
X174419415Y-82521822D01*
X174381384Y-82448544D01*
X174369040Y-82372907D01*
X174369040Y-82318026D01*
X174382255Y-82248494D01*
X174417400Y-82206554D01*
X174477978Y-82183522D01*
X174604063Y-82173214D01*
X174813990Y-82173214D01*
X175206449Y-82180304D01*
X175487550Y-82198689D01*
X175972250Y-82251519D01*
X176014382Y-81750064D01*
X175783573Y-81712963D01*
X175252528Y-81658082D01*
X174914017Y-81639306D01*
X174520166Y-81632607D01*
X174490673Y-81632607D01*
X174249349Y-81642660D01*
X174064081Y-81669525D01*
X173924274Y-81709031D01*
X173795133Y-81769902D01*
X173700676Y-81841027D01*
X173634663Y-81922401D01*
X173588816Y-82016698D01*
X173560456Y-82122980D01*
X173550583Y-82243654D01*
X173550583Y-82325891D01*
X173570931Y-82502392D01*
X173628706Y-82649096D01*
X173722774Y-82772464D01*
X173913103Y-82933759D01*
X174163327Y-83089785D01*
X174539033Y-83281784D01*
X174809777Y-83414969D01*
X174809777Y-83446257D01*
X173424736Y-83446257D01*
X173424736Y-83979000D01*
X176014382Y-83979000D01*
G37*
G36*
X172579534Y-83979000D02*
G01*
X172745320Y-83962744D01*
X172860116Y-83919992D01*
X172937831Y-83855047D01*
X172985852Y-83765358D01*
X173003418Y-83642189D01*
X172989419Y-83521249D01*
X172952596Y-83437844D01*
X172896439Y-83381630D01*
X172820924Y-83343907D01*
X172717972Y-83318630D01*
X172579534Y-83309139D01*
X172432381Y-83318908D01*
X172327466Y-83344420D01*
X172254386Y-83381630D01*
X172200569Y-83437503D01*
X172165010Y-83520853D01*
X172151437Y-83642189D01*
X172169091Y-83765091D01*
X172217415Y-83854730D01*
X172295780Y-83919774D01*
X172411772Y-83962671D01*
X172579534Y-83979000D01*
G37*
G36*
X170804972Y-81690149D02*
G01*
X171004449Y-81728877D01*
X171154468Y-81786446D01*
X171265385Y-81859826D01*
X171353338Y-81957490D01*
X171419876Y-82083736D01*
X171463391Y-82245382D01*
X171479342Y-82451212D01*
X171479342Y-83199547D01*
X171463298Y-83405042D01*
X171419447Y-83567042D01*
X171352238Y-83694138D01*
X171263187Y-83792984D01*
X171151150Y-83867385D01*
X171000838Y-83925523D01*
X170802306Y-83964493D01*
X170543465Y-83979000D01*
X169741676Y-83979000D01*
X169482730Y-83964459D01*
X169284656Y-83925444D01*
X169135162Y-83867309D01*
X169024152Y-83792984D01*
X168936023Y-83694271D01*
X168869424Y-83567236D01*
X168825932Y-83405194D01*
X168810012Y-83199547D01*
X168810012Y-82482670D01*
X169615830Y-82482670D01*
X169615830Y-83168089D01*
X169633363Y-83287567D01*
X169680860Y-83371885D01*
X169730081Y-83410972D01*
X169800942Y-83436587D01*
X169901228Y-83446257D01*
X170379700Y-83446257D01*
X170480254Y-83436890D01*
X170552726Y-83411926D01*
X170604281Y-83373766D01*
X170654751Y-83290330D01*
X170673524Y-83168089D01*
X170673524Y-82482670D01*
X170654635Y-82367000D01*
X170602266Y-82282806D01*
X170549309Y-82243309D01*
X170477206Y-82217861D01*
X170379700Y-82208434D01*
X169901228Y-82208434D01*
X169804416Y-82218587D01*
X169733934Y-82245966D01*
X169683058Y-82288790D01*
X169633110Y-82376000D01*
X169615830Y-82482670D01*
X168810012Y-82482670D01*
X168810012Y-82451212D01*
X168825839Y-82245228D01*
X168868994Y-82083541D01*
X168934921Y-81957357D01*
X169021954Y-81859826D01*
X169131847Y-81786522D01*
X169281044Y-81728957D01*
X169480061Y-81690183D01*
X169741676Y-81675692D01*
X170543465Y-81675692D01*
X170804972Y-81690149D01*
G37*
D13*
X212961333Y-137487819D02*
X212961333Y-138202104D01*
X212961333Y-138202104D02*
X213008952Y-138344961D01*
X213008952Y-138344961D02*
X213104190Y-138440200D01*
X213104190Y-138440200D02*
X213247047Y-138487819D01*
X213247047Y-138487819D02*
X213342285Y-138487819D01*
X212342285Y-137916390D02*
X212437523Y-137868771D01*
X212437523Y-137868771D02*
X212485142Y-137821152D01*
X212485142Y-137821152D02*
X212532761Y-137725914D01*
X212532761Y-137725914D02*
X212532761Y-137678295D01*
X212532761Y-137678295D02*
X212485142Y-137583057D01*
X212485142Y-137583057D02*
X212437523Y-137535438D01*
X212437523Y-137535438D02*
X212342285Y-137487819D01*
X212342285Y-137487819D02*
X212151809Y-137487819D01*
X212151809Y-137487819D02*
X212056571Y-137535438D01*
X212056571Y-137535438D02*
X212008952Y-137583057D01*
X212008952Y-137583057D02*
X211961333Y-137678295D01*
X211961333Y-137678295D02*
X211961333Y-137725914D01*
X211961333Y-137725914D02*
X212008952Y-137821152D01*
X212008952Y-137821152D02*
X212056571Y-137868771D01*
X212056571Y-137868771D02*
X212151809Y-137916390D01*
X212151809Y-137916390D02*
X212342285Y-137916390D01*
X212342285Y-137916390D02*
X212437523Y-137964009D01*
X212437523Y-137964009D02*
X212485142Y-138011628D01*
X212485142Y-138011628D02*
X212532761Y-138106866D01*
X212532761Y-138106866D02*
X212532761Y-138297342D01*
X212532761Y-138297342D02*
X212485142Y-138392580D01*
X212485142Y-138392580D02*
X212437523Y-138440200D01*
X212437523Y-138440200D02*
X212342285Y-138487819D01*
X212342285Y-138487819D02*
X212151809Y-138487819D01*
X212151809Y-138487819D02*
X212056571Y-138440200D01*
X212056571Y-138440200D02*
X212008952Y-138392580D01*
X212008952Y-138392580D02*
X211961333Y-138297342D01*
X211961333Y-138297342D02*
X211961333Y-138106866D01*
X211961333Y-138106866D02*
X212008952Y-138011628D01*
X212008952Y-138011628D02*
X212056571Y-137964009D01*
X212056571Y-137964009D02*
X212151809Y-137916390D01*
X212901333Y-103591819D02*
X212901333Y-104306104D01*
X212901333Y-104306104D02*
X212948952Y-104448961D01*
X212948952Y-104448961D02*
X213044190Y-104544200D01*
X213044190Y-104544200D02*
X213187047Y-104591819D01*
X213187047Y-104591819D02*
X213282285Y-104591819D01*
X211996571Y-103591819D02*
X212187047Y-103591819D01*
X212187047Y-103591819D02*
X212282285Y-103639438D01*
X212282285Y-103639438D02*
X212329904Y-103687057D01*
X212329904Y-103687057D02*
X212425142Y-103829914D01*
X212425142Y-103829914D02*
X212472761Y-104020390D01*
X212472761Y-104020390D02*
X212472761Y-104401342D01*
X212472761Y-104401342D02*
X212425142Y-104496580D01*
X212425142Y-104496580D02*
X212377523Y-104544200D01*
X212377523Y-104544200D02*
X212282285Y-104591819D01*
X212282285Y-104591819D02*
X212091809Y-104591819D01*
X212091809Y-104591819D02*
X211996571Y-104544200D01*
X211996571Y-104544200D02*
X211948952Y-104496580D01*
X211948952Y-104496580D02*
X211901333Y-104401342D01*
X211901333Y-104401342D02*
X211901333Y-104163247D01*
X211901333Y-104163247D02*
X211948952Y-104068009D01*
X211948952Y-104068009D02*
X211996571Y-104020390D01*
X211996571Y-104020390D02*
X212091809Y-103972771D01*
X212091809Y-103972771D02*
X212282285Y-103972771D01*
X212282285Y-103972771D02*
X212377523Y-104020390D01*
X212377523Y-104020390D02*
X212425142Y-104068009D01*
X212425142Y-104068009D02*
X212472761Y-104163247D01*
X160256333Y-93831819D02*
X160256333Y-94546104D01*
X160256333Y-94546104D02*
X160303952Y-94688961D01*
X160303952Y-94688961D02*
X160399190Y-94784200D01*
X160399190Y-94784200D02*
X160542047Y-94831819D01*
X160542047Y-94831819D02*
X160637285Y-94831819D01*
X159875380Y-93831819D02*
X159208714Y-93831819D01*
X159208714Y-93831819D02*
X159637285Y-94831819D01*
X161905523Y-103991819D02*
X161905523Y-104706104D01*
X161905523Y-104706104D02*
X161953142Y-104848961D01*
X161953142Y-104848961D02*
X162048380Y-104944200D01*
X162048380Y-104944200D02*
X162191237Y-104991819D01*
X162191237Y-104991819D02*
X162286475Y-104991819D01*
X160905523Y-104991819D02*
X161476951Y-104991819D01*
X161191237Y-104991819D02*
X161191237Y-103991819D01*
X161191237Y-103991819D02*
X161286475Y-104134676D01*
X161286475Y-104134676D02*
X161381713Y-104229914D01*
X161381713Y-104229914D02*
X161476951Y-104277533D01*
X160000761Y-103991819D02*
X160476951Y-103991819D01*
X160476951Y-103991819D02*
X160524570Y-104468009D01*
X160524570Y-104468009D02*
X160476951Y-104420390D01*
X160476951Y-104420390D02*
X160381713Y-104372771D01*
X160381713Y-104372771D02*
X160143618Y-104372771D01*
X160143618Y-104372771D02*
X160048380Y-104420390D01*
X160048380Y-104420390D02*
X160000761Y-104468009D01*
X160000761Y-104468009D02*
X159953142Y-104563247D01*
X159953142Y-104563247D02*
X159953142Y-104801342D01*
X159953142Y-104801342D02*
X160000761Y-104896580D01*
X160000761Y-104896580D02*
X160048380Y-104944200D01*
X160048380Y-104944200D02*
X160143618Y-104991819D01*
X160143618Y-104991819D02*
X160381713Y-104991819D01*
X160381713Y-104991819D02*
X160476951Y-104944200D01*
X160476951Y-104944200D02*
X160524570Y-104896580D01*
X164290333Y-128105819D02*
X164290333Y-128820104D01*
X164290333Y-128820104D02*
X164337952Y-128962961D01*
X164337952Y-128962961D02*
X164433190Y-129058200D01*
X164433190Y-129058200D02*
X164576047Y-129105819D01*
X164576047Y-129105819D02*
X164671285Y-129105819D01*
X163766523Y-129105819D02*
X163576047Y-129105819D01*
X163576047Y-129105819D02*
X163480809Y-129058200D01*
X163480809Y-129058200D02*
X163433190Y-129010580D01*
X163433190Y-129010580D02*
X163337952Y-128867723D01*
X163337952Y-128867723D02*
X163290333Y-128677247D01*
X163290333Y-128677247D02*
X163290333Y-128296295D01*
X163290333Y-128296295D02*
X163337952Y-128201057D01*
X163337952Y-128201057D02*
X163385571Y-128153438D01*
X163385571Y-128153438D02*
X163480809Y-128105819D01*
X163480809Y-128105819D02*
X163671285Y-128105819D01*
X163671285Y-128105819D02*
X163766523Y-128153438D01*
X163766523Y-128153438D02*
X163814142Y-128201057D01*
X163814142Y-128201057D02*
X163861761Y-128296295D01*
X163861761Y-128296295D02*
X163861761Y-128534390D01*
X163861761Y-128534390D02*
X163814142Y-128629628D01*
X163814142Y-128629628D02*
X163766523Y-128677247D01*
X163766523Y-128677247D02*
X163671285Y-128724866D01*
X163671285Y-128724866D02*
X163480809Y-128724866D01*
X163480809Y-128724866D02*
X163385571Y-128677247D01*
X163385571Y-128677247D02*
X163337952Y-128629628D01*
X163337952Y-128629628D02*
X163290333Y-128534390D01*
D14*
%TO.C,G2*%
G36*
X209745227Y-121248578D02*
G01*
X209737899Y-121255906D01*
X209730570Y-121248578D01*
X209737899Y-121241249D01*
X209745227Y-121248578D01*
G37*
G36*
X207212372Y-121201924D02*
G01*
X207219156Y-121207200D01*
X207203517Y-121210779D01*
X207188651Y-121209743D01*
X207184280Y-121203081D01*
X207189465Y-121200177D01*
X207212372Y-121201924D01*
G37*
G36*
X213419164Y-121583238D02*
G01*
X213421457Y-121587647D01*
X213409393Y-121593009D01*
X213401634Y-121591952D01*
X213399622Y-121583238D01*
X213401770Y-121581484D01*
X213419164Y-121583238D01*
G37*
G36*
X214071691Y-121670937D02*
G01*
X214078475Y-121676213D01*
X214062836Y-121679792D01*
X214047970Y-121678756D01*
X214043599Y-121672094D01*
X214048785Y-121669190D01*
X214071691Y-121670937D01*
G37*
G36*
X214364824Y-121714907D02*
G01*
X214371609Y-121720183D01*
X214355969Y-121723762D01*
X214341104Y-121722726D01*
X214336733Y-121716064D01*
X214341918Y-121713160D01*
X214364824Y-121714907D01*
G37*
G36*
X214657958Y-121758877D02*
G01*
X214664742Y-121764153D01*
X214649103Y-121767732D01*
X214634237Y-121766696D01*
X214629866Y-121760034D01*
X214635051Y-121757130D01*
X214657958Y-121758877D01*
G37*
G36*
X214943457Y-121803088D02*
G01*
X214945750Y-121807497D01*
X214933686Y-121812859D01*
X214925927Y-121811802D01*
X214923915Y-121803088D01*
X214926063Y-121801334D01*
X214943457Y-121803088D01*
G37*
G36*
X215383157Y-121876372D02*
G01*
X215385450Y-121880780D01*
X215373386Y-121886143D01*
X215365627Y-121885085D01*
X215363615Y-121876372D01*
X215365763Y-121874617D01*
X215383157Y-121876372D01*
G37*
G36*
X215494304Y-121891092D02*
G01*
X215496790Y-121896182D01*
X215475983Y-121898485D01*
X215455821Y-121896442D01*
X215457662Y-121891092D01*
X215464296Y-121889157D01*
X215494304Y-121891092D01*
G37*
G36*
X216159961Y-122008282D02*
G01*
X216162254Y-122012690D01*
X216150189Y-122018053D01*
X216142430Y-122016995D01*
X216140418Y-122008282D01*
X216142566Y-122006527D01*
X216159961Y-122008282D01*
G37*
G36*
X216409124Y-122052252D02*
G01*
X216411417Y-122056660D01*
X216399353Y-122062023D01*
X216391594Y-122060965D01*
X216389582Y-122052252D01*
X216391730Y-122050497D01*
X216409124Y-122052252D01*
G37*
G36*
X216482407Y-121715148D02*
G01*
X216484700Y-121719557D01*
X216472636Y-121724919D01*
X216464877Y-121723862D01*
X216462865Y-121715148D01*
X216465013Y-121713394D01*
X216482407Y-121715148D01*
G37*
G36*
X216885771Y-122139950D02*
G01*
X216892555Y-122145226D01*
X216876916Y-122148805D01*
X216862050Y-122147769D01*
X216857679Y-122141108D01*
X216862864Y-122138203D01*
X216885771Y-122139950D01*
G37*
G36*
X217120277Y-122183920D02*
G01*
X217127062Y-122189196D01*
X217111422Y-122192775D01*
X217096557Y-122191739D01*
X217092185Y-122185078D01*
X217097371Y-122182173D01*
X217120277Y-122183920D01*
G37*
G36*
X217273867Y-122213475D02*
G01*
X217276160Y-122217883D01*
X217264096Y-122223246D01*
X217256337Y-122222188D01*
X217254325Y-122213475D01*
X217256473Y-122211721D01*
X217273867Y-122213475D01*
G37*
G36*
X203339886Y-121417401D02*
G01*
X203353738Y-121420428D01*
X203340264Y-121431786D01*
X203325890Y-121440778D01*
X203313202Y-121444584D01*
X203310951Y-121431786D01*
X203314858Y-121424069D01*
X203336600Y-121417354D01*
X203339886Y-121417401D01*
G37*
G36*
X217467714Y-118850370D02*
G01*
X217468918Y-118999181D01*
X217469828Y-119157237D01*
X217470445Y-119321966D01*
X217470767Y-119490798D01*
X217470795Y-119661163D01*
X217470530Y-119830491D01*
X217469970Y-119996210D01*
X217469116Y-120155752D01*
X217467968Y-120306544D01*
X217466527Y-120446018D01*
X217464791Y-120571601D01*
X217462761Y-120680725D01*
X217460437Y-120770819D01*
X217457819Y-120839312D01*
X217454907Y-120883634D01*
X217451701Y-120901215D01*
X217449170Y-120902952D01*
X217421988Y-120909543D01*
X217372784Y-120914535D01*
X217307258Y-120917947D01*
X217231111Y-120919800D01*
X217150042Y-120920111D01*
X217069751Y-120918901D01*
X216995939Y-120916189D01*
X216934305Y-120911995D01*
X216890549Y-120906337D01*
X216870373Y-120899236D01*
X216867024Y-120890108D01*
X216862072Y-120852644D01*
X216857932Y-120787140D01*
X216854592Y-120693281D01*
X216852038Y-120570749D01*
X216850257Y-120419230D01*
X216846381Y-119958791D01*
X216479964Y-119950275D01*
X216364265Y-119947121D01*
X216240464Y-119941877D01*
X216138301Y-119934377D01*
X216053484Y-119923693D01*
X215981726Y-119908898D01*
X215918738Y-119889063D01*
X215860232Y-119863260D01*
X215801917Y-119830561D01*
X215739506Y-119790038D01*
X215707942Y-119767367D01*
X215604350Y-119670794D01*
X215523113Y-119555729D01*
X215464614Y-119422982D01*
X215429234Y-119273363D01*
X215417356Y-119107680D01*
X215417723Y-119094148D01*
X216060624Y-119094148D01*
X216061568Y-119156155D01*
X216069782Y-119206033D01*
X216070928Y-119209644D01*
X216104309Y-119272168D01*
X216157523Y-119328865D01*
X216221883Y-119370349D01*
X216236274Y-119376615D01*
X216263738Y-119386110D01*
X216296043Y-119393129D01*
X216338084Y-119398180D01*
X216394756Y-119401770D01*
X216470953Y-119404407D01*
X216571569Y-119406597D01*
X216853709Y-119411864D01*
X216853709Y-119108316D01*
X216853709Y-118804769D01*
X216571569Y-118811277D01*
X216503944Y-118813023D01*
X216413758Y-118816349D01*
X216345785Y-118820601D01*
X216295610Y-118826190D01*
X216258820Y-118833528D01*
X216231001Y-118843027D01*
X216209897Y-118852890D01*
X216134132Y-118905274D01*
X216082285Y-118973480D01*
X216077873Y-118983564D01*
X216066282Y-119032467D01*
X216060624Y-119094148D01*
X215417723Y-119094148D01*
X215419357Y-119033963D01*
X215440089Y-118872857D01*
X215483473Y-118730101D01*
X215549709Y-118605275D01*
X215638998Y-118497961D01*
X215751540Y-118407738D01*
X215794858Y-118380408D01*
X215841323Y-118354760D01*
X215889473Y-118333227D01*
X215942071Y-118315457D01*
X216001879Y-118301095D01*
X216071660Y-118289786D01*
X216154174Y-118281176D01*
X216252186Y-118274910D01*
X216368456Y-118270634D01*
X216505747Y-118267994D01*
X216666822Y-118266634D01*
X216854442Y-118266200D01*
X216945535Y-118266236D01*
X217087007Y-118266708D01*
X217202192Y-118267752D01*
X217293030Y-118269425D01*
X217361460Y-118271784D01*
X217409422Y-118274884D01*
X217438856Y-118278782D01*
X217451701Y-118283534D01*
X217454312Y-118295568D01*
X217457281Y-118334937D01*
X217459956Y-118398972D01*
X217462336Y-118485104D01*
X217464423Y-118590761D01*
X217466215Y-118713373D01*
X217467215Y-118804769D01*
X217467714Y-118850370D01*
G37*
G36*
X214068639Y-118288965D02*
G01*
X214154284Y-118289964D01*
X214219672Y-118292326D01*
X214271494Y-118296772D01*
X214316441Y-118304026D01*
X214361203Y-118314809D01*
X214412471Y-118329844D01*
X214587710Y-118395356D01*
X214759920Y-118486902D01*
X214912702Y-118598636D01*
X215044757Y-118729258D01*
X215154787Y-118877469D01*
X215241494Y-119041972D01*
X215303581Y-119221467D01*
X215306400Y-119232582D01*
X215324170Y-119332816D01*
X215334535Y-119450721D01*
X215337515Y-119577084D01*
X215333125Y-119702696D01*
X215321382Y-119818346D01*
X215302304Y-119914821D01*
X215273352Y-120008108D01*
X215197181Y-120183189D01*
X215098162Y-120341452D01*
X214978055Y-120481261D01*
X214838623Y-120600984D01*
X214681630Y-120698988D01*
X214508837Y-120773639D01*
X214322008Y-120823304D01*
X214286196Y-120829190D01*
X214204461Y-120837205D01*
X214104531Y-120840462D01*
X213981003Y-120839213D01*
X213843098Y-120832205D01*
X213714478Y-120816115D01*
X213599542Y-120789408D01*
X213490629Y-120750269D01*
X213380080Y-120696884D01*
X213347126Y-120678560D01*
X213266971Y-120629166D01*
X213188233Y-120574651D01*
X213114891Y-120518339D01*
X213050922Y-120463557D01*
X213000304Y-120413628D01*
X212967016Y-120371878D01*
X212955037Y-120341632D01*
X212956495Y-120335943D01*
X212973541Y-120308946D01*
X213006272Y-120268433D01*
X213050326Y-120218859D01*
X213101341Y-120164684D01*
X213154955Y-120110363D01*
X213206807Y-120060355D01*
X213252534Y-120019116D01*
X213287775Y-119991104D01*
X213308167Y-119980776D01*
X213318876Y-119984299D01*
X213350420Y-120003090D01*
X213394278Y-120034449D01*
X213444412Y-120074232D01*
X213551530Y-120156162D01*
X213664766Y-120224036D01*
X213777434Y-120269600D01*
X213895512Y-120295210D01*
X214024973Y-120303223D01*
X214161831Y-120294079D01*
X214289546Y-120264078D01*
X214411769Y-120211162D01*
X214478579Y-120170522D01*
X214580299Y-120084074D01*
X214661773Y-119981495D01*
X214722622Y-119866367D01*
X214762464Y-119742272D01*
X214780921Y-119612791D01*
X214777614Y-119481506D01*
X214752161Y-119351999D01*
X214704183Y-119227851D01*
X214633301Y-119112645D01*
X214539135Y-119009963D01*
X214535092Y-119006355D01*
X214419268Y-118922432D01*
X214291945Y-118863694D01*
X214156362Y-118830064D01*
X214015763Y-118821462D01*
X213873388Y-118837812D01*
X213732478Y-118879035D01*
X213596275Y-118945053D01*
X213468020Y-119035787D01*
X213431553Y-119066275D01*
X213379979Y-119108771D01*
X213344270Y-119136111D01*
X213320111Y-119150617D01*
X213303192Y-119154613D01*
X213289198Y-119150418D01*
X213273819Y-119140357D01*
X213262994Y-119132416D01*
X213222805Y-119099099D01*
X213173902Y-119054619D01*
X213120621Y-119003394D01*
X213067301Y-118949842D01*
X213018280Y-118898380D01*
X212977894Y-118853428D01*
X212950481Y-118819403D01*
X212940380Y-118800723D01*
X212948603Y-118780245D01*
X212976219Y-118743793D01*
X213018940Y-118697850D01*
X213072245Y-118646722D01*
X213131615Y-118594714D01*
X213192529Y-118546135D01*
X213250468Y-118505289D01*
X213300630Y-118474497D01*
X213472299Y-118389686D01*
X213667585Y-118321403D01*
X213711707Y-118309471D01*
X213756371Y-118300167D01*
X213804237Y-118294031D01*
X213861832Y-118290481D01*
X213935678Y-118288932D01*
X214032301Y-118288803D01*
X214068639Y-118288965D01*
G37*
G36*
X207363609Y-120360389D02*
G01*
X207342862Y-120479179D01*
X207303574Y-120584300D01*
X207281353Y-120624056D01*
X207206807Y-120722067D01*
X207114783Y-120804382D01*
X207010999Y-120866462D01*
X206901170Y-120903769D01*
X206869031Y-120909267D01*
X206770090Y-120915263D01*
X206662009Y-120909427D01*
X206557152Y-120892824D01*
X206467881Y-120866515D01*
X206444813Y-120857235D01*
X206380693Y-120829418D01*
X206330038Y-120802349D01*
X206281739Y-120769541D01*
X206224682Y-120724505D01*
X206155782Y-120668114D01*
X206151399Y-120760481D01*
X206147016Y-120852848D01*
X205842265Y-120856811D01*
X205537515Y-120860775D01*
X205541538Y-120155910D01*
X206154344Y-120155910D01*
X206154344Y-120360358D01*
X206202767Y-120397292D01*
X206207336Y-120400703D01*
X206255605Y-120431654D01*
X206304282Y-120456409D01*
X206307226Y-120457622D01*
X206389523Y-120480402D01*
X206477223Y-120486742D01*
X206562419Y-120477474D01*
X206637208Y-120453428D01*
X206693685Y-120415437D01*
X206705115Y-120403067D01*
X206722542Y-120374821D01*
X206732488Y-120336671D01*
X206738107Y-120278925D01*
X206737252Y-120203081D01*
X206722142Y-120140215D01*
X206690216Y-120089712D01*
X206639002Y-120049644D01*
X206566024Y-120018086D01*
X206468808Y-119993112D01*
X206344881Y-119972795D01*
X206296332Y-119966354D01*
X206237665Y-119958891D01*
X206194124Y-119953739D01*
X206172665Y-119951749D01*
X206167697Y-119954406D01*
X206161418Y-119972220D01*
X206157294Y-120009577D01*
X206155033Y-120069724D01*
X206154344Y-120155910D01*
X205541538Y-120155910D01*
X205541804Y-120109321D01*
X205542079Y-120061287D01*
X205543038Y-119901083D01*
X205543995Y-119766855D01*
X205545068Y-119655974D01*
X205546376Y-119565811D01*
X205548038Y-119493740D01*
X205550174Y-119437131D01*
X205552901Y-119393357D01*
X205556340Y-119359790D01*
X205560609Y-119333801D01*
X205565828Y-119312761D01*
X205572114Y-119294044D01*
X205579589Y-119275021D01*
X205618523Y-119194097D01*
X205683684Y-119102014D01*
X205765992Y-119026049D01*
X205867066Y-118965467D01*
X205988528Y-118919535D01*
X206131999Y-118887520D01*
X206299098Y-118868689D01*
X206491447Y-118862306D01*
X206508632Y-118862314D01*
X206738718Y-118871273D01*
X206951766Y-118897335D01*
X207154661Y-118941322D01*
X207209624Y-118955940D01*
X207209624Y-119189881D01*
X207209624Y-119423823D01*
X207175788Y-119423823D01*
X207169981Y-119423416D01*
X207134739Y-119416004D01*
X207083618Y-119401197D01*
X207025557Y-119381512D01*
X207022301Y-119380331D01*
X206886983Y-119336281D01*
X206766538Y-119308537D01*
X206652719Y-119295658D01*
X206537277Y-119296204D01*
X206496663Y-119298830D01*
X206410578Y-119307793D01*
X206343902Y-119321407D01*
X206289580Y-119341415D01*
X206240560Y-119369561D01*
X206208174Y-119395538D01*
X206168348Y-119452709D01*
X206151073Y-119526638D01*
X206147016Y-119575805D01*
X206400721Y-119601554D01*
X206461428Y-119607841D01*
X206571593Y-119620298D01*
X206660905Y-119632404D01*
X206735073Y-119645217D01*
X206799808Y-119659795D01*
X206860820Y-119677197D01*
X206923819Y-119698480D01*
X207000815Y-119728452D01*
X207083519Y-119769874D01*
X207152460Y-119818294D01*
X207216433Y-119879141D01*
X207258177Y-119927989D01*
X207303912Y-120000386D01*
X207335711Y-120082737D01*
X207357955Y-120184491D01*
X207364441Y-120238019D01*
X207364163Y-120278925D01*
X207363609Y-120360389D01*
G37*
G36*
X212834238Y-119563061D02*
G01*
X212834646Y-119720069D01*
X212834686Y-119742520D01*
X212834975Y-119904563D01*
X212835121Y-120079071D01*
X212835092Y-120241443D01*
X212834894Y-120389534D01*
X212834532Y-120521196D01*
X212834014Y-120634281D01*
X212833345Y-120726643D01*
X212832532Y-120796133D01*
X212831580Y-120840605D01*
X212830497Y-120857912D01*
X212829677Y-120859288D01*
X212821037Y-120863813D01*
X212801820Y-120867415D01*
X212769686Y-120870139D01*
X212722293Y-120872030D01*
X212657300Y-120873134D01*
X212572365Y-120873494D01*
X212465146Y-120873158D01*
X212333302Y-120872170D01*
X212174492Y-120870575D01*
X212092682Y-120869609D01*
X211918338Y-120866949D01*
X211770255Y-120863763D01*
X211649043Y-120860070D01*
X211555311Y-120855893D01*
X211489669Y-120851250D01*
X211452728Y-120846164D01*
X211438341Y-120842691D01*
X211271158Y-120790883D01*
X211128516Y-120723617D01*
X211009835Y-120640492D01*
X210914535Y-120541108D01*
X210842034Y-120425063D01*
X210797152Y-120333896D01*
X210803214Y-120080389D01*
X210803744Y-120061388D01*
X211439756Y-120061388D01*
X211441094Y-120103095D01*
X211455942Y-120185812D01*
X211489929Y-120251055D01*
X211546424Y-120303959D01*
X211628791Y-120349658D01*
X211657248Y-120361456D01*
X211689454Y-120371087D01*
X211728127Y-120377896D01*
X211778979Y-120382596D01*
X211847720Y-120385900D01*
X211940062Y-120388522D01*
X212178233Y-120394175D01*
X212178233Y-120068348D01*
X212178233Y-119742520D01*
X211932734Y-119749993D01*
X211890810Y-119751373D01*
X211793132Y-119755987D01*
X211717775Y-119762599D01*
X211659610Y-119772240D01*
X211613509Y-119785942D01*
X211574345Y-119804739D01*
X211536989Y-119829663D01*
X211504229Y-119857711D01*
X211466544Y-119909772D01*
X211445986Y-119975440D01*
X211439756Y-120061388D01*
X210803744Y-120061388D01*
X210805673Y-119992245D01*
X210808948Y-119917784D01*
X210813384Y-119862577D01*
X210819582Y-119821338D01*
X210828143Y-119788780D01*
X210839667Y-119759616D01*
X210886966Y-119681549D01*
X210966387Y-119601253D01*
X211071534Y-119531912D01*
X211201302Y-119474396D01*
X211290267Y-119442183D01*
X211227200Y-119410008D01*
X211196409Y-119392352D01*
X211115434Y-119327563D01*
X211043094Y-119243716D01*
X210986271Y-119148288D01*
X210980684Y-119136419D01*
X210961769Y-119093116D01*
X210949784Y-119055442D01*
X210943163Y-119014663D01*
X210942520Y-119002684D01*
X211599294Y-119002684D01*
X211606746Y-119094640D01*
X211632124Y-119167356D01*
X211681065Y-119229594D01*
X211753190Y-119274138D01*
X211763526Y-119277928D01*
X211815589Y-119289027D01*
X211892627Y-119297633D01*
X211991361Y-119303345D01*
X212178233Y-119310460D01*
X212178233Y-119037367D01*
X212178233Y-118764273D01*
X212008844Y-118764273D01*
X211950519Y-118765169D01*
X211877515Y-118768626D01*
X211815454Y-118774078D01*
X211773518Y-118780876D01*
X211712312Y-118805420D01*
X211653928Y-118854591D01*
X211615639Y-118921507D01*
X211599294Y-119002684D01*
X210942520Y-119002684D01*
X210940338Y-118962045D01*
X210939745Y-118888855D01*
X210940325Y-118820937D01*
X210943146Y-118765242D01*
X210949541Y-118722982D01*
X210960839Y-118685781D01*
X210978368Y-118645261D01*
X211000026Y-118602954D01*
X211060846Y-118516278D01*
X211139029Y-118445509D01*
X211240389Y-118384868D01*
X211266118Y-118372209D01*
X211309009Y-118352680D01*
X211351345Y-118336431D01*
X211396113Y-118323162D01*
X211446301Y-118312572D01*
X211504893Y-118304361D01*
X211574878Y-118298226D01*
X211659242Y-118293868D01*
X211760971Y-118290986D01*
X211883053Y-118289278D01*
X212028473Y-118288444D01*
X212200218Y-118288184D01*
X212830455Y-118287931D01*
X212831868Y-118764273D01*
X212834238Y-119563061D01*
G37*
G36*
X208987384Y-118283989D02*
G01*
X209312855Y-118287931D01*
X209527091Y-119138018D01*
X209547005Y-119216891D01*
X209594023Y-119401712D01*
X209634560Y-119558801D01*
X209668776Y-119688737D01*
X209696830Y-119792103D01*
X209718882Y-119869478D01*
X209735091Y-119921442D01*
X209745618Y-119948577D01*
X209750621Y-119951463D01*
X209752630Y-119942609D01*
X209760394Y-119906235D01*
X209773117Y-119845491D01*
X209790229Y-119763128D01*
X209811164Y-119661898D01*
X209835350Y-119544555D01*
X209862221Y-119413849D01*
X209891206Y-119272534D01*
X209921738Y-119123361D01*
X209940001Y-119034119D01*
X209969579Y-118889910D01*
X209997230Y-118755501D01*
X210022393Y-118633597D01*
X210044508Y-118526901D01*
X210063013Y-118438115D01*
X210077347Y-118369943D01*
X210086951Y-118325088D01*
X210091262Y-118306252D01*
X210093230Y-118301502D01*
X210100584Y-118294358D01*
X210115809Y-118289044D01*
X210142479Y-118285295D01*
X210184168Y-118282842D01*
X210244448Y-118281421D01*
X210326893Y-118280763D01*
X210435078Y-118280603D01*
X210490148Y-118280732D01*
X210580398Y-118281547D01*
X210657725Y-118283013D01*
X210718031Y-118285013D01*
X210757220Y-118287430D01*
X210771193Y-118290149D01*
X210770747Y-118292762D01*
X210764892Y-118318003D01*
X210752955Y-118366804D01*
X210735827Y-118435595D01*
X210714400Y-118520803D01*
X210689569Y-118618857D01*
X210662225Y-118726185D01*
X210632391Y-118843074D01*
X210594067Y-118993522D01*
X210553778Y-119151967D01*
X210512137Y-119315980D01*
X210469755Y-119483136D01*
X210427246Y-119651007D01*
X210385220Y-119817166D01*
X210344291Y-119979185D01*
X210305071Y-120134638D01*
X210268172Y-120281098D01*
X210234206Y-120416137D01*
X210203786Y-120537329D01*
X210177524Y-120642246D01*
X210156032Y-120728460D01*
X210139923Y-120793546D01*
X210129808Y-120835076D01*
X210126300Y-120850622D01*
X210117686Y-120852689D01*
X210083552Y-120855106D01*
X210027126Y-120857166D01*
X209952354Y-120858764D01*
X209863180Y-120859798D01*
X209763548Y-120860163D01*
X209400795Y-120860149D01*
X209203800Y-120073740D01*
X209165605Y-119921978D01*
X209122486Y-119752866D01*
X209085784Y-119611759D01*
X209055411Y-119498343D01*
X209031282Y-119412302D01*
X209013309Y-119353320D01*
X209001407Y-119321081D01*
X208995487Y-119315271D01*
X208991253Y-119328456D01*
X208980014Y-119368078D01*
X208963519Y-119428777D01*
X208942900Y-119506317D01*
X208919293Y-119596461D01*
X208893831Y-119694971D01*
X208877687Y-119757757D01*
X208844464Y-119886648D01*
X208807555Y-120029513D01*
X208769344Y-120177134D01*
X208732216Y-120320298D01*
X208698553Y-120449789D01*
X208593614Y-120852848D01*
X208233540Y-120856763D01*
X207873466Y-120860679D01*
X207790793Y-120534317D01*
X207788548Y-120525453D01*
X207769201Y-120449110D01*
X207743664Y-120348377D01*
X207712828Y-120226764D01*
X207677583Y-120087784D01*
X207638820Y-119934948D01*
X207597429Y-119771767D01*
X207554301Y-119601753D01*
X207510327Y-119428417D01*
X207466397Y-119255271D01*
X207445491Y-119172841D01*
X207405450Y-119014736D01*
X207367898Y-118866177D01*
X207333428Y-118729521D01*
X207302632Y-118607125D01*
X207276102Y-118501349D01*
X207254429Y-118414551D01*
X207238206Y-118349087D01*
X207228024Y-118307316D01*
X207224476Y-118291596D01*
X207228004Y-118289981D01*
X207254975Y-118286975D01*
X207305051Y-118284396D01*
X207374087Y-118282381D01*
X207457940Y-118281071D01*
X207552467Y-118280603D01*
X207575363Y-118280604D01*
X207676149Y-118280706D01*
X207752002Y-118281237D01*
X207806589Y-118282559D01*
X207843574Y-118285028D01*
X207866623Y-118289006D01*
X207879401Y-118294851D01*
X207885574Y-118302923D01*
X207888807Y-118313581D01*
X207893248Y-118333236D01*
X207903280Y-118378864D01*
X207918212Y-118447312D01*
X207937401Y-118535614D01*
X207960204Y-118640807D01*
X207985977Y-118759927D01*
X208014078Y-118890010D01*
X208043862Y-119028093D01*
X208079779Y-119194692D01*
X208115197Y-119358857D01*
X208145300Y-119498193D01*
X208170539Y-119614734D01*
X208191364Y-119710519D01*
X208208225Y-119787582D01*
X208221575Y-119847961D01*
X208231862Y-119893692D01*
X208239539Y-119926811D01*
X208245055Y-119949356D01*
X208248860Y-119963361D01*
X208251406Y-119970865D01*
X208253144Y-119973902D01*
X208255309Y-119968203D01*
X208263713Y-119937524D01*
X208277767Y-119882557D01*
X208296851Y-119805839D01*
X208320345Y-119709909D01*
X208347629Y-119597306D01*
X208378082Y-119470567D01*
X208411083Y-119332231D01*
X208446012Y-119184836D01*
X208467499Y-119093902D01*
X208501944Y-118948256D01*
X208534317Y-118811526D01*
X208563953Y-118686513D01*
X208590186Y-118576020D01*
X208612350Y-118482849D01*
X208629780Y-118409801D01*
X208641811Y-118359680D01*
X208647776Y-118335287D01*
X208661914Y-118280046D01*
X208987384Y-118283989D01*
G37*
G36*
X211992029Y-121185716D02*
G01*
X212010227Y-121181741D01*
X212025975Y-121172832D01*
X212058181Y-121168996D01*
X212078763Y-121169957D01*
X212086256Y-121173895D01*
X212068308Y-121183859D01*
X212059757Y-121190695D01*
X212075878Y-121192890D01*
X212119607Y-121189813D01*
X212160491Y-121186882D01*
X212182179Y-121188842D01*
X212178233Y-121196711D01*
X212171478Y-121201712D01*
X212170289Y-121209526D01*
X212195333Y-121211712D01*
X212223002Y-121207155D01*
X212240583Y-121193615D01*
X212249783Y-121182630D01*
X212268972Y-121193629D01*
X212300164Y-121204798D01*
X212356060Y-121203073D01*
X212403805Y-121200849D01*
X212478894Y-121218403D01*
X212485593Y-121221101D01*
X212488193Y-121222148D01*
X212525801Y-121232650D01*
X212541978Y-121227280D01*
X212551377Y-121218152D01*
X212578849Y-121212160D01*
X212586930Y-121212332D01*
X212600772Y-121216101D01*
X212588620Y-121227862D01*
X212582553Y-121235592D01*
X212598121Y-121238135D01*
X212639918Y-121234361D01*
X212675876Y-121230874D01*
X212696095Y-121232337D01*
X212691217Y-121240420D01*
X212683986Y-121245979D01*
X212684144Y-121253551D01*
X212710402Y-121255682D01*
X212737063Y-121251804D01*
X212742515Y-121241249D01*
X212740167Y-121235623D01*
X212748113Y-121226593D01*
X212752973Y-121227310D01*
X212772263Y-121241953D01*
X212774457Y-121244384D01*
X212800090Y-121250798D01*
X212845501Y-121247753D01*
X212902476Y-121245628D01*
X212957589Y-121262311D01*
X212961078Y-121264021D01*
X212964060Y-121265071D01*
X212995516Y-121276147D01*
X213011019Y-121271167D01*
X213020402Y-121262088D01*
X213047862Y-121256130D01*
X213056037Y-121256305D01*
X213069819Y-121260103D01*
X213057633Y-121271971D01*
X213050689Y-121279526D01*
X213063162Y-121282559D01*
X213101603Y-121278867D01*
X213129759Y-121275789D01*
X213150638Y-121276741D01*
X213145573Y-121284787D01*
X213138374Y-121290318D01*
X213139878Y-121297478D01*
X213167558Y-121299427D01*
X213182775Y-121299095D01*
X213198734Y-121295122D01*
X213189543Y-121285219D01*
X213186594Y-121283291D01*
X213175940Y-121273159D01*
X213192342Y-121270787D01*
X213205274Y-121272514D01*
X213226463Y-121285669D01*
X213227704Y-121287217D01*
X213250547Y-121294156D01*
X213289619Y-121291901D01*
X213312502Y-121288651D01*
X213329094Y-121289495D01*
X213321453Y-121298555D01*
X213315327Y-121303131D01*
X213311112Y-121312003D01*
X213333311Y-121314308D01*
X213353300Y-121311253D01*
X213358940Y-121301243D01*
X213360223Y-121294659D01*
X213380060Y-121295624D01*
X213397195Y-121302560D01*
X213409393Y-121316242D01*
X213411860Y-121322184D01*
X213431378Y-121329189D01*
X213441492Y-121327536D01*
X213453363Y-121314533D01*
X213457270Y-121306816D01*
X213479012Y-121300100D01*
X213482901Y-121300162D01*
X213496247Y-121303389D01*
X213482676Y-121315402D01*
X213478077Y-121322859D01*
X213497208Y-121324958D01*
X213543195Y-121321039D01*
X213569567Y-121318527D01*
X213615440Y-121318923D01*
X213636304Y-121328756D01*
X213636786Y-121329479D01*
X213660768Y-121339392D01*
X213707695Y-121337602D01*
X213739789Y-121334004D01*
X213751521Y-121335735D01*
X213746027Y-121339489D01*
X213739168Y-121344176D01*
X213725787Y-121351785D01*
X213728526Y-121355248D01*
X213757489Y-121351821D01*
X213761863Y-121351216D01*
X213792556Y-121351134D01*
X213805123Y-121358869D01*
X213807600Y-121365439D01*
X213827108Y-121373159D01*
X213837222Y-121371506D01*
X213849093Y-121358503D01*
X213851890Y-121351498D01*
X213871943Y-121343846D01*
X213882450Y-121345787D01*
X213886355Y-121357498D01*
X213888829Y-121362882D01*
X213912708Y-121369006D01*
X213955110Y-121371481D01*
X214009748Y-121371813D01*
X214072066Y-121372775D01*
X214110799Y-121374609D01*
X214129423Y-121377685D01*
X214131412Y-121382372D01*
X214129591Y-121383459D01*
X214120241Y-121389040D01*
X214109511Y-121395054D01*
X214114970Y-121398057D01*
X214147333Y-121394367D01*
X214157905Y-121392924D01*
X214189521Y-121392302D01*
X214194102Y-121401538D01*
X214192190Y-121409274D01*
X214206095Y-121417129D01*
X214215798Y-121415449D01*
X214235157Y-121398809D01*
X214241192Y-121389614D01*
X214254700Y-121396295D01*
X214255133Y-121396843D01*
X214265067Y-121403997D01*
X214284530Y-121409105D01*
X214318469Y-121412708D01*
X214371829Y-121415345D01*
X214449557Y-121417557D01*
X214471247Y-121418675D01*
X214487133Y-121423596D01*
X214484041Y-121427429D01*
X214478870Y-121433839D01*
X214472408Y-121439109D01*
X214476062Y-121444041D01*
X214505707Y-121440569D01*
X214509925Y-121439875D01*
X214539697Y-121438484D01*
X214545148Y-121446663D01*
X214543578Y-121453774D01*
X214557855Y-121461099D01*
X214567558Y-121459419D01*
X214586917Y-121442779D01*
X214594655Y-121432207D01*
X214607850Y-121443628D01*
X214623993Y-121454394D01*
X214663928Y-121453435D01*
X214678608Y-121450466D01*
X214693793Y-121450164D01*
X214684523Y-121459689D01*
X214678351Y-121464326D01*
X214675024Y-121471399D01*
X214674164Y-121473226D01*
X214696380Y-121475532D01*
X214718482Y-121471855D01*
X214719216Y-121457435D01*
X214718724Y-121456610D01*
X214715790Y-121447206D01*
X214731606Y-121458066D01*
X214753772Y-121468154D01*
X214796710Y-121467873D01*
X214813757Y-121464486D01*
X214826806Y-121465000D01*
X214816433Y-121475805D01*
X214807765Y-121483779D01*
X214812762Y-121488304D01*
X214842811Y-121484539D01*
X214847029Y-121483845D01*
X214876800Y-121482454D01*
X214882252Y-121490633D01*
X214880681Y-121497744D01*
X214894958Y-121505069D01*
X214904661Y-121503389D01*
X214924021Y-121486749D01*
X214931759Y-121476177D01*
X214944953Y-121487598D01*
X214959756Y-121498014D01*
X214997474Y-121496975D01*
X215023822Y-121494340D01*
X215073031Y-121511120D01*
X215074472Y-121512053D01*
X215083336Y-121516222D01*
X215099307Y-121523734D01*
X215109566Y-121520064D01*
X215112365Y-121512895D01*
X215132416Y-121505069D01*
X215143387Y-121507464D01*
X215144887Y-121521864D01*
X215143911Y-121523562D01*
X215146519Y-121530879D01*
X215147097Y-121532499D01*
X215174563Y-121528604D01*
X215201653Y-121524929D01*
X215205198Y-121533795D01*
X215203639Y-121541675D01*
X215218626Y-121549039D01*
X215229611Y-121546781D01*
X215241701Y-121530719D01*
X215243869Y-121520496D01*
X215254083Y-121531568D01*
X215269478Y-121542434D01*
X215308821Y-121541375D01*
X215325469Y-121538044D01*
X215339307Y-121538256D01*
X215329416Y-121548508D01*
X215322251Y-121554274D01*
X215320697Y-121560192D01*
X215320265Y-121561835D01*
X215344073Y-121561138D01*
X215371281Y-121561578D01*
X215401835Y-121570407D01*
X215414312Y-121575626D01*
X215428705Y-121566291D01*
X215431425Y-121560571D01*
X215448756Y-121549039D01*
X215453632Y-121550258D01*
X215453784Y-121564042D01*
X215452619Y-121567026D01*
X215465038Y-121573046D01*
X215504218Y-121569497D01*
X215516980Y-121567648D01*
X215552592Y-121566872D01*
X215563923Y-121577144D01*
X215575778Y-121587746D01*
X215612966Y-121585137D01*
X215616488Y-121584502D01*
X215658259Y-121584105D01*
X215667127Y-121589505D01*
X215688736Y-121602663D01*
X215690746Y-121604162D01*
X215710429Y-121618841D01*
X215721526Y-121611199D01*
X215724703Y-121604604D01*
X215741889Y-121593009D01*
X215746766Y-121594228D01*
X215746917Y-121608012D01*
X215745778Y-121610738D01*
X215757367Y-121617072D01*
X215795510Y-121613761D01*
X215798170Y-121613348D01*
X215841554Y-121611376D01*
X215863442Y-121620798D01*
X215879935Y-121629580D01*
X215912917Y-121628519D01*
X215928087Y-121625512D01*
X215941074Y-121625986D01*
X215933761Y-121633475D01*
X215930339Y-121636979D01*
X215922270Y-121643876D01*
X215923562Y-121649221D01*
X215949888Y-121644906D01*
X215978147Y-121641997D01*
X215982001Y-121651049D01*
X215980442Y-121658928D01*
X215995429Y-121666293D01*
X216006432Y-121664076D01*
X216019437Y-121647972D01*
X216021393Y-121637580D01*
X216028123Y-121648381D01*
X216043907Y-121659905D01*
X216083914Y-121658057D01*
X216121004Y-121655873D01*
X216142081Y-121665030D01*
X216154042Y-121671178D01*
X216158799Y-121673623D01*
X216191393Y-121672489D01*
X216206564Y-121669482D01*
X216219550Y-121669956D01*
X216208816Y-121680949D01*
X216200746Y-121687846D01*
X216202039Y-121693191D01*
X216228365Y-121688876D01*
X216256623Y-121685967D01*
X216260477Y-121695019D01*
X216259120Y-121703116D01*
X216274771Y-121710263D01*
X216285947Y-121708023D01*
X216289428Y-121695606D01*
X216287138Y-121689929D01*
X216295891Y-121680949D01*
X216300153Y-121681525D01*
X216311413Y-121695885D01*
X216319805Y-121703623D01*
X216346476Y-121702021D01*
X216383199Y-121702229D01*
X216427820Y-121717153D01*
X216440092Y-121721415D01*
X216468927Y-121731429D01*
X216504517Y-121731433D01*
X216523733Y-121727958D01*
X216524905Y-121738006D01*
X216523001Y-121746866D01*
X216538591Y-121754233D01*
X216549767Y-121751993D01*
X216553248Y-121739576D01*
X216550958Y-121733899D01*
X216559711Y-121724919D01*
X216563973Y-121725495D01*
X216575233Y-121739855D01*
X216584257Y-121747679D01*
X216612465Y-121745446D01*
X216639235Y-121743248D01*
X216678420Y-121762095D01*
X216683263Y-121765385D01*
X216698434Y-121775691D01*
X216707143Y-121771161D01*
X216711068Y-121762223D01*
X216732792Y-121754457D01*
X216736611Y-121754517D01*
X216750016Y-121757720D01*
X216736456Y-121769658D01*
X216729740Y-121775243D01*
X216735639Y-121779416D01*
X216767755Y-121775445D01*
X216768775Y-121775272D01*
X216809605Y-121773142D01*
X216830944Y-121782284D01*
X216841273Y-121788432D01*
X216844695Y-121790469D01*
X216874486Y-121789868D01*
X216896010Y-121788278D01*
X216927111Y-121803088D01*
X216932214Y-121805518D01*
X216948025Y-121817449D01*
X216956306Y-121813906D01*
X216956941Y-121809468D01*
X216971828Y-121798203D01*
X216977692Y-121800008D01*
X216976970Y-121814997D01*
X216975994Y-121816695D01*
X216979180Y-121825633D01*
X217006646Y-121821738D01*
X217033736Y-121818062D01*
X217037281Y-121826929D01*
X217034801Y-121833116D01*
X217043381Y-121842173D01*
X217049111Y-121840879D01*
X217059127Y-121823852D01*
X217060873Y-121813789D01*
X217070266Y-121822690D01*
X217090236Y-121837077D01*
X217125004Y-121848564D01*
X217143484Y-121851952D01*
X217154255Y-121851802D01*
X217139514Y-121843428D01*
X217124070Y-121833623D01*
X217131032Y-121828546D01*
X217149854Y-121833208D01*
X217178666Y-121851773D01*
X217180930Y-121853325D01*
X217197003Y-121864341D01*
X217205469Y-121859101D01*
X217206321Y-121853583D01*
X217220991Y-121842173D01*
X217226732Y-121843794D01*
X217226484Y-121858400D01*
X217226397Y-121867926D01*
X217249439Y-121864158D01*
X217271266Y-121860084D01*
X217272395Y-121869916D01*
X217270491Y-121878775D01*
X217286081Y-121886143D01*
X217298069Y-121883576D01*
X217299172Y-121868952D01*
X217298582Y-121867937D01*
X217302464Y-121864176D01*
X217323553Y-121876280D01*
X217353084Y-121892557D01*
X217380946Y-121899769D01*
X217390938Y-121896110D01*
X217374021Y-121886143D01*
X217366977Y-121883034D01*
X217355100Y-121875151D01*
X217369628Y-121872516D01*
X217386427Y-121876386D01*
X217410785Y-121897135D01*
X217424197Y-121912289D01*
X217434720Y-121904463D01*
X217438670Y-121897574D01*
X217456719Y-121886143D01*
X217461890Y-121887731D01*
X217460990Y-121902370D01*
X217459968Y-121911716D01*
X217480877Y-121909102D01*
X217500223Y-121906636D01*
X217521619Y-121917124D01*
X217525361Y-121926930D01*
X217511860Y-121922529D01*
X217510730Y-121921889D01*
X217505507Y-121923525D01*
X217518661Y-121941659D01*
X217535856Y-121969727D01*
X217535869Y-121970578D01*
X217535999Y-121978968D01*
X217536536Y-122013798D01*
X217536375Y-122014548D01*
X217534575Y-122022938D01*
X217533352Y-122028642D01*
X217533162Y-122042685D01*
X217543275Y-122032709D01*
X217549335Y-122025234D01*
X217555554Y-122025385D01*
X217553081Y-122051030D01*
X217552990Y-122058518D01*
X217552741Y-122078875D01*
X217562926Y-122091560D01*
X217568269Y-122094323D01*
X217560545Y-122102488D01*
X217557229Y-122105993D01*
X217544117Y-122117005D01*
X217555133Y-122120425D01*
X217564601Y-122123590D01*
X217566586Y-122142634D01*
X217564507Y-122153939D01*
X217573914Y-122164619D01*
X217580741Y-122167589D01*
X217581350Y-122184161D01*
X217581422Y-122186135D01*
X217579198Y-122197246D01*
X217587183Y-122216313D01*
X217589994Y-122219742D01*
X217594778Y-122225577D01*
X217601106Y-122253019D01*
X217601199Y-122253424D01*
X217597854Y-122267770D01*
X217578713Y-122281086D01*
X217551799Y-122277373D01*
X217533733Y-122261456D01*
X217542573Y-122261456D01*
X217545003Y-122264080D01*
X217564558Y-122267216D01*
X217574664Y-122265617D01*
X217586543Y-122253019D01*
X217583430Y-122246954D01*
X217564558Y-122247259D01*
X217554033Y-122252005D01*
X217542573Y-122261456D01*
X217533733Y-122261456D01*
X217527794Y-122256223D01*
X217514382Y-122241069D01*
X217503859Y-122248895D01*
X217499908Y-122255784D01*
X217481860Y-122267216D01*
X217476688Y-122265627D01*
X217477588Y-122250989D01*
X217477675Y-122241462D01*
X217454633Y-122245231D01*
X217432806Y-122249304D01*
X217431677Y-122239473D01*
X217434483Y-122232424D01*
X217426184Y-122223246D01*
X217420455Y-122224509D01*
X217409505Y-122241567D01*
X217407690Y-122251772D01*
X217401147Y-122242139D01*
X217387158Y-122231904D01*
X217351231Y-122232934D01*
X217346096Y-122233898D01*
X217314385Y-122233643D01*
X217298809Y-122216176D01*
X217297711Y-122214391D01*
X217312035Y-122214391D01*
X217312262Y-122219394D01*
X217331272Y-122222089D01*
X217345679Y-122219742D01*
X217340127Y-122213234D01*
X217331652Y-122210892D01*
X217312035Y-122214391D01*
X217297711Y-122214391D01*
X217291026Y-122203520D01*
X217270451Y-122196518D01*
X217230657Y-122200221D01*
X217217184Y-122202110D01*
X217174904Y-122201294D01*
X217151459Y-122188570D01*
X217178749Y-122188570D01*
X217190813Y-122193933D01*
X217198572Y-122192875D01*
X217200584Y-122184161D01*
X217198436Y-122182407D01*
X217181042Y-122184161D01*
X217178749Y-122188570D01*
X217151459Y-122188570D01*
X217145354Y-122185257D01*
X217123348Y-122172077D01*
X217088698Y-122168740D01*
X217070598Y-122170723D01*
X217058903Y-122163247D01*
X217058317Y-122159637D01*
X217043381Y-122149963D01*
X217038080Y-122151113D01*
X217036918Y-122164619D01*
X217039208Y-122170297D01*
X217030454Y-122179276D01*
X217026102Y-122178646D01*
X217014933Y-122163632D01*
X217008781Y-122155718D01*
X216983784Y-122157873D01*
X216963824Y-122161517D01*
X216962664Y-122151533D01*
X216965470Y-122144484D01*
X216957171Y-122135306D01*
X216952784Y-122135948D01*
X216941649Y-122151010D01*
X216935594Y-122155299D01*
X216917351Y-122142415D01*
X216898104Y-122129684D01*
X216858724Y-122124679D01*
X216836511Y-122125906D01*
X216824396Y-122118617D01*
X216823815Y-122115200D01*
X216808874Y-122105993D01*
X216803573Y-122107143D01*
X216802411Y-122120649D01*
X216804701Y-122126327D01*
X216795948Y-122135306D01*
X216791685Y-122134730D01*
X216780426Y-122120370D01*
X216770902Y-122112499D01*
X216741504Y-122115203D01*
X216708326Y-122117148D01*
X216682877Y-122098024D01*
X216682020Y-122097138D01*
X216696456Y-122097138D01*
X216696682Y-122102141D01*
X216715692Y-122104836D01*
X216730099Y-122102488D01*
X216724547Y-122095980D01*
X216716072Y-122093639D01*
X216696456Y-122097138D01*
X216682020Y-122097138D01*
X216669952Y-122084656D01*
X216663173Y-122088535D01*
X216659242Y-122097759D01*
X216637524Y-122105768D01*
X216633268Y-122105697D01*
X216620236Y-122102343D01*
X216633859Y-122089926D01*
X216640616Y-122084671D01*
X216640220Y-122079261D01*
X216614310Y-122083410D01*
X216586052Y-122086319D01*
X216582198Y-122077267D01*
X216584678Y-122071080D01*
X216576098Y-122062023D01*
X216570368Y-122063286D01*
X216559419Y-122080343D01*
X216557603Y-122090549D01*
X216551060Y-122080916D01*
X216537543Y-122070795D01*
X216503318Y-122071276D01*
X216475824Y-122072836D01*
X216438187Y-122054793D01*
X216436298Y-122053168D01*
X216461949Y-122053168D01*
X216462176Y-122058171D01*
X216481186Y-122060866D01*
X216495592Y-122058518D01*
X216490041Y-122052010D01*
X216481565Y-122049669D01*
X216461949Y-122053168D01*
X216436298Y-122053168D01*
X216429232Y-122047090D01*
X216400129Y-122036725D01*
X216355176Y-122040073D01*
X216350172Y-122040887D01*
X216310131Y-122043256D01*
X216296756Y-122033718D01*
X216291036Y-122027347D01*
X216314005Y-122027347D01*
X216326069Y-122032709D01*
X216333829Y-122031652D01*
X216335841Y-122022938D01*
X216333692Y-122021184D01*
X216316298Y-122022938D01*
X216314005Y-122027347D01*
X216291036Y-122027347D01*
X216288729Y-122024777D01*
X216259524Y-122026839D01*
X216233609Y-122029138D01*
X216194484Y-122011018D01*
X216192158Y-122009198D01*
X216212786Y-122009198D01*
X216213013Y-122014201D01*
X216232022Y-122016896D01*
X216246429Y-122014548D01*
X216240878Y-122008040D01*
X216232402Y-122005699D01*
X216212786Y-122009198D01*
X216192158Y-122009198D01*
X216183765Y-122002632D01*
X216152995Y-121992409D01*
X216107135Y-121995913D01*
X216099529Y-121997123D01*
X216060915Y-121999165D01*
X216047593Y-121990394D01*
X216039181Y-121983377D01*
X216064842Y-121983377D01*
X216076906Y-121988739D01*
X216084665Y-121987682D01*
X216086677Y-121978968D01*
X216084529Y-121977214D01*
X216067135Y-121978968D01*
X216064842Y-121983377D01*
X216039181Y-121983377D01*
X216037045Y-121981595D01*
X216006022Y-121983130D01*
X215977953Y-121984922D01*
X215941114Y-121968107D01*
X215940192Y-121967191D01*
X215937745Y-121965228D01*
X215963622Y-121965228D01*
X215963849Y-121970231D01*
X215982859Y-121972926D01*
X215997266Y-121970578D01*
X215991714Y-121964070D01*
X215983239Y-121961729D01*
X215963622Y-121965228D01*
X215937745Y-121965228D01*
X215917510Y-121948998D01*
X215904755Y-121945841D01*
X215908354Y-121959426D01*
X215910645Y-121965103D01*
X215901891Y-121974083D01*
X215897539Y-121973453D01*
X215886369Y-121958438D01*
X215880218Y-121950525D01*
X215855221Y-121952680D01*
X215835261Y-121956324D01*
X215834101Y-121946340D01*
X215836004Y-121937480D01*
X215820414Y-121930113D01*
X215807855Y-121932888D01*
X215807706Y-121948433D01*
X215808616Y-121949965D01*
X215811475Y-121959103D01*
X215795772Y-121948181D01*
X215779006Y-121939582D01*
X215745325Y-121938571D01*
X215739030Y-121940571D01*
X215726777Y-121942320D01*
X215739803Y-121930348D01*
X215747957Y-121923338D01*
X215747360Y-121917061D01*
X215721482Y-121919604D01*
X215693564Y-121920527D01*
X215681176Y-121913424D01*
X215680595Y-121910007D01*
X215665654Y-121900799D01*
X215660353Y-121901950D01*
X215659191Y-121915456D01*
X215660365Y-121923219D01*
X215644534Y-121930113D01*
X215633319Y-121928026D01*
X215629341Y-121916324D01*
X215630123Y-121913775D01*
X215617027Y-121907910D01*
X215582572Y-121909264D01*
X215560470Y-121911531D01*
X215545186Y-121910555D01*
X215556541Y-121903273D01*
X215559491Y-121901949D01*
X215569594Y-121893938D01*
X215557130Y-121887457D01*
X215518780Y-121880504D01*
X215500249Y-121878230D01*
X215455353Y-121876581D01*
X215424825Y-121880789D01*
X215406547Y-121884606D01*
X215409914Y-121871671D01*
X215410562Y-121870587D01*
X215411228Y-121860159D01*
X215393099Y-121857539D01*
X215351242Y-121861907D01*
X215315011Y-121865504D01*
X215279003Y-121862163D01*
X215254857Y-121847974D01*
X215274759Y-121847974D01*
X215274986Y-121852977D01*
X215293996Y-121855672D01*
X215308403Y-121853325D01*
X215302851Y-121846817D01*
X215294375Y-121844475D01*
X215274759Y-121847974D01*
X215254857Y-121847974D01*
X215253684Y-121847285D01*
X215235295Y-121834685D01*
X215226820Y-121839901D01*
X215222894Y-121848839D01*
X215201170Y-121856605D01*
X215196915Y-121856534D01*
X215183882Y-121853180D01*
X215197506Y-121840763D01*
X215204263Y-121835507D01*
X215203866Y-121830098D01*
X215177957Y-121834246D01*
X215149699Y-121837155D01*
X215145845Y-121828103D01*
X215147202Y-121820006D01*
X215131551Y-121812859D01*
X215120375Y-121815099D01*
X215116895Y-121827516D01*
X215119185Y-121833193D01*
X215110431Y-121842173D01*
X215106187Y-121841626D01*
X215094910Y-121827882D01*
X215094896Y-121827520D01*
X215081735Y-121820217D01*
X215050321Y-121822510D01*
X215049171Y-121822737D01*
X215011018Y-121823543D01*
X214986564Y-121805212D01*
X214985528Y-121804004D01*
X215010939Y-121804004D01*
X215011166Y-121809007D01*
X215030176Y-121811702D01*
X215044583Y-121809355D01*
X215042998Y-121807497D01*
X216885615Y-121807497D01*
X216889795Y-121809355D01*
X216897679Y-121812859D01*
X216905439Y-121811802D01*
X216907450Y-121803088D01*
X216905302Y-121801334D01*
X216887908Y-121803088D01*
X216885615Y-121807497D01*
X215042998Y-121807497D01*
X215039031Y-121802847D01*
X215030555Y-121800505D01*
X215010939Y-121804004D01*
X214985528Y-121804004D01*
X214979536Y-121797015D01*
X214970661Y-121792840D01*
X216783019Y-121792840D01*
X216795083Y-121798203D01*
X216802842Y-121797145D01*
X216804854Y-121788432D01*
X216802706Y-121786677D01*
X216785312Y-121788432D01*
X216783019Y-121792840D01*
X214970661Y-121792840D01*
X214954719Y-121785340D01*
X214913571Y-121787732D01*
X214904293Y-121789087D01*
X214874714Y-121789923D01*
X214868268Y-121782678D01*
X214869172Y-121775407D01*
X214853075Y-121768889D01*
X214841898Y-121771129D01*
X214838418Y-121783546D01*
X214840708Y-121789223D01*
X214831955Y-121798203D01*
X214827710Y-121797656D01*
X214816433Y-121783912D01*
X214816422Y-121783583D01*
X214803339Y-121776248D01*
X214772065Y-121778496D01*
X214736589Y-121780196D01*
X214703127Y-121763527D01*
X214731086Y-121763527D01*
X214743150Y-121768889D01*
X214750909Y-121767832D01*
X214752710Y-121760034D01*
X216623172Y-121760034D01*
X216623399Y-121765038D01*
X216642409Y-121767732D01*
X216656816Y-121765385D01*
X216651264Y-121758877D01*
X216642789Y-121756535D01*
X216628308Y-121759118D01*
X216623172Y-121760034D01*
X214752710Y-121760034D01*
X214752921Y-121759118D01*
X214750773Y-121757364D01*
X214733378Y-121759118D01*
X214731086Y-121763527D01*
X214703127Y-121763527D01*
X214699180Y-121761561D01*
X214671919Y-121745285D01*
X214626294Y-121744626D01*
X214625265Y-121744829D01*
X214594367Y-121746794D01*
X214581926Y-121739210D01*
X214579133Y-121732384D01*
X214559076Y-121724919D01*
X214547594Y-121727536D01*
X214546570Y-121743240D01*
X214550896Y-121754108D01*
X214537969Y-121744034D01*
X214515558Y-121734433D01*
X214479591Y-121734394D01*
X214452987Y-121735724D01*
X214414995Y-121717118D01*
X214413848Y-121716064D01*
X214439329Y-121716064D01*
X214439556Y-121721068D01*
X214458566Y-121723762D01*
X214472973Y-121721415D01*
X214468408Y-121716064D01*
X216359352Y-121716064D01*
X216359579Y-121721068D01*
X216362028Y-121721415D01*
X216378589Y-121723762D01*
X216392996Y-121721415D01*
X216387444Y-121714907D01*
X216378969Y-121712565D01*
X216359352Y-121716064D01*
X214468408Y-121716064D01*
X214467421Y-121714907D01*
X214458945Y-121712565D01*
X214439329Y-121716064D01*
X214413848Y-121716064D01*
X214410044Y-121712568D01*
X214379051Y-121698643D01*
X214331981Y-121699715D01*
X214318603Y-121701195D01*
X214289569Y-121700921D01*
X214282326Y-121694212D01*
X214283069Y-121687237D01*
X214266808Y-121680949D01*
X214255632Y-121683189D01*
X214252151Y-121695606D01*
X214254441Y-121701283D01*
X214245688Y-121710263D01*
X214241459Y-121709741D01*
X214230166Y-121696527D01*
X214229870Y-121695061D01*
X214214006Y-121688957D01*
X214181419Y-121690703D01*
X214140933Y-121691444D01*
X214107423Y-121673365D01*
X214105942Y-121672094D01*
X214131539Y-121672094D01*
X214131766Y-121677098D01*
X214150776Y-121679792D01*
X214165183Y-121677445D01*
X214163598Y-121675587D01*
X216094155Y-121675587D01*
X216098335Y-121677445D01*
X216106219Y-121680949D01*
X216113979Y-121679892D01*
X216115991Y-121671178D01*
X216113842Y-121669424D01*
X216096448Y-121671178D01*
X216094155Y-121675587D01*
X214163598Y-121675587D01*
X214159631Y-121670937D01*
X214151156Y-121668595D01*
X214131539Y-121672094D01*
X214105942Y-121672094D01*
X214097810Y-121665113D01*
X214068388Y-121654547D01*
X214023182Y-121657551D01*
X214011506Y-121659259D01*
X213979041Y-121660408D01*
X213973461Y-121651982D01*
X213974743Y-121644022D01*
X213959018Y-121636979D01*
X213947842Y-121639219D01*
X213944361Y-121651636D01*
X213945150Y-121652944D01*
X213947663Y-121665505D01*
X213934170Y-121661385D01*
X213910991Y-121642345D01*
X213893963Y-121629451D01*
X213881503Y-121635016D01*
X213871832Y-121644756D01*
X213844207Y-121650606D01*
X213828685Y-121649919D01*
X213821494Y-121646391D01*
X213841765Y-121635669D01*
X213853819Y-121629244D01*
X213853077Y-121628124D01*
X215802399Y-121628124D01*
X215802626Y-121633128D01*
X215821636Y-121635822D01*
X215836043Y-121633475D01*
X215830491Y-121626967D01*
X215822015Y-121624625D01*
X215802399Y-121628124D01*
X213853077Y-121628124D01*
X213851526Y-121625782D01*
X213822715Y-121629150D01*
X213818512Y-121629757D01*
X213788829Y-121630470D01*
X213783274Y-121622102D01*
X213780882Y-121612762D01*
X213758354Y-121607890D01*
X213749830Y-121608071D01*
X213735190Y-121611702D01*
X213746496Y-121622323D01*
X213749304Y-121624159D01*
X213759805Y-121634334D01*
X213742832Y-121636755D01*
X213729264Y-121634598D01*
X213717183Y-121622043D01*
X213707687Y-121614174D01*
X213678355Y-121616853D01*
X213675693Y-121617507D01*
X213650699Y-121620211D01*
X213649907Y-121609804D01*
X213652190Y-121600383D01*
X213648860Y-121598811D01*
X215626519Y-121598811D01*
X215626746Y-121603814D01*
X215645756Y-121606509D01*
X215660163Y-121604162D01*
X215654611Y-121597654D01*
X215646135Y-121595312D01*
X215626519Y-121598811D01*
X213648860Y-121598811D01*
X213636571Y-121593009D01*
X213625395Y-121595249D01*
X213621915Y-121607666D01*
X213625469Y-121621117D01*
X213612852Y-121618283D01*
X213590508Y-121600338D01*
X213583503Y-121593971D01*
X213567156Y-121584154D01*
X215509266Y-121584154D01*
X215509493Y-121589158D01*
X215528503Y-121591852D01*
X215542909Y-121589505D01*
X215537358Y-121582997D01*
X215528882Y-121580655D01*
X215509266Y-121584154D01*
X213567156Y-121584154D01*
X213561393Y-121580693D01*
X213546888Y-121579868D01*
X213548631Y-121593009D01*
X213546474Y-121602516D01*
X213523847Y-121607442D01*
X213514033Y-121607212D01*
X213500236Y-121603272D01*
X213511990Y-121591599D01*
X213518644Y-121586468D01*
X213518916Y-121580809D01*
X213493669Y-121584775D01*
X213465732Y-121587168D01*
X213453363Y-121576924D01*
X213446147Y-121569157D01*
X213416269Y-121566197D01*
X213360632Y-121570212D01*
X213340035Y-121572267D01*
X213293540Y-121574427D01*
X213265701Y-121569719D01*
X213248912Y-121557263D01*
X213246634Y-121554841D01*
X213281453Y-121554841D01*
X213281680Y-121559844D01*
X213300690Y-121562539D01*
X213315096Y-121560192D01*
X213309545Y-121553684D01*
X213301069Y-121551342D01*
X213281453Y-121554841D01*
X213246634Y-121554841D01*
X213241973Y-121549886D01*
X213222302Y-121536633D01*
X213209178Y-121535697D01*
X213211528Y-121549039D01*
X213209371Y-121558546D01*
X213186744Y-121563472D01*
X213177664Y-121563271D01*
X213163388Y-121559515D01*
X213174886Y-121548471D01*
X213180132Y-121541778D01*
X213163607Y-121539275D01*
X213119924Y-121543255D01*
X213090322Y-121546253D01*
X213054415Y-121545491D01*
X213042976Y-121536098D01*
X213042757Y-121534099D01*
X213026702Y-121525610D01*
X212984580Y-121528718D01*
X212932587Y-121530578D01*
X212919375Y-121525528D01*
X213061603Y-121525528D01*
X213061830Y-121530531D01*
X213080840Y-121533226D01*
X213095246Y-121530879D01*
X213089695Y-121524371D01*
X213081219Y-121522029D01*
X213061603Y-121525528D01*
X212919375Y-121525528D01*
X212892116Y-121515109D01*
X212919573Y-121515109D01*
X212940380Y-121517412D01*
X212960542Y-121515369D01*
X212958994Y-121510871D01*
X215010939Y-121510871D01*
X215011143Y-121515369D01*
X215011166Y-121515874D01*
X215030176Y-121518569D01*
X215044583Y-121516222D01*
X215039031Y-121509714D01*
X215030555Y-121507372D01*
X215010939Y-121510871D01*
X212958994Y-121510871D01*
X212958701Y-121510019D01*
X212952066Y-121508083D01*
X212922059Y-121510019D01*
X212919573Y-121515109D01*
X212892116Y-121515109D01*
X212889827Y-121514234D01*
X212860283Y-121496683D01*
X212842078Y-121491626D01*
X212845112Y-121505069D01*
X212842954Y-121514576D01*
X212820327Y-121519502D01*
X212810474Y-121519271D01*
X212796702Y-121515319D01*
X212808470Y-121503611D01*
X212815902Y-121497446D01*
X212812168Y-121492631D01*
X212782821Y-121496141D01*
X212779050Y-121496748D01*
X212747767Y-121497667D01*
X212735187Y-121490046D01*
X212727919Y-121481350D01*
X212702209Y-121476786D01*
X212686505Y-121477466D01*
X212678765Y-121480778D01*
X212698545Y-121490413D01*
X212712407Y-121496583D01*
X212717715Y-121502317D01*
X212694881Y-121504039D01*
X212674283Y-121501413D01*
X212661903Y-121490239D01*
X212661343Y-121487923D01*
X212643228Y-121481728D01*
X212603507Y-121484748D01*
X212551514Y-121486608D01*
X212511043Y-121471139D01*
X212538500Y-121471139D01*
X212559307Y-121473442D01*
X212579469Y-121471399D01*
X212577627Y-121466049D01*
X212570993Y-121464113D01*
X212540986Y-121466049D01*
X212538500Y-121471139D01*
X212511043Y-121471139D01*
X212508754Y-121470264D01*
X212497046Y-121463049D01*
X212466416Y-121449107D01*
X212448429Y-121448133D01*
X212449382Y-121461099D01*
X212450555Y-121468862D01*
X212434725Y-121475756D01*
X212423035Y-121473264D01*
X212421322Y-121459071D01*
X212423335Y-121453832D01*
X212412444Y-121448295D01*
X212376774Y-121452677D01*
X212365624Y-121454618D01*
X212335508Y-121456278D01*
X212331551Y-121447377D01*
X212331299Y-121437477D01*
X212310143Y-121431786D01*
X212292762Y-121435013D01*
X212288158Y-121446443D01*
X212290384Y-121456682D01*
X212278726Y-121460580D01*
X212260231Y-121450272D01*
X212248794Y-121445876D01*
X212214369Y-121441172D01*
X212167406Y-121439279D01*
X212142615Y-121438671D01*
X212098078Y-121432673D01*
X212089378Y-121427169D01*
X212128113Y-121427169D01*
X212148920Y-121429472D01*
X212169082Y-121427429D01*
X212168993Y-121427169D01*
X214326613Y-121427169D01*
X214328962Y-121427429D01*
X214347420Y-121429472D01*
X214367582Y-121427429D01*
X214365740Y-121422079D01*
X214359106Y-121420143D01*
X214329099Y-121422079D01*
X214326613Y-121427169D01*
X212168993Y-121427169D01*
X212167241Y-121422079D01*
X212160606Y-121420143D01*
X212130599Y-121422079D01*
X212128113Y-121427169D01*
X212089378Y-121427169D01*
X212079302Y-121420794D01*
X212074654Y-121413020D01*
X212051565Y-121402473D01*
X212042084Y-121404392D01*
X212038995Y-121417129D01*
X212037815Y-121426277D01*
X212017010Y-121431786D01*
X211998943Y-121428580D01*
X211996015Y-121415528D01*
X211997446Y-121409708D01*
X211982487Y-121405038D01*
X211941917Y-121409065D01*
X211912317Y-121412865D01*
X211893713Y-121411972D01*
X211899757Y-121403563D01*
X211907453Y-121397367D01*
X211905594Y-121390171D01*
X211877772Y-121388265D01*
X211862555Y-121388597D01*
X211846596Y-121392570D01*
X211855787Y-121402473D01*
X211858594Y-121404309D01*
X211869095Y-121414484D01*
X211852122Y-121416905D01*
X211838579Y-121415058D01*
X211826473Y-121404182D01*
X211820920Y-121395170D01*
X211797160Y-121383569D01*
X211793760Y-121383199D01*
X213960196Y-121383199D01*
X213981003Y-121385502D01*
X214001165Y-121383459D01*
X213999324Y-121378109D01*
X213992689Y-121376173D01*
X213962682Y-121378109D01*
X213960196Y-121383199D01*
X211793760Y-121383199D01*
X211779519Y-121381649D01*
X211767847Y-121389188D01*
X211767705Y-121390209D01*
X211752609Y-121398438D01*
X211720212Y-121401012D01*
X211717937Y-121400941D01*
X211688583Y-121399345D01*
X211686366Y-121395463D01*
X211709220Y-121386588D01*
X211725507Y-121379615D01*
X211718091Y-121377666D01*
X211683571Y-121380893D01*
X211669606Y-121382218D01*
X211634466Y-121381431D01*
X211621280Y-121373333D01*
X211615383Y-121364552D01*
X211591102Y-121358503D01*
X211574469Y-121361623D01*
X211569982Y-121373159D01*
X211571156Y-121380922D01*
X211555325Y-121387816D01*
X211543664Y-121385330D01*
X211541890Y-121371182D01*
X211542493Y-121363785D01*
X211524110Y-121360273D01*
X211480464Y-121364459D01*
X211446279Y-121368342D01*
X211425867Y-121367334D01*
X211430743Y-121359332D01*
X211438250Y-121353398D01*
X211436525Y-121346217D01*
X211408758Y-121344295D01*
X211393541Y-121344627D01*
X211377583Y-121348600D01*
X211386773Y-121358503D01*
X211391605Y-121361753D01*
X211397700Y-121370598D01*
X211377002Y-121372935D01*
X211357040Y-121370358D01*
X211340361Y-121359586D01*
X211324006Y-121347187D01*
X211299993Y-121339229D01*
X213564466Y-121339229D01*
X213585273Y-121341532D01*
X213605435Y-121339489D01*
X213603594Y-121334139D01*
X213596960Y-121332203D01*
X213566952Y-121334139D01*
X213564466Y-121339229D01*
X211299993Y-121339229D01*
X211291505Y-121336416D01*
X211275917Y-121333297D01*
X211260509Y-121333017D01*
X211269520Y-121342436D01*
X211277538Y-121350484D01*
X211268111Y-121355970D01*
X211232878Y-121356817D01*
X211223469Y-121356599D01*
X211194185Y-121354888D01*
X211190908Y-121350811D01*
X211210893Y-121342591D01*
X211211152Y-121342499D01*
X211225919Y-121335551D01*
X211215164Y-121333670D01*
X211177160Y-121336546D01*
X211155318Y-121338218D01*
X211122646Y-121336971D01*
X211115734Y-121329013D01*
X211116396Y-121327653D01*
X211107324Y-121318268D01*
X211076184Y-121314757D01*
X211057825Y-121315285D01*
X211041249Y-121319503D01*
X211049670Y-121329189D01*
X211055038Y-121332850D01*
X211059733Y-121341323D01*
X211037813Y-121343622D01*
X211017355Y-121340346D01*
X211013807Y-121327929D01*
X211012327Y-121320632D01*
X210988330Y-121317383D01*
X210937725Y-121320690D01*
X210894735Y-121324020D01*
X210874103Y-121322562D01*
X210881118Y-121315651D01*
X210895423Y-121307558D01*
X210890425Y-121302764D01*
X210859133Y-121301131D01*
X210835757Y-121301422D01*
X210820963Y-121305643D01*
X210829820Y-121315943D01*
X210836748Y-121321433D01*
X210835055Y-121326396D01*
X210807835Y-121321963D01*
X210775359Y-121311203D01*
X210758980Y-121298792D01*
X210751206Y-121291171D01*
X210725137Y-121285219D01*
X210709556Y-121288186D01*
X210705238Y-121299876D01*
X210706178Y-121302466D01*
X210693949Y-121310797D01*
X210658469Y-121313072D01*
X210650937Y-121312863D01*
X210621681Y-121311097D01*
X210618673Y-121307060D01*
X210639283Y-121298794D01*
X210639557Y-121298698D01*
X210650423Y-121292369D01*
X210633413Y-121290678D01*
X210587985Y-121293572D01*
X210586658Y-121293686D01*
X210538997Y-121296439D01*
X210518136Y-121293984D01*
X210522030Y-121286089D01*
X210529774Y-121278560D01*
X210520606Y-121272685D01*
X210485388Y-121271012D01*
X210460043Y-121271694D01*
X210441903Y-121276029D01*
X210448747Y-121285219D01*
X210453905Y-121288716D01*
X210459171Y-121297337D01*
X210437754Y-121299652D01*
X210417181Y-121296312D01*
X210404777Y-121284053D01*
X210398945Y-121277767D01*
X210366600Y-121273617D01*
X210305844Y-121276327D01*
X210301715Y-121276661D01*
X210253892Y-121279376D01*
X210234394Y-121277689D01*
X210243554Y-121271627D01*
X210250156Y-121269251D01*
X210262799Y-121262601D01*
X210259110Y-121261533D01*
X212861847Y-121261533D01*
X212864051Y-121266121D01*
X212889082Y-121267705D01*
X212893633Y-121267609D01*
X212913100Y-121265071D01*
X212907123Y-121260406D01*
X212892250Y-121258049D01*
X212863153Y-121260949D01*
X212861847Y-121261533D01*
X210259110Y-121261533D01*
X210251764Y-121259406D01*
X210214240Y-121258397D01*
X210179930Y-121259127D01*
X210166334Y-121262907D01*
X210177599Y-121270563D01*
X210192088Y-121278974D01*
X210188120Y-121284189D01*
X210184508Y-121284078D01*
X210155552Y-121277306D01*
X210116711Y-121263234D01*
X210111211Y-121261023D01*
X210065183Y-121247324D01*
X210025578Y-121242280D01*
X210006392Y-121243150D01*
X209998464Y-121246771D01*
X210016375Y-121255906D01*
X210027553Y-121262856D01*
X210017091Y-121267064D01*
X209979734Y-121268072D01*
X209967655Y-121267954D01*
X209937060Y-121266515D01*
X209932251Y-121262571D01*
X209950420Y-121254856D01*
X209955358Y-121252876D01*
X209954585Y-121248140D01*
X209925790Y-121247058D01*
X209869809Y-121249685D01*
X209843992Y-121251208D01*
X209794959Y-121252433D01*
X209772424Y-121249468D01*
X209774540Y-121242170D01*
X209781778Y-121234007D01*
X209769231Y-121228607D01*
X209730570Y-121227042D01*
X209699932Y-121227904D01*
X209680726Y-121232345D01*
X209686600Y-121241249D01*
X209693094Y-121245912D01*
X209693867Y-121253493D01*
X209668279Y-121255682D01*
X209640613Y-121251732D01*
X209627974Y-121240954D01*
X209627084Y-121238870D01*
X209605928Y-121232871D01*
X209557982Y-121230798D01*
X209485071Y-121232755D01*
X209437971Y-121234628D01*
X209397164Y-121234941D01*
X209384615Y-121232657D01*
X209400795Y-121227802D01*
X209452075Y-121217563D01*
X212378177Y-121217563D01*
X212380381Y-121222151D01*
X212405412Y-121223735D01*
X212409963Y-121223639D01*
X212429430Y-121221101D01*
X212423453Y-121216436D01*
X212408580Y-121214079D01*
X212379483Y-121216979D01*
X212378177Y-121217563D01*
X209452075Y-121217563D01*
X209459422Y-121216096D01*
X209378810Y-121214240D01*
X209373650Y-121214131D01*
X209331125Y-121214708D01*
X209314347Y-121219102D01*
X209320184Y-121228051D01*
X209327651Y-121234361D01*
X209322993Y-121238881D01*
X209292702Y-121235155D01*
X209247839Y-121229164D01*
X209207562Y-121226593D01*
X209185986Y-121222944D01*
X209180945Y-121211936D01*
X209180263Y-121206607D01*
X209158235Y-121200276D01*
X209112191Y-121198740D01*
X209098317Y-121199057D01*
X209063905Y-121201112D01*
X209055636Y-121205139D01*
X209071020Y-121211936D01*
X209076278Y-121213773D01*
X209081740Y-121219435D01*
X209060943Y-121222546D01*
X209012394Y-121223398D01*
X208977468Y-121223026D01*
X208947606Y-121221239D01*
X208942964Y-121217455D01*
X208961095Y-121211084D01*
X208963903Y-121210225D01*
X208963988Y-121206128D01*
X208937553Y-121203783D01*
X208886950Y-121203291D01*
X208814529Y-121204753D01*
X208802398Y-121205101D01*
X208732079Y-121206292D01*
X208684865Y-121205492D01*
X208662809Y-121202790D01*
X208667962Y-121198277D01*
X208683056Y-121193017D01*
X208681322Y-121188613D01*
X208655110Y-121185968D01*
X208602007Y-121184581D01*
X208573701Y-121184397D01*
X208529378Y-121185922D01*
X208522789Y-121187508D01*
X208510395Y-121190491D01*
X208514067Y-121198531D01*
X208517872Y-121202148D01*
X208510438Y-121207304D01*
X208478084Y-121207624D01*
X208418799Y-121203207D01*
X208388806Y-121201097D01*
X208321000Y-121198282D01*
X208232593Y-121196088D01*
X208128905Y-121194520D01*
X208015258Y-121193588D01*
X207896970Y-121193299D01*
X207779363Y-121193660D01*
X207667757Y-121194680D01*
X207567472Y-121196365D01*
X207483828Y-121198724D01*
X207422146Y-121201764D01*
X207397459Y-121203334D01*
X207356751Y-121204772D01*
X207342554Y-121203029D01*
X207356191Y-121198177D01*
X207359704Y-121197356D01*
X207375565Y-121191990D01*
X207375430Y-121191917D01*
X208458033Y-121191917D01*
X208470097Y-121197279D01*
X208477856Y-121196222D01*
X208479868Y-121187508D01*
X208477720Y-121185754D01*
X208460326Y-121187508D01*
X208458033Y-121191917D01*
X207375430Y-121191917D01*
X207368778Y-121188326D01*
X207337122Y-121185977D01*
X207278378Y-121184552D01*
X207255635Y-121184329D01*
X207196833Y-121185649D01*
X207165167Y-121190315D01*
X207159084Y-121198507D01*
X207159315Y-121202706D01*
X207142424Y-121208032D01*
X207100566Y-121209151D01*
X207031703Y-121206186D01*
X206996521Y-121204338D01*
X206948103Y-121203301D01*
X206925807Y-121205486D01*
X206931147Y-121210826D01*
X206939412Y-121213884D01*
X206948929Y-121220135D01*
X206934924Y-121223439D01*
X206894506Y-121224907D01*
X206859033Y-121224516D01*
X206838377Y-121220457D01*
X206843207Y-121211936D01*
X206850408Y-121205783D01*
X206843562Y-121199477D01*
X206810230Y-121197504D01*
X206800329Y-121197663D01*
X206768218Y-121201693D01*
X206755267Y-121209493D01*
X206754008Y-121213973D01*
X206736946Y-121222310D01*
X206711996Y-121225619D01*
X206674656Y-121233267D01*
X206659333Y-121236605D01*
X206643775Y-121237283D01*
X206652671Y-121228003D01*
X206659182Y-121218914D01*
X206643256Y-121214427D01*
X206601372Y-121213895D01*
X206574016Y-121214606D01*
X206549137Y-121216556D01*
X206549368Y-121220511D01*
X206572059Y-121227723D01*
X206577283Y-121229290D01*
X206583571Y-121234154D01*
X206561007Y-121235205D01*
X206509768Y-121232430D01*
X206459843Y-121230047D01*
X206417726Y-121232210D01*
X206403507Y-121240362D01*
X206393951Y-121250699D01*
X206366001Y-121255906D01*
X206342741Y-121252118D01*
X206337552Y-121241249D01*
X206333710Y-121231151D01*
X206308239Y-121226593D01*
X206283673Y-121230346D01*
X206279704Y-121242509D01*
X206278224Y-121249807D01*
X206254228Y-121253056D01*
X206203622Y-121249749D01*
X206160633Y-121246419D01*
X206140000Y-121247877D01*
X206147016Y-121254787D01*
X206161573Y-121262790D01*
X206157886Y-121267753D01*
X206127830Y-121269533D01*
X206123659Y-121269579D01*
X206094290Y-121265852D01*
X206088389Y-121255906D01*
X206088861Y-121255124D01*
X206088961Y-121242674D01*
X206067546Y-121245473D01*
X206051951Y-121252402D01*
X206027774Y-121263144D01*
X206012094Y-121270773D01*
X205977266Y-121282973D01*
X205956760Y-121283108D01*
X205956479Y-121270563D01*
X205951641Y-121260449D01*
X205924367Y-121256936D01*
X205902592Y-121257964D01*
X205895021Y-121261975D01*
X205912509Y-121271799D01*
X205921523Y-121278510D01*
X205906957Y-121280788D01*
X205864875Y-121277592D01*
X205840215Y-121275577D01*
X205801586Y-121276538D01*
X205787927Y-121284715D01*
X205780680Y-121294121D01*
X205754950Y-121299652D01*
X205747004Y-121299489D01*
X205732447Y-121295911D01*
X205743957Y-121285219D01*
X205750554Y-121280445D01*
X205750838Y-121272962D01*
X205724772Y-121270787D01*
X205697863Y-121274593D01*
X205693076Y-121285894D01*
X205693344Y-121291212D01*
X205672863Y-121296025D01*
X205624322Y-121293488D01*
X205583558Y-121290389D01*
X205569764Y-121292045D01*
X205582734Y-121298680D01*
X205584900Y-121299446D01*
X205605952Y-121307843D01*
X205601994Y-121311515D01*
X205570877Y-121313072D01*
X205566734Y-121313155D01*
X205537307Y-121309729D01*
X205531436Y-121299876D01*
X205534220Y-121292309D01*
X205524832Y-121285981D01*
X205501850Y-121291479D01*
X205473672Y-121307671D01*
X205470749Y-121309840D01*
X205443145Y-121325813D01*
X205426999Y-121327710D01*
X205428839Y-121314533D01*
X205424001Y-121304419D01*
X205396727Y-121300906D01*
X205374952Y-121301934D01*
X205367381Y-121305945D01*
X205384869Y-121315769D01*
X205393672Y-121322452D01*
X205378614Y-121324664D01*
X205335953Y-121321392D01*
X205307150Y-121318976D01*
X205273325Y-121320007D01*
X205267199Y-121328514D01*
X205265850Y-121338573D01*
X205242832Y-121343622D01*
X205234308Y-121343441D01*
X205219668Y-121339810D01*
X205230974Y-121329189D01*
X205237468Y-121324527D01*
X205238241Y-121316946D01*
X205212653Y-121314757D01*
X205184994Y-121318371D01*
X205172348Y-121328268D01*
X205171347Y-121330754D01*
X205152524Y-121336401D01*
X205117385Y-121335328D01*
X205090824Y-121332698D01*
X205078844Y-121334366D01*
X205091736Y-121342548D01*
X205101191Y-121347167D01*
X205111218Y-121355014D01*
X205095400Y-121357473D01*
X205093208Y-121357547D01*
X205079169Y-121358214D01*
X205072851Y-121363081D01*
X205074871Y-121377971D01*
X205076831Y-121383459D01*
X205085845Y-121408703D01*
X205106393Y-121461099D01*
X205106472Y-121461303D01*
X205124892Y-121509940D01*
X205138026Y-121547719D01*
X205143034Y-121566475D01*
X205140075Y-121568080D01*
X205114181Y-121571368D01*
X205065053Y-121574193D01*
X204996871Y-121576402D01*
X204913816Y-121577839D01*
X204820067Y-121578353D01*
X204497099Y-121578353D01*
X204467183Y-121508734D01*
X204456993Y-121483788D01*
X204442025Y-121441376D01*
X204435271Y-121413465D01*
X204429924Y-121399420D01*
X204406217Y-121387816D01*
X204391990Y-121390628D01*
X204388916Y-121403605D01*
X204389701Y-121409347D01*
X204371858Y-121413668D01*
X204327490Y-121409889D01*
X204291189Y-121406002D01*
X204272658Y-121407492D01*
X204278291Y-121415860D01*
X204284390Y-121420401D01*
X204288622Y-121429257D01*
X204266433Y-121431562D01*
X204246518Y-121428215D01*
X204241649Y-121417129D01*
X204241236Y-121408315D01*
X204221751Y-121402473D01*
X204204493Y-121405631D01*
X204186687Y-121420794D01*
X204180507Y-121426295D01*
X204177607Y-121428876D01*
X204141215Y-121436577D01*
X204076762Y-121439114D01*
X204073619Y-121439119D01*
X204021169Y-121440728D01*
X203981131Y-121444660D01*
X203961951Y-121450107D01*
X203959073Y-121452636D01*
X203938785Y-121460591D01*
X203921266Y-121458164D01*
X203919203Y-121446443D01*
X203914278Y-121436125D01*
X203887090Y-121432010D01*
X203871997Y-121432436D01*
X203857627Y-121436676D01*
X203867904Y-121447522D01*
X203872864Y-121455300D01*
X203854347Y-121457504D01*
X203809278Y-121453771D01*
X203765898Y-121450088D01*
X203746040Y-121451974D01*
X203750651Y-121460020D01*
X203758055Y-121465811D01*
X203757778Y-121473413D01*
X203731465Y-121475532D01*
X203704805Y-121471654D01*
X203699353Y-121461099D01*
X203702012Y-121453682D01*
X203691130Y-121447000D01*
X203662527Y-121452292D01*
X203622078Y-121468960D01*
X203621728Y-121469133D01*
X203619018Y-121469901D01*
X203586318Y-121479167D01*
X203535676Y-121484985D01*
X203478656Y-121486646D01*
X203424116Y-121484206D01*
X203380911Y-121477723D01*
X203364801Y-121470393D01*
X203372170Y-121470393D01*
X203384234Y-121475756D01*
X203391994Y-121474698D01*
X203393766Y-121467023D01*
X203515650Y-121467023D01*
X203518793Y-121470828D01*
X203545458Y-121472356D01*
X203555402Y-121472214D01*
X203575668Y-121469901D01*
X203571107Y-121465653D01*
X203556981Y-121463373D01*
X203519809Y-121465653D01*
X203518801Y-121465985D01*
X203515650Y-121467023D01*
X203393766Y-121467023D01*
X203394006Y-121465985D01*
X203391857Y-121464231D01*
X203374463Y-121465985D01*
X203372170Y-121470393D01*
X203364801Y-121470393D01*
X203357900Y-121467253D01*
X203354332Y-121462516D01*
X203352573Y-121456553D01*
X203365474Y-121450004D01*
X203389459Y-121429886D01*
X203398520Y-121422931D01*
X203432174Y-121422931D01*
X203432401Y-121427934D01*
X203451411Y-121430629D01*
X203465818Y-121428282D01*
X203461104Y-121422756D01*
X204067848Y-121422756D01*
X204070052Y-121427344D01*
X204084865Y-121428282D01*
X204095083Y-121428929D01*
X204099634Y-121428832D01*
X204119102Y-121426295D01*
X204113125Y-121421629D01*
X204098251Y-121419273D01*
X204069155Y-121422172D01*
X204067848Y-121422756D01*
X203461104Y-121422756D01*
X203460266Y-121421774D01*
X203451790Y-121419432D01*
X203432174Y-121422931D01*
X203398520Y-121422931D01*
X203409142Y-121414778D01*
X203439311Y-121406444D01*
X203484732Y-121409917D01*
X203504943Y-121412520D01*
X203534792Y-121412565D01*
X203538829Y-121403605D01*
X203536859Y-121395761D01*
X203550700Y-121387816D01*
X203560347Y-121389444D01*
X203580878Y-121406137D01*
X203588070Y-121416537D01*
X203597787Y-121406709D01*
X203615089Y-121395994D01*
X203652749Y-121395997D01*
X203676768Y-121399122D01*
X203685541Y-121397406D01*
X203670039Y-121387855D01*
X203663046Y-121383199D01*
X203803127Y-121383199D01*
X203823934Y-121385502D01*
X203844096Y-121383459D01*
X203842255Y-121378109D01*
X203835621Y-121376173D01*
X203805614Y-121378109D01*
X203803127Y-121383199D01*
X203663046Y-121383199D01*
X203657471Y-121379487D01*
X203666754Y-121376919D01*
X203702132Y-121380278D01*
X203710499Y-121381195D01*
X203752344Y-121380983D01*
X203773629Y-121371552D01*
X203776568Y-121368392D01*
X203805195Y-121361476D01*
X203858790Y-121364536D01*
X203894401Y-121368082D01*
X203916089Y-121366895D01*
X203911874Y-121359071D01*
X203908729Y-121356929D01*
X203898521Y-121346523D01*
X203915539Y-121344070D01*
X203929103Y-121346184D01*
X203941188Y-121358503D01*
X203943668Y-121365245D01*
X203963173Y-121373159D01*
X203973281Y-121371549D01*
X203985158Y-121358869D01*
X203985358Y-121357587D01*
X204000638Y-121350702D01*
X204032792Y-121351821D01*
X204057451Y-121355044D01*
X204066370Y-121353332D01*
X204051113Y-121343846D01*
X204037513Y-121335869D01*
X204041013Y-121332543D01*
X204070633Y-121336111D01*
X204070805Y-121336137D01*
X204113991Y-121336688D01*
X204149350Y-121327601D01*
X204150036Y-121327234D01*
X204170253Y-121318927D01*
X204169270Y-121327727D01*
X204172051Y-121339124D01*
X204200478Y-121342816D01*
X204222065Y-121341802D01*
X204229754Y-121337849D01*
X204212336Y-121328209D01*
X204202509Y-121322170D01*
X204212036Y-121319439D01*
X204248978Y-121322776D01*
X204280768Y-121325878D01*
X204299041Y-121324197D01*
X204292948Y-121315623D01*
X204287183Y-121311408D01*
X204282298Y-121302428D01*
X204303940Y-121300100D01*
X204324504Y-121303180D01*
X204336918Y-121314533D01*
X204343838Y-121327834D01*
X204360762Y-121325427D01*
X204375662Y-121307010D01*
X204375468Y-121299120D01*
X204367687Y-121265991D01*
X204362019Y-121247051D01*
X205015094Y-121247051D01*
X205015321Y-121252054D01*
X205034331Y-121254749D01*
X205048737Y-121252402D01*
X205043186Y-121245894D01*
X205034710Y-121243552D01*
X205015094Y-121247051D01*
X204362019Y-121247051D01*
X204351523Y-121211980D01*
X204328314Y-121141244D01*
X204299398Y-121057945D01*
X204266111Y-120966242D01*
X204167045Y-120698845D01*
X204060325Y-120410592D01*
X203963601Y-120149112D01*
X203876739Y-119914033D01*
X203799600Y-119704983D01*
X203732049Y-119521589D01*
X203673948Y-119363480D01*
X203625160Y-119230284D01*
X203585550Y-119121628D01*
X203554980Y-119037139D01*
X203533314Y-118976447D01*
X203520414Y-118939179D01*
X203516144Y-118924963D01*
X203529318Y-118920322D01*
X203569290Y-118916351D01*
X203633499Y-118913368D01*
X203719362Y-118911491D01*
X203824297Y-118910840D01*
X204132450Y-118910840D01*
X204147549Y-118950553D01*
X204148302Y-118952614D01*
X204157393Y-118979814D01*
X204173960Y-119031107D01*
X204196956Y-119103183D01*
X204225331Y-119192734D01*
X204258036Y-119296452D01*
X204294022Y-119411029D01*
X204332242Y-119533155D01*
X204340201Y-119558616D01*
X204377757Y-119678332D01*
X204412699Y-119789023D01*
X204444013Y-119887527D01*
X204470686Y-119970684D01*
X204491705Y-120035331D01*
X204506058Y-120078307D01*
X204512730Y-120096449D01*
X204513500Y-120096916D01*
X204522367Y-120082732D01*
X204539364Y-120042671D01*
X204563872Y-119978439D01*
X204595272Y-119891737D01*
X204632943Y-119784269D01*
X204676267Y-119657738D01*
X204724625Y-119513847D01*
X204925626Y-118910840D01*
X205246852Y-118910840D01*
X205288985Y-118910890D01*
X205378281Y-118911354D01*
X205455030Y-118912240D01*
X205515040Y-118913474D01*
X205554119Y-118914978D01*
X205568077Y-118916676D01*
X205566330Y-118921902D01*
X205555634Y-118951283D01*
X205535933Y-119004539D01*
X205508065Y-119079426D01*
X205472869Y-119173701D01*
X205431184Y-119285122D01*
X205383847Y-119411447D01*
X205331698Y-119550432D01*
X205275576Y-119699835D01*
X205216318Y-119857413D01*
X205182271Y-119948015D01*
X205124586Y-120102053D01*
X205070530Y-120247071D01*
X205020944Y-120380770D01*
X204976674Y-120500849D01*
X204938561Y-120605010D01*
X204907450Y-120690953D01*
X204884183Y-120756379D01*
X204869604Y-120798987D01*
X204864558Y-120816479D01*
X204868893Y-120833493D01*
X204881643Y-120871981D01*
X204900549Y-120925500D01*
X204923334Y-120987956D01*
X204947721Y-121053253D01*
X204971431Y-121115298D01*
X204992187Y-121167996D01*
X205007711Y-121205251D01*
X205015726Y-121220970D01*
X205019563Y-121222101D01*
X205044527Y-121226774D01*
X205084408Y-121233112D01*
X205115412Y-121236987D01*
X205134221Y-121236029D01*
X205128378Y-121227683D01*
X205122987Y-121223772D01*
X205117236Y-121214524D01*
X205138149Y-121212160D01*
X205158212Y-121215331D01*
X205175436Y-121228530D01*
X205176173Y-121230262D01*
X205192912Y-121234729D01*
X205229569Y-121219991D01*
X205239998Y-121214862D01*
X205263673Y-121206372D01*
X205268364Y-121210725D01*
X205271463Y-121221892D01*
X205299728Y-121225563D01*
X205321438Y-121224540D01*
X205329050Y-121220549D01*
X205311586Y-121210789D01*
X205301933Y-121204476D01*
X205313202Y-121201966D01*
X205351892Y-121205389D01*
X205368855Y-121207119D01*
X205407898Y-121206919D01*
X205421511Y-121198177D01*
X205424315Y-121190735D01*
X205444361Y-121182623D01*
X205454830Y-121184732D01*
X205458152Y-121197279D01*
X205461995Y-121207377D01*
X205487466Y-121211936D01*
X205511647Y-121208123D01*
X205516566Y-121196934D01*
X205515467Y-121193447D01*
X205529771Y-121187413D01*
X205570663Y-121189847D01*
X205600903Y-121192932D01*
X205615601Y-121191561D01*
X205604719Y-121183894D01*
X205589918Y-121176321D01*
X205588883Y-121170786D01*
X205614847Y-121168996D01*
X205643381Y-121172033D01*
X205663313Y-121182569D01*
X205679933Y-121187701D01*
X205714748Y-121175241D01*
X205751843Y-121157819D01*
X205769152Y-121155019D01*
X205765942Y-121167966D01*
X205765303Y-121169222D01*
X205773842Y-121178497D01*
X205805383Y-121181162D01*
X205808124Y-121181078D01*
X205837480Y-121179467D01*
X205839804Y-121175597D01*
X205835384Y-121173890D01*
X211825979Y-121173890D01*
X211829122Y-121177694D01*
X211855787Y-121179222D01*
X211865731Y-121179081D01*
X211885997Y-121176768D01*
X211881436Y-121172520D01*
X211867310Y-121170240D01*
X211830137Y-121172520D01*
X211825979Y-121173890D01*
X205835384Y-121173890D01*
X205817241Y-121166884D01*
X205806051Y-121160732D01*
X205821982Y-121159069D01*
X205866519Y-121162276D01*
X205908339Y-121165174D01*
X205938061Y-121163178D01*
X205942601Y-121154569D01*
X205942543Y-121144383D01*
X205963807Y-121138653D01*
X205981189Y-121141879D01*
X205985792Y-121153309D01*
X205989635Y-121163407D01*
X206015106Y-121167966D01*
X206039251Y-121164143D01*
X206044266Y-121153062D01*
X206045269Y-121147420D01*
X206069305Y-121143130D01*
X206120348Y-121145221D01*
X206135803Y-121146445D01*
X206171000Y-121148209D01*
X206179109Y-121145986D01*
X206161672Y-121139566D01*
X206147284Y-121134833D01*
X206143969Y-121130275D01*
X206165053Y-121128402D01*
X206212971Y-121128697D01*
X206260117Y-121128064D01*
X206307339Y-121124043D01*
X206336293Y-121117453D01*
X206355223Y-121111277D01*
X206353748Y-121121505D01*
X206351868Y-121126110D01*
X206362280Y-121135134D01*
X206398978Y-121136919D01*
X206415579Y-121136384D01*
X206440157Y-121134726D01*
X206437963Y-121131040D01*
X206410836Y-121123199D01*
X206403779Y-121120990D01*
X206402581Y-121116680D01*
X206429594Y-121115552D01*
X206484119Y-121117657D01*
X206500811Y-121118511D01*
X206552928Y-121119705D01*
X206576530Y-121117021D01*
X206572059Y-121110423D01*
X206557526Y-121102453D01*
X206561198Y-121097494D01*
X206591245Y-121095713D01*
X206595416Y-121095667D01*
X206624784Y-121099394D01*
X206630686Y-121109339D01*
X206633872Y-121119245D01*
X206658269Y-121123996D01*
X206683759Y-121120715D01*
X206703600Y-121109937D01*
X206721227Y-121103699D01*
X206759765Y-121100724D01*
X206810725Y-121101752D01*
X206852791Y-121103983D01*
X206877378Y-121104169D01*
X206876032Y-121101407D01*
X206850536Y-121095415D01*
X206843022Y-121093792D01*
X206826522Y-121088771D01*
X206833111Y-121085859D01*
X206864854Y-121084769D01*
X206923819Y-121085213D01*
X206947018Y-121085378D01*
X207010907Y-121084018D01*
X207065060Y-121080408D01*
X207099699Y-121075110D01*
X207114287Y-121071328D01*
X207130271Y-121069680D01*
X207121684Y-121078616D01*
X207119180Y-121080548D01*
X207117857Y-121088399D01*
X207139671Y-121092094D01*
X207187639Y-121092257D01*
X207275579Y-121090280D01*
X207209624Y-121079035D01*
X207206641Y-121078510D01*
X207193524Y-121074393D01*
X207208608Y-121072119D01*
X207250936Y-121071739D01*
X207319549Y-121073303D01*
X207387562Y-121074728D01*
X207437540Y-121074055D01*
X207461883Y-121071190D01*
X207458787Y-121066225D01*
X207450444Y-121063154D01*
X207442323Y-121057119D01*
X207457892Y-121053779D01*
X207499958Y-121052174D01*
X207528184Y-121052393D01*
X207561354Y-121056656D01*
X207568712Y-121065369D01*
X207568177Y-121069475D01*
X207585286Y-121077206D01*
X207625609Y-121080026D01*
X207644453Y-121079453D01*
X207681573Y-121074386D01*
X207700365Y-121065786D01*
X207702577Y-121064147D01*
X207728010Y-121059441D01*
X207778267Y-121056523D01*
X207849885Y-121055527D01*
X207939401Y-121056586D01*
X207965568Y-121057142D01*
X208033949Y-121058330D01*
X208073517Y-121058478D01*
X208084646Y-121057569D01*
X208067705Y-121055584D01*
X208023069Y-121052505D01*
X208016394Y-121052005D01*
X208013469Y-121050449D01*
X208037256Y-121048987D01*
X208085775Y-121047643D01*
X208157043Y-121046441D01*
X208249076Y-121045404D01*
X208359892Y-121044556D01*
X208487509Y-121043921D01*
X208629945Y-121043522D01*
X208785215Y-121043384D01*
X208829904Y-121043396D01*
X208982977Y-121043613D01*
X209123379Y-121044088D01*
X209249030Y-121044797D01*
X209357851Y-121045716D01*
X209447760Y-121046820D01*
X209516677Y-121048086D01*
X209562523Y-121049488D01*
X209583215Y-121051004D01*
X209576675Y-121052608D01*
X209576587Y-121052615D01*
X209552268Y-121055225D01*
X209555093Y-121056937D01*
X209582911Y-121057692D01*
X209633571Y-121057431D01*
X209704921Y-121056096D01*
X209727091Y-121055613D01*
X209823319Y-121054582D01*
X209893273Y-121055860D01*
X209935969Y-121059409D01*
X209950420Y-121065194D01*
X209955366Y-121070537D01*
X209981900Y-121077358D01*
X210023704Y-121080026D01*
X210050101Y-121079037D01*
X210083805Y-121073730D01*
X210096987Y-121065369D01*
X210099210Y-121061547D01*
X210121258Y-121054349D01*
X210159278Y-121052174D01*
X210170225Y-121052460D01*
X210200038Y-121054347D01*
X210204002Y-121058447D01*
X210184927Y-121066310D01*
X210178713Y-121070213D01*
X210193312Y-121073814D01*
X210234907Y-121074830D01*
X210302180Y-121073184D01*
X210355368Y-121071650D01*
X210398975Y-121071859D01*
X210415864Y-121074368D01*
X210404777Y-121079104D01*
X210380457Y-121084889D01*
X210370227Y-121089153D01*
X210384933Y-121091255D01*
X210426762Y-121092529D01*
X210467726Y-121092171D01*
X210484388Y-121087858D01*
X210478060Y-121078705D01*
X210471118Y-121072310D01*
X210479936Y-121069423D01*
X210514702Y-121075056D01*
X210521549Y-121076293D01*
X210569016Y-121081374D01*
X210631692Y-121084492D01*
X210697910Y-121085012D01*
X210714133Y-121084783D01*
X210764262Y-121084670D01*
X210787805Y-121086167D01*
X210786946Y-121089615D01*
X210763865Y-121095357D01*
X210740775Y-121100672D01*
X210735679Y-121103919D01*
X210756214Y-121104169D01*
X210804171Y-121101706D01*
X210852867Y-121100420D01*
X210889545Y-121103206D01*
X210903103Y-121109891D01*
X210903121Y-121110286D01*
X210916691Y-121119982D01*
X210947938Y-121123996D01*
X210949472Y-121123989D01*
X210977988Y-121119720D01*
X210983715Y-121109339D01*
X210983069Y-121108053D01*
X210991768Y-121098451D01*
X211023156Y-121094907D01*
X211043860Y-121095561D01*
X211058790Y-121100044D01*
X211049670Y-121110410D01*
X211046210Y-121113400D01*
X211051142Y-121119385D01*
X211080912Y-121120869D01*
X211137610Y-121118034D01*
X211150398Y-121117186D01*
X211198237Y-121115292D01*
X211218681Y-121117268D01*
X211210893Y-121123055D01*
X211205516Y-121124943D01*
X211189841Y-121132077D01*
X211198059Y-121135514D01*
X211232878Y-121136967D01*
X211262301Y-121136693D01*
X211277508Y-121132423D01*
X211269520Y-121122500D01*
X211263666Y-121118099D01*
X211261299Y-121112358D01*
X211284177Y-121117899D01*
X211315263Y-121123171D01*
X211365794Y-121126843D01*
X211423415Y-121127798D01*
X211463070Y-121127667D01*
X211493712Y-121129096D01*
X211499235Y-121132812D01*
X211482042Y-121139285D01*
X211476381Y-121140982D01*
X211465182Y-121146321D01*
X211480660Y-121147301D01*
X211523991Y-121144054D01*
X211565611Y-121141309D01*
X211595480Y-121143403D01*
X211600074Y-121152049D01*
X211602229Y-121163202D01*
X211628608Y-121167966D01*
X211652665Y-121164115D01*
X211657922Y-121153309D01*
X211659102Y-121144161D01*
X211679907Y-121138653D01*
X211697689Y-121141851D01*
X211701252Y-121154345D01*
X211706047Y-121162164D01*
X211735762Y-121164120D01*
X211792368Y-121160104D01*
X211850338Y-121156351D01*
X211903269Y-121159809D01*
X211947448Y-121172843D01*
X211956456Y-121176413D01*
X211957813Y-121176768D01*
X211992029Y-121185716D01*
G37*
D15*
%TO.C,J8*%
X206973000Y-135763000D02*
X206973000Y-137033000D01*
X206973000Y-137033000D02*
X208243000Y-137033000D01*
X209320358Y-130253000D02*
X209633000Y-130253000D01*
X209320358Y-131113000D02*
X209633000Y-131113000D01*
X209320358Y-132793000D02*
X209633000Y-132793000D01*
X209320358Y-133653000D02*
X209633000Y-133653000D01*
X209403000Y-135333000D02*
X209633000Y-135333000D01*
X209403000Y-136193000D02*
X209633000Y-136193000D01*
X209633000Y-129303000D02*
X212393000Y-129303000D01*
X209633000Y-131953000D02*
X212393000Y-131953000D01*
X209633000Y-134493000D02*
X212393000Y-134493000D01*
X209633000Y-137143000D02*
X209633000Y-129303000D01*
X212393000Y-129303000D02*
X212393000Y-137143000D01*
X212393000Y-131113000D02*
X218393000Y-131113000D01*
X212393000Y-133653000D02*
X218393000Y-133653000D01*
X212393000Y-137143000D02*
X209633000Y-137143000D01*
X218393000Y-130253000D02*
X212393000Y-130253000D01*
X218393000Y-131113000D02*
X218393000Y-130253000D01*
X218393000Y-132793000D02*
X212393000Y-132793000D01*
X218393000Y-133653000D02*
X218393000Y-132793000D01*
X212393000Y-136193000D02*
X218393000Y-136193000D01*
X218393000Y-135333000D01*
X212393000Y-135333000D01*
X212393000Y-136193000D01*
G36*
X212393000Y-136193000D02*
G01*
X218393000Y-136193000D01*
X218393000Y-135333000D01*
X212393000Y-135333000D01*
X212393000Y-136193000D01*
G37*
%TO.C,J6*%
X206913000Y-101867000D02*
X206913000Y-103137000D01*
X206913000Y-103137000D02*
X208183000Y-103137000D01*
X209260358Y-96357000D02*
X209573000Y-96357000D01*
X209260358Y-97217000D02*
X209573000Y-97217000D01*
X209260358Y-98897000D02*
X209573000Y-98897000D01*
X209260358Y-99757000D02*
X209573000Y-99757000D01*
X209343000Y-101437000D02*
X209573000Y-101437000D01*
X209343000Y-102297000D02*
X209573000Y-102297000D01*
X209573000Y-95407000D02*
X212333000Y-95407000D01*
X209573000Y-98057000D02*
X212333000Y-98057000D01*
X209573000Y-100597000D02*
X212333000Y-100597000D01*
X209573000Y-103247000D02*
X209573000Y-95407000D01*
X212333000Y-95407000D02*
X212333000Y-103247000D01*
X212333000Y-97217000D02*
X218333000Y-97217000D01*
X212333000Y-99757000D02*
X218333000Y-99757000D01*
X212333000Y-103247000D02*
X209573000Y-103247000D01*
X218333000Y-96357000D02*
X212333000Y-96357000D01*
X218333000Y-97217000D02*
X218333000Y-96357000D01*
X218333000Y-98897000D02*
X212333000Y-98897000D01*
X218333000Y-99757000D02*
X218333000Y-98897000D01*
X212333000Y-102297000D02*
X218333000Y-102297000D01*
X218333000Y-101437000D01*
X212333000Y-101437000D01*
X212333000Y-102297000D01*
G36*
X212333000Y-102297000D02*
G01*
X218333000Y-102297000D01*
X218333000Y-101437000D01*
X212333000Y-101437000D01*
X212333000Y-102297000D01*
G37*
%TO.C,J7*%
X154158000Y-98757000D02*
X154158000Y-99617000D01*
X154158000Y-99617000D02*
X160158000Y-99617000D01*
X154158000Y-101297000D02*
X154158000Y-102157000D01*
X154158000Y-102157000D02*
X160158000Y-102157000D01*
X160158000Y-95267000D02*
X162918000Y-95267000D01*
X160158000Y-98757000D02*
X154158000Y-98757000D01*
X160158000Y-101297000D02*
X154158000Y-101297000D01*
X160158000Y-103107000D02*
X160158000Y-95267000D01*
X162918000Y-95267000D02*
X162918000Y-103107000D01*
X162918000Y-97917000D02*
X160158000Y-97917000D01*
X162918000Y-100457000D02*
X160158000Y-100457000D01*
X162918000Y-103107000D02*
X160158000Y-103107000D01*
X163148000Y-96217000D02*
X162918000Y-96217000D01*
X163148000Y-97077000D02*
X162918000Y-97077000D01*
X163230642Y-98757000D02*
X162918000Y-98757000D01*
X163230642Y-99617000D02*
X162918000Y-99617000D01*
X163230642Y-101297000D02*
X162918000Y-101297000D01*
X163230642Y-102157000D02*
X162918000Y-102157000D01*
X165578000Y-95377000D02*
X164308000Y-95377000D01*
X165578000Y-96647000D02*
X165578000Y-95377000D01*
X160158000Y-96217000D02*
X154158000Y-96217000D01*
X154158000Y-97077000D01*
X160158000Y-97077000D01*
X160158000Y-96217000D01*
G36*
X160158000Y-96217000D02*
G01*
X154158000Y-96217000D01*
X154158000Y-97077000D01*
X160158000Y-97077000D01*
X160158000Y-96217000D01*
G37*
%TO.C,J15*%
X155331000Y-108917000D02*
X155331000Y-109777000D01*
X155331000Y-109777000D02*
X161331000Y-109777000D01*
X155331000Y-111457000D02*
X155331000Y-112317000D01*
X155331000Y-112317000D02*
X161331000Y-112317000D01*
X155331000Y-113997000D02*
X155331000Y-114857000D01*
X155331000Y-114857000D02*
X161331000Y-114857000D01*
X155331000Y-116537000D02*
X155331000Y-117397000D01*
X155331000Y-117397000D02*
X161331000Y-117397000D01*
X155331000Y-119077000D02*
X155331000Y-119937000D01*
X155331000Y-119937000D02*
X161331000Y-119937000D01*
X155331000Y-121617000D02*
X155331000Y-122477000D01*
X155331000Y-122477000D02*
X161331000Y-122477000D01*
X155331000Y-124157000D02*
X155331000Y-125017000D01*
X155331000Y-125017000D02*
X161331000Y-125017000D01*
X161331000Y-105427000D02*
X164091000Y-105427000D01*
X161331000Y-108917000D02*
X155331000Y-108917000D01*
X161331000Y-111457000D02*
X155331000Y-111457000D01*
X161331000Y-113997000D02*
X155331000Y-113997000D01*
X161331000Y-116537000D02*
X155331000Y-116537000D01*
X161331000Y-119077000D02*
X155331000Y-119077000D01*
X161331000Y-121617000D02*
X155331000Y-121617000D01*
X161331000Y-124157000D02*
X155331000Y-124157000D01*
X161331000Y-125967000D02*
X161331000Y-105427000D01*
X164091000Y-105427000D02*
X164091000Y-125967000D01*
X164091000Y-108077000D02*
X161331000Y-108077000D01*
X164091000Y-110617000D02*
X161331000Y-110617000D01*
X164091000Y-113157000D02*
X161331000Y-113157000D01*
X164091000Y-115697000D02*
X161331000Y-115697000D01*
X164091000Y-118237000D02*
X161331000Y-118237000D01*
X164091000Y-120777000D02*
X161331000Y-120777000D01*
X164091000Y-123317000D02*
X161331000Y-123317000D01*
X164091000Y-125967000D02*
X161331000Y-125967000D01*
X164321000Y-106377000D02*
X164091000Y-106377000D01*
X164321000Y-107237000D02*
X164091000Y-107237000D01*
X164403642Y-108917000D02*
X164091000Y-108917000D01*
X164403642Y-109777000D02*
X164091000Y-109777000D01*
X164403642Y-111457000D02*
X164091000Y-111457000D01*
X164403642Y-112317000D02*
X164091000Y-112317000D01*
X164403642Y-113997000D02*
X164091000Y-113997000D01*
X164403642Y-114857000D02*
X164091000Y-114857000D01*
X164403642Y-116537000D02*
X164091000Y-116537000D01*
X164403642Y-117397000D02*
X164091000Y-117397000D01*
X164403642Y-119077000D02*
X164091000Y-119077000D01*
X164403642Y-119937000D02*
X164091000Y-119937000D01*
X164403642Y-121617000D02*
X164091000Y-121617000D01*
X164403642Y-122477000D02*
X164091000Y-122477000D01*
X164403642Y-124157000D02*
X164091000Y-124157000D01*
X164403642Y-125017000D02*
X164091000Y-125017000D01*
X166751000Y-105537000D02*
X165481000Y-105537000D01*
X166751000Y-106807000D02*
X166751000Y-105537000D01*
X161331000Y-106377000D02*
X155331000Y-106377000D01*
X155331000Y-107237000D01*
X161331000Y-107237000D01*
X161331000Y-106377000D01*
G36*
X161331000Y-106377000D02*
G01*
X155331000Y-106377000D01*
X155331000Y-107237000D01*
X161331000Y-107237000D01*
X161331000Y-106377000D01*
G37*
D14*
%TO.C,G1*%
G36*
X215014015Y-116100630D02*
G01*
X214990411Y-116173442D01*
X214984599Y-116184745D01*
X214948145Y-116233185D01*
X214899857Y-116275102D01*
X214848705Y-116302333D01*
X214843754Y-116303986D01*
X214781403Y-116313438D01*
X214724873Y-116300268D01*
X214674787Y-116264901D01*
X214631765Y-116207766D01*
X214596430Y-116129287D01*
X214588201Y-116102441D01*
X214582790Y-116055856D01*
X214755223Y-116055856D01*
X214755401Y-116083109D01*
X214767672Y-116100569D01*
X214796969Y-116107326D01*
X214822923Y-116102516D01*
X214838536Y-116083109D01*
X214840816Y-116070759D01*
X214833359Y-116044553D01*
X214812873Y-116028352D01*
X214786646Y-116026095D01*
X214761965Y-116041721D01*
X214755223Y-116055856D01*
X214582790Y-116055856D01*
X214580819Y-116038891D01*
X214594337Y-115982176D01*
X214629667Y-115929791D01*
X214687723Y-115879235D01*
X214690118Y-115877533D01*
X214742714Y-115851109D01*
X214802495Y-115837115D01*
X214861150Y-115836618D01*
X214910366Y-115850682D01*
X214927849Y-115861003D01*
X214974481Y-115905114D01*
X215005052Y-115962440D01*
X215018563Y-116028954D01*
X215015910Y-116070759D01*
X215014015Y-116100630D01*
G37*
G36*
X211595413Y-115894153D02*
G01*
X211591018Y-115969257D01*
X211570947Y-116032083D01*
X211566601Y-116040061D01*
X211533955Y-116084852D01*
X211490542Y-116128852D01*
X211443674Y-116165377D01*
X211400664Y-116187741D01*
X211395177Y-116189319D01*
X211360600Y-116194673D01*
X211313092Y-116197738D01*
X211261235Y-116197891D01*
X211228522Y-116196610D01*
X211185892Y-116192598D01*
X211149115Y-116184202D01*
X211109316Y-116169120D01*
X211057616Y-116145047D01*
X210973446Y-116097038D01*
X210897828Y-116038713D01*
X210837781Y-115975136D01*
X210797304Y-115909918D01*
X210775950Y-115841689D01*
X210772899Y-115775367D01*
X210952839Y-115775367D01*
X210963040Y-115828557D01*
X210995252Y-115880919D01*
X211048554Y-115931086D01*
X211122025Y-115977692D01*
X211185496Y-116005268D01*
X211259319Y-116019823D01*
X211296597Y-116021152D01*
X211340361Y-116015919D01*
X211371664Y-115999827D01*
X211396636Y-115970684D01*
X211411266Y-115933943D01*
X211413239Y-115879957D01*
X211399854Y-115819148D01*
X211372661Y-115756014D01*
X211333208Y-115695054D01*
X211283045Y-115640767D01*
X211267544Y-115627755D01*
X211207442Y-115593048D01*
X211147105Y-115580624D01*
X211089350Y-115589644D01*
X211036996Y-115619269D01*
X210992859Y-115668662D01*
X210959757Y-115736983D01*
X210952839Y-115775367D01*
X210772899Y-115775367D01*
X210772184Y-115759818D01*
X210789934Y-115676821D01*
X210828542Y-115595554D01*
X210887352Y-115518873D01*
X210911080Y-115495042D01*
X210977900Y-115444654D01*
X211051930Y-115413988D01*
X211139017Y-115400290D01*
X211180883Y-115398428D01*
X211218396Y-115400541D01*
X211250899Y-115409062D01*
X211288482Y-115425705D01*
X211296974Y-115430115D01*
X211347894Y-115464440D01*
X211403275Y-115512235D01*
X211457133Y-115567457D01*
X211503486Y-115624065D01*
X211536350Y-115676015D01*
X211559115Y-115727062D01*
X211584618Y-115811758D01*
X211593553Y-115879957D01*
X211595413Y-115894153D01*
G37*
G36*
X210179200Y-117546921D02*
G01*
X210159886Y-117630074D01*
X210125438Y-117701494D01*
X210077009Y-117758819D01*
X210015754Y-117799688D01*
X209942825Y-117821737D01*
X209897193Y-117826169D01*
X209838757Y-117820795D01*
X209777961Y-117799816D01*
X209733066Y-117773843D01*
X209673456Y-117723809D01*
X209613728Y-117658876D01*
X209556929Y-117583567D01*
X209506110Y-117502403D01*
X209464319Y-117419906D01*
X209434606Y-117340598D01*
X209420020Y-117269002D01*
X209418922Y-117248272D01*
X209420178Y-117238991D01*
X209598105Y-117238991D01*
X209600245Y-117269457D01*
X209603381Y-117281967D01*
X209623309Y-117334185D01*
X209654463Y-117395478D01*
X209693063Y-117459445D01*
X209735334Y-117519686D01*
X209777497Y-117569799D01*
X209790136Y-117582979D01*
X209822909Y-117615116D01*
X209847269Y-117633787D01*
X209868516Y-117642451D01*
X209891945Y-117644570D01*
X209920693Y-117641436D01*
X209956636Y-117622311D01*
X209985560Y-117582928D01*
X209989582Y-117573119D01*
X209996371Y-117533894D01*
X209997559Y-117481706D01*
X209993532Y-117423760D01*
X209984678Y-117367263D01*
X209971385Y-117319418D01*
X209956458Y-117283373D01*
X209940040Y-117258718D01*
X209915740Y-117239486D01*
X209876638Y-117218291D01*
X209818895Y-117194277D01*
X209729779Y-117176701D01*
X209687268Y-117174143D01*
X209660268Y-117176153D01*
X209641314Y-117184502D01*
X209622669Y-117200942D01*
X209610139Y-117214621D01*
X209598105Y-117238991D01*
X209420178Y-117238991D01*
X209428846Y-117174959D01*
X209460102Y-117110280D01*
X209511545Y-117056036D01*
X209582031Y-117014026D01*
X209591496Y-117010174D01*
X209651311Y-116995483D01*
X209723251Y-116989468D01*
X209799110Y-116991948D01*
X209870683Y-117002743D01*
X209929766Y-117021674D01*
X209969969Y-117042703D01*
X210039168Y-117095782D01*
X210094549Y-117165041D01*
X210137337Y-117252209D01*
X210168754Y-117359012D01*
X210182228Y-117454398D01*
X210181334Y-117481706D01*
X210179200Y-117546921D01*
G37*
G36*
X216776539Y-114698925D02*
G01*
X216761681Y-114769822D01*
X216753832Y-114788828D01*
X216721350Y-114841891D01*
X216678501Y-114888555D01*
X216630927Y-114923378D01*
X216584269Y-114940919D01*
X216543156Y-114943413D01*
X216475399Y-114930482D01*
X216413682Y-114898536D01*
X216362854Y-114850448D01*
X216327765Y-114789088D01*
X216308111Y-114737625D01*
X216161525Y-114739274D01*
X216014939Y-114740924D01*
X216014939Y-115451056D01*
X216014939Y-115478781D01*
X216014937Y-115626311D01*
X216014817Y-115752267D01*
X216014437Y-115858422D01*
X216013651Y-115946548D01*
X216012313Y-116018415D01*
X216010280Y-116075796D01*
X216007407Y-116120462D01*
X216003548Y-116154185D01*
X215998559Y-116178737D01*
X215992295Y-116195889D01*
X215984611Y-116207412D01*
X215975363Y-116215079D01*
X215964405Y-116220661D01*
X215951592Y-116225930D01*
X215921214Y-116231954D01*
X215882500Y-116224981D01*
X215853452Y-116204098D01*
X215852775Y-116203035D01*
X215849609Y-116192265D01*
X215846900Y-116171448D01*
X215844619Y-116139072D01*
X215842732Y-116093627D01*
X215841209Y-116033601D01*
X215840018Y-115957482D01*
X215839127Y-115863760D01*
X215838505Y-115750923D01*
X215838120Y-115617459D01*
X215837941Y-115461857D01*
X215837564Y-114739526D01*
X215435746Y-114741740D01*
X215433735Y-114741751D01*
X215307956Y-114742084D01*
X215205059Y-114741576D01*
X215124302Y-114740208D01*
X215064943Y-114737961D01*
X215026239Y-114734816D01*
X215007449Y-114730753D01*
X214985602Y-114714297D01*
X214983551Y-114711722D01*
X216490592Y-114711722D01*
X216509562Y-114739711D01*
X216538355Y-114757165D01*
X216562972Y-114752605D01*
X216582010Y-114725078D01*
X216590649Y-114697842D01*
X216592820Y-114660334D01*
X216583185Y-114633288D01*
X216564696Y-114620002D01*
X216540301Y-114623772D01*
X216512951Y-114647895D01*
X216493389Y-114679927D01*
X216490592Y-114711722D01*
X214983551Y-114711722D01*
X214963725Y-114686827D01*
X214957666Y-114672327D01*
X214956688Y-114633417D01*
X214973534Y-114597126D01*
X215005261Y-114571616D01*
X215007049Y-114570953D01*
X215026292Y-114567839D01*
X215063027Y-114565196D01*
X215118132Y-114563005D01*
X215192488Y-114561251D01*
X215286973Y-114559916D01*
X215402467Y-114558983D01*
X215539849Y-114558436D01*
X215700000Y-114558257D01*
X216365419Y-114558257D01*
X216382335Y-114519826D01*
X216397839Y-114494238D01*
X216431292Y-114467540D01*
X216481082Y-114450656D01*
X216550348Y-114442133D01*
X216588901Y-114440543D01*
X216622283Y-114442775D01*
X216648694Y-114451380D01*
X216677232Y-114468230D01*
X216716630Y-114503262D01*
X216752485Y-114560186D01*
X216772964Y-114627227D01*
X216774615Y-114660334D01*
X216776539Y-114698925D01*
G37*
G36*
X215558044Y-115742616D02*
G01*
X215589832Y-115770315D01*
X215589632Y-116406030D01*
X215589762Y-116572757D01*
X215590439Y-116721513D01*
X215591904Y-116850296D01*
X215594398Y-116960966D01*
X215598163Y-117055380D01*
X215603438Y-117135396D01*
X215610465Y-117202872D01*
X215619486Y-117259664D01*
X215630741Y-117307632D01*
X215644471Y-117348633D01*
X215660916Y-117384525D01*
X215680319Y-117417166D01*
X215702921Y-117448413D01*
X215728961Y-117480124D01*
X215739876Y-117491969D01*
X215784168Y-117531186D01*
X215840429Y-117572562D01*
X215901459Y-117611404D01*
X215960058Y-117643018D01*
X216009026Y-117662711D01*
X216022053Y-117666205D01*
X216101753Y-117678286D01*
X216193302Y-117679802D01*
X216289172Y-117671344D01*
X216381832Y-117653506D01*
X216463755Y-117626881D01*
X216485440Y-117617589D01*
X216576206Y-117573162D01*
X216661502Y-117523009D01*
X216735471Y-117470813D01*
X216792254Y-117420258D01*
X216798161Y-117414022D01*
X216826770Y-117382613D01*
X216846901Y-117358489D01*
X216854510Y-117346446D01*
X216855713Y-117342841D01*
X216867773Y-117324617D01*
X216888604Y-117299101D01*
X216896171Y-117289531D01*
X216922040Y-117243459D01*
X216946584Y-117180688D01*
X216967925Y-117106573D01*
X216984186Y-117026468D01*
X216992961Y-116985595D01*
X217012567Y-116940829D01*
X217041159Y-116915476D01*
X217080399Y-116907481D01*
X217113640Y-116914022D01*
X217146626Y-116940293D01*
X217153110Y-116948462D01*
X217164446Y-116970005D01*
X217169151Y-116997034D01*
X217167147Y-117033828D01*
X217158354Y-117084668D01*
X217142693Y-117153834D01*
X217121405Y-117234119D01*
X217097878Y-117300619D01*
X217068586Y-117359614D01*
X217029633Y-117418928D01*
X216977126Y-117486383D01*
X216972271Y-117492308D01*
X216922234Y-117550717D01*
X216878614Y-117595260D01*
X216835528Y-117631462D01*
X216787089Y-117664851D01*
X216746701Y-117690357D01*
X216666617Y-117738806D01*
X216598567Y-117775924D01*
X216537813Y-117803749D01*
X216479618Y-117824314D01*
X216419243Y-117839657D01*
X216351950Y-117851813D01*
X216327159Y-117855441D01*
X216192557Y-117866727D01*
X216069536Y-117862402D01*
X215960331Y-117842670D01*
X215867176Y-117807733D01*
X215748068Y-117740004D01*
X215645428Y-117663207D01*
X215562734Y-117578217D01*
X215498359Y-117483352D01*
X215450675Y-117376927D01*
X215417779Y-117283909D01*
X215414334Y-116531982D01*
X215413683Y-116383875D01*
X215413202Y-116252852D01*
X215412953Y-116142001D01*
X215412976Y-116049555D01*
X215413311Y-115973749D01*
X215413999Y-115912819D01*
X215415079Y-115864998D01*
X215416593Y-115828522D01*
X215418581Y-115801626D01*
X215421082Y-115782543D01*
X215424137Y-115769509D01*
X215427787Y-115760759D01*
X215432071Y-115754527D01*
X215440307Y-115745716D01*
X215477896Y-115724017D01*
X215519350Y-115722775D01*
X215558044Y-115742616D01*
G37*
G36*
X214045824Y-117863473D02*
G01*
X214066857Y-117867430D01*
X214104226Y-117870597D01*
X214161579Y-117873835D01*
X214191059Y-117875234D01*
X214259467Y-117877910D01*
X214339666Y-117880514D01*
X214423970Y-117882807D01*
X214504696Y-117884547D01*
X214543196Y-117885208D01*
X214608470Y-117885972D01*
X214654504Y-117885702D01*
X214684283Y-117884179D01*
X214700792Y-117881188D01*
X214707016Y-117876512D01*
X214705940Y-117869933D01*
X214704475Y-117864887D01*
X214702868Y-117852395D01*
X214701523Y-117831752D01*
X214700432Y-117801550D01*
X214699587Y-117760379D01*
X214698982Y-117706832D01*
X214698610Y-117639498D01*
X214698463Y-117556969D01*
X214698535Y-117457835D01*
X214698817Y-117340689D01*
X214699304Y-117204120D01*
X214699988Y-117046720D01*
X214700861Y-116867079D01*
X214700953Y-116849184D01*
X214701537Y-116761029D01*
X214702391Y-116693067D01*
X214703743Y-116642361D01*
X214705824Y-116605973D01*
X214708863Y-116580965D01*
X214713089Y-116564401D01*
X214718731Y-116553341D01*
X214726019Y-116544849D01*
X214742391Y-116532267D01*
X214781825Y-116520714D01*
X214822335Y-116527665D01*
X214855434Y-116552610D01*
X214858494Y-116556587D01*
X214863412Y-116564207D01*
X214867505Y-116573929D01*
X214870835Y-116587714D01*
X214873467Y-116607519D01*
X214875463Y-116635304D01*
X214876888Y-116673028D01*
X214877805Y-116722648D01*
X214878277Y-116786125D01*
X214878368Y-116865416D01*
X214878140Y-116962480D01*
X214877659Y-117079276D01*
X214876986Y-117217763D01*
X214876656Y-117276041D01*
X214875736Y-117393770D01*
X214874546Y-117503612D01*
X214873129Y-117603314D01*
X214871530Y-117690624D01*
X214869792Y-117763292D01*
X214867959Y-117819064D01*
X214866077Y-117855691D01*
X214864189Y-117870919D01*
X214863547Y-117872301D01*
X214862981Y-117879370D01*
X214870311Y-117884694D01*
X214888685Y-117888762D01*
X214921252Y-117892057D01*
X214971162Y-117895066D01*
X215041563Y-117898274D01*
X215083986Y-117900111D01*
X215171232Y-117904030D01*
X215267876Y-117908509D01*
X215364892Y-117913128D01*
X215453253Y-117917466D01*
X215482849Y-117918901D01*
X215600508Y-117923842D01*
X215726771Y-117928082D01*
X215858416Y-117931592D01*
X215992220Y-117934340D01*
X216124959Y-117936295D01*
X216253410Y-117937427D01*
X216374349Y-117937704D01*
X216484554Y-117937095D01*
X216580800Y-117935570D01*
X216659864Y-117933096D01*
X216718523Y-117929644D01*
X216744080Y-117927425D01*
X216846535Y-117916774D01*
X216942669Y-117904082D01*
X217030016Y-117889883D01*
X217106109Y-117874711D01*
X217168482Y-117859100D01*
X217214666Y-117843583D01*
X217242195Y-117828695D01*
X217248602Y-117814968D01*
X217247497Y-117806613D01*
X217256250Y-117778909D01*
X217277706Y-117744549D01*
X217307876Y-117709296D01*
X217342771Y-117678914D01*
X217387227Y-117653775D01*
X217436078Y-117644570D01*
X217462688Y-117646920D01*
X217486211Y-117659924D01*
X217490035Y-117685290D01*
X217474697Y-117724125D01*
X217451230Y-117757324D01*
X217413169Y-117799456D01*
X217366029Y-117845228D01*
X217315096Y-117889777D01*
X217265651Y-117928241D01*
X217222979Y-117955758D01*
X217174500Y-117979882D01*
X217064420Y-118021875D01*
X216934662Y-118056466D01*
X216784223Y-118083899D01*
X216612099Y-118104418D01*
X216609235Y-118104682D01*
X216539855Y-118109289D01*
X216449963Y-118112592D01*
X216342516Y-118114603D01*
X216220467Y-118115333D01*
X216086773Y-118114793D01*
X215944388Y-118112994D01*
X215796268Y-118109948D01*
X215645367Y-118105666D01*
X215494641Y-118100158D01*
X215478069Y-118099484D01*
X215352969Y-118094558D01*
X215214308Y-118089335D01*
X215069523Y-118084083D01*
X214926053Y-118079066D01*
X214791335Y-118074550D01*
X214672807Y-118070802D01*
X214623058Y-118069288D01*
X214518901Y-118066096D01*
X214416959Y-118062941D01*
X214321516Y-118059960D01*
X214236858Y-118057286D01*
X214167269Y-118055053D01*
X214117034Y-118053395D01*
X214028272Y-118050776D01*
X213912429Y-118048085D01*
X213776633Y-118045510D01*
X213622794Y-118043064D01*
X213452821Y-118040755D01*
X213268622Y-118038595D01*
X213072107Y-118036594D01*
X212865183Y-118034763D01*
X212649761Y-118033112D01*
X212427747Y-118031652D01*
X212201052Y-118030394D01*
X211971585Y-118029347D01*
X211741253Y-118028522D01*
X211511966Y-118027931D01*
X211285633Y-118027583D01*
X211064162Y-118027489D01*
X210849462Y-118027660D01*
X210643442Y-118028106D01*
X210448011Y-118028837D01*
X210265077Y-118029864D01*
X210096550Y-118031199D01*
X209944657Y-118032537D01*
X209781065Y-118033813D01*
X209625494Y-118034856D01*
X209479507Y-118035662D01*
X209344665Y-118036230D01*
X209222533Y-118036556D01*
X209114672Y-118036637D01*
X209022646Y-118036472D01*
X208948017Y-118036058D01*
X208892349Y-118035391D01*
X208857203Y-118034470D01*
X208844143Y-118033291D01*
X208843314Y-118032393D01*
X208844187Y-118016079D01*
X208858161Y-117989179D01*
X208881566Y-117956830D01*
X208910730Y-117924173D01*
X208941982Y-117896345D01*
X208984951Y-117863571D01*
X209605788Y-117860503D01*
X209725432Y-117859816D01*
X209862804Y-117858822D01*
X210000921Y-117857626D01*
X210135717Y-117856274D01*
X210263127Y-117854808D01*
X210379083Y-117853273D01*
X210479522Y-117851713D01*
X210560377Y-117850172D01*
X210636822Y-117848473D01*
X210717840Y-117846468D01*
X210779560Y-117844509D01*
X210824446Y-117842375D01*
X210854961Y-117839846D01*
X210873571Y-117836703D01*
X210882739Y-117832724D01*
X210884929Y-117827689D01*
X210882607Y-117821379D01*
X210879498Y-117807831D01*
X210876142Y-117773214D01*
X210873476Y-117722789D01*
X210871718Y-117660865D01*
X210871084Y-117591755D01*
X210870819Y-117533542D01*
X210869262Y-117460433D01*
X210866148Y-117406336D01*
X210861288Y-117368447D01*
X210854496Y-117343960D01*
X210827308Y-117296617D01*
X210778127Y-117240104D01*
X210714646Y-117185962D01*
X210641611Y-117138162D01*
X210563768Y-117100674D01*
X210501367Y-117076078D01*
X210509551Y-117159137D01*
X210510974Y-117173916D01*
X210513599Y-117212761D01*
X210511553Y-117237297D01*
X210503477Y-117254645D01*
X210488011Y-117271921D01*
X210486984Y-117272937D01*
X210448899Y-117297070D01*
X210408956Y-117297786D01*
X210368875Y-117275040D01*
X210367417Y-117273753D01*
X210352008Y-117256430D01*
X210341124Y-117233328D01*
X210332737Y-117198505D01*
X210324818Y-117146024D01*
X210323179Y-117133413D01*
X210317899Y-117084258D01*
X210317238Y-117049317D01*
X210321497Y-117021086D01*
X210330976Y-116992066D01*
X210358782Y-116945713D01*
X210401931Y-116914470D01*
X210458119Y-116900693D01*
X210525950Y-116904300D01*
X210604029Y-116925211D01*
X210690962Y-116963343D01*
X210785353Y-117018614D01*
X210871084Y-117074637D01*
X210871084Y-117000252D01*
X210875684Y-116941241D01*
X210890702Y-116900932D01*
X210917555Y-116878295D01*
X210957659Y-116871218D01*
X210992961Y-116876783D01*
X211024220Y-116893153D01*
X211026952Y-116895707D01*
X211032643Y-116902458D01*
X211037231Y-116911976D01*
X211040833Y-116926580D01*
X211043570Y-116948591D01*
X211045559Y-116980330D01*
X211046920Y-117024117D01*
X211047771Y-117082272D01*
X211048232Y-117157116D01*
X211048422Y-117250969D01*
X211048458Y-117366151D01*
X211048427Y-117417780D01*
X211048048Y-117533321D01*
X211047201Y-117627414D01*
X211045839Y-117701637D01*
X211043912Y-117757570D01*
X211041374Y-117796790D01*
X211038175Y-117820875D01*
X211034268Y-117831404D01*
X211033789Y-117831980D01*
X211036611Y-117835600D01*
X211051399Y-117838567D01*
X211079823Y-117840933D01*
X211123551Y-117842751D01*
X211184252Y-117844074D01*
X211263595Y-117844953D01*
X211363249Y-117845443D01*
X211484882Y-117845594D01*
X211514677Y-117845592D01*
X211626460Y-117845513D01*
X211717207Y-117845248D01*
X211789033Y-117844701D01*
X211844051Y-117843776D01*
X211884374Y-117842377D01*
X211912116Y-117840407D01*
X211929392Y-117837771D01*
X211938313Y-117834372D01*
X211940995Y-117830114D01*
X211939551Y-117824900D01*
X211936579Y-117808398D01*
X211934013Y-117771837D01*
X211932182Y-117719720D01*
X211931229Y-117656203D01*
X211931299Y-117585445D01*
X211931555Y-117548743D01*
X211931887Y-117485546D01*
X211932244Y-117402652D01*
X211932621Y-117302196D01*
X211933011Y-117186311D01*
X211933408Y-117057133D01*
X211933805Y-116916795D01*
X211934195Y-116767431D01*
X211934572Y-116611177D01*
X211934930Y-116450167D01*
X211935262Y-116286534D01*
X211937343Y-115206385D01*
X211909730Y-115174988D01*
X211849450Y-115112298D01*
X211767660Y-115039510D01*
X211685206Y-114977540D01*
X211668843Y-114966740D01*
X211534972Y-114893732D01*
X211394558Y-114842800D01*
X211249596Y-114814050D01*
X211102079Y-114807589D01*
X210954002Y-114823523D01*
X210807360Y-114861959D01*
X210664147Y-114923003D01*
X210635946Y-114939064D01*
X210569562Y-114986427D01*
X210501017Y-115046126D01*
X210436132Y-115112422D01*
X210380732Y-115179576D01*
X210340639Y-115241847D01*
X210320646Y-115286343D01*
X210295740Y-115360968D01*
X210275341Y-115443838D01*
X210261538Y-115526088D01*
X210256425Y-115598853D01*
X210261610Y-115668093D01*
X210281153Y-115764037D01*
X210313320Y-115867151D01*
X210356088Y-115971954D01*
X210407433Y-116072963D01*
X210465329Y-116164695D01*
X210483193Y-116189358D01*
X210562208Y-116286047D01*
X210647014Y-116368752D01*
X210741169Y-116439901D01*
X210848230Y-116501923D01*
X210971755Y-116557245D01*
X211115300Y-116608294D01*
X211156800Y-116621366D01*
X211290535Y-116658973D01*
X211413953Y-116685351D01*
X211534560Y-116701598D01*
X211659862Y-116708813D01*
X211797367Y-116708094D01*
X211802331Y-116708115D01*
X211838250Y-116719489D01*
X211864379Y-116746192D01*
X211878026Y-116781698D01*
X211876500Y-116819476D01*
X211857109Y-116853000D01*
X211847987Y-116860778D01*
X211803769Y-116881223D01*
X211740579Y-116892787D01*
X211660612Y-116895660D01*
X211566062Y-116890031D01*
X211459125Y-116876090D01*
X211341997Y-116854029D01*
X211216873Y-116824035D01*
X211085948Y-116786300D01*
X211011629Y-116762026D01*
X210858360Y-116703394D01*
X210724320Y-116638336D01*
X210606634Y-116564928D01*
X210502430Y-116481245D01*
X210408835Y-116385365D01*
X210322976Y-116275362D01*
X210237784Y-116141241D01*
X210164233Y-115991401D01*
X210113202Y-115841649D01*
X210084909Y-115692830D01*
X210079574Y-115545791D01*
X210097413Y-115401378D01*
X210097666Y-115400159D01*
X210128343Y-115282769D01*
X210170149Y-115179521D01*
X210226761Y-115082943D01*
X210301850Y-114985559D01*
X210312879Y-114972894D01*
X210414637Y-114875471D01*
X210532178Y-114792694D01*
X210662298Y-114725527D01*
X210801790Y-114674939D01*
X210947449Y-114641895D01*
X211096070Y-114627362D01*
X211244447Y-114632305D01*
X211389375Y-114657692D01*
X211498117Y-114687994D01*
X211592856Y-114721622D01*
X211677760Y-114761125D01*
X211759811Y-114809763D01*
X211845994Y-114870794D01*
X211947155Y-114947092D01*
X211947155Y-114824482D01*
X211947178Y-114802058D01*
X211947820Y-114754069D01*
X211950167Y-114722739D01*
X211955307Y-114702935D01*
X211964326Y-114689522D01*
X211978312Y-114677365D01*
X212017777Y-114656560D01*
X212057872Y-114657500D01*
X212095504Y-114681882D01*
X212099917Y-114686347D01*
X212108950Y-114697007D01*
X212115448Y-114709804D01*
X212119830Y-114728323D01*
X212122512Y-114756151D01*
X212123910Y-114796872D01*
X212124444Y-114854072D01*
X212124529Y-114931336D01*
X212124570Y-114969061D01*
X212125074Y-115038806D01*
X212126398Y-115090112D01*
X212128852Y-115126591D01*
X212132744Y-115151851D01*
X212138383Y-115169502D01*
X212146079Y-115183154D01*
X212190141Y-115260148D01*
X212212506Y-115332509D01*
X212212718Y-115400646D01*
X212190998Y-115465953D01*
X212176996Y-115491230D01*
X212156616Y-115521355D01*
X212140621Y-115537575D01*
X212139290Y-115538505D01*
X212136117Y-115542922D01*
X212133308Y-115551355D01*
X212130833Y-115565207D01*
X212128661Y-115585880D01*
X212126762Y-115614777D01*
X212125104Y-115653299D01*
X212123658Y-115702851D01*
X212122392Y-115764832D01*
X212121276Y-115840647D01*
X212120280Y-115931698D01*
X212119372Y-116039386D01*
X212118523Y-116165115D01*
X212117701Y-116310286D01*
X212116876Y-116476303D01*
X212116017Y-116664567D01*
X212115828Y-116705812D01*
X212114971Y-116865408D01*
X212113957Y-117018253D01*
X212112807Y-117162657D01*
X212111543Y-117296930D01*
X212110187Y-117419382D01*
X212108760Y-117528324D01*
X212107284Y-117622065D01*
X212105781Y-117698915D01*
X212104272Y-117757186D01*
X212102778Y-117795186D01*
X212101323Y-117811226D01*
X212091574Y-117841895D01*
X212358287Y-117849657D01*
X212375294Y-117850144D01*
X212463525Y-117852454D01*
X212552144Y-117854452D01*
X212635145Y-117856023D01*
X212706521Y-117857051D01*
X212760266Y-117857419D01*
X212895534Y-117857419D01*
X212888145Y-117742126D01*
X212886271Y-117711866D01*
X212880055Y-117589011D01*
X212876514Y-117475288D01*
X212875688Y-117374285D01*
X212876072Y-117357431D01*
X213059989Y-117357431D01*
X213060386Y-117449131D01*
X213062761Y-117560730D01*
X213064393Y-117620238D01*
X213066622Y-117694416D01*
X213068755Y-117757913D01*
X213070676Y-117807489D01*
X213072264Y-117839904D01*
X213073402Y-117851915D01*
X213082570Y-117852605D01*
X213112927Y-117853767D01*
X213161890Y-117855251D01*
X213226756Y-117856986D01*
X213304821Y-117858899D01*
X213393382Y-117860918D01*
X213489736Y-117862973D01*
X213586859Y-117864903D01*
X213678629Y-117866483D01*
X213750720Y-117867326D01*
X213805251Y-117867385D01*
X213844346Y-117866615D01*
X213870125Y-117864969D01*
X213884709Y-117862402D01*
X213890222Y-117858868D01*
X213888783Y-117854321D01*
X213887441Y-117851947D01*
X213883609Y-117835000D01*
X213880222Y-117802502D01*
X213877224Y-117753103D01*
X213874560Y-117685454D01*
X213872170Y-117598204D01*
X213870000Y-117490005D01*
X213867993Y-117359505D01*
X213867453Y-117321024D01*
X213865895Y-117219054D01*
X213864279Y-117125244D01*
X213862662Y-117042177D01*
X213861099Y-116972432D01*
X213859648Y-116918593D01*
X213858364Y-116883239D01*
X213857303Y-116868953D01*
X213851212Y-116860183D01*
X213827436Y-116839986D01*
X213791470Y-116815514D01*
X213749039Y-116790304D01*
X213705869Y-116767892D01*
X213667685Y-116751816D01*
X213667189Y-116751644D01*
X213608403Y-116738365D01*
X213537880Y-116732682D01*
X213466264Y-116734865D01*
X213404197Y-116745181D01*
X213361647Y-116760394D01*
X213288977Y-116803334D01*
X213221718Y-116863790D01*
X213163872Y-116937874D01*
X213119445Y-117021698D01*
X213101294Y-117068059D01*
X213085965Y-117115705D01*
X213074560Y-117164768D01*
X213066687Y-117218946D01*
X213061960Y-117281935D01*
X213059989Y-117357431D01*
X212876072Y-117357431D01*
X212877618Y-117289588D01*
X212882344Y-117224784D01*
X212907341Y-117086240D01*
X212949031Y-116959684D01*
X213006172Y-116847801D01*
X213077690Y-116751789D01*
X213162512Y-116672848D01*
X213259565Y-116612176D01*
X213367774Y-116570972D01*
X213486067Y-116550435D01*
X213532274Y-116549293D01*
X213624977Y-116558751D01*
X213718463Y-116581392D01*
X213802244Y-116615070D01*
X213816304Y-116622104D01*
X213842936Y-116634529D01*
X213856414Y-116639449D01*
X213858612Y-116635913D01*
X213861618Y-116615130D01*
X213862797Y-116581919D01*
X213865186Y-116548399D01*
X213880880Y-116501415D01*
X213910296Y-116472153D01*
X213952343Y-116462075D01*
X213957845Y-116462219D01*
X213999797Y-116474228D01*
X214029317Y-116502308D01*
X214041318Y-116541893D01*
X214041615Y-116551871D01*
X214042422Y-116586665D01*
X214043357Y-116634354D01*
X214044274Y-116687672D01*
X214045167Y-116727320D01*
X214047716Y-116769153D01*
X214052930Y-116797930D01*
X214062130Y-116819920D01*
X214076637Y-116841396D01*
X214099904Y-116873386D01*
X214147779Y-116951625D01*
X214175215Y-117020311D01*
X214182559Y-117080527D01*
X214170158Y-117133353D01*
X214148494Y-117170360D01*
X214120779Y-117189814D01*
X214080592Y-117195222D01*
X214051996Y-117195222D01*
X214051996Y-117509360D01*
X214051791Y-117573496D01*
X214050796Y-117658635D01*
X214049062Y-117731127D01*
X214046683Y-117788222D01*
X214043755Y-117827168D01*
X214040373Y-117845218D01*
X214038176Y-117849745D01*
X214037480Y-117857865D01*
X214038972Y-117858868D01*
X214045824Y-117863473D01*
G37*
D15*
%TO.C,J9*%
X153971000Y-132793000D02*
X153971000Y-133653000D01*
X153971000Y-133653000D02*
X159971000Y-133653000D01*
X153971000Y-135333000D02*
X153971000Y-136193000D01*
X153971000Y-136193000D02*
X159971000Y-136193000D01*
X159971000Y-129303000D02*
X162731000Y-129303000D01*
X159971000Y-132793000D02*
X153971000Y-132793000D01*
X159971000Y-135333000D02*
X153971000Y-135333000D01*
X159971000Y-137143000D02*
X159971000Y-129303000D01*
X162731000Y-129303000D02*
X162731000Y-137143000D01*
X162731000Y-131953000D02*
X159971000Y-131953000D01*
X162731000Y-134493000D02*
X159971000Y-134493000D01*
X162731000Y-137143000D02*
X159971000Y-137143000D01*
X162961000Y-130253000D02*
X162731000Y-130253000D01*
X162961000Y-131113000D02*
X162731000Y-131113000D01*
X163043642Y-132793000D02*
X162731000Y-132793000D01*
X163043642Y-133653000D02*
X162731000Y-133653000D01*
X163043642Y-135333000D02*
X162731000Y-135333000D01*
X163043642Y-136193000D02*
X162731000Y-136193000D01*
X165391000Y-129413000D02*
X164121000Y-129413000D01*
X165391000Y-130683000D02*
X165391000Y-129413000D01*
X159971000Y-130253000D02*
X153971000Y-130253000D01*
X153971000Y-131113000D01*
X159971000Y-131113000D01*
X159971000Y-130253000D01*
G36*
X159971000Y-130253000D02*
G01*
X153971000Y-130253000D01*
X153971000Y-131113000D01*
X159971000Y-131113000D01*
X159971000Y-130253000D01*
G37*
%TD*%
M02*
