%TF.GenerationSoftware,KiCad,Pcbnew,9.99.0-unknown-3f25b36ff1~182~ubuntu22.04.1*%
%TF.CreationDate,2025-05-20T22:32:57+09:00*%
%TF.ProjectId,TurtlePico-Leatherback,54757274-6c65-4506-9963-6f2d4c656174,rev?*%
%TF.SameCoordinates,Original*%
%TF.FileFunction,Soldermask,Bot*%
%TF.FilePolarity,Negative*%
%FSLAX46Y46*%
G04 Gerber Fmt 4.6, Leading zero omitted, Abs format (unit mm)*
G04 Created by KiCad (PCBNEW 9.99.0-unknown-3f25b36ff1~182~ubuntu22.04.1) date 2025-05-20 22:32:57*
%MOMM*%
%LPD*%
G01*
G04 APERTURE LIST*
G04 Aperture macros list*
%AMRoundRect*
0 Rectangle with rounded corners*
0 $1 Rounding radius*
0 $2 $3 $4 $5 $6 $7 $8 $9 X,Y pos of 4 corners*
0 Add a 4 corners polygon primitive as box body*
4,1,4,$2,$3,$4,$5,$6,$7,$8,$9,$2,$3,0*
0 Add four circle primitives for the rounded corners*
1,1,$1+$1,$2,$3*
1,1,$1+$1,$4,$5*
1,1,$1+$1,$6,$7*
1,1,$1+$1,$8,$9*
0 Add four rect primitives between the rounded corners*
20,1,$1+$1,$2,$3,$4,$5,0*
20,1,$1+$1,$4,$5,$6,$7,0*
20,1,$1+$1,$6,$7,$8,$9,0*
20,1,$1+$1,$8,$9,$2,$3,0*%
G04 Aperture macros list end*
%ADD10RoundRect,0.030000X1.750000X-1.750000X1.750000X1.750000X-1.750000X1.750000X-1.750000X-1.750000X0*%
%ADD11RoundRect,0.765000X1.015000X-0.765000X1.015000X0.765000X-1.015000X0.765000X-1.015000X-0.765000X0*%
%ADD12RoundRect,0.890000X0.890000X-0.890000X0.890000X0.890000X-0.890000X0.890000X-0.890000X-0.890000X0*%
%ADD13RoundRect,0.030000X-0.850000X-0.850000X0.850000X-0.850000X0.850000X0.850000X-0.850000X0.850000X0*%
%ADD14C,1.760000*%
%ADD15RoundRect,0.030000X-1.000000X-1.000000X1.000000X-1.000000X1.000000X1.000000X-1.000000X1.000000X0*%
%ADD16C,5.660000*%
%ADD17RoundRect,0.030000X0.850000X-0.850000X0.850000X0.850000X-0.850000X0.850000X-0.850000X-0.850000X0*%
%ADD18C,1.810000*%
%ADD19RoundRect,0.259375X0.570625X0.570625X-0.570625X0.570625X-0.570625X-0.570625X0.570625X-0.570625X0*%
%ADD20C,1.660000*%
%ADD21RoundRect,0.030000X-0.850000X0.850000X-0.850000X-0.850000X0.850000X-0.850000X0.850000X0.850000X0*%
%ADD22RoundRect,0.030000X0.850000X0.850000X-0.850000X0.850000X-0.850000X-0.850000X0.850000X-0.850000X0*%
%ADD23C,0.710000*%
%ADD24O,2.160000X1.060000*%
%ADD25O,1.860000X1.060000*%
%ADD26C,0.660000*%
%ADD27C,1.060000*%
%ADD28C,2.764000*%
G04 APERTURE END LIST*
D10*
%TO.C,J3*%
X194945000Y-137414000D03*
D11*
X194945000Y-143414000D03*
D12*
X199645000Y-140414000D03*
%TD*%
D13*
%TO.C,J4*%
X178663200Y-135021000D03*
D14*
X178663200Y-137561000D03*
%TD*%
D15*
%TO.C,TP4*%
X168365000Y-117221000D03*
%TD*%
D16*
%TO.C,REF3*%
X214219000Y-142943550D03*
%TD*%
D13*
%TO.C,J5*%
X187604000Y-135021000D03*
D14*
X187604000Y-137561000D03*
%TD*%
D17*
%TO.C,JP1*%
X193471800Y-123672600D03*
D14*
X196011800Y-123672600D03*
X198551800Y-123672600D03*
%TD*%
D18*
%TO.C,RV1*%
X192557400Y-88366600D03*
X190017400Y-90906600D03*
X187477400Y-88366600D03*
%TD*%
D17*
%TO.C,J11*%
X202281000Y-135763000D03*
D14*
X204821000Y-135763000D03*
%TD*%
D16*
%TO.C,REF1*%
X158339000Y-81221550D03*
%TD*%
D19*
%TO.C,SW5*%
X184373600Y-130225800D03*
D20*
X184373600Y-127685800D03*
X184373600Y-125145800D03*
X184373600Y-122605800D03*
X176753600Y-122605800D03*
X176753600Y-125145800D03*
X176753600Y-127685800D03*
X176753600Y-130225800D03*
%TD*%
D21*
%TO.C,J12*%
X169896000Y-135763000D03*
D14*
X167356000Y-135763000D03*
%TD*%
D16*
%TO.C,REF2*%
X214219000Y-81221550D03*
%TD*%
D15*
%TO.C,TP5*%
X168365000Y-120269000D03*
%TD*%
D22*
%TO.C,J14*%
X175006000Y-140081000D03*
D14*
X175006000Y-137541000D03*
X175006000Y-135001000D03*
%TD*%
D15*
%TO.C,TP3*%
X168365000Y-114173000D03*
%TD*%
%TO.C,TP2*%
X168365000Y-111125000D03*
%TD*%
%TO.C,TP7*%
X168365000Y-126365000D03*
%TD*%
D23*
%TO.C,J2*%
X212294500Y-92241250D03*
X212294500Y-86461250D03*
D24*
X211794500Y-93671250D03*
D25*
X215974500Y-93671250D03*
D24*
X211794500Y-85031250D03*
D25*
X215974500Y-85031250D03*
%TD*%
D26*
%TO.C,U1*%
X185018667Y-105673667D03*
X185018667Y-106807000D03*
X185018667Y-107940333D03*
X186152000Y-105673667D03*
X186152000Y-106807000D03*
X186152000Y-107940333D03*
X187285333Y-105673667D03*
X187285333Y-106807000D03*
X187285333Y-107940333D03*
%TD*%
D16*
%TO.C,REF4*%
X158339000Y-142943550D03*
%TD*%
D15*
%TO.C,TP6*%
X168365000Y-123317000D03*
%TD*%
%TO.C,TP1*%
X160401000Y-127635000D03*
%TD*%
D13*
%TO.C,J16*%
X173960000Y-98435000D03*
D14*
X173960000Y-100975000D03*
X173960000Y-103515000D03*
X173960000Y-106055000D03*
X173960000Y-108595000D03*
X173960000Y-111135000D03*
X173960000Y-113675000D03*
X173960000Y-116215000D03*
X173960000Y-118755000D03*
X173960000Y-121295000D03*
X173960000Y-123835000D03*
X173960000Y-126375000D03*
X173960000Y-128915000D03*
X173960000Y-131455000D03*
%TD*%
D22*
%TO.C,J17*%
X195941000Y-118999000D03*
D14*
X198481000Y-118999000D03*
X195941000Y-116459000D03*
X198481000Y-116459000D03*
X195941000Y-113919000D03*
X198481000Y-113919000D03*
X195941000Y-111379000D03*
X198481000Y-111379000D03*
X195941000Y-108839000D03*
X198481000Y-108839000D03*
X195941000Y-106299000D03*
X198481000Y-106299000D03*
X195941000Y-103759000D03*
X198481000Y-103759000D03*
X195941000Y-101219000D03*
X198481000Y-101219000D03*
X195941000Y-98679000D03*
X198481000Y-98679000D03*
%TD*%
D27*
%TO.C,J10*%
X216004000Y-108331000D03*
X208504000Y-108331000D03*
D28*
X206604000Y-111081000D03*
X211904000Y-106831000D03*
X206604000Y-105581000D03*
%TD*%
D21*
%TO.C,J13*%
X190079000Y-80416000D03*
D14*
X187539000Y-80416000D03*
X184999000Y-80416000D03*
X182459000Y-80416000D03*
%TD*%
D13*
%TO.C,J8*%
X208243000Y-135763000D03*
D14*
X208243000Y-133223000D03*
X208243000Y-130683000D03*
%TD*%
D13*
%TO.C,J6*%
X208183000Y-101867000D03*
D14*
X208183000Y-99327000D03*
X208183000Y-96787000D03*
%TD*%
D22*
%TO.C,J7*%
X164308000Y-96647000D03*
D14*
X164308000Y-99187000D03*
X164308000Y-101727000D03*
%TD*%
D22*
%TO.C,J15*%
X165481000Y-106807000D03*
D14*
X165481000Y-109347000D03*
X165481000Y-111887000D03*
X165481000Y-114427000D03*
X165481000Y-116967000D03*
X165481000Y-119507000D03*
X165481000Y-122047000D03*
X165481000Y-124587000D03*
%TD*%
D22*
%TO.C,J9*%
X164121000Y-130683000D03*
D14*
X164121000Y-133223000D03*
X164121000Y-135763000D03*
%TD*%
M02*
