M48
; DRILL file {KiCad 9.99.0-unknown-3f25b36ff1~182~ubuntu22.04.1} date 2025-05-20T22:33:03+0900
; FORMAT={-:-/ absolute / metric / decimal}
; #@! TF.CreationDate,2025-05-20T22:33:03+09:00
; #@! TF.GenerationSoftware,Kicad,Pcbnew,9.99.0-unknown-3f25b36ff1~182~ubuntu22.04.1
; #@! TF.FileFunction,Plated,1,2,PTH
FMAT,2
METRIC
; #@! TA.AperFunction,Plated,PTH,ComponentDrill
T1C0.250
; #@! TA.AperFunction,Plated,PTH,ComponentDrill
T2C0.300
; #@! TA.AperFunction,Plated,PTH,ViaDrill
T3C0.350
; #@! TA.AperFunction,Plated,PTH,ComponentDrill
T4C0.600
; #@! TA.AperFunction,Plated,PTH,ComponentDrill
T5C0.700
; #@! TA.AperFunction,Plated,PTH,ComponentDrill
T6C0.800
; #@! TA.AperFunction,Plated,PTH,ComponentDrill
T7C1.000
; #@! TA.AperFunction,Plated,PTH,ComponentDrill
T8C1.803
; #@! TA.AperFunction,Plated,PTH,ComponentDrill
T9C3.200
%
G90
G05
T1
X185.019Y-105.674
X185.019Y-106.807
X185.019Y-107.94
X186.152Y-105.674
X186.152Y-106.807
X186.152Y-107.94
X187.285Y-105.674
X187.285Y-106.807
X187.285Y-107.94
T2
X183.023Y-134.747
X184.023Y-134.747
X185.023Y-134.747
T3
X156.083Y-117.094
X157.099Y-110.363
X157.226Y-104.775
X157.607Y-107.823
X157.988Y-113.665
X159.258Y-118.491
X159.268Y-115.693
X159.639Y-85.979
X159.639Y-96.393
X161.671Y-95.758
X162.306Y-87.249
X162.306Y-103.632
X162.543Y-111.633
X162.941Y-90.551
X163.068Y-104.345
X163.068Y-112.355
X163.449Y-94.107
X163.703Y-115.697
X164.211Y-87.249
X165.1Y-79.629
X165.354Y-140.716
X165.565Y-93.091
X166.624Y-89.662
X166.751Y-87.122
X166.751Y-90.551
X167.056Y-130.429
X167.386Y-87.122
X167.386Y-90.551
X169.037Y-91.821
X169.189Y-133.172
X170.688Y-93.599
X171.196Y-137.287
X172.339Y-89.408
X172.466Y-88.646
X172.974Y-91.059
X174.784Y-99.899
X176.809Y-115.189
X177.521Y-105.949
X177.521Y-106.699
X177.635Y-109.569
X177.635Y-112.141
X177.635Y-114.668
X177.635Y-117.783
X177.673Y-96.52
X177.927Y-103.996
X180.01Y-113.106
X180.213Y-99.695
X180.489Y-101.567
X180.995Y-114.49
X181.178Y-102.387
X181.239Y-101.584
X181.75Y-120.015
X181.75Y-121.133
X181.75Y-121.883
X182.245Y-141.605
X182.312Y-120.608
X182.349Y-102.751
X182.753Y-90.551
X182.804Y-136.906
X183.109Y-136.373
X183.413Y-117.932
X183.566Y-137.236
X183.566Y-137.897
X183.871Y-106.705
X183.871Y-115.646
X184.379Y-136.779
X184.582Y-137.389
X185.039Y-98.171
X185.674Y-121.959
X186.106Y-133.172
X186.159Y-122.957
X186.181Y-124.456
X186.182Y-123.706
X186.436Y-122.26
X186.614Y-108.991
X186.627Y-113.665
X186.945Y-114.678
X187.283Y-116.053
X187.633Y-114.379
X188.214Y-99.441
X188.214Y-104.648
X188.29Y-119.507
X188.443Y-105.588
X189.288Y-121.667
X189.459Y-127.635
X189.574Y-93.562
X189.628Y-120.406
X189.814Y-121.133
X189.865Y-123.482
X189.865Y-124.232
X189.992Y-118.364
X190.119Y-94.361
X190.247Y-107.556
X190.322Y-115.9
X190.373Y-112.852
X190.373Y-113.602
X190.373Y-114.352
X190.373Y-115.102
X190.627Y-100.584
X190.739Y-118.3
X190.857Y-122.192
X191.186Y-130.988
X191.489Y-126.503
X191.516Y-125.73
X192.354Y-94.818
X192.47Y-127.768
X192.557Y-130.988
X192.783Y-118.359
X193.223Y-113.092
X193.294Y-101.473
X193.726Y-105.584
X193.726Y-121.133
X193.823Y-120.389
X194.031Y-108.128
X194.252Y-121.667
X194.437Y-92.837
X194.843Y-92.38
X195.25Y-91.923
X195.656Y-91.465
X195.834Y-81.788
X196.266Y-91.465
X196.469Y-81.788
X196.875Y-91.465
X197.104Y-81.788
X197.333Y-122.192
X197.739Y-81.788
X197.973Y-112.669
X198.12Y-87.961
X198.374Y-81.788
X198.882Y-137.922
X198.897Y-87.961
X199.009Y-81.788
X199.314Y-120.218
X199.377Y-117.401
X200.66Y-133.223
X202.565Y-126.619
X203.581Y-130.7
X203.868Y-116.459
X203.962Y-91.821
X203.962Y-108.839
X203.987Y-119.609
X204.47Y-81.026
X204.487Y-106.807
X204.597Y-109.982
X204.661Y-129.65
X204.697Y-91.674
X204.724Y-116.459
X205.222Y-104.14
X206.121Y-129.286
X206.743Y-86.995
X206.841Y-135.103
X207.645Y-81.026
X207.793Y-87.122
X209.296Y-82.169
X209.804Y-88.773
X209.804Y-89.789
X210.185Y-86.868
X210.185Y-91.821
X210.82Y-129.794
X210.947Y-126.238
X212.725Y-87.249
X212.725Y-91.44
X215.011Y-114.046
X216.027Y-129.413
T5
X187.477Y-88.367
X190.017Y-90.907
X192.557Y-88.367
T6
X176.754Y-122.606
X176.754Y-125.146
X176.754Y-127.686
X176.754Y-130.226
X184.374Y-122.606
X184.374Y-125.146
X184.374Y-127.686
X184.374Y-130.226
T7
X160.401Y-127.635
X164.121Y-130.683
X164.121Y-133.223
X164.121Y-135.763
X164.308Y-96.647
X164.308Y-99.187
X164.308Y-101.727
X165.481Y-106.807
X165.481Y-109.347
X165.481Y-111.887
X165.481Y-114.427
X165.481Y-116.967
X165.481Y-119.507
X165.481Y-122.047
X165.481Y-124.587
X167.356Y-135.763
X168.365Y-111.125
X168.365Y-114.173
X168.365Y-117.221
X168.365Y-120.269
X168.365Y-123.317
X168.365Y-126.365
X169.896Y-135.763
X173.96Y-98.435
X173.96Y-100.975
X173.96Y-103.515
X173.96Y-106.055
X173.96Y-108.595
X173.96Y-111.135
X173.96Y-113.675
X173.96Y-116.215
X173.96Y-118.755
X173.96Y-121.295
X173.96Y-123.835
X173.96Y-126.375
X173.96Y-128.915
X173.96Y-131.455
X175.006Y-135.001
X175.006Y-137.541
X175.006Y-140.081
X178.663Y-135.021
X178.663Y-137.561
X182.459Y-80.416
X184.999Y-80.416
X187.539Y-80.416
X187.604Y-135.021
X187.604Y-137.561
X190.079Y-80.416
X193.472Y-123.673
X195.941Y-98.679
X195.941Y-101.219
X195.941Y-103.759
X195.941Y-106.299
X195.941Y-108.839
X195.941Y-111.379
X195.941Y-113.919
X195.941Y-116.459
X195.941Y-118.999
X196.012Y-123.673
X198.481Y-98.679
X198.481Y-101.219
X198.481Y-103.759
X198.481Y-106.299
X198.481Y-108.839
X198.481Y-111.379
X198.481Y-113.919
X198.481Y-116.459
X198.481Y-118.999
X198.552Y-123.673
X202.281Y-135.763
X204.821Y-135.763
X208.183Y-96.787
X208.183Y-99.327
X208.183Y-101.867
X208.243Y-130.683
X208.243Y-133.223
X208.243Y-135.763
T8
X206.604Y-105.581
X206.604Y-111.081
X211.904Y-106.831
T9
X158.339Y-81.222
X158.339Y-142.944
X214.219Y-81.222
X214.219Y-142.944
T4
G00X211.244Y-85.031
M15
G01X212.344Y-85.031
M16
G05
G00X211.244Y-93.671
M15
G01X212.344Y-93.671
M16
G05
G00X215.575Y-85.031
M15
G01X216.374Y-85.031
M16
G05
G00X215.575Y-93.671
M15
G01X216.374Y-93.671
M16
G05
T7
G00X193.945Y-137.414
M15
G01X195.945Y-137.414
M16
G05
G00X193.945Y-143.414
M15
G01X195.945Y-143.414
M16
G05
G00X199.645Y-141.414
M15
G01X199.645Y-139.414
M16
G05
M30
